<svg width="1011" height="456" viewBox="0 0 1011 456" fill="none" xmlns="http://www.w3.org/2000/svg">
<path fill-rule="evenodd" clip-rule="evenodd" d="M0.759207 4.28061C1.01673 8.29575 1.04955 8.33247 10.6958 15.1983C39.6865 35.8326 105.489 81.3762 107.472 82.1792C110.07 83.2316 88.5832 65.0499 50.2501 33.7588C4.62964 -3.48007 9.6867 0.251938 4.84761 0.251938H0.5L0.759207 4.28061ZM114.284 1.80485C115.206 3.07848 176.746 59.8838 188.811 70.5976C193.283 74.5683 194.315 74.5558 191.162 70.5686C188.243 66.8782 188.954 67.4947 202.086 80.0494C243.596 119.733 277.998 152.146 285.002 158.171C288.998 161.609 281.511 153.033 251.158 119.409C207.345 70.8759 154.177 13.053 144.396 3.29977L141.339 0.251938H127.251C114.408 0.251938 113.262 0.389158 114.284 1.80485ZM223.275 2.40784C227.552 8.15757 252.46 38.9055 252.841 38.9055C253.081 38.9055 252.915 38.3625 252.473 37.6976C252.03 37.0337 246.264 28.3367 239.657 18.3708C228.042 0.850101 227.548 0.251938 224.659 0.251938H221.672L223.275 2.40784ZM251.077 1.45986C252.072 3.37032 283.734 48.7226 301.675 73.9354C316.281 94.4624 320.143 99.5415 318.209 95.678C317.539 94.3396 299.892 64.3348 292.208 51.468C289.511 46.9503 284.838 39.123 281.826 34.0738C278.813 29.0247 272.969 19.3488 268.836 12.5728L261.323 0.251938H255.885C251.76 0.251938 250.599 0.543772 251.077 1.45986ZM307.774 1.14097C307.774 2.34503 344.421 68.7626 346.201 70.7841C347.388 72.1312 340.922 57.6139 321.028 14.2639L314.82 0.735108L311.297 0.438441C309.264 0.266433 307.774 0.564065 307.774 1.14097ZM356.586 1.03757C356.586 3.22247 388.651 92.2794 389.207 91.6397C389.56 91.2338 386.537 79.7199 378.28 50.0185C375.03 38.3257 371.13 24.193 369.615 18.6124C364.527 -0.127834 364.98 0.777627 360.503 0.440374C358.349 0.278995 356.586 0.546671 356.586 1.03757ZM422.229 1.72367C422.229 3.37708 426.303 26.2967 430.642 49.0521C432.061 56.4929 434.318 68.4514 435.657 75.6265C440.963 104.05 451.946 165.41 452.804 167.699C453.686 170.055 453.7 170.043 453.324 167.216C453.111 165.621 452.171 157.794 451.236 149.822C447.58 118.696 439.774 62.1509 438.6 52.9175C437.924 47.6026 436.397 35.2093 435.206 25.3768C431.938 -1.59184 432.719 0.788256 427.033 0.445206C423.058 0.205553 422.229 0.425879 422.229 1.72367ZM450.407 5.80839C450.737 8.86396 451.883 17.4528 452.953 24.8936C454.025 32.3344 458.54 72.5632 458.867 75.6265C459.194 78.6898 459.847 81.4709 460.32 81.8062C460.875 82.1995 461.006 81.2506 460.691 79.1362C460.421 77.3321 456.406 35.3059 455.89 24.4104C454.732 0.00455251 454.772 0.251938 451.992 0.251938C449.823 0.251938 449.812 0.294457 450.407 5.80839ZM491.835 0.976693C491.15 2.42137 494.504 107.363 495.426 113.314L496.099 117.662L496.194 113.246C496.246 110.817 497.021 91.2483 497.916 69.7608C498.812 48.2723 499.799 23.8432 500.109 15.4718L500.673 0.251938H496.426C494.091 0.251938 492.025 0.577594 491.835 0.976693ZM536.665 2.90937C536.655 4.37145 536.107 12.5245 535.446 21.0283C532.888 53.9582 530.919 81.3056 530.507 89.6384L530.076 98.3355L531.59 89.1552C534.312 72.6521 544.258 4.499 544.258 2.34986C544.258 0.508018 543.796 0.251938 540.471 0.251938C536.905 0.251938 536.683 0.407518 536.665 2.90937ZM598.5 1.29172C597.954 2.30638 596.678 7.73238 583.405 65.4799C574.403 104.646 564.448 150.167 564.498 151.934C564.572 154.505 586.415 82.3145 602.353 26.8263C606.169 13.5391 609.47 2.1247 609.687 1.45986C610.192 -0.0862816 599.33 -0.250559 598.5 1.29172ZM637.42 12.0896C633.952 22.7541 614.217 84.9111 612.799 89.6384L612.219 91.5711L613.458 89.6384C614.562 87.9164 647.599 6.13598 648.884 1.94303C649.332 0.483859 648.846 0.251938 645.337 0.251938H641.271L637.42 12.0896ZM673.067 2.4262C672.654 3.62253 669.064 13.4763 665.089 24.3254C661.115 35.1735 657.996 44.203 658.159 44.3895C658.555 44.8437 678.069 2.59241 678.069 1.28012C678.069 -0.783013 673.843 0.184294 673.067 2.4262ZM752.081 3.91243C750.897 5.8857 746.952 12.5003 743.314 18.6124C739.676 24.7245 735.124 32.3344 733.198 35.5234C721.646 54.654 703.084 86.1441 686.49 114.763C665.493 150.978 666.026 150.035 666.583 150.035C667.807 150.035 764.716 8.67263 768.437 1.45986C768.916 0.529277 767.354 0.260635 761.646 0.288658L754.232 0.325379L752.081 3.91243ZM780.306 13.0559C770.724 26.3847 752.263 52.6382 747.179 60.165C745.477 62.6862 748.044 60.2491 753.289 54.367C763.524 42.8898 797.005 2.52864 797.433 1.15257C797.588 0.656834 795.868 0.251938 793.612 0.251938H789.509L780.306 13.0559ZM851.843 29.419C805.385 76.7957 746.711 138.093 732.783 153.8C728.566 158.557 728.078 159.353 730.668 157.253C750.642 141.059 900.082 4.0999 900.948 1.19315C901.12 0.616248 897.212 0.251938 890.837 0.251938H880.444L851.843 29.419ZM895.865 21.6834C855.667 60.6153 841.921 74.6785 852.698 65.8471C855.012 63.9511 865.048 55.7276 874.999 47.5746C901.3 26.0252 929.578 2.23197 930.148 1.17093C930.444 0.62108 928.102 0.251938 924.319 0.251938H917.994L895.865 21.6834ZM973.029 25.9885C926.44 61.6223 877.924 99.7511 840.705 129.978C826.303 141.676 822.749 144.9 827.24 142.2C834.167 138.032 892.126 99.2631 909.083 87.4545C915.564 82.9417 925.221 76.328 930.544 72.7564C940.063 66.3689 965.919 48.3892 992.4 29.7417C999.806 24.5274 1006.9 19.5633 1008.17 18.7119C1010.41 17.2102 1010.48 16.9039 1010.49 8.70741C1010.49 0.562133 1010.42 0.251938 1008.59 0.251938C1007.49 0.251938 992.306 11.245 973.029 25.9885ZM0.596782 87.0844V95.6442L25.213 109.248C89.7825 144.934 173.896 189.374 171.438 186.504C169.105 183.78 2.93133 78.5255 0.964553 78.5255C0.761732 78.5255 0.596782 82.3773 0.596782 87.0844ZM1002.5 98.8544C998.796 100.937 979.292 111.814 959.157 123.025C925.473 141.781 851.238 184.623 826.188 199.763C820.402 203.261 808.851 210.075 800.519 214.907C792.188 219.739 783.477 224.876 781.163 226.323C778.849 227.77 772.121 231.919 766.213 235.544C755.532 242.096 752.703 244.493 759.783 240.995C761.822 239.987 766.709 237.622 770.643 235.738C790.161 226.395 850.113 196.971 866.584 188.653C917.158 163.109 961.838 140.06 1003.97 117.778L1010.49 114.328V104.641C1010.49 99.3124 1010.21 94.9794 1009.86 95.0103C1009.52 95.0412 1006.2 96.771 1002.5 98.8544ZM0.777722 118.399L1.01757 128.276L19.5324 137.766C95.1972 176.553 252.11 251.959 253.599 250.25C254.225 249.531 122.791 174.529 83.9133 153.42C75.8131 149.022 63.8837 142.511 57.4035 138.952C50.9233 135.392 43.5385 131.374 40.9927 130.022C38.4469 128.67 29.9259 124.084 22.0571 119.83C14.1883 115.577 6.12765 111.292 4.14405 110.309L0.537871 108.522L0.777722 118.399ZM978.645 135.681C961.822 145.247 948.203 153.239 948.379 153.442C948.757 153.877 954.604 151.434 973.464 142.964C981.102 139.533 992.558 134.399 998.922 131.555L1010.49 126.383V122.264C1010.49 119.999 1010.21 118.177 1009.86 118.217C1009.52 118.257 995.467 126.115 978.645 135.681ZM0.754157 160.906L1.01757 164.047L24.161 172.949C57.5912 185.807 57.2428 185.12 21.3014 167.313C10.7025 162.062 1.6841 157.765 1.26079 157.765C0.836632 157.765 0.608564 159.179 0.754157 160.906ZM1006.29 201.251C1005.13 201.698 989.412 207.575 971.36 214.313C940.993 225.645 890.718 244.945 862.881 255.956C856.446 258.501 851.536 260.719 851.969 260.884C853.341 261.41 973.107 226.562 1002.71 217.024L1010.49 214.516V207.4C1010.49 199.868 1010.36 199.675 1006.29 201.251ZM0.596782 250.076C0.596782 255.987 0.842524 257.255 2.06955 257.692C3.94796 258.359 54.2392 269.604 86.8588 276.649C132.421 286.49 158.622 291.662 159.25 290.943C159.831 290.274 113.766 275.944 66.6609 262.14C40.5407 254.485 4.23578 243.934 2.06955 243.369C0.770148 243.029 0.596782 243.82 0.596782 250.076ZM992.4 284.91C983.143 287.211 973.202 289.593 970.308 290.206C967.416 290.818 965.049 291.625 965.049 292C965.049 292.642 1007.19 287.68 1009.44 286.774C1010.55 286.327 1010.95 280.406 1009.86 280.608C1009.52 280.673 1001.66 282.609 992.4 284.91ZM0.596782 286.586C0.596782 288.771 0.949406 288.862 17.6388 291.003C27.0123 292.206 35.6276 293.433 36.7848 293.729C38.1978 294.092 38.6118 293.949 38.0471 293.294C37.5843 292.757 32.661 291.355 27.1066 290.178C21.5521 289.002 13.9779 287.213 10.275 286.205C1.46613 283.804 0.596782 283.838 0.596782 286.586ZM989.034 336.163C981.165 336.881 968.289 338.141 960.42 338.963C952.551 339.784 935.698 341.52 922.969 342.82C871.059 348.119 800.964 356.456 800.19 357.422C799.579 358.186 853.818 357.212 887.623 355.853C979.89 352.141 1008.52 350.891 1009.44 350.535C1010.17 350.255 1010.49 347.714 1010.49 342.366V334.606L1006.92 334.731C1004.95 334.801 996.902 335.445 989.034 336.163ZM0.596782 379.618V387.96L21.0051 387.35C88.845 385.324 125.036 384.042 159.235 382.454C164.789 382.197 175.583 381.75 183.22 381.461C190.857 381.171 199.378 380.657 202.155 380.317C206.609 379.772 206.891 379.622 204.543 379.035C203.079 378.669 193.99 378.076 184.345 377.718C174.701 377.359 152.607 376.444 135.25 375.684C103 374.27 58.6095 372.758 21.4259 371.807L0.596782 371.274V379.618ZM977.11 376.544C966.386 377.128 957.329 377.933 956.982 378.333C956.635 378.732 957.824 379.057 959.621 379.057C961.42 379.057 969.909 379.481 978.487 379.998C987.064 380.515 997.776 381.078 1002.29 381.25L1010.49 381.562V378.377V375.192L1003.55 375.336C999.733 375.415 987.833 375.958 977.11 376.544ZM841.757 437.505C843.608 438.21 853.455 440.55 863.638 442.706C873.821 444.862 891.621 448.64 903.192 451.102C928.901 456.57 943.928 459.609 979.355 466.5C994.399 469.427 1007.58 472.053 1008.64 472.335C1010.54 472.842 1010.56 472.734 1010.32 465.341L1010.07 457.832L1001.66 456.611C988.28 454.668 943.649 448.762 922.969 446.199C880.56 440.942 840.026 436.076 839.233 436.148C838.77 436.189 839.906 436.801 841.757 437.505ZM19.7427 460.967L0.596782 463.425V466.176C0.596782 467.689 0.69188 468.924 0.807177 468.92C0.922474 468.916 10.6284 466.758 22.3761 464.125C52.2816 457.421 51.8078 456.852 19.7427 460.967ZM206.363 463.58C174.921 470.913 152.795 476.189 143.245 478.631C137.227 480.17 126.055 482.961 118.418 484.835C103.268 488.55 91.1172 491.625 74.2351 496.018C68.2178 497.584 59.1287 499.941 54.0372 501.256C44.0072 503.847 24.0685 509.137 9.64378 513.036L0.596782 515.479V524.062C0.596782 530.508 0.858514 532.54 1.64876 532.225C2.22777 531.994 10.0856 529.591 19.1116 526.884C28.1375 524.178 39.6882 520.656 44.7798 519.059C69.9624 511.155 159.223 482.245 169.755 478.581C174.152 477.051 186.839 472.693 197.948 468.896C223.13 460.288 224.683 459.308 206.363 463.58ZM982.603 477.609C983.695 478.157 989.893 479.94 996.377 481.571C1002.86 483.202 1008.69 484.766 1009.33 485.048C1010.12 485.398 1010.49 484.816 1010.49 483.222C1010.49 480.948 1010.18 480.834 999.343 479.211C981.898 476.596 980.275 476.441 982.603 477.609ZM784.117 491.429C784.354 491.732 793.632 496.075 804.736 501.082C850.923 521.909 861.782 526.74 877.945 533.649C882.574 535.629 891.473 539.447 897.722 542.134C946.06 562.926 959.349 568.553 986.509 579.734C996.229 583.736 1005.6 587.6 1007.34 588.322L1010.49 589.633V580.552V571.47L981.67 560.73C965.816 554.823 950.763 549.18 948.217 548.19C935.283 543.159 871.469 520.429 838.391 509.07C791.659 493.023 783.217 490.278 784.117 491.429ZM264.432 523.925C261.655 525.996 251.809 533.316 242.551 540.193C200.201 571.649 138.515 619.192 74.6559 669.591C65.1822 677.069 36.47 700.179 15.5348 717.178L0.596782 729.307V740.314V751.32L2.91113 749.611C7.90086 745.924 56.8413 705.513 97.4215 671.57C112.009 659.369 188.348 593.771 203.418 580.487C250.082 539.355 271.253 520.111 269.795 520.152C269.623 520.156 267.21 521.854 264.432 523.925ZM149.136 530.774C146.821 531.769 133.188 537.001 118.839 542.4C93.2389 552.033 28.5196 577.279 10.275 584.749L1.01757 588.54L0.771831 595.893C0.636336 599.938 0.815593 603.248 1.1699 603.248C4.07588 603.248 155.448 530.609 155.448 529.215C155.448 528.463 153.249 529.006 149.136 530.774ZM710.891 571.888C710.891 574.251 797.182 681.519 851.354 746.496L872.895 772.335L883.38 772.346L893.864 772.358L890.112 767.922C873.48 748.261 785.15 650.497 749.186 611.945C717.672 578.162 710.891 571.07 710.891 571.888ZM767.698 573.047C769.453 575.187 806.219 604.505 850.173 638.813C899.981 677.692 1008.48 759.795 1010.05 759.795C1010.29 759.795 1010.49 755.099 1010.49 749.359V738.922L982.511 719.004C967.121 708.05 945.629 692.901 934.752 685.342C923.874 677.781 910.619 668.554 905.296 664.838C859.933 633.163 765.14 569.928 767.698 573.047ZM25.6372 607.412L0.604356 618.227L0.600148 621.818L0.596782 625.41L8.38141 621.227C12.6634 618.925 20.1257 614.918 24.9656 612.32C41.4395 603.477 53.199 596.63 51.9332 596.614C51.2389 596.606 39.4054 601.465 25.6372 607.412ZM421.896 620.884C420.129 626.409 410.917 659.352 403.183 687.803C399.716 700.559 395.402 716.431 393.596 723.074C391.791 729.718 388.065 743.416 385.317 753.514L380.321 771.875L385.805 772.162C388.821 772.321 391.467 772.248 391.682 772C392.072 771.554 395.897 754.044 401.105 728.872C402.59 721.697 404.896 710.609 406.23 704.231C409.7 687.646 416.866 652.491 420.118 636.104C421.647 628.397 423.167 620.896 423.496 619.434C424.419 615.336 423.365 616.29 421.896 620.884ZM277.477 639.698C242.922 683.493 177.852 767.929 176.175 771.15C175.689 772.084 177.415 772.347 183.801 772.31L192.056 772.262L204.68 753.755C237.834 705.147 261.52 670.083 277.3 646.25C286.802 631.9 294.941 619.616 295.387 618.951C295.833 618.287 295.867 617.764 295.463 617.788C295.06 617.812 286.966 627.671 277.477 639.698ZM362.33 625.084C353.812 638.514 334.916 674.814 301.337 742.253C293.305 758.383 286.734 771.754 286.734 771.968C286.734 772.183 290.075 772.358 294.156 772.358H301.579L309.639 754.722C333.783 701.894 362.145 635.975 364.941 626.19C366.595 620.398 365.575 619.966 362.33 625.084ZM557.731 624.588C557.734 626.936 558.125 633.857 558.599 639.969C559.072 646.081 560.387 665.432 561.521 682.971C562.654 700.51 564.533 727.036 565.697 741.918C566.859 756.8 567.813 769.737 567.816 770.667C567.821 772.103 568.646 772.358 573.293 772.358C576.301 772.358 578.763 772.196 578.763 771.999C578.763 770.554 569.91 702.458 566.624 678.623C559.858 629.561 558.673 621.411 558.222 620.893C557.948 620.578 557.727 622.241 557.731 624.588ZM615.01 626.195C614.978 626.858 617.167 634.033 619.876 642.14C629.812 671.878 638.001 696.048 645.334 717.276C649.464 729.235 655.396 746.504 658.514 755.654L664.183 772.289L670.285 772.323C673.64 772.342 676.386 772.189 676.386 771.982C676.386 771.559 662.38 737.511 646.328 698.916C639.599 682.736 624.759 647.565 619.01 634.171C616.842 629.122 615.043 625.533 615.01 626.195ZM920.475 640.343C922.245 642.268 1009.09 701.815 1010.13 701.815C1010.33 701.815 1010.49 699.174 1010.49 695.946V690.078L967.784 665.951C944.293 652.682 924.069 641.191 922.84 640.414C920.019 638.632 918.869 638.597 920.475 640.343ZM478.802 694.809C477.783 704.775 476.183 722.277 475.246 733.704C474.309 745.131 473.169 757.665 472.713 761.556C471.41 772.655 471.332 772.358 475.552 772.358H479.222L479.752 757.138C480.529 734.812 481.446 676.69 481.02 676.69C480.819 676.69 479.821 684.844 478.802 694.809ZM710.076 677.864C710.034 678.969 714.69 687.6 751.672 754.964C756.194 763.202 760.358 770.509 760.926 771.203C761.606 772.032 763.611 772.363 766.785 772.169L771.61 771.875L760.481 754.48C750.764 739.293 713.947 682.728 711.128 678.655C710.565 677.84 710.091 677.484 710.076 677.864ZM843.828 684.765C844.504 685.752 851.321 692.641 858.977 700.076C866.632 707.51 874.032 714.773 875.42 716.213C876.809 717.654 890.53 730.892 905.912 745.631L933.88 772.428L941.971 772.151L950.062 771.875L933.36 757.805C915.921 743.113 909.469 737.739 898.631 728.872C895.058 725.949 881.556 714.905 868.629 704.329C855.7 693.755 844.555 684.623 843.861 684.036C842.747 683.096 842.742 683.181 843.828 684.765ZM153.765 692.861C127.797 717.344 72.1312 771.256 72.1312 771.923C72.1312 772.161 75.0658 772.356 78.6534 772.353L85.1757 772.348L118.937 734.424C148.803 700.878 158.859 689.207 157.85 689.272C157.685 689.281 155.847 690.897 153.765 692.861ZM515.261 719.692C515.488 732.979 515.909 750.265 516.197 758.104L516.721 772.358H520.008C523.252 772.358 523.288 772.317 522.822 769.217C522.562 767.489 521.597 758.467 520.677 749.166C519.757 739.865 518.07 723.992 516.927 713.894L514.849 695.534L515.261 719.692ZM444.278 733.806C443.722 737.736 442.551 745.735 441.679 751.581C440.805 757.428 439.823 764.494 439.496 767.284C438.919 772.217 438.96 772.358 440.977 772.358C443.389 772.358 443.425 772.113 445.021 745.129C446.082 727.19 445.808 723.013 444.278 733.806ZM798.66 732.653C799.412 733.935 806.504 743.393 814.419 753.671C828.464 771.907 828.889 772.358 832.085 772.358H835.358L823.409 759.045C803.993 737.414 797.207 730.177 798.66 732.653ZM353.257 736.888C352.618 738.06 349.851 743.802 347.107 749.649C344.363 755.495 340.797 762.997 339.181 766.318L336.243 772.358H338.685C340.87 772.358 341.334 771.771 343.091 766.801C344.171 763.745 346.089 758.636 347.351 755.447C352.256 743.063 355.018 735.446 354.724 735.11C354.556 734.917 353.896 735.717 353.257 736.888ZM630.974 762.991C630.884 765.132 632.926 772.358 633.622 772.358C634.061 772.358 634.158 771.408 633.837 770.246C632.941 767.007 631.011 762.115 630.974 762.991ZM226.023 767.284C222.872 771.653 222.342 772.677 223.448 772.257C224.051 772.028 225.319 770.436 226.266 768.718C228.128 765.341 227.994 764.553 226.023 767.284Z" fill="#FBFBFB" fill-opacity="0.1"/>
</svg>
