<svg width="92" height="68" viewBox="0 0 92 68" fill="none" xmlns="http://www.w3.org/2000/svg">
<path d="M4.38978 13.7633C7.91978 9.81334 12.8698 4.12334 18.8498 6.18334C21.1998 6.99334 22.7998 8.89334 23.0598 11.3633C23.2098 12.7833 22.7898 15.7433 21.1098 16.2433L23.3798 16.9933C25.5298 10.8133 30.6498 5.72334 36.8598 3.62334C39.8098 2.62334 43.0598 2.32334 46.1298 2.93334C49.8898 3.67334 52.4098 6.19334 52.7798 10.0633C53.2098 14.6033 50.4398 18.6333 47.9998 22.1833L51.9598 21.9733C53.0098 18.3333 57.3698 16.9833 60.6298 16.0933C64.7098 14.9733 69.0998 14.7033 73.1798 15.9933C79.8398 18.0933 85.6298 24.9633 83.6798 32.2133C82.8298 35.3833 80.4198 38.9033 76.9098 39.3133L78.7098 40.2033C78.8898 38.5833 79.9998 37.8333 81.5598 38.1633C83.3198 38.5333 84.8398 40.0233 85.6798 41.5533C87.5798 45.0033 87.2198 49.6733 85.3098 53.0333C82.9398 57.2233 78.2598 59.3733 73.8098 60.5833C68.0598 62.1433 62.0198 62.8333 56.1298 63.5733C48.8098 64.4933 41.4598 65.1033 34.0898 65.5433C33.3898 65.5833 32.1598 66.0233 31.8998 66.7533C31.6398 67.4833 32.4098 67.8033 33.0498 67.7733C40.8998 67.4733 48.7398 66.7833 56.5398 65.7833C63.2998 64.9133 70.3198 64.1433 76.8098 61.9533C82.1798 60.1433 87.6498 57.0233 89.9898 51.6033C91.7898 47.4333 91.6898 41.8333 88.4498 38.3733C86.5398 36.3333 83.7998 35.4433 81.0498 35.7933C78.2998 36.1433 74.9098 37.6533 74.5698 40.7233C74.4698 41.6433 75.7498 41.6833 76.3698 41.6133C85.4498 40.5333 91.0898 30.5133 86.6898 22.3433C81.7098 13.1033 70.3098 11.4933 60.9698 13.8033C56.1998 14.9833 49.4098 17.1533 47.8898 22.4833C47.6598 23.2833 48.9298 23.4033 49.3998 23.3733C50.2498 23.3233 51.3398 23.0133 51.8498 22.2733C54.3398 18.6233 56.9698 14.6633 56.9498 10.0733C56.9298 5.48334 54.3698 2.38334 50.1898 1.10334C42.3098 -1.30666 33.1098 1.62334 26.9398 6.73334C23.5098 9.57334 20.8798 13.2833 19.4198 17.4933C19.0398 18.5833 21.2998 18.3633 21.6898 18.2433C24.7998 17.3133 27.0098 14.8833 27.1398 11.5633C27.2698 8.24334 25.2298 5.40334 22.0498 4.24334C18.3598 2.90334 14.0998 3.48334 10.6298 5.20334C6.59978 7.18334 3.60978 10.4233 0.699785 13.6833C0.0497848 14.4033 1.24978 14.8233 1.76978 14.8433C2.73978 14.8833 3.73978 14.4833 4.37978 13.7633H4.38978Z" fill="black"/>
</svg>
