<svg width="417" height="16" viewBox="0 0 417 16" fill="none" xmlns="http://www.w3.org/2000/svg">
<path d="M341.871 2.7311C342.833 2.25302 343.966 1.72748 344.39 1.56296C345.396 1.17218 348.323 1.38426 348.754 1.87931C348.939 2.09217 349.838 2.3051 350.751 2.35309C353.695 2.5072 354.625 3.12972 354.443 4.82284C354.297 6.19319 354.413 6.34107 355.41 6.05522C356.415 5.76708 356.428 5.79829 355.531 6.33187C354.974 6.66262 354.278 6.86106 353.985 6.77284C353.692 6.68437 353.493 6.88403 353.542 7.21638C353.65 7.93883 354.266 8.0118 355.544 7.45384C356.063 7.22726 357.009 7.09429 357.647 7.15851C359.034 7.2984 364.298 6.53065 364.309 6.1869C364.314 6.05413 364.727 5.96363 365.227 5.98609C365.728 6.00829 367.038 5.87834 368.14 5.6971C369.41 5.48784 370.303 5.48321 370.581 5.68378C370.855 5.88182 371.475 5.86741 372.234 5.64615C374.224 5.06594 379.87 4.54724 379.422 4.98549C379.161 5.24074 379.563 5.33728 380.732 5.30104C381.796 5.26795 382.968 5.50197 383.911 5.93569C385.132 6.49792 385.268 6.75684 384.658 7.36026C384.248 7.76584 384.093 8.22846 384.315 8.38842C384.536 8.54835 384.409 8.6647 384.032 8.64709C383.654 8.62946 383.167 8.90735 382.949 9.26431C382.731 9.62127 382.109 10.3218 381.569 10.821C380.516 11.7929 380.899 12.2741 382.468 11.9511C383.001 11.8418 383.894 11.7456 384.456 11.7374C385.017 11.7289 385.743 11.5627 386.069 11.3675C386.394 11.1725 386.89 11.1189 387.172 11.2484C387.452 11.3778 388.111 11.3602 388.635 11.2095C389.159 11.0586 390.492 10.9369 391.598 10.939C392.705 10.9414 393.736 10.8002 393.891 10.6255C394.046 10.4508 394.648 10.3302 395.229 10.3573C395.81 10.3845 397.1 10.2289 398.095 10.0118C399.09 9.79478 399.901 9.71956 399.897 9.84521C399.892 9.97056 400.469 9.89066 401.178 9.66702C402.488 9.25449 410.227 8.31863 410.665 8.52013C411.115 8.72725 409.954 9.5611 409.261 9.52871C408.879 9.5109 408.775 9.37244 409.028 9.22101C409.28 9.06958 409.14 8.92946 408.717 8.90968C408.293 8.8899 407.939 9.06957 407.931 9.30901C407.922 9.59321 407.499 9.65895 406.712 9.49843C406.018 9.35678 405.688 9.3826 405.933 9.55969C406.167 9.72852 406.015 10.0446 405.596 10.2622C404.974 10.5846 404.912 10.5654 405.26 10.1581C405.495 9.88353 405.37 9.64379 404.983 9.62571C404.595 9.60759 404.274 9.6968 404.27 9.82422C404.26 10.1194 399.838 10.5993 399.119 10.3829C398.822 10.2937 398.385 10.411 398.147 10.6438C397.592 11.1875 398.63 11.2286 401.427 10.7733C402.653 10.5738 403.802 10.477 403.979 10.5586C404.156 10.6402 402.985 10.9093 401.376 11.1565C399.264 11.4813 398.235 11.506 397.669 11.2454C397.104 10.9851 396.691 10.9988 396.185 11.2948C395.799 11.5205 395.468 11.5706 395.45 11.4065C395.431 11.2424 394.921 11.4857 394.316 11.9472C393.711 12.4086 393.383 12.5601 393.586 12.2841C393.79 12.008 393.638 11.7671 393.251 11.749C392.863 11.7309 392.541 11.866 392.535 12.0494C392.528 12.2607 391.738 12.2817 390.375 12.1068C389.193 11.9548 388.026 11.9505 387.781 12.0969C387.537 12.2434 387.893 12.3891 388.573 12.4209C389.838 12.48 391.715 13.3702 391.697 13.9025C391.691 14.0655 391.237 13.9306 390.686 13.603C390.135 13.2751 389.332 13.0785 388.902 13.1661C388.471 13.2535 388.123 13.1983 388.129 13.043C388.144 12.5775 386.075 12.3021 384.132 12.5111C382.321 12.7059 381.586 13.2818 383.06 13.3506C383.483 13.3704 383.655 13.26 383.44 13.1054C382.92 12.7297 385.555 12.5886 386.692 12.9311C387.735 13.2449 385.378 13.7557 383.329 13.66C382.32 13.6129 382.26 13.6893 382.992 14.0895C383.482 14.3572 383.76 14.5816 383.611 14.5879C383.462 14.5943 382.361 14.6186 381.165 14.6414C379.969 14.6645 378.734 14.8297 378.42 15.0082C378.037 15.2257 377.708 15.1059 377.422 14.6455C377.188 14.2674 376.707 13.9443 376.353 13.9278C376 13.9113 375.798 13.735 375.905 13.5358C376.012 13.3369 375.571 13.1842 374.924 13.1968C373.965 13.2155 373.779 12.9539 373.913 11.7735C374.039 10.6676 373.772 10.2345 372.781 9.93356C371.749 9.62029 371.481 9.63097 371.469 9.98718C371.456 10.3875 370.993 10.4668 369.536 10.3192C369.281 10.2933 368.798 10.4364 368.462 10.6374C368.127 10.8384 367.429 10.9969 366.911 10.9903C366.393 10.9833 365.396 10.9715 364.695 10.9637C363.995 10.9556 363.413 11.1644 363.404 11.4272C363.392 11.7899 362.863 11.8495 361.21 11.6732C359.852 11.5281 359.027 11.5709 359.02 11.7863C359.004 12.2492 355.643 12.6915 354.27 12.4113C353.668 12.2885 353.172 12.3134 353.166 12.4666C353.161 12.6201 352.666 12.7225 352.066 12.6945C351.465 12.6664 350.979 12.487 350.986 12.2959C350.992 12.1047 350.184 11.758 349.19 11.5258C347.705 11.1789 347.379 11.1815 347.367 11.5413C347.359 11.7825 347.844 12.0025 348.444 12.0305C349.044 12.0586 349.531 12.2149 349.526 12.3779C349.512 12.793 346.349 12.6008 345.307 12.1215C344.087 11.5599 344.252 11.2426 345.736 11.3015C346.845 11.3453 346.823 11.3004 345.565 10.9528C343.564 10.3999 343.558 10.396 344.109 10.0662C344.449 9.86213 345.025 9.8852 345.985 10.1407C347.103 10.439 347.291 10.4193 346.959 10.0388C346.662 9.69718 345.468 9.51707 342.625 9.38424C338.214 9.17821 337.529 9.19874 337.779 9.52889C337.874 9.65593 337.115 9.72049 336.091 9.67267C335.067 9.62485 334.413 9.71867 334.638 9.88114C335.572 10.5546 330.223 10.7508 328.523 10.1054C327.681 9.78558 327.57 9.83857 327.898 10.403C328.209 10.9366 327.989 11.0751 326.91 11.0247C326.148 10.9891 325.528 10.8307 325.533 10.6728C325.538 10.5151 325.102 10.4339 324.563 10.4927C323.42 10.6171 322.294 10.0727 321.293 8.91172C320.708 8.23378 320.77 8.12479 321.636 8.30146C322.216 8.41966 322.695 8.38445 322.7 8.22324C322.72 7.65308 319.052 7.45567 317.391 7.93724C315.827 8.39072 315.821 8.40975 317.226 8.4893C318.421 8.55703 318.486 8.61229 317.587 8.80032C316.777 8.96939 316.224 8.83165 315.461 8.27092L314.429 7.51337L313.592 8.1222C313.035 8.52803 312.192 8.67892 311.068 8.57448C309.279 8.40871 307.158 8.82784 307.723 9.23563C308.263 9.62534 304.259 9.64904 300.186 9.28011C297.642 9.0494 296.053 9.04671 295.273 9.27117C294.331 9.54239 294.016 9.52826 293.552 9.19316C293.152 8.90435 292.833 8.87317 292.475 9.08764C291.712 9.5447 289.792 9.35826 288.692 8.72008C287.781 8.19226 287.748 8.194 288.19 8.7483C288.538 9.18363 288.389 9.28621 287.633 9.13393C284.59 8.52164 283.341 8.38229 283.332 8.65344C283.326 8.8191 281.47 8.85942 279.138 8.74397C276.837 8.63054 272.987 8.5365 270.582 8.53547C268.177 8.53414 264.736 8.4666 262.935 8.38485C261.134 8.30339 259.221 8.36185 258.685 8.51488C258.093 8.68344 257.519 8.67472 257.228 8.49283C256.469 8.0193 251.207 7.8611 251.61 8.32364C252.017 8.79172 245.769 8.58357 245.109 8.10722C244.877 7.94029 244.205 7.85633 243.614 7.92077C243.011 7.98638 242.546 7.8697 242.554 7.65367C242.561 7.43734 241.844 7.54782 240.911 7.907C239.445 8.47101 239.229 8.48256 239.025 8.00734C238.833 7.56058 238.605 7.52532 237.661 7.79706C236.458 8.14389 233.443 8.16629 225.784 7.88572C223.182 7.79059 220.866 7.80355 220.64 7.91495C220.413 8.02605 216.887 8.03024 212.805 7.92386C206.359 7.75573 205.385 7.6687 205.399 7.26093C205.413 6.8339 205.309 6.82874 204.256 7.20368C203.014 7.64519 201.74 7.70264 201.753 7.3165C201.766 6.93985 197.203 6.87749 195.232 7.22739C193.877 7.46774 193.366 7.45602 193.157 7.17942C192.954 6.91052 192.427 6.91087 191.19 7.18103C189.918 7.45851 188.918 7.45426 187.15 7.16392C184.596 6.74484 183.242 6.83889 183.996 7.38374C184.301 7.60369 184.132 7.62547 183.529 7.44385C182.241 7.05631 179.085 6.78598 179.521 7.10049C180.067 7.49462 177.184 7.5627 176.343 7.17555C175.824 6.93672 175.303 6.91535 174.641 7.10587C174.117 7.25681 172.593 7.29839 171.253 7.19782C169.876 7.09462 168.666 7.16424 168.468 7.358C168.235 7.58691 167.473 7.59555 166.174 7.38351C164.773 7.15482 163.449 7.20281 161.438 7.55439C159.103 7.96267 158.546 7.96927 158.027 7.5951C157.505 7.21843 157.081 7.19472 155.341 7.44383C154.205 7.60652 151.963 7.74312 150.359 7.74688C148.756 7.75063 146.949 7.83631 146.345 7.93688C145.171 8.13225 138.715 8.27801 137.787 8.13019C137.482 8.08147 137.322 7.91999 137.433 7.77112C137.557 7.60508 137.136 7.58126 136.342 7.70977C135.631 7.82468 134.672 7.84547 134.211 7.75566C133.75 7.66586 133.154 7.72291 132.888 7.88236C132.173 8.31077 131.032 8.17499 131.05 7.6638C131.058 7.41931 130.573 7.19634 129.973 7.1683C129.373 7.14026 128.875 7.31735 128.867 7.56183C128.853 7.96812 127.397 8.10105 125.577 7.8623C123.072 7.53368 118.851 7.34836 117.813 7.5216C117.003 7.65652 116.47 7.59542 116.237 7.34054C116.013 7.09681 115.857 7.13046 115.81 7.43221C115.754 7.79968 115.072 7.8622 112.829 7.70579C111.229 7.59426 109.917 7.60866 109.912 7.73786C109.904 7.98383 106.522 7.6552 105.311 7.29056C104.894 7.16509 104.84 7.24656 105.179 7.49125C105.61 7.80256 105.275 7.84449 103.811 7.66155C102.745 7.52831 101.692 7.52664 101.474 7.65771C101.255 7.78877 100.467 7.86775 99.7237 7.83302C98.9808 7.79831 98.2566 7.90013 98.1157 8.05946C97.9482 8.24843 96.673 8.20281 94.4383 7.92776C92.5571 7.69594 90.8318 7.57261 90.6046 7.65371C90.3767 7.73448 89.749 7.80637 89.2087 7.81349C88.6685 7.82061 87.5521 7.88155 86.7285 7.94934C85.7156 8.03262 85.011 7.89819 84.5525 7.53425C83.9406 7.048 83.8252 7.05507 83.36 7.60618C82.9455 8.09704 82.3928 8.17245 80.5273 7.99182C79.2525 7.86845 75.7446 7.92008 72.7321 8.10615C69.7196 8.29252 65.7834 8.44376 63.9849 8.44226C62.1863 8.44105 60.1073 8.5431 59.3655 8.66933C58.623 8.79551 57.5456 8.80276 56.9702 8.68536C56.0068 8.48869 49.1555 9.00924 46.3509 9.49204C45.6919 9.6055 44.4629 9.59232 43.619 9.46267C42.7758 9.33305 42.0808 9.36618 42.0751 9.53628C42.0694 9.70668 40.1791 9.85227 37.8737 9.86005C35.5691 9.86785 33.5161 9.9539 33.3124 10.0512C32.4865 10.446 27.174 10.6526 26.3266 10.3227C25.7389 10.094 25.3418 10.1123 25.0683 10.3806C24.8482 10.5962 23.5941 10.8098 22.2822 10.8553C20.9696 10.9006 19.3772 11.0951 18.7433 11.2869C16.6618 11.9175 13.3931 12.0292 10.3081 11.5759C6.69157 11.0442 6.63191 11.0195 7.77467 10.5202C8.35825 10.2655 8.41928 10.098 7.93612 10.0754C7.51118 10.0556 6.95587 10.1632 6.70299 10.3146C5.93541 10.7747 4.8603 10.5628 4.23711 9.82843C3.86909 9.39482 3.93973 9.07162 4.42489 8.96933C4.95482 8.85785 4.90591 8.64393 4.27259 8.29766C3.76164 8.01824 3.08542 7.84211 2.76915 7.90629C1.7 8.12378 1.44705 7.17256 2.43596 6.65393C3.22531 6.23995 3.24327 6.03094 2.52641 5.58994C2.03589 5.28832 1.4185 5.1182 1.15444 5.21212C0.890377 5.30605 0.67989 5.21549 0.686779 5.01072C0.703667 4.50871 4.52151 3.08605 5.25742 3.30742C5.5792 3.40436 6.17274 3.15694 6.57607 2.75787C7.20026 2.14088 7.75999 2.05334 10.3162 2.17274C12.6061 2.2797 13.2323 2.20893 12.9425 1.87662C12.6352 1.52301 13.0014 1.51192 14.8662 1.81807C17.698 2.28277 17.5407 2.27809 17.5534 1.89966C17.5592 1.72719 17.2338 1.65293 16.8302 1.73499C16.4266 1.81705 16.1055 1.61298 16.1167 1.28137C16.1344 0.755365 16.3758 0.726873 18.0074 1.05745C19.036 1.26577 20.1603 1.37885 20.5052 1.30888C20.8508 1.23866 21.0741 1.44824 21.0026 1.77496C20.8556 2.43947 20.0343 2.52576 19.4923 1.93354C19.2372 1.6542 19.1187 1.64361 19.0687 1.89624C18.972 2.38561 20.0893 2.66576 21.5171 2.51015C22.1798 2.43781 22.5563 2.18795 22.3535 1.95469C22.1508 1.72142 22.3323 1.54678 22.7572 1.56663C23.1821 1.58648 23.6913 1.87591 23.8885 2.20983C24.0857 2.54375 24.5508 2.75512 24.9214 2.67983C25.2927 2.60427 26.5995 2.47269 27.8253 2.38688C29.7326 2.25367 29.926 2.28764 29.162 2.62148C28.443 2.93546 28.4991 3.02207 29.4502 3.06649C30.0992 3.09681 30.6433 2.88834 30.6588 2.60353C30.6808 2.20684 30.8288 2.18466 31.2894 2.50951C31.7678 2.84618 31.9927 2.83412 32.3846 2.45025C32.7621 2.08055 33.4035 2.03454 35.1132 2.25419C36.9287 2.4877 37.4202 2.43675 37.7357 1.98401C38.0573 1.52266 38.3519 1.49605 39.4463 1.82824C40.1742 2.04923 40.6035 2.329 40.4012 2.45014C39.8991 2.75111 40.9713 2.76794 42.3125 2.48006C43.0466 2.32261 43.1102 2.22823 42.5042 2.19666C41.0499 2.12161 41.4715 1.63465 43.0737 1.53911C43.8777 1.49119 44.3623 1.55567 44.1503 1.6826C43.9384 1.80952 44.0753 2.00648 44.4541 2.12064C44.8329 2.23479 45.4718 2.1094 45.8736 1.84264C46.5632 1.38363 46.6854 1.39172 48.0996 1.98639C48.9224 2.33232 49.6005 2.47321 49.6064 2.29926C49.6122 2.1253 50.9298 1.95415 52.5343 1.91869C54.1388 1.88322 55.4557 1.73281 55.4607 1.58404C55.4657 1.43528 56.3081 1.35294 57.3318 1.40076C58.3876 1.45007 58.9953 1.60697 58.7342 1.76307C58.0053 2.19976 59.5929 2.14778 60.8712 1.69341C61.5114 1.46539 62.025 1.42764 62.0189 1.609C62.0109 1.84785 62.4235 1.86623 63.5369 1.67693C64.3776 1.53396 65.2374 1.49636 65.4484 1.59318C65.9148 1.80819 67.4695 1.28393 68.0689 0.709705C68.3189 0.470283 68.5409 0.673876 68.5857 1.1844C68.6543 1.9605 68.7498 2.00414 69.3099 1.51504C69.665 1.20514 69.9721 1.13369 69.993 1.35639C70.0198 1.64376 70.6143 1.73358 72.0378 1.66561C73.5269 1.59448 73.7609 1.6342 72.9436 1.81951C71.9977 2.03415 72.0217 2.0786 73.1152 2.13354C73.8158 2.16864 74.3932 2.05522 74.3991 1.88127C74.4052 1.69961 75.0277 1.67408 75.8586 1.82093C76.6556 1.96174 77.3114 1.96388 77.3161 1.82578C77.3207 1.68739 78.3119 1.46924 79.5187 1.3407C80.7255 1.21216 81.7088 1.22899 81.7038 1.37775C81.6835 1.98229 83.6554 1.68499 84.4646 0.961478C84.9425 0.534726 85.1681 0.455624 84.9661 0.785736C84.646 1.30979 84.8775 1.38206 86.7965 1.35683C88.219 1.33839 88.989 1.45627 88.9811 1.69097C88.9744 1.89071 89.6234 1.76906 90.4237 1.42118C91.7394 0.848658 91.8789 0.842406 91.8835 1.35343C91.8882 1.86327 92.0394 1.85579 93.4304 1.27728L94.9729 0.636097L96.3414 1.40079C97.0946 1.82123 97.754 2.08592 97.8075 1.98869C97.8611 1.89146 97.9913 1.68235 98.0965 1.52402C98.2016 1.36569 98.3322 1.14473 98.3863 1.03298C98.4403 0.921232 98.8718 1.00817 99.3454 1.22618C100.38 1.70219 102.095 1.82505 102.108 1.4238C102.113 1.26614 101.624 1.19075 101.021 1.25635C100.417 1.32225 99.9274 1.25694 99.9323 1.11114C99.9372 0.965334 100.597 0.856648 101.398 0.869438C102.231 0.882802 102.849 1.07551 102.84 1.3188C102.833 1.55321 103.153 1.7801 103.552 1.82339C105.62 2.04673 106.097 2.00991 106.11 1.62614C106.117 1.39529 106.617 1.17464 107.219 1.13601C108.193 1.07344 108.192 1.09507 107.213 1.32922C105.724 1.68502 106.876 1.72456 108.57 1.37571C109.62 1.15968 110.422 1.22473 112.188 1.66904C113.436 1.98318 114.629 2.1369 114.84 2.01049C115.051 1.88442 114.814 1.69437 114.314 1.5882C113.742 1.46708 113.854 1.40793 114.619 1.4288C115.286 1.44719 115.965 1.63532 116.126 1.84676C116.345 2.13362 116.684 2.15983 117.458 1.94936C118.03 1.7944 119.315 1.73898 120.314 1.82631C121.313 1.91394 123.221 1.8324 124.553 1.645C126.369 1.39027 127.181 1.39941 127.795 1.68184C128.95 2.21367 129.776 2.19526 129.795 1.63725C129.805 1.32875 130.206 1.24182 130.934 1.3904C131.638 1.53397 131.877 1.48967 131.576 1.27197C131.241 1.03014 131.839 1.02486 133.543 1.25491C134.889 1.43652 136.097 1.70842 136.226 1.859C136.356 2.00931 136.749 2.07399 137.101 2.00256C137.452 1.93112 137.548 1.65212 137.313 1.38265C136.949 0.96406 137.121 0.954862 138.487 1.31903C139.738 1.65264 140.333 1.67478 141.215 1.42097C142.149 1.15176 142.469 1.19608 143.079 1.67986C143.775 2.23269 143.89 2.22944 145.215 1.61728C145.986 1.26179 146.519 1.14988 146.402 1.36879C146.284 1.58769 146.596 1.8471 147.093 1.94513C147.591 2.04319 148.003 1.97902 148.009 1.8024C148.015 1.62459 149.339 1.54307 150.978 1.61965C152.605 1.69565 154.614 1.64257 155.442 1.50169C156.296 1.35666 156.752 1.3634 156.495 1.51733C156.246 1.66657 156.667 1.88478 157.43 2.00203C158.444 2.15804 158.708 2.09026 158.413 1.75027C158.078 1.366 158.27 1.35504 159.519 1.68793C160.512 1.95306 161.187 1.99616 161.489 1.81471C161.743 1.66271 163.222 1.59793 164.775 1.67049C166.329 1.74306 167.807 1.67853 168.059 1.52709C168.712 1.13639 171.166 1.30355 171.516 1.76276C171.735 2.04929 172.075 2.07557 172.849 1.86596C174.045 1.54164 177.924 1.2613 178.995 1.42171C181.149 1.74465 185.171 1.97791 185.177 1.77995C185.182 1.65401 186.166 1.62462 187.366 1.71448C188.565 1.80435 189.551 1.75332 189.556 1.6007C189.561 1.44483 190.218 1.49745 191.056 1.72094C192.147 2.012 192.813 2.04191 193.538 1.83302C194.086 1.67516 194.705 1.6738 194.921 1.82994C195.137 1.98544 196.39 2.13364 197.708 2.15956C199.025 2.18548 200.57 2.37874 201.141 2.58942C201.936 2.88269 202.054 2.87961 201.645 2.57646C201.299 2.31987 201.575 2.19474 202.428 2.22065C210.083 2.45327 219.01 2.35676 219.593 2.03494C219.977 1.82285 220.138 1.82891 220.139 2.0551C220.139 2.23199 221.285 2.43037 222.686 2.4958C224.515 2.58124 225.243 2.4826 225.27 2.14637C225.301 1.77531 225.472 1.80378 226.098 2.2839C226.866 2.87243 226.916 2.87507 227.894 2.385C228.448 2.10782 228.895 2.04473 228.889 2.24446C228.88 2.51236 229.25 2.5442 230.298 2.36607C231.163 2.21918 231.88 2.24055 232.13 2.4208C232.507 2.69308 235.23 2.75527 237.448 2.5419C237.954 2.49311 239.18 2.6177 240.172 2.8187C241.3 3.04742 241.979 3.0797 241.985 2.90456C241.99 2.75075 242.426 2.71296 242.955 2.82078C243.484 2.92857 244.774 2.92471 245.822 2.81191C246.87 2.69911 247.828 2.71773 247.95 2.85315C248.073 2.98889 250.06 3.03215 252.368 2.95C254.676 2.86784 256.56 2.90628 256.556 3.03578C256.551 3.16528 257.371 3.18277 258.376 3.07452C259.706 2.93154 260.218 2.9777 260.25 3.24368C260.285 3.5225 260.386 3.52485 260.676 3.25437C260.886 3.05908 261.354 2.98862 261.717 3.09788C262.08 3.20714 262.381 3.18856 262.385 3.05669C262.39 2.92481 263.786 2.87218 265.487 2.93976C269.331 3.09231 272.743 3.03475 273.911 2.79752C274.406 2.69659 275.318 2.85495 275.969 3.15452C276.795 3.53444 277.367 3.61046 277.923 3.41291C278.354 3.25943 279.441 3.16802 280.338 3.20992C281.235 3.25183 282.157 3.17319 282.387 3.03525C282.858 2.75331 284.168 2.84537 285.517 3.25506C286.014 3.40587 286.802 3.45129 287.268 3.35644C287.736 3.26163 289.244 3.25375 290.622 3.33916C292 3.42461 294.119 3.33331 295.332 3.1359C296.544 2.93847 297.313 2.91114 297.039 3.07496C296.36 3.48163 297.087 3.48059 299.032 3.07188C300.729 2.71542 302.194 2.77346 305.586 3.33111C307.06 3.5736 307.965 3.55 308.926 3.24493C309.65 3.01434 310.932 2.8581 311.774 2.89743C312.666 2.9391 313.506 2.7305 313.787 2.39784C314.052 2.08372 314.593 1.84189 314.99 1.86041C315.387 1.87897 315.482 2.03124 315.203 2.19893C314.849 2.41068 315.224 2.45518 316.43 2.34501C318.298 2.17433 319.829 2.23751 323.253 2.62661C324.451 2.7627 325.682 2.90091 325.987 2.93389C326.294 2.9669 327.073 3.48413 327.719 4.08358C328.831 5.11439 328.961 5.14869 330.143 4.71625C330.83 4.46459 331.255 4.15258 331.086 4.02213C330.918 3.89169 331.127 3.80144 331.551 3.82122C331.974 3.841 332.315 4.05843 332.306 4.3041C332.294 4.66979 332.546 4.69877 333.691 4.46315C334.512 4.29404 334.986 3.93031 334.837 3.58352C334.697 3.25822 334.785 3.08514 335.032 3.19907C335.28 3.31304 335.905 3.28407 336.423 3.1352C337.069 2.94874 337.794 2.979 338.743 3.23232C339.887 3.53745 340.422 3.4517 341.871 2.7311Z" fill="#FEAC5E"/>
<path d="M309.032 2.91777C308.628 2.99983 308.303 2.92557 308.309 2.7531C308.315 2.58063 308.647 2.45456 309.047 2.47325C309.447 2.49195 309.773 2.56591 309.77 2.63793C309.768 2.70994 309.436 2.83571 309.032 2.91777Z" fill="#FEAC5E"/>
<path d="M416.033 8.06419C415.609 8.04441 415.267 7.89484 415.272 7.73185C415.278 7.56886 415.426 7.44224 415.603 7.4505C415.78 7.45876 416.122 7.60829 416.364 7.78283C416.606 7.95738 416.456 8.08397 416.033 8.06419Z" fill="#FEAC5E"/>
<path d="M412.481 8.17433C411.479 8.11027 411.523 8.06157 412.716 7.90924C414.674 7.65939 414.7 7.66058 414.171 7.97721C413.918 8.12864 413.158 8.2172 412.481 8.17433Z" fill="#FEAC5E"/>
<path d="M307.369 3.16775C307.124 3.25485 306.495 3.23618 305.974 3.12603C305.396 3.00438 305.571 2.9422 306.419 2.96757C307.186 2.99065 307.613 3.08065 307.369 3.16775Z" fill="#FEAC5E"/>
<path d="M291.213 3.12427C291.036 3.11601 290.694 2.96648 290.452 2.79193C290.21 2.61739 290.36 2.4908 290.783 2.51058C291.207 2.53036 291.549 2.67993 291.544 2.84292C291.538 3.0059 291.39 3.13253 291.213 3.12427Z" fill="#FEAC5E"/>
<path d="M180.78 1.23085C180.357 1.21107 180.216 1.07095 180.469 0.919517C180.722 0.768084 181.073 0.650908 181.25 0.659167C181.427 0.667426 181.566 0.807511 181.561 0.9705C181.555 1.13349 181.204 1.25063 180.78 1.23085Z" fill="#FEAC5E"/>
<path d="M149.078 1.23409C148.454 1.20496 148.15 1.05719 148.403 0.905761C148.656 0.754328 149.171 0.644799 149.548 0.662404C149.925 0.68001 150.228 0.827742 150.222 0.990731C150.217 1.15372 149.702 1.26322 149.078 1.23409Z" fill="#FEAC5E"/>
<path d="M134.366 1.13607C133.278 1.08137 133.253 1.03748 134.194 0.835682C135.58 0.538278 135.662 0.542118 135.65 0.903657C135.644 1.06665 135.066 1.17114 134.366 1.13607Z" fill="#FEAC5E"/>
<path d="M392.176 12.9994C391.558 12.8732 391.055 12.7176 391.057 12.6536C391.065 12.4135 392.447 12.6132 392.865 12.9149C393.114 13.0946 392.82 13.1307 392.176 12.9994Z" fill="#FEAC5E"/>
<path d="M127.093 0.700473C126.591 0.759507 125.772 0.72127 125.274 0.615503C124.777 0.510066 125.188 0.461907 126.189 0.508641C127.189 0.555375 127.597 0.641769 127.093 0.700473Z" fill="#FEAC5E"/>
<path d="M118.861 1.45302C118.469 1.33496 118.152 1.11299 118.157 0.959484C118.171 0.533343 118.69 0.651659 119.156 1.18753C119.396 1.46286 119.27 1.57598 118.861 1.45302Z" fill="#FEAC5E"/>
<path d="M385.18 14.0373C385.185 13.9016 385.764 13.7562 386.466 13.7142C387.169 13.6726 387.826 13.6267 387.927 13.6124C388.028 13.5981 388.106 13.7045 388.102 13.8482C388.097 13.9922 387.436 14.1492 386.632 14.1972C385.829 14.2448 385.176 14.1731 385.18 14.0373Z" fill="#FEAC5E"/>
<path d="M86.7752 0.9952C86.3517 0.975419 86.2114 0.835301 86.4642 0.683868C86.7171 0.532436 87.068 0.41526 87.2448 0.423519C87.4216 0.431778 87.5612 0.571862 87.5557 0.734851C87.5502 0.89784 87.1986 1.01498 86.7752 0.9952Z" fill="#FEAC5E"/>
<path d="M63.3005 0.968401C63.0556 1.0555 62.4273 1.03683 61.9056 0.926685C61.3281 0.805029 61.5029 0.74285 62.3511 0.768221C63.1185 0.791302 63.5454 0.8813 63.3005 0.968401Z" fill="#FEAC5E"/>
<path d="M32.1405 1.55971C30.0934 1.62436 31.0984 1.19107 33.2498 1.08113C34.0528 1.03998 34.8581 0.998058 35.0384 0.987488C35.2188 0.976916 35.027 1.08935 34.6125 1.23679C34.1972 1.3845 33.0846 1.5299 32.1405 1.55971Z" fill="#FEAC5E"/>
<path d="M36.5281 2.06947C36.1486 1.95528 36.0291 1.67457 36.2627 1.44595C36.8603 0.860366 37.2624 0.951275 37.2384 1.66694C37.2271 2.0024 36.9076 2.18366 36.5281 2.06947Z" fill="#FEAC5E"/>
<path d="M11.0851 1.91185C10.7351 1.8955 10.4595 1.5511 10.4731 1.14659C10.4867 0.74208 10.7821 0.496769 11.1292 0.601131C11.4762 0.70579 11.7518 1.0499 11.7411 1.36639C11.7305 1.68289 11.4351 1.9282 11.0851 1.91185Z" fill="#FEAC5E"/>
<path d="M5.4767 1.27382C5.23986 1.16481 5.3079 0.918682 5.62847 0.72678C6.09705 0.445922 6.26878 0.453935 6.50459 0.766508C6.84231 1.21266 6.11901 1.56946 5.4767 1.27382Z" fill="#FEAC5E"/>
<path d="M8.41714 1.36606C7.84874 1.10473 7.38697 0.814843 7.39011 0.721494C7.40646 0.235492 9.28247 0.730054 9.35931 1.24059C9.43792 1.76338 9.31494 1.7796 8.41714 1.36606Z" fill="#FEAC5E"/>
<path d="M26.2972 1.94716C25.4976 1.88518 24.8467 1.73784 24.8507 1.6196C24.8546 1.50165 25.5121 1.45549 26.3117 1.51748C27.1112 1.57946 27.7622 1.7268 27.7582 1.84504C27.7542 1.96299 27.0968 2.00914 26.2972 1.94716Z" fill="#FEAC5E"/>
<path d="M2.20763 3.12963C1.80404 3.2117 1.47858 3.13744 1.48438 2.96496C1.49019 2.79249 1.82238 2.66643 2.22258 2.68512C2.62278 2.70381 2.94825 2.77778 2.94582 2.84979C2.9434 2.9218 2.61122 3.04757 2.20763 3.12963Z" fill="#FEAC5E"/>
</svg>
