<svg width="72" height="73" viewBox="0 0 72 73" fill="none" xmlns="http://www.w3.org/2000/svg">
<path d="M47.649 19.8184C55.8789 8.6057 58.762 3.22583 56.7032 2.95398C55.6345 2.82729 55.2219 3.00819 53.6972 4.2482C50.7656 6.70053 41.1845 20.0362 41.4842 21.2673C41.8999 22.9749 45.9933 22.0549 47.649 19.8184Z" fill="#3B57F4"/>
<path d="M20.3322 26.7212C21.4147 25.5438 21.2975 25.4035 14.9315 21.0679C11.5383 18.7186 8.88676 17.3699 7.1039 17.0337C4.66477 16.558 3.9337 18.1563 5.06757 19.0646C14.7833 26.9343 18.4625 28.7548 20.3322 26.7212Z" fill="#3B57F4"/>
<path d="M58.3762 31.2438C55.8105 31.0921 42.6205 30.0414 41.6317 29.8965C41.1618 29.8392 40.655 29.1198 40.1699 27.8085C36.4236 18.0404 31.8642 8.16974 30.6823 7.23172C29.8033 6.51599 27.5965 7.32804 27.2104 8.46683C26.8244 9.60563 26.3653 20.3203 26.4163 28.0221L26.4381 33.0477C5.90265 45.4196 4.64835 45.5467 15.4889 46.3111L25.0663 46.995C30.511 47.3924 30.6378 47.4041 31.2212 48.6086C32.0575 50.3405 36.7691 58.6244 38.7824 62.637C43.0813 71.2691 45.9458 64.6429 45.5389 46.7955L45.4554 42.7067C45.9066 42.5168 48.8189 41.539 60.9953 35.701C63.7722 34.3357 62.1565 31.4454 58.3762 31.2438ZM53.281 34.4954C53.0349 34.8467 44.9589 38.9664 43.2728 39.3627C41.2337 39.8419 41.0045 40.9438 40.9597 50.8062C40.9269 57.312 40.8385 57.4581 39.1069 54.092C36.9572 49.8599 33.5257 45.1328 32.9519 43.9681C32.4463 42.913 30.0573 42.636 21.046 42.5737C16.5209 42.547 15.7674 42.3468 17.2591 41.4932C19.1142 40.4284 27.949 34.9984 29.047 34.7404C30.1058 34.4916 30.8146 33.4865 30.8386 32.2232L30.9623 19.4496C30.9996 17.2189 31 17.2188 34.5278 25.0678C38.5419 33.8925 38.2488 33.5418 41.217 33.4731C44.9296 33.3972 53.5567 34.0952 53.281 34.4954Z" fill="#3B57F4"/>
<path d="M48.7144 46.5197C48.927 47.3929 61.8685 55.555 63.4657 55.8091C66.8363 56.3597 67.2153 54.5079 64.1344 52.4206C55.8116 46.6977 48.038 43.7415 48.7144 46.5197Z" fill="#3B57F4"/>
<path d="M18.9315 56.3711C12.6443 63.3134 12.07 64.7093 15.8425 63.8224C17.6894 63.3882 27.3674 52.4543 26.7525 51.464C25.7959 49.9235 23.3759 51.4172 18.9315 56.3711Z" fill="#3B57F4"/>
</svg>
