<svg width="170" height="92" viewBox="0 0 170 92" fill="none" xmlns="http://www.w3.org/2000/svg">
<path d="M50.2565 44.4141C50.2565 45.1074 50.0965 45.7874 49.7765 46.4541C49.4565 47.1208 49.0565 47.7474 48.5765 48.3341C48.0965 48.9208 47.5765 49.4674 47.0165 49.9741C46.4565 50.4541 45.9498 50.8674 45.4965 51.2141C45.0165 51.5874 44.4565 51.9874 43.8165 52.4141C43.1765 52.8408 42.5498 53.2408 41.9365 53.6141C41.3498 53.9874 40.8298 54.3341 40.3765 54.6541C39.9231 54.9474 39.6431 55.1474 39.5365 55.2541L38.3765 56.1741C38.2431 56.2808 38.0831 56.3474 37.8965 56.3741C37.7365 56.4008 37.6031 56.4141 37.4965 56.4141C37.3098 56.4141 37.1631 56.3208 37.0565 56.1341C36.9498 55.9208 36.8965 55.7074 36.8965 55.4941C36.8965 55.3341 37.0431 55.0541 37.3365 54.6541C37.6565 54.2274 38.0165 53.8674 38.4165 53.5741C38.8165 53.2808 39.3098 52.9874 39.8965 52.6941C40.4831 52.4008 41.2831 51.9341 42.2965 51.2941C42.8031 50.9741 43.4165 50.5608 44.1365 50.0541C44.8565 49.5208 45.5365 48.9608 46.1765 48.3741C46.8165 47.7608 47.3631 47.1341 47.8165 46.4941C48.2698 45.8274 48.4965 45.1874 48.4965 44.5741C48.4965 44.3341 48.2031 44.0941 47.6165 43.8541C47.0565 43.5874 46.2565 43.4541 45.2165 43.4541C44.1498 43.4541 43.0298 43.6141 41.8565 43.9341C40.6831 44.2541 39.5898 44.6008 38.5765 44.9741C37.5898 45.3474 36.7365 45.6941 36.0165 46.0141C35.2965 46.3341 34.8565 46.4941 34.6965 46.4941C34.7765 47.1074 34.8698 47.8674 34.9765 48.7741C35.1098 49.6541 35.2431 50.5074 35.3765 51.3341C35.5098 52.2941 35.6565 53.2941 35.8165 54.3341H35.9765C36.0298 54.6008 36.1365 54.9874 36.2965 55.4941C36.4565 56.0008 36.5365 56.4008 36.5365 56.6941C36.5365 57.1208 36.3765 57.3341 36.0565 57.3341C35.8965 57.3341 35.7098 57.1874 35.4965 56.8941C35.3098 56.6008 35.1098 56.2541 34.8965 55.8541C34.7098 55.4541 34.5365 55.0674 34.3765 54.6941C34.2431 54.2941 34.1498 54.0141 34.0965 53.8541C33.8565 52.9741 33.6165 51.9608 33.3765 50.8141C33.1631 49.6674 32.9631 48.5208 32.7765 47.3741C32.6165 46.2008 32.4831 45.1074 32.3765 44.0941C32.2965 43.0541 32.2565 42.2008 32.2565 41.5341C32.2565 41.3474 32.2965 41.1874 32.3765 41.0541C32.4831 40.9208 32.5365 40.7874 32.5365 40.6541C32.5365 40.5208 32.4965 40.4274 32.4165 40.3741C32.3631 40.2941 32.3365 40.1741 32.3365 40.0141C32.3365 39.9341 32.3498 39.8541 32.3765 39.7741C32.4298 39.6674 32.5498 39.6141 32.7365 39.6141C32.9231 39.6674 33.0965 39.6941 33.2565 39.6941C33.4431 39.6941 33.6031 39.7341 33.7365 39.8141C33.8698 39.8674 33.9765 39.9741 34.0565 40.1341C34.1365 40.2941 34.1765 40.5474 34.1765 40.8941V41.1341C34.1765 41.1874 34.1631 41.2541 34.1365 41.3341C34.1365 41.3874 34.1365 41.4408 34.1365 41.4941C34.1365 41.9474 34.1498 42.3074 34.1765 42.5741C34.2031 42.8408 34.2431 42.9741 34.2965 42.9741C34.3765 42.9741 34.6565 42.7874 35.1365 42.4141C35.6431 42.0141 36.2431 41.5208 36.9365 40.9341C37.6298 40.3474 38.3765 39.6941 39.1765 38.9741C40.0031 38.2541 40.7898 37.5608 41.5365 36.8941C41.8298 36.6274 42.2298 36.2541 42.7365 35.7741C43.2431 35.2674 43.7365 34.7341 44.2165 34.1741C44.7231 33.6141 45.1498 33.0941 45.4965 32.6141C45.8698 32.1074 46.0565 31.7208 46.0565 31.4541C46.0565 31.1874 45.9765 31.0541 45.8165 31.0541C45.6031 31.0541 45.1498 31.1474 44.4565 31.3341C43.7631 31.5208 42.9765 31.7741 42.0965 32.0941C41.2165 32.3874 40.3098 32.7341 39.3765 33.1341C38.4431 33.5341 37.6165 33.9474 36.8965 34.3741C36.1498 34.8808 35.4031 35.4408 34.6565 36.0541C33.9098 36.6674 33.2298 37.2541 32.6165 37.8141C32.0298 38.3474 31.5365 38.8141 31.1365 39.2141C30.7631 39.5874 30.5631 39.8008 30.5365 39.8541C30.4831 39.9074 30.4565 39.9608 30.4565 40.0141C30.4565 40.0674 30.4698 40.1474 30.4965 40.2541C30.5498 40.3341 30.5765 40.4008 30.5765 40.4541C30.5765 40.5341 30.5231 40.6008 30.4165 40.6541C30.3098 40.7074 30.1898 40.7341 30.0565 40.7341C29.8431 40.7341 29.5765 40.6941 29.2565 40.6141C28.9365 40.5074 28.7765 40.2408 28.7765 39.8141C28.7765 39.4408 28.9898 38.9741 29.4165 38.4141C29.8431 37.8541 30.3898 37.2541 31.0565 36.6141C31.7498 35.9741 32.5098 35.3474 33.3365 34.7341C34.1631 34.0941 34.9765 33.5074 35.7765 32.9741C36.5765 32.4674 37.4431 31.9874 38.3765 31.5341C39.3365 31.0541 40.2698 30.6408 41.1765 30.2941C42.1098 29.9474 42.9898 29.6808 43.8165 29.4941C44.6431 29.2808 45.3231 29.1741 45.8565 29.1741C46.0698 29.1741 46.3098 29.2008 46.5765 29.2541C46.8431 29.3074 47.0965 29.3874 47.3365 29.4941C47.5765 29.6008 47.7765 29.7474 47.9365 29.9341C48.0965 30.0941 48.1765 30.2941 48.1765 30.5341C48.1765 31.2541 47.9631 32.0008 47.5365 32.7741C47.1098 33.5208 46.5498 34.2808 45.8565 35.0541C45.1631 35.8274 44.3765 36.6141 43.4965 37.4141C42.6431 38.1874 41.7765 38.9474 40.8965 39.6941C40.0431 40.4141 39.2165 41.1208 38.4165 41.8141C37.6165 42.4808 36.9498 43.0941 36.4165 43.6541C36.7098 43.5474 37.1898 43.3741 37.8565 43.1341C38.5231 42.8674 39.2431 42.6141 40.0165 42.3741C40.8165 42.1074 41.6165 41.8808 42.4165 41.6941C43.2165 41.5074 43.9231 41.4141 44.5365 41.4141C44.7231 41.4141 45.1231 41.4274 45.7365 41.4541C46.3498 41.4808 46.9898 41.5874 47.6565 41.7741C48.3231 41.9608 48.9231 42.2674 49.4565 42.6941C49.9898 43.0941 50.2565 43.6674 50.2565 44.4141ZM65.7936 49.8141C65.7936 50.0541 65.6336 50.3074 65.3136 50.5741C64.9936 50.8408 64.6203 51.0941 64.1936 51.3341C63.767 51.5474 63.327 51.7341 62.8736 51.8941C62.447 52.0541 62.127 52.1341 61.9136 52.1341C61.6736 52.1341 61.407 52.0674 61.1136 51.9341C60.847 51.8008 60.5803 51.6408 60.3136 51.4541C60.0736 51.2674 59.8603 51.0941 59.6736 50.9341C59.487 50.7741 59.367 50.6674 59.3136 50.6141C59.2336 50.6941 59.1136 50.8541 58.9536 51.0941C58.7936 51.3341 58.5936 51.6008 58.3536 51.8941C58.1403 52.1608 57.9003 52.4008 57.6336 52.6141C57.3936 52.8274 57.1403 52.9341 56.8736 52.9341C56.1803 52.9341 55.5803 52.5608 55.0736 51.8141C54.567 51.0674 54.1403 50.2141 53.7936 49.2541C53.4736 48.2941 53.2203 47.3741 53.0336 46.4941C52.8736 45.5874 52.7936 44.9741 52.7936 44.6541C52.7936 44.4674 52.887 44.3208 53.0736 44.2141C53.287 44.0808 53.447 44.0141 53.5536 44.0141C53.927 44.0141 54.1803 44.1474 54.3136 44.4141C54.447 44.6541 54.5136 44.9208 54.5136 45.2141C54.5136 45.4541 54.5803 45.8808 54.7136 46.4941C54.8736 47.1074 55.0603 47.7341 55.2736 48.3741C55.487 49.0141 55.7136 49.5874 55.9536 50.0941C56.1936 50.5741 56.407 50.8141 56.5936 50.8141C56.9403 50.8141 57.2336 50.6008 57.4736 50.1741C57.7403 49.7208 57.9536 49.2141 58.1136 48.6541C58.2736 48.0674 58.3936 47.5208 58.4736 47.0141C58.5536 46.4808 58.5936 46.1341 58.5936 45.9741C58.5936 45.9474 58.5936 45.8674 58.5936 45.7341C58.6203 45.5741 58.647 45.4141 58.6736 45.2541C58.7003 45.0941 58.7136 44.9474 58.7136 44.8141C58.7403 44.6808 58.7536 44.5874 58.7536 44.5341C58.7536 44.3474 58.7136 44.2274 58.6336 44.1741C58.5536 44.0941 58.5136 43.9474 58.5136 43.7341C58.5136 43.5741 58.5936 43.4274 58.7536 43.2941C58.9136 43.1341 59.2603 43.0541 59.7936 43.0541C60.007 43.0541 60.167 43.1208 60.2736 43.2541C60.407 43.3608 60.5003 43.4941 60.5536 43.6541C60.607 43.8141 60.6336 43.9741 60.6336 44.1341C60.6603 44.2674 60.6736 44.3608 60.6736 44.4141C60.6736 44.4408 60.6603 44.6274 60.6336 44.9741C60.607 45.3208 60.5803 45.7074 60.5536 46.1341C60.5536 46.5341 60.5403 46.9208 60.5136 47.2941C60.487 47.6674 60.4736 47.8941 60.4736 47.9741C60.4736 48.0541 60.5136 48.2141 60.5936 48.4541C60.6736 48.6941 60.767 48.9474 60.8736 49.2141C61.007 49.4541 61.1536 49.6808 61.3136 49.8941C61.4736 50.0808 61.647 50.1741 61.8336 50.1741C62.1536 50.1741 62.447 50.1341 62.7136 50.0541C63.007 49.9474 63.2736 49.8408 63.5136 49.7341C63.7803 49.6008 64.0203 49.4941 64.2336 49.4141C64.447 49.3074 64.647 49.2541 64.8336 49.2541C65.0736 49.2541 65.287 49.3074 65.4736 49.4141C65.687 49.5208 65.7936 49.6541 65.7936 49.8141ZM76.7993 38.3741C76.4526 38.7741 75.9593 39.1741 75.3193 39.5741C74.6793 39.9474 74.0393 40.2941 73.3993 40.6141C72.7593 40.9341 72.1993 41.2141 71.7193 41.4541C71.2393 41.6674 70.9993 41.8141 70.9993 41.8941C70.9993 41.9741 71.0526 42.2141 71.1593 42.6141C71.2659 43.0141 71.3859 43.4941 71.5193 44.0541C71.6793 44.5874 71.8393 45.1474 71.9993 45.7341C72.1593 46.3208 72.2926 46.8408 72.3993 47.2941C72.4526 47.5608 72.5193 47.9074 72.5993 48.3341C72.6793 48.7608 72.7459 49.1874 72.7993 49.6141C72.8793 50.0408 72.9459 50.4274 72.9993 50.7741C73.0526 51.0941 73.0793 51.2674 73.0793 51.2941C73.0793 51.6941 73.0126 52.1074 72.8793 52.5341C72.7459 52.9608 72.5326 53.1741 72.2393 53.1741C72.0793 53.1741 71.9326 53.1074 71.7993 52.9741C71.6659 52.8408 71.5459 52.6941 71.4393 52.5341C71.3326 52.3474 71.2526 52.1741 71.1993 52.0141C71.1459 51.8541 71.1193 51.7341 71.1193 51.6541C71.1193 51.6008 71.1193 51.5208 71.1193 51.4141C71.1459 51.3074 71.1593 51.1874 71.1593 51.0541C71.1593 50.5474 71.0793 49.8141 70.9193 48.8541C70.8659 48.5608 70.7593 48.1074 70.5993 47.4941C70.4393 46.8808 70.2793 46.2541 70.1193 45.6141C69.9326 44.8674 69.7193 44.0541 69.4793 43.1741C69.3726 42.8008 69.3059 42.6141 69.2793 42.6141C69.0926 42.6141 68.7726 42.7341 68.3193 42.9741C67.8926 43.1874 67.3993 43.4674 66.8393 43.8141C66.2793 44.1341 65.6926 44.4941 65.0793 44.8941C64.4659 45.2674 63.8926 45.6274 63.3593 45.9741C62.8259 46.2941 62.3726 46.5741 61.9993 46.8141C61.5993 47.0274 61.3593 47.1341 61.2793 47.1341C60.9326 47.1341 60.6526 47.0141 60.4393 46.7741C60.2259 46.5341 60.1193 46.2674 60.1193 45.9741C60.1193 45.8141 60.3459 45.5874 60.7993 45.2941C61.2259 44.9741 61.7726 44.6274 62.4393 44.2541C63.0793 43.8808 63.7859 43.4941 64.5593 43.0941C65.3059 42.6941 65.9993 42.3341 66.6393 42.0141C67.3059 41.6941 67.8526 41.4274 68.2793 41.2141C68.7326 41.0008 68.9593 40.8941 68.9593 40.8941C68.7193 39.6674 68.5193 38.5741 68.3593 37.6141C68.2259 36.7874 68.0926 36.0274 67.9593 35.3341C67.8526 34.6408 67.7993 34.2674 67.7993 34.2141C67.7993 33.8674 67.8659 33.6141 67.9993 33.4541C68.1593 33.2674 68.3326 33.1741 68.5193 33.1741C68.8126 33.1741 68.9993 33.3741 69.0793 33.7741C69.3726 35.2141 69.6393 36.4941 69.8793 37.6141C70.1459 38.7341 70.3993 39.6408 70.6393 40.3341C70.8793 40.2808 71.2926 40.1341 71.8793 39.8941C72.4659 39.6274 73.0793 39.3474 73.7193 39.0541C74.3593 38.7608 74.9326 38.5074 75.4393 38.2941C75.9726 38.0541 76.2793 37.9341 76.3593 37.9341C76.5193 37.9341 76.6126 37.9874 76.6393 38.0941C76.6926 38.2008 76.7459 38.2941 76.7993 38.3741ZM101.775 34.9741C101.775 35.0808 101.735 35.1608 101.655 35.2141C101.575 35.2674 101.495 35.3208 101.415 35.3741C101.309 35.4274 101.189 35.4674 101.055 35.4941C100.842 35.4941 100.655 35.4808 100.495 35.4541C100.335 35.4274 100.149 35.4141 99.9352 35.4141C99.6419 35.4141 99.0552 35.5874 98.1752 35.9341C97.3219 36.2541 96.4285 36.6674 95.4952 37.1741C94.5619 37.6808 93.7219 38.2141 92.9752 38.7741C92.2552 39.3341 91.8819 39.8274 91.8552 40.2541L92.3352 42.9741C92.4685 43.6674 92.5752 44.2941 92.6552 44.8541C92.7619 45.4141 92.8285 45.6941 92.8552 45.6941C92.9085 45.6674 93.0819 45.5608 93.3752 45.3741C93.6952 45.1608 94.0819 44.9341 94.5352 44.6941C94.9885 44.4274 95.4819 44.1474 96.0152 43.8541C96.5752 43.5608 97.1085 43.2941 97.6152 43.0541C98.1219 42.8141 98.5885 42.6141 99.0152 42.4541C99.4419 42.2941 99.7752 42.2141 100.015 42.2141C100.202 42.2141 100.362 42.2541 100.495 42.3341C100.655 42.4141 100.735 42.5608 100.735 42.7741C100.735 42.9341 100.549 43.1608 100.175 43.4541C99.8019 43.7474 99.3352 44.0674 98.7752 44.4141C98.2152 44.7608 97.6019 45.1341 96.9352 45.5341C96.2952 45.9074 95.6952 46.2674 95.1352 46.6141C94.5752 46.9341 94.1085 47.2408 93.7352 47.5341C93.3619 47.8008 93.1752 48.0008 93.1752 48.1341C93.1752 48.2674 93.2152 48.6941 93.2952 49.4141C93.4019 50.1074 93.5352 50.8808 93.6952 51.7341C93.8819 52.5874 94.0819 53.4141 94.2952 54.2141C94.5352 55.0141 94.7885 55.5741 95.0552 55.8941C95.1085 55.9474 95.1352 56.0274 95.1352 56.1341C95.1352 56.2941 95.0285 56.4674 94.8152 56.6541C94.6019 56.8674 94.4152 56.9741 94.2552 56.9741C94.0419 56.9741 93.8152 56.7741 93.5752 56.3741C93.3619 55.9741 93.1619 55.4674 92.9752 54.8541C92.7885 54.2408 92.6019 53.5874 92.4152 52.8941C92.2552 52.2008 92.1085 51.5474 91.9752 50.9341C91.8685 50.3208 91.7752 49.8141 91.6952 49.4141C91.6152 49.0141 91.5619 48.8141 91.5352 48.8141C91.4552 48.8141 91.2685 48.8674 90.9752 48.9741C90.6819 49.0541 90.3752 49.0941 90.0552 49.0941C89.8152 49.0941 89.6019 49.0008 89.4152 48.8141C89.2552 48.6008 89.1752 48.3874 89.1752 48.1741C89.1752 47.9608 89.2419 47.7741 89.3752 47.6141C89.5085 47.4541 89.6685 47.3074 89.8552 47.1741C90.0419 47.0408 90.2419 46.9208 90.4552 46.8141C90.6685 46.7074 90.8552 46.6008 91.0152 46.4941L89.8952 38.8541C89.8952 38.6408 89.9352 38.4274 90.0152 38.2141C90.0952 37.9741 90.2685 37.8541 90.5352 37.8541C90.5885 37.8541 90.6685 37.9208 90.7752 38.0541C90.8819 38.1608 90.9619 38.2141 91.0152 38.2141C91.0952 38.1608 91.4419 37.8941 92.0552 37.4141C92.6685 36.9074 93.4152 36.3741 94.2952 35.8141C95.2019 35.2274 96.1619 34.7074 97.1752 34.2541C98.2152 33.7741 99.1752 33.5341 100.055 33.5341C100.402 33.5341 100.775 33.6808 101.175 33.9741C101.575 34.2674 101.775 34.6008 101.775 34.9741ZM103.733 38.0541C103.733 38.1074 103.639 38.2141 103.453 38.3741C103.266 38.5341 103.039 38.7074 102.773 38.8941C102.533 39.0541 102.279 39.2008 102.013 39.3341C101.746 39.4674 101.533 39.5341 101.373 39.5341C101.266 39.5341 101.119 39.5341 100.933 39.5341C100.773 39.5074 100.599 39.4541 100.413 39.3741C100.253 39.2941 100.106 39.1874 99.9727 39.0541C99.8394 38.8941 99.7727 38.6941 99.7727 38.4541C99.7727 38.0808 99.906 37.7341 100.173 37.4141C100.439 37.0674 100.786 36.8941 101.213 36.8941C101.293 36.8941 101.466 36.9341 101.733 37.0141C102.026 37.0674 102.319 37.1474 102.613 37.2541C102.906 37.3608 103.159 37.4808 103.373 37.6141C103.613 37.7474 103.733 37.8941 103.733 38.0541ZM105.053 53.0141C105.053 53.2008 104.906 53.3608 104.613 53.4941C104.346 53.6274 104.146 53.6941 104.013 53.6941C103.746 53.6941 103.506 53.5208 103.293 53.1741C103.079 52.8274 102.893 52.4274 102.733 51.9741C102.573 51.5208 102.439 51.0941 102.333 50.6941C102.226 50.2674 102.146 49.9741 102.093 49.8141C102.013 49.5474 101.906 49.2274 101.773 48.8541C101.639 48.4808 101.506 48.1208 101.373 47.7741C101.266 47.4274 101.173 47.1208 101.093 46.8541C101.013 46.5874 100.973 46.4408 100.973 46.4141C100.973 46.0408 101.039 45.6941 101.173 45.3741C101.333 45.0541 101.519 44.8941 101.733 44.8941C101.973 44.8941 102.226 45.0808 102.493 45.4541C102.759 45.8274 103.013 46.3074 103.253 46.8941C103.519 47.4541 103.759 48.0808 103.973 48.7741C104.186 49.4408 104.373 50.0808 104.533 50.6941C104.693 51.2808 104.813 51.8008 104.893 52.2541C104.999 52.6808 105.053 52.9341 105.053 53.0141ZM115.824 44.2541C115.824 44.4408 115.744 44.6008 115.584 44.7341C115.424 44.8408 115.237 44.9341 115.024 45.0141C114.81 45.0941 114.597 45.1608 114.384 45.2141C114.17 45.2408 113.997 45.2541 113.864 45.2541C113.464 45.2541 113.197 45.2274 113.064 45.1741C112.93 45.1208 112.824 45.0941 112.744 45.0941C112.077 45.0941 111.544 45.1474 111.144 45.2541C110.744 45.3608 110.424 45.5341 110.184 45.7741C109.97 46.0141 109.824 46.3208 109.744 46.6941C109.69 47.0408 109.664 47.4674 109.664 47.9741C109.664 48.8274 109.69 49.5074 109.744 50.0141C109.824 50.5208 109.89 50.9341 109.944 51.2541C110.024 51.5741 110.09 51.8274 110.144 52.0141C110.224 52.1741 110.264 52.3341 110.264 52.4941C110.264 52.7074 110.144 52.9341 109.904 53.1741C109.69 53.4141 109.49 53.5341 109.304 53.5341C108.984 53.5341 108.69 53.2541 108.424 52.6941C108.184 52.1074 107.97 51.4274 107.784 50.6541C107.624 49.8541 107.49 49.0674 107.384 48.2941C107.277 47.5208 107.224 46.9341 107.224 46.5341C107.224 46.0808 107.264 45.6541 107.344 45.2541C107.424 44.8274 107.53 44.4674 107.664 44.1741C107.797 43.8541 107.944 43.6008 108.104 43.4141C108.264 43.2274 108.424 43.1341 108.584 43.1341C108.717 43.1341 108.824 43.1874 108.904 43.2941C108.984 43.3741 109.05 43.4808 109.104 43.6141C109.157 43.7208 109.21 43.8274 109.264 43.9341C109.344 44.0141 109.437 44.0541 109.544 44.0541C109.784 44.0541 110.17 43.9341 110.704 43.6941C111.237 43.4541 111.89 43.3341 112.664 43.3341C113.384 43.3341 113.917 43.3608 114.264 43.4141C114.637 43.4408 114.997 43.5208 115.344 43.6541C115.424 43.6808 115.517 43.7474 115.624 43.8541C115.757 43.9341 115.824 44.0674 115.824 44.2541ZM126.84 51.1741C126.84 51.6274 126.68 52.0274 126.36 52.3741C126.067 52.6941 125.68 52.9741 125.2 53.2141C124.747 53.4274 124.24 53.6008 123.68 53.7341C123.12 53.8674 122.587 53.9741 122.08 54.0541C121.573 54.1074 121.12 54.1474 120.72 54.1741C120.347 54.1741 120.107 54.1741 120 54.1741C119.413 54.1741 118.96 54.0808 118.64 53.8941C118.32 53.7074 118.16 53.3741 118.16 52.8941C118.16 52.7341 118.173 52.6008 118.2 52.4941C118.227 52.3608 118.333 52.2941 118.52 52.2941C118.6 52.2941 118.733 52.3208 118.92 52.3741C119.107 52.4008 119.253 52.4141 119.36 52.4141C119.467 52.4141 119.8 52.4008 120.36 52.3741C120.947 52.3208 121.56 52.2408 122.2 52.1341C122.867 52.0274 123.453 51.8808 123.96 51.6941C124.493 51.4808 124.76 51.2141 124.76 50.8941C124.76 50.8408 124.48 50.6808 123.92 50.4141C123.387 50.1208 122.573 49.6408 121.48 48.9741C120.627 48.4408 120.027 47.9074 119.68 47.3741C119.333 46.8141 119.16 46.0674 119.16 45.1341C119.16 44.5474 119.28 44.0674 119.52 43.6941C119.787 43.3208 120.133 43.0274 120.56 42.8141C121.013 42.6008 121.52 42.4541 122.08 42.3741C122.667 42.2674 123.28 42.2141 123.92 42.2141C123.973 42.2141 124.133 42.2408 124.4 42.2941C124.693 42.3474 125 42.4408 125.32 42.5741C125.64 42.6808 125.92 42.8274 126.16 43.0141C126.427 43.1741 126.56 43.3608 126.56 43.5741C126.56 43.6274 126.507 43.7074 126.4 43.8141C126.32 43.9208 126.173 44.1208 125.96 44.4141C125.88 44.3874 125.733 44.3474 125.52 44.2941C125.333 44.2408 125.107 44.1874 124.84 44.1341C124.6 44.0541 124.347 44.0008 124.08 43.9741C123.813 43.9208 123.6 43.8941 123.44 43.8941C122.747 43.8941 122.187 44.0274 121.76 44.2941C121.333 44.5341 121.12 45.0141 121.12 45.7341C121.12 46.0808 121.253 46.4008 121.52 46.6941C121.813 46.9874 122.173 47.2674 122.6 47.5341C123.027 47.7741 123.48 48.0274 123.96 48.2941C124.467 48.5341 124.933 48.8008 125.36 49.0941C125.787 49.3874 126.133 49.7074 126.4 50.0541C126.693 50.3741 126.84 50.7474 126.84 51.1741ZM139.662 38.3741C139.315 38.7741 138.822 39.1741 138.182 39.5741C137.542 39.9474 136.902 40.2941 136.262 40.6141C135.622 40.9341 135.062 41.2141 134.582 41.4541C134.102 41.6674 133.862 41.8141 133.862 41.8941C133.862 41.9741 133.915 42.2141 134.022 42.6141C134.128 43.0141 134.248 43.4941 134.382 44.0541C134.542 44.5874 134.702 45.1474 134.862 45.7341C135.022 46.3208 135.155 46.8408 135.262 47.2941C135.315 47.5608 135.382 47.9074 135.462 48.3341C135.542 48.7608 135.608 49.1874 135.662 49.6141C135.742 50.0408 135.808 50.4274 135.862 50.7741C135.915 51.0941 135.942 51.2674 135.942 51.2941C135.942 51.6941 135.875 52.1074 135.742 52.5341C135.608 52.9608 135.395 53.1741 135.102 53.1741C134.942 53.1741 134.795 53.1074 134.662 52.9741C134.528 52.8408 134.408 52.6941 134.302 52.5341C134.195 52.3474 134.115 52.1741 134.062 52.0141C134.008 51.8541 133.982 51.7341 133.982 51.6541C133.982 51.6008 133.982 51.5208 133.982 51.4141C134.008 51.3074 134.022 51.1874 134.022 51.0541C134.022 50.5474 133.942 49.8141 133.782 48.8541C133.728 48.5608 133.622 48.1074 133.462 47.4941C133.302 46.8808 133.142 46.2541 132.982 45.6141C132.795 44.8674 132.582 44.0541 132.342 43.1741C132.235 42.8008 132.168 42.6141 132.142 42.6141C131.955 42.6141 131.635 42.7341 131.182 42.9741C130.755 43.1874 130.262 43.4674 129.702 43.8141C129.142 44.1341 128.555 44.4941 127.942 44.8941C127.328 45.2674 126.755 45.6274 126.222 45.9741C125.688 46.2941 125.235 46.5741 124.862 46.8141C124.462 47.0274 124.222 47.1341 124.142 47.1341C123.795 47.1341 123.515 47.0141 123.302 46.7741C123.088 46.5341 122.982 46.2674 122.982 45.9741C122.982 45.8141 123.208 45.5874 123.662 45.2941C124.088 44.9741 124.635 44.6274 125.302 44.2541C125.942 43.8808 126.648 43.4941 127.422 43.0941C128.168 42.6941 128.862 42.3341 129.502 42.0141C130.168 41.6941 130.715 41.4274 131.142 41.2141C131.595 41.0008 131.822 40.8941 131.822 40.8941C131.582 39.6674 131.382 38.5741 131.222 37.6141C131.088 36.7874 130.955 36.0274 130.822 35.3341C130.715 34.6408 130.662 34.2674 130.662 34.2141C130.662 33.8674 130.728 33.6141 130.862 33.4541C131.022 33.2674 131.195 33.1741 131.382 33.1741C131.675 33.1741 131.862 33.3741 131.942 33.7741C132.235 35.2141 132.502 36.4941 132.742 37.6141C133.008 38.7341 133.262 39.6408 133.502 40.3341C133.742 40.2808 134.155 40.1341 134.742 39.8941C135.328 39.6274 135.942 39.3474 136.582 39.0541C137.222 38.7608 137.795 38.5074 138.302 38.2941C138.835 38.0541 139.142 37.9341 139.222 37.9341C139.382 37.9341 139.475 37.9874 139.502 38.0941C139.555 38.2008 139.608 38.2941 139.662 38.3741Z" fill="white"/>
<path d="M163.978 35.4432C164.585 39.9944 163.091 44.6834 159.719 49.3026C156.342 53.9273 151.116 58.4294 144.387 62.544C130.933 70.7718 111.636 77.3489 89.6906 80.2739C67.7446 83.1988 47.3994 81.9049 32.2596 77.4882C24.6884 75.2794 18.4656 72.3032 13.9955 68.7242C9.53082 65.1496 6.86116 61.0156 6.25458 56.4643C5.64801 51.9131 7.14176 47.2242 10.5144 42.605C13.8911 37.9803 19.1172 33.4782 25.8457 29.3636C39.3002 21.1358 58.5964 14.5586 80.5423 11.6337C102.488 8.70882 122.834 10.0027 137.973 14.4194C145.545 16.6282 151.767 19.6044 156.237 23.1834C160.702 26.758 163.372 30.892 163.978 35.4432Z" stroke="#AB3ADD" stroke-width="2"/>
</svg>
