<svg width="313" height="161" viewBox="0 0 313 161" fill="none" xmlns="http://www.w3.org/2000/svg">
<path d="M119.198 93.5005H118.6V94.0982H119.198V93.5005ZM119.198 43.9451V43.3474H118.6V43.9451H119.198ZM122.373 43.9451H122.97V43.3474H122.373V43.9451ZM122.373 93.5005V94.0982H122.97V93.5005H122.373ZM126.844 60.7862L126.249 60.8403L126.298 61.3839H126.844V60.7862ZM125.121 57.4761L124.749 57.944L124.756 57.9492L125.121 57.4761ZM117.708 56.7598L117.49 56.2031H117.49L117.708 56.7598ZM115.849 58.0955L116.329 58.4524L116.333 58.4471L115.849 58.0955ZM115.21 60.0119L115.808 60.0379L115.808 60.0302L115.808 60.0226L115.21 60.0119ZM115.559 61.5798L115.04 61.8765L115.046 61.8874L115.559 61.5798ZM116.72 62.78L116.38 63.2715L116.387 63.2764L116.395 63.2812L116.72 62.78ZM118.579 63.6705L118.78 63.1076H118.78L118.579 63.6705ZM121.018 64.348L121.15 63.7651L121.143 63.7635L121.018 64.348ZM124.425 65.1223L124.292 65.7052L124.298 65.7064L124.425 65.1223ZM129.612 66.8257L129.356 67.3658L129.358 67.3667L129.612 66.8257ZM133.406 69.3616L132.992 69.7924L132.995 69.7949L133.406 69.3616ZM135.749 72.7492L135.196 72.9779V72.9779L135.749 72.7492ZM136.562 77.0465L137.16 77.0496L137.159 77.0417L136.562 77.0465ZM134.665 83.4926L134.175 83.1505L134.665 83.4926ZM129.264 87.6158L129.039 87.062L129.038 87.0625L129.264 87.6158ZM112.133 87.5577L112.356 87.0033L112.133 87.5577ZM104.273 75.3431V74.7453H103.668L103.676 75.3505L104.273 75.3431ZM113.449 75.3431L114.045 75.3069L114.011 74.7453H113.449V75.3431ZM114.475 78.5371L113.988 78.8838L114.475 78.5371ZM116.972 80.4728L116.743 81.025L116.745 81.0259L116.972 80.4728ZM123.979 80.6083L123.767 80.0496L123.764 80.0506L123.979 80.6083ZM126.089 79.1565L125.621 78.7855L126.089 79.1565ZM126.844 77.0272L127.442 77.0368L127.442 77.0268L127.442 77.0169L126.844 77.0272ZM126.147 75.1108L125.688 75.4935L125.693 75.4989L126.147 75.1108ZM124.057 73.717L123.82 74.2661L123.83 74.2699L124.057 73.717ZM120.495 72.6137L120.359 73.1957L120.36 73.1959L120.495 72.6137ZM116.352 71.6458L116.488 71.0637L116.486 71.0632L116.352 71.6458ZM108.242 67.8323L107.843 68.2776L107.845 68.2791L108.242 67.8323ZM105.299 60.67L105.897 60.6726L105.897 60.6669L105.299 60.67ZM107.274 54.224L106.789 53.8746L107.274 54.224ZM112.791 49.9072L113.031 50.4544L112.791 49.9072ZM128.819 49.9266L128.568 50.4691L128.571 50.4708L128.819 49.9266ZM134.103 54.2821L134.6 53.9497L134.103 54.2821ZM136.02 60.7862V61.3839H136.624L136.617 60.7799L136.02 60.7862ZM119.796 93.5005V43.9451H118.6V93.5005H119.796ZM119.198 44.5428H122.373V43.3474H119.198V44.5428ZM121.775 43.9451V93.5005H122.97V43.9451H121.775ZM122.373 92.9027H119.198V94.0982H122.373V92.9027ZM127.44 60.7321C127.297 59.1665 126.653 57.9032 125.487 57.0029L124.756 57.9492C125.629 58.6233 126.133 59.5667 126.249 60.8403L127.44 60.7321ZM125.493 57.0081C124.342 56.0932 122.751 55.6782 120.805 55.6782V56.8736C122.6 56.8736 123.887 57.2587 124.75 57.944L125.493 57.0081ZM120.805 55.6782C119.519 55.6782 118.407 55.8449 117.49 56.2031L117.925 57.3166C118.66 57.0295 119.613 56.8736 120.805 56.8736V55.6782ZM117.49 56.2031C116.585 56.5564 115.862 57.0622 115.366 57.7439L116.333 58.4471C116.663 57.9932 117.178 57.6085 117.925 57.3166L117.49 56.2031ZM115.37 57.7386C114.879 58.3985 114.628 59.1596 114.613 60.0012L115.808 60.0226C115.819 59.4188 115.994 58.9024 116.329 58.4523L115.37 57.7386ZM114.613 59.9859C114.583 60.6759 114.718 61.3134 115.04 61.8764L116.078 61.2833C115.883 60.9429 115.786 60.5352 115.808 60.0379L114.613 59.9859ZM115.046 61.8874C115.368 62.4228 115.818 62.8825 116.38 63.2715L117.061 62.2886C116.616 61.9807 116.292 61.6403 116.071 61.2723L115.046 61.8874ZM116.395 63.2812C116.958 63.6474 117.621 63.9633 118.378 64.2334L118.78 63.1076C118.091 62.8615 117.515 62.5837 117.046 62.2789L116.395 63.2812ZM118.378 64.2334C119.129 64.5019 119.968 64.7344 120.892 64.9324L121.143 63.7635C120.26 63.5744 119.473 63.3552 118.78 63.1076L118.378 64.2334ZM120.885 64.9308L124.292 65.7052L124.557 64.5394L121.15 63.7651L120.885 64.9308ZM124.298 65.7064C126.224 66.1245 127.908 66.6792 129.356 67.3658L129.868 66.2857C128.323 65.5527 126.549 64.9718 124.551 64.5382L124.298 65.7064ZM129.358 67.3667C130.819 68.0536 132.027 68.8641 132.992 69.7923L133.821 68.9308C132.747 67.8975 131.425 67.0175 129.867 66.2848L129.358 67.3667ZM132.995 69.7949C133.968 70.7199 134.7 71.7799 135.196 72.9779L136.301 72.5205C135.739 71.1632 134.909 69.9649 133.818 68.9282L132.995 69.7949ZM135.196 72.9779C135.692 74.1748 135.952 75.5297 135.964 77.0514L137.159 77.0417C137.146 75.3888 136.864 73.8788 136.301 72.5205L135.196 72.9779ZM135.964 77.0435C135.952 79.4439 135.347 81.4701 134.175 83.1505L135.155 83.8347C136.486 81.9275 137.146 79.6564 137.159 77.0496L135.964 77.0435ZM134.175 83.1505C132.999 84.8354 131.298 86.1435 129.039 87.062L129.489 88.1695C131.927 87.1781 133.827 85.7374 135.155 83.8347L134.175 83.1505ZM129.038 87.0625C126.792 87.9806 124.054 88.4505 120.805 88.4505V89.646C124.163 89.646 127.064 89.1609 129.49 88.169L129.038 87.0625ZM120.805 88.4505C117.546 88.4505 114.735 87.9622 112.356 87.0033L111.909 88.1121C114.46 89.1405 117.43 89.646 120.805 89.646V88.4505ZM112.356 87.0033C109.992 86.0501 108.174 84.6122 106.879 82.6936L105.888 83.3625C107.328 85.496 109.344 87.0779 111.909 88.1121L112.356 87.0033ZM106.879 82.6936C105.591 80.787 104.909 78.3472 104.871 75.3356L103.676 75.3505C103.715 78.5334 104.439 81.2169 105.888 83.3625L106.879 82.6936ZM104.273 75.9408H113.449V74.7453H104.273V75.9408ZM112.852 75.3792C112.935 76.7435 113.303 77.9223 113.988 78.8838L114.962 78.1903C114.433 77.4483 114.118 76.4978 114.045 75.3069L112.852 75.3792ZM113.988 78.8838C114.666 79.8355 115.591 80.5475 116.743 81.025L117.201 79.9207C116.236 79.5206 115.497 78.9421 114.962 78.1903L113.988 78.8838ZM116.745 81.0259C117.902 81.4998 119.221 81.7287 120.689 81.7287V80.5332C119.343 80.5332 118.184 80.3234 117.198 79.9197L116.745 81.0259ZM120.689 81.7287C122.03 81.7287 123.204 81.5481 124.194 81.166L123.764 80.0506C122.948 80.3654 121.929 80.5332 120.689 80.5332V81.7287ZM124.192 81.167C125.185 80.7894 125.986 80.2496 126.558 79.5275L125.621 78.7855C125.212 79.3023 124.606 79.7303 123.767 80.0496L124.192 81.167ZM126.558 79.5275C127.131 78.8036 127.427 77.9665 127.442 77.0368L126.247 77.0175C126.236 77.6881 126.028 78.2705 125.621 78.7855L126.558 79.5275ZM127.442 77.0169C127.427 76.141 127.151 75.3656 126.602 74.7227L125.693 75.4989C126.047 75.9141 126.236 76.4164 126.247 77.0375L127.442 77.0169ZM126.607 74.7281C126.071 74.0855 125.279 73.573 124.284 73.1642L123.83 74.2699C124.719 74.6354 125.32 75.052 125.688 75.4934L126.607 74.7281ZM124.293 73.168C123.32 72.7491 122.096 72.3716 120.63 72.0314L120.36 73.1959C121.785 73.5267 122.935 73.8849 123.82 74.266L124.293 73.168ZM120.631 72.0316L116.488 71.0637L116.216 72.2278L120.359 73.1957L120.631 72.0316ZM116.486 71.0632C113.12 70.2912 110.517 69.0554 108.639 67.3856L107.845 68.2791C109.915 70.1194 112.72 71.4259 116.219 72.2284L116.486 71.0632ZM108.64 67.387C106.811 65.749 105.885 63.5341 105.897 60.6726L104.702 60.6675C104.688 63.8197 105.723 66.3797 107.843 68.2776L108.64 67.387ZM105.897 60.6669C105.885 58.331 106.509 56.308 107.759 54.5733L106.789 53.8746C105.38 55.8308 104.688 58.1052 104.702 60.6732L105.897 60.6669ZM107.759 54.5733C109.018 52.8252 110.767 51.4495 113.031 50.4544L112.55 49.36C110.117 50.4298 108.188 51.9319 106.789 53.8746L107.759 54.5733ZM113.031 50.4544C115.292 49.4606 117.886 48.9564 120.824 48.9564V47.7609C117.748 47.7609 114.987 48.2891 112.55 49.36L113.031 50.4544ZM120.824 48.9564C123.829 48.9564 126.404 49.4677 128.568 50.469L129.07 49.3842C126.717 48.2949 123.962 47.7609 120.824 47.7609V48.9564ZM128.571 50.4708C130.753 51.4623 132.423 52.8454 133.607 54.6144L134.6 53.9497C133.28 51.9762 131.427 50.4557 129.066 49.3824L128.571 50.4708ZM133.607 54.6144C134.788 56.3799 135.397 58.4323 135.422 60.7924L136.617 60.7799C136.591 58.2104 135.923 55.9266 134.6 53.9497L133.607 54.6144ZM136.02 60.1885H126.844V61.3839H136.02V60.1885ZM143.008 88.5449L142.474 88.2755L142.036 89.1427H143.008V88.5449ZM158.997 56.876L159.531 57.1454L159.595 57.0183V56.876H158.997ZM158.997 56.6243H159.595V56.0266H158.997V56.6243ZM140.298 56.6243H139.7V57.222H140.298V56.6243ZM140.298 48.9007V48.3029H139.7V48.9007H140.298ZM168.908 48.9007H169.506V48.3029H168.908V48.9007ZM168.908 56.6824L169.442 56.9513L169.506 56.8244V56.6824H168.908ZM152.861 88.5449V89.1427H153.229L153.395 88.8138L152.861 88.5449ZM143.541 88.8143L159.531 57.1454L158.464 56.6066L142.474 88.2755L143.541 88.8143ZM159.595 56.876V56.6243H158.399V56.876H159.595ZM158.997 56.0266H140.298V57.222H158.997V56.0266ZM140.896 56.6243V48.9007H139.7V56.6243H140.896ZM140.298 49.4984H168.908V48.3029H140.298V49.4984ZM168.311 48.9007V56.6824H169.506V48.9007H168.311ZM168.374 56.4135L152.327 88.2761L153.395 88.8138L169.442 56.9513L168.374 56.4135ZM152.861 87.9472H143.008V89.1427H152.861V87.9472ZM177.092 83.1248L177.687 83.1731L177.74 82.5271H177.092V83.1248ZM176.917 85.2735L177.513 85.3253L177.513 85.3218L176.917 85.2735ZM175.969 90.4807L175.394 90.3182L175.392 90.3234L175.969 90.4807ZM174.478 95.0684L173.922 94.851L174.478 95.0684ZM173.22 98.2237V98.8214H173.62L173.772 98.4522L173.22 98.2237ZM167.258 98.2237L166.682 98.0647L166.473 98.8214H167.258V98.2237ZM168.09 95.0684L167.513 94.9144L167.511 94.9196L168.09 95.0684ZM169.097 90.4807L168.509 90.3737L169.097 90.4807ZM169.62 85.2929L170.217 85.306L170.217 85.3035L169.62 85.2929ZM169.658 83.1248V82.5271H169.071L169.061 83.1141L169.658 83.1248ZM176.496 83.0765L176.322 85.2252L177.513 85.3218L177.687 83.1731L176.496 83.0765ZM176.322 85.2217C176.17 86.9658 175.861 88.6645 175.394 90.3182L176.544 90.6431C177.032 88.9158 177.355 87.143 177.513 85.3253L176.322 85.2217ZM175.392 90.3234C174.932 92.0106 174.442 93.5193 173.922 94.851L175.035 95.2858C175.573 93.9075 176.077 92.3577 176.546 90.6379L175.392 90.3234ZM173.922 94.851C173.393 96.2047 172.975 97.2522 172.668 97.9952L173.772 98.4522C174.084 97.6982 174.506 96.6422 175.035 95.2858L173.922 94.851ZM173.22 97.626H167.258V98.8214H173.22V97.626ZM167.834 98.3827C168.042 97.6292 168.321 96.5735 168.669 95.2173L167.511 94.9196C167.163 96.2734 166.887 97.3213 166.682 98.0647L167.834 98.3827ZM168.668 95.2224C169.034 93.8488 169.373 92.3034 169.685 90.5876L168.509 90.3737C168.201 92.0649 167.869 93.578 167.513 94.9144L168.668 95.2224ZM169.685 90.5876C170 88.8528 170.178 87.0921 170.217 85.306L169.022 85.2797C168.984 87.0037 168.813 88.7017 168.509 90.3737L169.685 90.5876ZM170.217 85.3035L170.256 83.1355L169.061 83.1141L169.022 85.2822L170.217 85.3035ZM169.658 83.7225H177.092V82.5271H169.658V83.7225ZM190.032 87.0544L189.703 87.5533L189.705 87.5545L190.032 87.0544ZM184.244 79.9502L183.697 80.1898L183.697 80.1906L184.244 79.9502ZM182.231 68.7809L181.633 68.7791L182.231 68.7809ZM184.264 57.7083L183.717 57.4654L183.717 57.4664L184.264 57.7083ZM190.032 50.759L190.353 51.263L190.354 51.2626L190.032 50.759ZM207.919 50.759L207.597 51.2626L207.6 51.2645L207.919 50.759ZM213.726 57.7083L214.272 57.4654L213.726 57.7083ZM215.739 68.7809L215.141 68.7791V68.7809H215.739ZM213.706 79.9695L213.159 79.7299V79.7299L213.706 79.9695ZM207.919 87.0737L208.245 87.5743L208.246 87.5739L207.919 87.0737ZM203.989 78.5177L204.5 78.828L204.501 78.8266L203.989 78.5177ZM205.886 68.7809H205.288L205.288 68.7826L205.886 68.7809ZM205.015 61.696L204.444 61.8732L204.444 61.8743L205.015 61.696ZM202.595 57.5148L202.992 57.0677L202.595 57.5148ZM194 59.2569L194.51 59.5691L194.511 59.5677L194 59.2569ZM192.084 68.7809L192.682 68.7835V68.7827L192.084 68.7809ZM192.916 76.0012L192.343 76.1716L192.345 76.1751L192.916 76.0012ZM195.355 80.2792L194.955 80.7233L194.958 80.726L195.355 80.2792ZM198.975 88.9151C195.615 88.9151 192.751 88.1201 190.36 86.5543L189.705 87.5545C192.32 89.2666 195.419 90.1105 198.975 90.1105V88.9151ZM190.361 86.5555C187.965 84.9746 186.106 82.7021 184.792 79.7097L183.697 80.1906C185.092 83.3669 187.092 85.8305 189.703 87.5533L190.361 86.5555ZM184.792 79.7106C183.478 76.7079 182.816 73.0714 182.829 68.7826L181.633 68.7791C181.62 73.1883 182.3 76.998 183.697 80.1898L184.792 79.7106ZM182.829 68.7826C182.842 64.4918 183.51 60.8877 184.81 57.9502L183.717 57.4664C182.333 60.5944 181.646 64.3719 181.633 68.7791L182.829 68.7826ZM184.81 57.9513C186.123 54.9987 187.974 52.7794 190.353 51.263L189.711 50.2549C187.109 51.9132 185.114 54.3268 183.717 57.4654L184.81 57.9513ZM190.354 51.2626C192.747 49.7334 195.612 48.9564 198.975 48.9564V47.7609C195.422 47.7609 192.325 48.5841 189.71 50.2553L190.354 51.2626ZM198.975 48.9564C202.339 48.9564 205.204 49.7334 207.597 51.2626L208.24 50.2553C205.626 48.5841 202.529 47.7609 198.975 47.7609V48.9564ZM207.6 51.2645C210.004 52.7813 211.867 55.0003 213.18 57.9513L214.272 57.4654C212.875 54.3252 210.866 51.9113 208.237 50.2534L207.6 51.2645ZM213.18 57.9513C214.492 60.9004 215.154 64.503 215.141 68.7791L216.337 68.7826C216.35 64.3865 215.67 60.6074 214.272 57.4654L213.18 57.9513ZM215.141 68.7809C215.141 73.0832 214.473 76.7268 213.159 79.7299L214.254 80.2091C215.65 77.0178 216.337 73.2023 216.337 68.7809H215.141ZM213.159 79.7299C211.844 82.735 209.985 85.0063 207.591 86.5736L208.246 87.5739C210.859 85.8633 212.859 83.3985 214.254 80.2091L213.159 79.7299ZM207.592 86.5732C205.214 88.1258 202.351 88.9151 198.975 88.9151V90.1105C202.543 90.1105 205.642 89.2738 208.245 87.5743L207.592 86.5732ZM198.975 82.2707C201.292 82.2707 203.138 81.0699 204.5 78.828L203.478 78.2074C202.284 80.1726 200.788 81.0753 198.975 81.0753V82.2707ZM204.501 78.8266C205.863 76.5691 206.497 73.1903 206.484 68.7791L205.288 68.7826C205.301 73.1211 204.67 76.2334 203.477 78.2088L204.501 78.8266ZM206.484 68.7809C206.484 65.8812 206.191 63.454 205.585 61.5177L204.444 61.8743C205.001 63.6546 205.288 65.9507 205.288 68.7809H206.484ZM205.586 61.5188C204.986 59.5849 204.133 58.0806 202.992 57.0677L202.198 57.9618C203.122 58.7815 203.883 60.0646 204.444 61.8732L205.586 61.5188ZM202.992 57.0677C201.85 56.0543 200.502 55.5426 198.975 55.5426V56.7381C200.21 56.7381 201.275 57.1427 202.198 57.9618L202.992 57.0677ZM198.975 55.5426C196.673 55.5426 194.839 56.729 193.49 58.9462L194.511 59.5677C195.691 57.6294 197.174 56.7381 198.975 56.7381V55.5426ZM193.491 58.9447C192.14 61.1502 191.499 64.4582 191.486 68.7791L192.682 68.7827C192.695 64.5346 193.332 61.4933 194.51 59.5691L193.491 58.9447ZM191.486 68.7782C191.473 71.7162 191.753 74.1862 192.343 76.1716L193.489 75.8309C192.944 73.9963 192.669 71.6528 192.682 68.7835L191.486 68.7782ZM192.345 76.1751C192.944 78.1477 193.802 79.6841 194.955 80.7233L195.756 79.8352C194.818 78.9902 194.05 77.6746 193.488 75.8273L192.345 76.1751ZM194.958 80.726C196.11 81.75 197.457 82.2707 198.975 82.2707V81.0753C197.757 81.0753 196.691 80.6668 195.753 79.8325L194.958 80.726ZM228.68 87.0544L228.35 87.5533L228.352 87.5545L228.68 87.0544ZM222.892 79.9502L222.344 80.1898L222.344 80.1906L222.892 79.9502ZM220.878 68.7809L220.281 68.7791L220.878 68.7809ZM222.911 57.7083L222.365 57.4654L222.364 57.4664L222.911 57.7083ZM228.68 50.759L229.001 51.263L229.001 51.2626L228.68 50.759ZM246.566 50.759L246.244 51.2626L246.247 51.2645L246.566 50.759ZM252.373 57.7083L252.919 57.4654L252.373 57.7083ZM254.386 68.7809L253.789 68.7791V68.7809H254.386ZM252.354 79.9695L251.806 79.7299V79.7299L252.354 79.9695ZM246.566 87.0737L246.893 87.5743L246.893 87.5739L246.566 87.0737ZM242.636 78.5177L243.147 78.828L243.148 78.8266L242.636 78.5177ZM244.533 68.7809H243.936V68.7826L244.533 68.7809ZM243.662 61.696L243.091 61.8732L243.092 61.8743L243.662 61.696ZM241.243 57.5148L241.639 57.0677L241.243 57.5148ZM232.648 59.2569L233.158 59.5691L233.158 59.5677L232.648 59.2569ZM230.731 68.7809L231.329 68.7835V68.7827L230.731 68.7809ZM231.564 76.0012L230.991 76.1716L230.992 76.1751L231.564 76.0012ZM234.003 80.2792L233.603 80.7233L233.606 80.726L234.003 80.2792ZM237.623 88.9151C234.262 88.9151 231.399 88.1201 229.007 86.5543L228.352 87.5545C230.967 89.2666 234.066 90.1105 237.623 90.1105V88.9151ZM229.009 86.5555C226.613 84.9746 224.753 82.7021 223.439 79.7097L222.344 80.1906C223.74 83.3669 225.739 85.8305 228.35 87.5533L229.009 86.5555ZM223.439 79.7106C222.126 76.7079 221.463 73.0714 221.476 68.7826L220.281 68.7791C220.268 73.1883 220.948 76.998 222.344 80.1898L223.439 79.7106ZM221.476 68.7826C221.489 64.4918 222.158 60.8877 223.458 57.9502L222.364 57.4664C220.98 60.5944 220.294 64.3719 220.281 68.7791L221.476 68.7826ZM223.457 57.9513C224.771 54.9987 226.621 52.7794 229.001 51.263L228.358 50.2549C225.756 51.9132 223.761 54.3268 222.365 57.4654L223.457 57.9513ZM229.001 51.2626C231.394 49.7334 234.259 48.9564 237.623 48.9564V47.7609C234.069 47.7609 230.972 48.5841 228.358 50.2553L229.001 51.2626ZM237.623 48.9564C240.986 48.9564 243.851 49.7334 246.244 51.2626L246.888 50.2553C244.273 48.5841 241.176 47.7609 237.623 47.7609V48.9564ZM246.247 51.2645C248.652 52.7813 250.514 55.0003 251.827 57.9513L252.919 57.4654C251.522 54.3252 249.513 51.9113 246.885 50.2534L246.247 51.2645ZM251.827 57.9513C253.139 60.9004 253.801 64.503 253.789 68.7791L254.984 68.7826C254.997 64.3865 254.317 60.6074 252.919 57.4654L251.827 57.9513ZM253.789 68.7809C253.789 73.0832 253.12 76.7268 251.806 79.7299L252.901 80.2091C254.298 77.0178 254.984 73.2023 254.984 68.7809H253.789ZM251.806 79.7299C250.491 82.735 248.633 85.0063 246.239 86.5736L246.893 87.5739C249.506 85.8633 251.506 83.3985 252.901 80.2091L251.806 79.7299ZM246.239 86.5732C243.861 88.1258 240.998 88.9151 237.623 88.9151V90.1105C241.19 90.1105 244.289 89.2738 246.893 87.5743L246.239 86.5732ZM237.623 82.2707C239.939 82.2707 241.786 81.0699 243.147 78.828L242.125 78.2074C240.932 80.1726 239.436 81.0753 237.623 81.0753V82.2707ZM243.148 78.8266C244.511 76.5691 245.144 73.1903 245.131 68.7791L243.936 68.7826C243.948 73.1211 243.317 76.2334 242.125 78.2088L243.148 78.8266ZM245.131 68.7809C245.131 65.8812 244.838 63.454 244.233 61.5177L243.092 61.8743C243.648 63.6546 243.936 65.9507 243.936 68.7809H245.131ZM244.233 61.5188C243.633 59.5849 242.781 58.0806 241.639 57.0677L240.846 57.9618C241.769 58.7815 242.53 60.0646 243.091 61.8732L244.233 61.5188ZM241.639 57.0677C240.498 56.0543 239.15 55.5426 237.623 55.5426V56.7381C238.857 56.7381 239.923 57.1427 240.846 57.9618L241.639 57.0677ZM237.623 55.5426C235.321 55.5426 233.487 56.729 232.137 58.9462L233.158 59.5677C234.338 57.6294 235.821 56.7381 237.623 56.7381V55.5426ZM232.138 58.9447C230.787 61.1502 230.147 64.4582 230.134 68.7791L231.329 68.7827C231.342 64.5346 231.979 61.4933 233.158 59.5691L232.138 58.9447ZM230.134 68.7782C230.121 71.7162 230.401 74.1862 230.991 76.1716L232.137 75.8309C231.591 73.9963 231.316 71.6528 231.329 68.7835L230.134 68.7782ZM230.992 76.1751C231.592 78.1477 232.45 79.6841 233.603 80.7233L234.403 79.8352C233.465 78.9902 232.697 77.6746 232.136 75.8273L230.992 76.1751ZM233.606 80.726C234.758 81.75 236.105 82.2707 237.623 82.2707V81.0753C236.405 81.0753 235.339 80.6668 234.4 79.8325L233.606 80.726ZM267.327 87.0544L266.998 87.5533L266.999 87.5545L267.327 87.0544ZM261.539 79.9502L260.991 80.1898L260.992 80.1906L261.539 79.9502ZM259.526 68.7809L258.928 68.7791L259.526 68.7809ZM261.558 57.7083L261.012 57.4654L261.012 57.4664L261.558 57.7083ZM267.327 50.759L267.648 51.263L267.649 51.2626L267.327 50.759ZM285.213 50.759L284.891 51.2626L284.894 51.2645L285.213 50.759ZM291.021 57.7083L291.567 57.4654L291.021 57.7083ZM293.034 68.7809L292.436 68.7791V68.7809H293.034ZM291.001 79.9695L290.454 79.7299V79.7299L291.001 79.9695ZM285.213 87.0737L285.54 87.5743L285.541 87.5739L285.213 87.0737ZM281.284 78.5177L281.795 78.828L281.795 78.8266L281.284 78.5177ZM283.181 68.7809H282.583L282.583 68.7826L283.181 68.7809ZM282.31 61.696L281.739 61.8732L281.739 61.8743L282.31 61.696ZM279.89 57.5148L280.287 57.0677L279.89 57.5148ZM271.295 59.2569L271.805 59.5691L271.806 59.5677L271.295 59.2569ZM269.379 68.7809L269.976 68.7835L269.977 68.7827L269.379 68.7809ZM270.211 76.0012L269.638 76.1716L269.639 76.1751L270.211 76.0012ZM272.65 80.2792L272.25 80.7233L272.253 80.726L272.65 80.2792ZM276.27 88.9151C272.909 88.9151 270.046 88.1201 267.654 86.5543L266.999 87.5545C269.615 89.2666 272.714 90.1105 276.27 90.1105V88.9151ZM267.656 86.5555C265.26 84.9746 263.401 82.7021 262.086 79.7097L260.992 80.1906C262.387 83.3669 264.387 85.8305 266.998 87.5533L267.656 86.5555ZM262.087 79.7106C260.773 76.7079 260.111 73.0714 260.124 68.7826L258.928 68.7791C258.915 73.1883 259.595 76.998 260.991 80.1898L262.087 79.7106ZM260.124 68.7826C260.136 64.4918 260.805 60.8877 262.105 57.9502L261.012 57.4664C259.627 60.5944 258.941 64.3719 258.928 68.7791L260.124 68.7826ZM262.104 57.9513C263.418 54.9987 265.269 52.7794 267.648 51.263L267.006 50.2549C264.404 51.9132 262.409 54.3268 261.012 57.4654L262.104 57.9513ZM267.649 51.2626C270.041 49.7334 272.907 48.9564 276.27 48.9564V47.7609C272.717 47.7609 269.62 48.5841 267.005 50.2553L267.649 51.2626ZM276.27 48.9564C279.634 48.9564 282.499 49.7334 284.891 51.2626L285.535 50.2553C282.921 48.5841 279.824 47.7609 276.27 47.7609V48.9564ZM284.894 51.2645C287.299 52.7813 289.161 55.0003 290.474 57.9513L291.567 57.4654C290.17 54.3252 288.16 51.9113 285.532 50.2534L284.894 51.2645ZM290.474 57.9513C291.786 60.9004 292.449 64.503 292.436 68.7791L293.631 68.7826C293.645 64.3865 292.965 60.6074 291.567 57.4654L290.474 57.9513ZM292.436 68.7809C292.436 73.0832 291.767 76.7268 290.454 79.7299L291.549 80.2091C292.945 77.0178 293.631 73.2023 293.631 68.7809H292.436ZM290.454 79.7299C289.139 82.735 287.28 85.0063 284.886 86.5736L285.541 87.5739C288.154 85.8633 290.153 83.3985 291.549 80.2091L290.454 79.7299ZM284.886 86.5732C282.508 88.1258 279.645 88.9151 276.27 88.9151V90.1105C279.838 90.1105 282.937 89.2738 285.54 87.5743L284.886 86.5732ZM276.27 82.2707C278.587 82.2707 280.433 81.0699 281.795 78.828L280.773 78.2074C279.579 80.1726 278.083 81.0753 276.27 81.0753V82.2707ZM281.795 78.8266C283.158 76.5691 283.791 73.1903 283.778 68.7791L282.583 68.7826C282.596 73.1211 281.964 76.2334 280.772 78.2088L281.795 78.8266ZM283.778 68.7809C283.778 65.8812 283.485 63.454 282.88 61.5177L281.739 61.8743C282.295 63.6546 282.583 65.9507 282.583 68.7809H283.778ZM282.88 61.5188C282.28 59.5849 281.428 58.0806 280.287 57.0677L279.493 57.9618C280.417 58.7815 281.177 60.0646 281.739 61.8732L282.88 61.5188ZM280.287 57.0677C279.145 56.0543 277.797 55.5426 276.27 55.5426V56.7381C277.505 56.7381 278.57 57.1427 279.493 57.9618L280.287 57.0677ZM276.27 55.5426C273.968 55.5426 272.134 56.729 270.785 58.9462L271.806 59.5677C272.986 57.6294 274.468 56.7381 276.27 56.7381V55.5426ZM270.785 58.9447C269.435 61.1502 268.794 64.4582 268.781 68.7791L269.977 68.7827C269.989 64.5346 270.626 61.4933 271.805 59.5691L270.785 58.9447ZM268.781 68.7782C268.768 71.7162 269.048 74.1862 269.638 76.1716L270.784 75.8309C270.239 73.9963 269.964 71.6528 269.976 68.7835L268.781 68.7782ZM269.639 76.1751C270.239 78.1477 271.097 79.6841 272.25 80.7233L273.05 79.8352C272.113 78.9902 271.345 77.6746 270.783 75.8273L269.639 76.1751ZM272.253 80.726C273.405 81.75 274.752 82.2707 276.27 82.2707V81.0753C275.052 81.0753 273.986 80.6668 273.047 79.8325L272.253 80.726Z" fill="black"/>
<path d="M119.198 93.5005H118.6V94.0982H119.198V93.5005ZM119.198 43.9451V43.3474H118.6V43.9451H119.198ZM122.373 43.9451H122.97V43.3474H122.373V43.9451ZM122.373 93.5005V94.0982H122.97V93.5005H122.373ZM126.844 60.7862L126.249 60.8403L126.298 61.3839H126.844V60.7862ZM125.121 57.4761L124.749 57.944L124.756 57.9492L125.121 57.4761ZM117.708 56.7598L117.49 56.2031H117.49L117.708 56.7598ZM115.849 58.0955L116.329 58.4524L116.333 58.4471L115.849 58.0955ZM115.21 60.0119L115.808 60.0379L115.808 60.0302L115.808 60.0226L115.21 60.0119ZM115.559 61.5798L115.04 61.8765L115.046 61.8874L115.559 61.5798ZM116.72 62.78L116.38 63.2715L116.387 63.2764L116.395 63.2812L116.72 62.78ZM118.579 63.6705L118.78 63.1076H118.78L118.579 63.6705ZM121.018 64.348L121.15 63.7651L121.143 63.7635L121.018 64.348ZM124.425 65.1223L124.292 65.7052L124.298 65.7064L124.425 65.1223ZM129.612 66.8257L129.356 67.3658L129.358 67.3667L129.612 66.8257ZM133.406 69.3616L132.992 69.7924L132.995 69.7949L133.406 69.3616ZM135.749 72.7492L135.196 72.9779V72.9779L135.749 72.7492ZM136.562 77.0465L137.16 77.0496L137.159 77.0417L136.562 77.0465ZM134.665 83.4926L134.175 83.1505L134.665 83.4926ZM129.264 87.6158L129.039 87.062L129.038 87.0625L129.264 87.6158ZM112.133 87.5577L112.356 87.0033L112.133 87.5577ZM104.273 75.3431V74.7453H103.668L103.676 75.3505L104.273 75.3431ZM113.449 75.3431L114.045 75.3069L114.011 74.7453H113.449V75.3431ZM114.475 78.5371L113.988 78.8838L114.475 78.5371ZM116.972 80.4728L116.743 81.025L116.745 81.0259L116.972 80.4728ZM123.979 80.6083L123.767 80.0496L123.764 80.0506L123.979 80.6083ZM126.089 79.1565L125.621 78.7855L126.089 79.1565ZM126.844 77.0272L127.442 77.0368L127.442 77.0268L127.442 77.0169L126.844 77.0272ZM126.147 75.1108L125.688 75.4935L125.693 75.4989L126.147 75.1108ZM124.057 73.717L123.82 74.2661L123.83 74.2699L124.057 73.717ZM120.495 72.6137L120.359 73.1957L120.36 73.1959L120.495 72.6137ZM116.352 71.6458L116.488 71.0637L116.486 71.0632L116.352 71.6458ZM108.242 67.8323L107.843 68.2776L107.845 68.2791L108.242 67.8323ZM105.299 60.67L105.897 60.6726L105.897 60.6669L105.299 60.67ZM107.274 54.224L106.789 53.8746L107.274 54.224ZM112.791 49.9072L113.031 50.4544L112.791 49.9072ZM128.819 49.9266L128.568 50.4691L128.571 50.4708L128.819 49.9266ZM134.103 54.2821L134.6 53.9497L134.103 54.2821ZM136.02 60.7862V61.3839H136.624L136.617 60.7799L136.02 60.7862ZM119.796 93.5005V43.9451H118.6V93.5005H119.796ZM119.198 44.5428H122.373V43.3474H119.198V44.5428ZM121.775 43.9451V93.5005H122.97V43.9451H121.775ZM122.373 92.9027H119.198V94.0982H122.373V92.9027ZM127.44 60.7321C127.297 59.1665 126.653 57.9032 125.487 57.0029L124.756 57.9492C125.629 58.6233 126.133 59.5667 126.249 60.8403L127.44 60.7321ZM125.493 57.0081C124.342 56.0932 122.751 55.6782 120.805 55.6782V56.8736C122.6 56.8736 123.887 57.2587 124.75 57.944L125.493 57.0081ZM120.805 55.6782C119.519 55.6782 118.407 55.8449 117.49 56.2031L117.925 57.3166C118.66 57.0295 119.613 56.8736 120.805 56.8736V55.6782ZM117.49 56.2031C116.585 56.5564 115.862 57.0622 115.366 57.7439L116.333 58.4471C116.663 57.9932 117.178 57.6085 117.925 57.3166L117.49 56.2031ZM115.37 57.7386C114.879 58.3985 114.628 59.1596 114.613 60.0012L115.808 60.0226C115.819 59.4188 115.994 58.9024 116.329 58.4523L115.37 57.7386ZM114.613 59.9859C114.583 60.6759 114.718 61.3134 115.04 61.8764L116.078 61.2833C115.883 60.9429 115.786 60.5352 115.808 60.0379L114.613 59.9859ZM115.046 61.8874C115.368 62.4228 115.818 62.8825 116.38 63.2715L117.061 62.2886C116.616 61.9807 116.292 61.6403 116.071 61.2723L115.046 61.8874ZM116.395 63.2812C116.958 63.6474 117.621 63.9633 118.378 64.2334L118.78 63.1076C118.091 62.8615 117.515 62.5837 117.046 62.2789L116.395 63.2812ZM118.378 64.2334C119.129 64.5019 119.968 64.7344 120.892 64.9324L121.143 63.7635C120.26 63.5744 119.473 63.3552 118.78 63.1076L118.378 64.2334ZM120.885 64.9308L124.292 65.7052L124.557 64.5394L121.15 63.7651L120.885 64.9308ZM124.298 65.7064C126.224 66.1245 127.908 66.6792 129.356 67.3658L129.868 66.2857C128.323 65.5527 126.549 64.9718 124.551 64.5382L124.298 65.7064ZM129.358 67.3667C130.819 68.0536 132.027 68.8641 132.992 69.7923L133.821 68.9308C132.747 67.8975 131.425 67.0175 129.867 66.2848L129.358 67.3667ZM132.995 69.7949C133.968 70.7199 134.7 71.7799 135.196 72.9779L136.301 72.5205C135.739 71.1632 134.909 69.9649 133.818 68.9282L132.995 69.7949ZM135.196 72.9779C135.692 74.1748 135.952 75.5297 135.964 77.0514L137.159 77.0417C137.146 75.3888 136.864 73.8788 136.301 72.5205L135.196 72.9779ZM135.964 77.0435C135.952 79.4439 135.347 81.4701 134.175 83.1505L135.155 83.8347C136.486 81.9275 137.146 79.6564 137.159 77.0496L135.964 77.0435ZM134.175 83.1505C132.999 84.8354 131.298 86.1435 129.039 87.062L129.489 88.1695C131.927 87.1781 133.827 85.7374 135.155 83.8347L134.175 83.1505ZM129.038 87.0625C126.792 87.9806 124.054 88.4505 120.805 88.4505V89.646C124.163 89.646 127.064 89.1609 129.49 88.169L129.038 87.0625ZM120.805 88.4505C117.546 88.4505 114.735 87.9622 112.356 87.0033L111.909 88.1121C114.46 89.1405 117.43 89.646 120.805 89.646V88.4505ZM112.356 87.0033C109.992 86.0501 108.174 84.6122 106.879 82.6936L105.888 83.3625C107.328 85.496 109.344 87.0779 111.909 88.1121L112.356 87.0033ZM106.879 82.6936C105.591 80.787 104.909 78.3472 104.871 75.3356L103.676 75.3505C103.715 78.5334 104.439 81.2169 105.888 83.3625L106.879 82.6936ZM104.273 75.9408H113.449V74.7453H104.273V75.9408ZM112.852 75.3792C112.935 76.7435 113.303 77.9223 113.988 78.8838L114.962 78.1903C114.433 77.4483 114.118 76.4978 114.045 75.3069L112.852 75.3792ZM113.988 78.8838C114.666 79.8355 115.591 80.5475 116.743 81.025L117.201 79.9207C116.236 79.5206 115.497 78.9421 114.962 78.1903L113.988 78.8838ZM116.745 81.0259C117.902 81.4998 119.221 81.7287 120.689 81.7287V80.5332C119.343 80.5332 118.184 80.3234 117.198 79.9197L116.745 81.0259ZM120.689 81.7287C122.03 81.7287 123.204 81.5481 124.194 81.166L123.764 80.0506C122.948 80.3654 121.929 80.5332 120.689 80.5332V81.7287ZM124.192 81.167C125.185 80.7894 125.986 80.2496 126.558 79.5275L125.621 78.7855C125.212 79.3023 124.606 79.7303 123.767 80.0496L124.192 81.167ZM126.558 79.5275C127.131 78.8036 127.427 77.9665 127.442 77.0368L126.247 77.0175C126.236 77.6881 126.028 78.2705 125.621 78.7855L126.558 79.5275ZM127.442 77.0169C127.427 76.141 127.151 75.3656 126.602 74.7227L125.693 75.4989C126.047 75.9141 126.236 76.4164 126.247 77.0375L127.442 77.0169ZM126.607 74.7281C126.071 74.0855 125.279 73.573 124.284 73.1642L123.83 74.2699C124.719 74.6354 125.32 75.052 125.688 75.4934L126.607 74.7281ZM124.293 73.168C123.32 72.7491 122.096 72.3716 120.63 72.0314L120.36 73.1959C121.785 73.5267 122.935 73.8849 123.82 74.266L124.293 73.168ZM120.631 72.0316L116.488 71.0637L116.216 72.2278L120.359 73.1957L120.631 72.0316ZM116.486 71.0632C113.12 70.2912 110.517 69.0554 108.639 67.3856L107.845 68.2791C109.915 70.1194 112.72 71.4259 116.219 72.2284L116.486 71.0632ZM108.64 67.387C106.811 65.749 105.885 63.5341 105.897 60.6726L104.702 60.6675C104.688 63.8197 105.723 66.3797 107.843 68.2776L108.64 67.387ZM105.897 60.6669C105.885 58.331 106.509 56.308 107.759 54.5733L106.789 53.8746C105.38 55.8308 104.688 58.1052 104.702 60.6732L105.897 60.6669ZM107.759 54.5733C109.018 52.8252 110.767 51.4495 113.031 50.4544L112.55 49.36C110.117 50.4298 108.188 51.9319 106.789 53.8746L107.759 54.5733ZM113.031 50.4544C115.292 49.4606 117.886 48.9564 120.824 48.9564V47.7609C117.748 47.7609 114.987 48.2891 112.55 49.36L113.031 50.4544ZM120.824 48.9564C123.829 48.9564 126.404 49.4677 128.568 50.469L129.07 49.3842C126.717 48.2949 123.962 47.7609 120.824 47.7609V48.9564ZM128.571 50.4708C130.753 51.4623 132.423 52.8454 133.607 54.6144L134.6 53.9497C133.28 51.9762 131.427 50.4557 129.066 49.3824L128.571 50.4708ZM133.607 54.6144C134.788 56.3799 135.397 58.4323 135.422 60.7924L136.617 60.7799C136.591 58.2104 135.923 55.9266 134.6 53.9497L133.607 54.6144ZM136.02 60.1885H126.844V61.3839H136.02V60.1885ZM143.008 88.5449L142.474 88.2755L142.036 89.1427H143.008V88.5449ZM158.997 56.876L159.531 57.1454L159.595 57.0183V56.876H158.997ZM158.997 56.6243H159.595V56.0266H158.997V56.6243ZM140.298 56.6243H139.7V57.222H140.298V56.6243ZM140.298 48.9007V48.3029H139.7V48.9007H140.298ZM168.908 48.9007H169.506V48.3029H168.908V48.9007ZM168.908 56.6824L169.442 56.9513L169.506 56.8244V56.6824H168.908ZM152.861 88.5449V89.1427H153.229L153.395 88.8138L152.861 88.5449ZM143.541 88.8143L159.531 57.1454L158.464 56.6066L142.474 88.2755L143.541 88.8143ZM159.595 56.876V56.6243H158.399V56.876H159.595ZM158.997 56.0266H140.298V57.222H158.997V56.0266ZM140.896 56.6243V48.9007H139.7V56.6243H140.896ZM140.298 49.4984H168.908V48.3029H140.298V49.4984ZM168.311 48.9007V56.6824H169.506V48.9007H168.311ZM168.374 56.4135L152.327 88.2761L153.395 88.8138L169.442 56.9513L168.374 56.4135ZM152.861 87.9472H143.008V89.1427H152.861V87.9472ZM177.092 83.1248L177.687 83.1731L177.74 82.5271H177.092V83.1248ZM176.917 85.2735L177.513 85.3253L177.513 85.3218L176.917 85.2735ZM175.969 90.4807L175.394 90.3182L175.392 90.3234L175.969 90.4807ZM174.478 95.0684L173.922 94.851L174.478 95.0684ZM173.22 98.2237V98.8214H173.62L173.772 98.4522L173.22 98.2237ZM167.258 98.2237L166.682 98.0647L166.473 98.8214H167.258V98.2237ZM168.09 95.0684L167.513 94.9144L167.511 94.9196L168.09 95.0684ZM169.097 90.4807L168.509 90.3737L169.097 90.4807ZM169.62 85.2929L170.217 85.306L170.217 85.3035L169.62 85.2929ZM169.658 83.1248V82.5271H169.071L169.061 83.1141L169.658 83.1248ZM176.496 83.0765L176.322 85.2252L177.513 85.3218L177.687 83.1731L176.496 83.0765ZM176.322 85.2217C176.17 86.9658 175.861 88.6645 175.394 90.3182L176.544 90.6431C177.032 88.9158 177.355 87.143 177.513 85.3253L176.322 85.2217ZM175.392 90.3234C174.932 92.0106 174.442 93.5193 173.922 94.851L175.035 95.2858C175.573 93.9075 176.077 92.3577 176.546 90.6379L175.392 90.3234ZM173.922 94.851C173.393 96.2047 172.975 97.2522 172.668 97.9952L173.772 98.4522C174.084 97.6982 174.506 96.6422 175.035 95.2858L173.922 94.851ZM173.22 97.626H167.258V98.8214H173.22V97.626ZM167.834 98.3827C168.042 97.6292 168.321 96.5735 168.669 95.2173L167.511 94.9196C167.163 96.2734 166.887 97.3213 166.682 98.0647L167.834 98.3827ZM168.668 95.2224C169.034 93.8488 169.373 92.3034 169.685 90.5876L168.509 90.3737C168.201 92.0649 167.869 93.578 167.513 94.9144L168.668 95.2224ZM169.685 90.5876C170 88.8528 170.178 87.0921 170.217 85.306L169.022 85.2797C168.984 87.0037 168.813 88.7017 168.509 90.3737L169.685 90.5876ZM170.217 85.3035L170.256 83.1355L169.061 83.1141L169.022 85.2822L170.217 85.3035ZM169.658 83.7225H177.092V82.5271H169.658V83.7225ZM190.032 87.0544L189.703 87.5533L189.705 87.5545L190.032 87.0544ZM184.244 79.9502L183.697 80.1898L183.697 80.1906L184.244 79.9502ZM182.231 68.7809L181.633 68.7791L182.231 68.7809ZM184.264 57.7083L183.717 57.4654L183.717 57.4664L184.264 57.7083ZM190.032 50.759L190.353 51.263L190.354 51.2626L190.032 50.759ZM207.919 50.759L207.597 51.2626L207.6 51.2645L207.919 50.759ZM213.726 57.7083L214.272 57.4654L213.726 57.7083ZM215.739 68.7809L215.141 68.7791V68.7809H215.739ZM213.706 79.9695L213.159 79.7299V79.7299L213.706 79.9695ZM207.919 87.0737L208.245 87.5743L208.246 87.5739L207.919 87.0737ZM203.989 78.5177L204.5 78.828L204.501 78.8266L203.989 78.5177ZM205.886 68.7809H205.288L205.288 68.7826L205.886 68.7809ZM205.015 61.696L204.444 61.8732L204.444 61.8743L205.015 61.696ZM202.595 57.5148L202.992 57.0677L202.595 57.5148ZM194 59.2569L194.51 59.5691L194.511 59.5677L194 59.2569ZM192.084 68.7809L192.682 68.7835V68.7827L192.084 68.7809ZM192.916 76.0012L192.343 76.1716L192.345 76.1751L192.916 76.0012ZM195.355 80.2792L194.955 80.7233L194.958 80.726L195.355 80.2792ZM198.975 88.9151C195.615 88.9151 192.751 88.1201 190.36 86.5543L189.705 87.5545C192.32 89.2666 195.419 90.1105 198.975 90.1105V88.9151ZM190.361 86.5555C187.965 84.9746 186.106 82.7021 184.792 79.7097L183.697 80.1906C185.092 83.3669 187.092 85.8305 189.703 87.5533L190.361 86.5555ZM184.792 79.7106C183.478 76.7079 182.816 73.0714 182.829 68.7826L181.633 68.7791C181.62 73.1883 182.3 76.998 183.697 80.1898L184.792 79.7106ZM182.829 68.7826C182.842 64.4918 183.51 60.8877 184.81 57.9502L183.717 57.4664C182.333 60.5944 181.646 64.3719 181.633 68.7791L182.829 68.7826ZM184.81 57.9513C186.123 54.9987 187.974 52.7794 190.353 51.263L189.711 50.2549C187.109 51.9132 185.114 54.3268 183.717 57.4654L184.81 57.9513ZM190.354 51.2626C192.747 49.7334 195.612 48.9564 198.975 48.9564V47.7609C195.422 47.7609 192.325 48.5841 189.71 50.2553L190.354 51.2626ZM198.975 48.9564C202.339 48.9564 205.204 49.7334 207.597 51.2626L208.24 50.2553C205.626 48.5841 202.529 47.7609 198.975 47.7609V48.9564ZM207.6 51.2645C210.004 52.7813 211.867 55.0003 213.18 57.9513L214.272 57.4654C212.875 54.3252 210.866 51.9113 208.237 50.2534L207.6 51.2645ZM213.18 57.9513C214.492 60.9004 215.154 64.503 215.141 68.7791L216.337 68.7826C216.35 64.3865 215.67 60.6074 214.272 57.4654L213.18 57.9513ZM215.141 68.7809C215.141 73.0832 214.473 76.7268 213.159 79.7299L214.254 80.2091C215.65 77.0178 216.337 73.2023 216.337 68.7809H215.141ZM213.159 79.7299C211.844 82.735 209.985 85.0063 207.591 86.5736L208.246 87.5739C210.859 85.8633 212.859 83.3985 214.254 80.2091L213.159 79.7299ZM207.592 86.5732C205.214 88.1258 202.351 88.9151 198.975 88.9151V90.1105C202.543 90.1105 205.642 89.2738 208.245 87.5743L207.592 86.5732ZM198.975 82.2707C201.292 82.2707 203.138 81.0699 204.5 78.828L203.478 78.2074C202.284 80.1726 200.788 81.0753 198.975 81.0753V82.2707ZM204.501 78.8266C205.863 76.5691 206.497 73.1903 206.484 68.7791L205.288 68.7826C205.301 73.1211 204.67 76.2334 203.477 78.2088L204.501 78.8266ZM206.484 68.7809C206.484 65.8812 206.191 63.454 205.585 61.5177L204.444 61.8743C205.001 63.6546 205.288 65.9507 205.288 68.7809H206.484ZM205.586 61.5188C204.986 59.5849 204.133 58.0806 202.992 57.0677L202.198 57.9618C203.122 58.7815 203.883 60.0646 204.444 61.8732L205.586 61.5188ZM202.992 57.0677C201.85 56.0543 200.502 55.5426 198.975 55.5426V56.7381C200.21 56.7381 201.275 57.1427 202.198 57.9618L202.992 57.0677ZM198.975 55.5426C196.673 55.5426 194.839 56.729 193.49 58.9462L194.511 59.5677C195.691 57.6294 197.174 56.7381 198.975 56.7381V55.5426ZM193.491 58.9447C192.14 61.1502 191.499 64.4582 191.486 68.7791L192.682 68.7827C192.695 64.5346 193.332 61.4933 194.51 59.5691L193.491 58.9447ZM191.486 68.7782C191.473 71.7162 191.753 74.1862 192.343 76.1716L193.489 75.8309C192.944 73.9963 192.669 71.6528 192.682 68.7835L191.486 68.7782ZM192.345 76.1751C192.944 78.1477 193.802 79.6841 194.955 80.7233L195.756 79.8352C194.818 78.9902 194.05 77.6746 193.488 75.8273L192.345 76.1751ZM194.958 80.726C196.11 81.75 197.457 82.2707 198.975 82.2707V81.0753C197.757 81.0753 196.691 80.6668 195.753 79.8325L194.958 80.726ZM228.68 87.0544L228.35 87.5533L228.352 87.5545L228.68 87.0544ZM222.892 79.9502L222.344 80.1898L222.344 80.1906L222.892 79.9502ZM220.878 68.7809L220.281 68.7791L220.878 68.7809ZM222.911 57.7083L222.365 57.4654L222.364 57.4664L222.911 57.7083ZM228.68 50.759L229.001 51.263L229.001 51.2626L228.68 50.759ZM246.566 50.759L246.244 51.2626L246.247 51.2645L246.566 50.759ZM252.373 57.7083L252.919 57.4654L252.373 57.7083ZM254.386 68.7809L253.789 68.7791V68.7809H254.386ZM252.354 79.9695L251.806 79.7299V79.7299L252.354 79.9695ZM246.566 87.0737L246.893 87.5743L246.893 87.5739L246.566 87.0737ZM242.636 78.5177L243.147 78.828L243.148 78.8266L242.636 78.5177ZM244.533 68.7809H243.936V68.7826L244.533 68.7809ZM243.662 61.696L243.091 61.8732L243.092 61.8743L243.662 61.696ZM241.243 57.5148L241.639 57.0677L241.243 57.5148ZM232.648 59.2569L233.158 59.5691L233.158 59.5677L232.648 59.2569ZM230.731 68.7809L231.329 68.7835V68.7827L230.731 68.7809ZM231.564 76.0012L230.991 76.1716L230.992 76.1751L231.564 76.0012ZM234.003 80.2792L233.603 80.7233L233.606 80.726L234.003 80.2792ZM237.623 88.9151C234.262 88.9151 231.399 88.1201 229.007 86.5543L228.352 87.5545C230.967 89.2666 234.066 90.1105 237.623 90.1105V88.9151ZM229.009 86.5555C226.613 84.9746 224.753 82.7021 223.439 79.7097L222.344 80.1906C223.74 83.3669 225.739 85.8305 228.35 87.5533L229.009 86.5555ZM223.439 79.7106C222.126 76.7079 221.463 73.0714 221.476 68.7826L220.281 68.7791C220.268 73.1883 220.948 76.998 222.344 80.1898L223.439 79.7106ZM221.476 68.7826C221.489 64.4918 222.158 60.8877 223.458 57.9502L222.364 57.4664C220.98 60.5944 220.294 64.3719 220.281 68.7791L221.476 68.7826ZM223.457 57.9513C224.771 54.9987 226.621 52.7794 229.001 51.263L228.358 50.2549C225.756 51.9132 223.761 54.3268 222.365 57.4654L223.457 57.9513ZM229.001 51.2626C231.394 49.7334 234.259 48.9564 237.623 48.9564V47.7609C234.069 47.7609 230.972 48.5841 228.358 50.2553L229.001 51.2626ZM237.623 48.9564C240.986 48.9564 243.851 49.7334 246.244 51.2626L246.888 50.2553C244.273 48.5841 241.176 47.7609 237.623 47.7609V48.9564ZM246.247 51.2645C248.652 52.7813 250.514 55.0003 251.827 57.9513L252.919 57.4654C251.522 54.3252 249.513 51.9113 246.885 50.2534L246.247 51.2645ZM251.827 57.9513C253.139 60.9004 253.801 64.503 253.789 68.7791L254.984 68.7826C254.997 64.3865 254.317 60.6074 252.919 57.4654L251.827 57.9513ZM253.789 68.7809C253.789 73.0832 253.12 76.7268 251.806 79.7299L252.901 80.2091C254.298 77.0178 254.984 73.2023 254.984 68.7809H253.789ZM251.806 79.7299C250.491 82.735 248.633 85.0063 246.239 86.5736L246.893 87.5739C249.506 85.8633 251.506 83.3985 252.901 80.2091L251.806 79.7299ZM246.239 86.5732C243.861 88.1258 240.998 88.9151 237.623 88.9151V90.1105C241.19 90.1105 244.289 89.2738 246.893 87.5743L246.239 86.5732ZM237.623 82.2707C239.939 82.2707 241.786 81.0699 243.147 78.828L242.125 78.2074C240.932 80.1726 239.436 81.0753 237.623 81.0753V82.2707ZM243.148 78.8266C244.511 76.5691 245.144 73.1903 245.131 68.7791L243.936 68.7826C243.948 73.1211 243.317 76.2334 242.125 78.2088L243.148 78.8266ZM245.131 68.7809C245.131 65.8812 244.838 63.454 244.233 61.5177L243.092 61.8743C243.648 63.6546 243.936 65.9507 243.936 68.7809H245.131ZM244.233 61.5188C243.633 59.5849 242.781 58.0806 241.639 57.0677L240.846 57.9618C241.769 58.7815 242.53 60.0646 243.091 61.8732L244.233 61.5188ZM241.639 57.0677C240.498 56.0543 239.15 55.5426 237.623 55.5426V56.7381C238.857 56.7381 239.923 57.1427 240.846 57.9618L241.639 57.0677ZM237.623 55.5426C235.321 55.5426 233.487 56.729 232.137 58.9462L233.158 59.5677C234.338 57.6294 235.821 56.7381 237.623 56.7381V55.5426ZM232.138 58.9447C230.787 61.1502 230.147 64.4582 230.134 68.7791L231.329 68.7827C231.342 64.5346 231.979 61.4933 233.158 59.5691L232.138 58.9447ZM230.134 68.7782C230.121 71.7162 230.401 74.1862 230.991 76.1716L232.137 75.8309C231.591 73.9963 231.316 71.6528 231.329 68.7835L230.134 68.7782ZM230.992 76.1751C231.592 78.1477 232.45 79.6841 233.603 80.7233L234.403 79.8352C233.465 78.9902 232.697 77.6746 232.136 75.8273L230.992 76.1751ZM233.606 80.726C234.758 81.75 236.105 82.2707 237.623 82.2707V81.0753C236.405 81.0753 235.339 80.6668 234.4 79.8325L233.606 80.726ZM267.327 87.0544L266.998 87.5533L266.999 87.5545L267.327 87.0544ZM261.539 79.9502L260.991 80.1898L260.992 80.1906L261.539 79.9502ZM259.526 68.7809L258.928 68.7791L259.526 68.7809ZM261.558 57.7083L261.012 57.4654L261.012 57.4664L261.558 57.7083ZM267.327 50.759L267.648 51.263L267.649 51.2626L267.327 50.759ZM285.213 50.759L284.891 51.2626L284.894 51.2645L285.213 50.759ZM291.021 57.7083L291.567 57.4654L291.021 57.7083ZM293.034 68.7809L292.436 68.7791V68.7809H293.034ZM291.001 79.9695L290.454 79.7299V79.7299L291.001 79.9695ZM285.213 87.0737L285.54 87.5743L285.541 87.5739L285.213 87.0737ZM281.284 78.5177L281.795 78.828L281.795 78.8266L281.284 78.5177ZM283.181 68.7809H282.583L282.583 68.7826L283.181 68.7809ZM282.31 61.696L281.739 61.8732L281.739 61.8743L282.31 61.696ZM279.89 57.5148L280.287 57.0677L279.89 57.5148ZM271.295 59.2569L271.805 59.5691L271.806 59.5677L271.295 59.2569ZM269.379 68.7809L269.976 68.7835L269.977 68.7827L269.379 68.7809ZM270.211 76.0012L269.638 76.1716L269.639 76.1751L270.211 76.0012ZM272.65 80.2792L272.25 80.7233L272.253 80.726L272.65 80.2792ZM276.27 88.9151C272.909 88.9151 270.046 88.1201 267.654 86.5543L266.999 87.5545C269.615 89.2666 272.714 90.1105 276.27 90.1105V88.9151ZM267.656 86.5555C265.26 84.9746 263.401 82.7021 262.086 79.7097L260.992 80.1906C262.387 83.3669 264.387 85.8305 266.998 87.5533L267.656 86.5555ZM262.087 79.7106C260.773 76.7079 260.111 73.0714 260.124 68.7826L258.928 68.7791C258.915 73.1883 259.595 76.998 260.991 80.1898L262.087 79.7106ZM260.124 68.7826C260.136 64.4918 260.805 60.8877 262.105 57.9502L261.012 57.4664C259.627 60.5944 258.941 64.3719 258.928 68.7791L260.124 68.7826ZM262.104 57.9513C263.418 54.9987 265.269 52.7794 267.648 51.263L267.006 50.2549C264.404 51.9132 262.409 54.3268 261.012 57.4654L262.104 57.9513ZM267.649 51.2626C270.041 49.7334 272.907 48.9564 276.27 48.9564V47.7609C272.717 47.7609 269.62 48.5841 267.005 50.2553L267.649 51.2626ZM276.27 48.9564C279.634 48.9564 282.499 49.7334 284.891 51.2626L285.535 50.2553C282.921 48.5841 279.824 47.7609 276.27 47.7609V48.9564ZM284.894 51.2645C287.299 52.7813 289.161 55.0003 290.474 57.9513L291.567 57.4654C290.17 54.3252 288.16 51.9113 285.532 50.2534L284.894 51.2645ZM290.474 57.9513C291.786 60.9004 292.449 64.503 292.436 68.7791L293.631 68.7826C293.645 64.3865 292.965 60.6074 291.567 57.4654L290.474 57.9513ZM292.436 68.7809C292.436 73.0832 291.767 76.7268 290.454 79.7299L291.549 80.2091C292.945 77.0178 293.631 73.2023 293.631 68.7809H292.436ZM290.454 79.7299C289.139 82.735 287.28 85.0063 284.886 86.5736L285.541 87.5739C288.154 85.8633 290.153 83.3985 291.549 80.2091L290.454 79.7299ZM284.886 86.5732C282.508 88.1258 279.645 88.9151 276.27 88.9151V90.1105C279.838 90.1105 282.937 89.2738 285.54 87.5743L284.886 86.5732ZM276.27 82.2707C278.587 82.2707 280.433 81.0699 281.795 78.828L280.773 78.2074C279.579 80.1726 278.083 81.0753 276.27 81.0753V82.2707ZM281.795 78.8266C283.158 76.5691 283.791 73.1903 283.778 68.7791L282.583 68.7826C282.596 73.1211 281.964 76.2334 280.772 78.2088L281.795 78.8266ZM283.778 68.7809C283.778 65.8812 283.485 63.454 282.88 61.5177L281.739 61.8743C282.295 63.6546 282.583 65.9507 282.583 68.7809H283.778ZM282.88 61.5188C282.28 59.5849 281.428 58.0806 280.287 57.0677L279.493 57.9618C280.417 58.7815 281.177 60.0646 281.739 61.8732L282.88 61.5188ZM280.287 57.0677C279.145 56.0543 277.797 55.5426 276.27 55.5426V56.7381C277.505 56.7381 278.57 57.1427 279.493 57.9618L280.287 57.0677ZM276.27 55.5426C273.968 55.5426 272.134 56.729 270.785 58.9462L271.806 59.5677C272.986 57.6294 274.468 56.7381 276.27 56.7381V55.5426ZM270.785 58.9447C269.435 61.1502 268.794 64.4582 268.781 68.7791L269.977 68.7827C269.989 64.5346 270.626 61.4933 271.805 59.5691L270.785 58.9447ZM268.781 68.7782C268.768 71.7162 269.048 74.1862 269.638 76.1716L270.784 75.8309C270.239 73.9963 269.964 71.6528 269.976 68.7835L268.781 68.7782ZM269.639 76.1751C270.239 78.1477 271.097 79.6841 272.25 80.7233L273.05 79.8352C272.113 78.9902 271.345 77.6746 270.783 75.8273L269.639 76.1751ZM272.253 80.726C273.405 81.75 274.752 82.2707 276.27 82.2707V81.0753C275.052 81.0753 273.986 80.6668 273.047 79.8325L272.253 80.726Z" fill="url(#paint0_linear_1178_10930)"/>
<path d="M116.957 90.5415V40.9861H120.131V90.5415H116.957ZM124.603 57.8272C124.474 56.4077 123.9 55.3043 122.88 54.5171C121.874 53.717 120.435 53.3169 118.564 53.3169C117.325 53.3169 116.292 53.4782 115.466 53.8008C114.64 54.1235 114.021 54.5687 113.608 55.1365C113.195 55.6914 112.982 56.3302 112.969 57.0529C112.943 57.6465 113.06 58.1692 113.318 58.6209C113.589 59.0725 113.976 59.4726 114.479 59.821C114.995 60.1566 115.615 60.4534 116.337 60.7115C117.06 60.9696 117.873 61.1954 118.776 61.389L122.183 62.1633C124.145 62.5892 125.874 63.157 127.371 63.8668C128.881 64.5765 130.146 65.4218 131.165 66.4026C132.198 67.3834 132.978 68.5126 133.508 69.7902C134.037 71.0678 134.308 72.5002 134.321 74.0876C134.308 76.5911 133.675 78.7398 132.424 80.5336C131.172 82.3274 129.371 83.7018 127.023 84.6568C124.687 85.6117 121.867 86.0892 118.564 86.0892C115.247 86.0892 112.356 85.5924 109.891 84.5987C107.426 83.605 105.51 82.0951 104.142 80.069C102.774 78.0429 102.071 75.4813 102.032 72.3841H111.208C111.285 73.6617 111.627 74.7264 112.234 75.5781C112.84 76.4298 113.672 77.0751 114.731 77.5138C115.802 77.9526 117.041 78.172 118.447 78.172C119.738 78.172 120.835 77.9978 121.738 77.6493C122.654 77.3009 123.358 76.817 123.848 76.1975C124.339 75.5781 124.59 74.8683 124.603 74.0682C124.59 73.3197 124.358 72.6809 123.906 72.1518C123.455 71.6098 122.758 71.1452 121.816 70.7581C120.886 70.358 119.699 69.9902 118.254 69.6547L114.111 68.6868C110.679 67.8996 107.975 66.6284 106 64.8734C104.026 63.1054 103.045 60.7179 103.058 57.7111C103.045 55.2591 103.703 53.1104 105.033 51.265C106.362 49.4196 108.201 47.9807 110.549 46.9483C112.898 45.9159 115.576 45.3997 118.583 45.3997C121.654 45.3997 124.319 45.9223 126.578 46.9676C128.849 48 130.61 49.4518 131.862 51.3231C133.114 53.1943 133.753 55.3623 133.779 57.8272H124.603ZM140.767 85.5859L156.756 53.917V53.6653H138.057V45.9417H166.667V53.7234L150.62 85.5859H140.767ZM174.85 80.1658L174.676 82.3145C174.521 84.0954 174.205 85.8311 173.728 87.5217C173.263 89.2252 172.766 90.7544 172.237 92.1094C171.708 93.4645 171.289 94.5162 170.979 95.2647H165.017C165.223 94.5162 165.501 93.4645 165.849 92.1094C166.211 90.7544 166.546 89.2252 166.856 87.5217C167.165 85.8182 167.34 84.089 167.378 82.3339L167.417 80.1658H174.85ZM196.734 86.5538C193.276 86.5538 190.295 85.7343 187.791 84.0954C185.287 82.4436 183.358 80.0755 182.003 76.9912C180.648 73.894 179.977 70.1709 179.99 65.8219C180.003 61.4729 180.68 57.782 182.022 54.7494C183.377 51.7038 185.3 49.3873 187.791 47.8C190.295 46.1998 193.276 45.3997 196.734 45.3997C200.193 45.3997 203.174 46.1998 205.677 47.8C208.194 49.3873 210.13 51.7038 211.485 54.7494C212.84 57.7949 213.511 61.4858 213.498 65.8219C213.498 70.1838 212.82 73.9133 211.465 77.0105C210.11 80.1077 208.181 82.4758 205.677 84.1148C203.187 85.7408 200.206 86.5538 196.734 86.5538ZM196.734 78.714C198.799 78.714 200.47 77.6622 201.748 75.5587C203.025 73.4423 203.658 70.1967 203.645 65.8219C203.645 62.957 203.354 60.5953 202.774 58.737C202.193 56.8658 201.386 55.472 200.354 54.5558C199.322 53.6395 198.115 53.1814 196.734 53.1814C194.682 53.1814 193.024 54.2202 191.759 56.298C190.495 58.3628 189.856 61.5374 189.843 65.8219C189.83 68.7255 190.107 71.1323 190.675 73.0422C191.256 74.9522 192.069 76.3782 193.114 77.3203C194.16 78.2494 195.366 78.714 196.734 78.714ZM235.381 86.5538C231.923 86.5538 228.942 85.7343 226.438 84.0954C223.935 82.4436 222.005 80.0755 220.65 76.9912C219.295 73.894 218.624 70.1709 218.637 65.8219C218.65 61.4729 219.328 57.782 220.67 54.7494C222.025 51.7038 223.948 49.3873 226.438 47.8C228.942 46.1998 231.923 45.3997 235.381 45.3997C238.84 45.3997 241.821 46.1998 244.325 47.8C246.841 49.3873 248.777 51.7038 250.132 54.7494C251.487 57.7949 252.158 61.4858 252.145 65.8219C252.145 70.1838 251.468 73.9133 250.113 77.0105C248.758 80.1077 246.828 82.4758 244.325 84.1148C241.834 85.7408 238.853 86.5538 235.381 86.5538ZM235.381 78.714C237.446 78.714 239.118 77.6622 240.395 75.5587C241.673 73.4423 242.305 70.1967 242.292 65.8219C242.292 62.957 242.002 60.5953 241.421 58.737C240.84 56.8658 240.034 55.472 239.001 54.5558C237.969 53.6395 236.762 53.1814 235.381 53.1814C233.33 53.1814 231.671 54.2202 230.407 56.298C229.142 58.3628 228.503 61.5374 228.49 65.8219C228.477 68.7255 228.755 71.1323 229.323 73.0422C229.903 74.9522 230.716 76.3782 231.762 77.3203C232.807 78.2494 234.014 78.714 235.381 78.714ZM274.029 86.5538C270.57 86.5538 267.589 85.7343 265.086 84.0954C262.582 82.4436 260.653 80.0755 259.298 76.9912C257.943 73.894 257.272 70.1709 257.285 65.8219C257.297 61.4729 257.975 57.782 259.317 54.7494C260.672 51.7038 262.595 49.3873 265.086 47.8C267.589 46.1998 270.57 45.3997 274.029 45.3997C277.487 45.3997 280.468 46.1998 282.972 47.8C285.489 49.3873 287.424 51.7038 288.779 54.7494C290.134 57.7949 290.805 61.4858 290.792 65.8219C290.792 70.1838 290.115 73.9133 288.76 77.0105C287.405 80.1077 285.476 82.4758 282.972 84.1148C280.481 85.7408 277.5 86.5538 274.029 86.5538ZM274.029 78.714C276.094 78.714 277.765 77.6622 279.042 75.5587C280.32 73.4423 280.952 70.1967 280.939 65.8219C280.939 62.957 280.649 60.5953 280.068 58.737C279.488 56.8658 278.681 55.472 277.649 54.5558C276.616 53.6395 275.41 53.1814 274.029 53.1814C271.977 53.1814 270.319 54.2202 269.054 56.298C267.789 58.3628 267.15 61.5374 267.138 65.8219C267.125 68.7255 267.402 71.1323 267.97 73.0422C268.551 74.9522 269.364 76.3782 270.409 77.3203C271.454 78.2494 272.661 78.714 274.029 78.714Z" fill="url(#paint1_linear_1178_10930)"/>
<path d="M116.957 90.5415H115.314V92.1846H116.957V90.5415ZM116.957 40.9861V39.343H115.314V40.9861H116.957ZM120.131 40.9861H121.775V39.343H120.131V40.9861ZM120.131 90.5415V92.1846H121.775V90.5415H120.131ZM124.603 57.8272L122.967 57.976L123.103 59.4703H124.603V57.8272ZM122.88 54.5171L121.858 55.8033L121.867 55.8105L121.876 55.8176L122.88 54.5171ZM115.466 53.8008L114.868 52.2704H114.868L115.466 53.8008ZM113.608 55.1365L114.926 56.1175L114.931 56.1102L114.937 56.1029L113.608 55.1365ZM112.969 57.0529L114.611 57.1243L114.612 57.1033L114.612 57.0822L112.969 57.0529ZM113.318 58.6209L111.891 59.4361L111.9 59.4512L111.909 59.4662L113.318 58.6209ZM114.479 59.821L113.544 61.172L113.563 61.1856L113.584 61.1987L114.479 59.821ZM116.337 60.7115L116.89 59.1641L116.337 60.7115ZM118.776 61.389L119.141 59.7868L119.131 59.7845L119.121 59.7824L118.776 61.389ZM122.183 62.1633L121.819 63.7655L121.827 63.7673L121.835 63.769L122.183 62.1633ZM127.371 63.8668L126.667 65.3514L126.672 65.3538L127.371 63.8668ZM131.165 66.4026L130.026 67.5867L130.034 67.5938L131.165 66.4026ZM133.508 69.7902L131.989 70.4189L133.508 69.7902ZM134.321 74.0876L135.964 74.096L135.964 74.0851L135.964 74.0742L134.321 74.0876ZM132.424 80.5336L131.076 79.5933H131.076L132.424 80.5336ZM127.023 84.6568L126.404 83.1347L126.401 83.1359L127.023 84.6568ZM109.891 84.5987L110.506 83.0748L109.891 84.5987ZM102.032 72.3841V70.741H100.368L100.389 72.4046L102.032 72.3841ZM111.208 72.3841L112.848 72.2847L112.754 70.741H111.208V72.3841ZM112.234 75.5781L110.895 76.5312H110.895L112.234 75.5781ZM114.731 77.5138L114.101 79.0316L114.108 79.0343L114.731 77.5138ZM121.738 77.6493L121.154 76.1135L121.147 76.1163L121.738 77.6493ZM123.848 76.1975L122.56 75.1777L123.848 76.1975ZM124.603 74.0682L126.246 74.0947L126.246 74.0673L126.246 74.0399L124.603 74.0682ZM123.906 72.1518L122.644 73.2037L122.65 73.2112L122.657 73.2186L123.906 72.1518ZM121.816 70.7581L121.166 72.2672L121.178 72.2726L121.191 72.2778L121.816 70.7581ZM118.254 69.6547L117.88 71.2547L117.882 71.2552L118.254 69.6547ZM114.111 68.6868L114.485 67.0868L114.479 67.0853L114.111 68.6868ZM106 64.8734L104.904 66.0974L104.909 66.1014L106 64.8734ZM103.058 57.7111L104.701 57.7181L104.701 57.7103L104.701 57.7024L103.058 57.7111ZM105.033 51.265L103.699 50.3047L105.033 51.265ZM110.549 46.9483L111.211 48.4525L111.211 48.4525L110.549 46.9483ZM126.578 46.9676L125.887 48.4588L125.898 48.4634L126.578 46.9676ZM131.862 51.3231L133.228 50.4095L131.862 51.3231ZM133.779 57.8272V59.4703H135.439L135.422 57.81L133.779 57.8272ZM118.6 90.5415V40.9861H115.314V90.5415H118.6ZM116.957 42.6292H120.131V39.343H116.957V42.6292ZM118.488 40.9861V90.5415H121.775V40.9861H118.488ZM120.131 88.8984H116.957V92.1846H120.131V88.8984ZM126.239 57.6784C126.074 55.8576 125.306 54.3145 123.884 53.2165L121.876 55.8176C122.493 56.2941 122.874 56.9577 122.967 57.976L126.239 57.6784ZM123.903 53.2308C122.499 52.115 120.642 51.6738 118.564 51.6738V54.96C120.227 54.96 121.248 55.3189 121.858 55.8033L123.903 53.2308ZM118.564 51.6738C117.195 51.6738 115.944 51.8501 114.868 52.2704L116.064 55.3313C116.64 55.1063 117.454 54.96 118.564 54.96V51.6738ZM114.868 52.2704C113.826 52.6774 112.92 53.2891 112.279 54.1701L114.937 56.1029C115.122 55.8482 115.454 55.5695 116.064 55.3313L114.868 52.2704ZM112.29 54.1556C111.662 54.9989 111.345 55.974 111.326 57.0236L114.612 57.0822C114.619 56.6865 114.728 56.384 114.926 56.1175L112.29 54.1556ZM111.328 56.9815C111.29 57.8399 111.458 58.6784 111.891 59.4361L114.744 57.8057C114.661 57.66 114.596 57.4532 114.611 57.1243L111.328 56.9815ZM111.909 59.4662C112.318 60.1481 112.879 60.712 113.544 61.172L115.414 58.4701C115.072 58.2332 114.859 57.997 114.727 57.7755L111.909 59.4662ZM113.584 61.1987C114.23 61.6185 114.97 61.9678 115.785 62.2589L116.89 59.1641C116.26 58.939 115.761 58.6946 115.375 58.4434L113.584 61.1987ZM115.785 62.2589C116.588 62.5456 117.472 62.7898 118.432 62.9956L119.121 59.7824C118.274 59.601 117.533 59.3936 116.89 59.1641L115.785 62.2589ZM118.412 62.9912L121.819 63.7655L122.548 60.5611L119.141 59.7868L118.412 62.9912ZM121.835 63.769C123.698 64.1736 125.305 64.7053 126.667 65.3514L128.075 62.3821C126.444 61.6086 124.591 61.0047 122.532 60.5576L121.835 63.769ZM126.672 65.3538C128.048 66.0006 129.157 66.7502 130.026 67.5867L132.304 65.2185C131.135 64.0934 129.714 63.1525 128.07 62.3798L126.672 65.3538ZM130.034 67.5938C130.904 68.4211 131.551 69.3602 131.989 70.4189L135.026 69.1615C134.406 67.665 133.491 66.3457 132.297 65.2114L130.034 67.5938ZM131.989 70.4189C132.427 71.4746 132.666 72.6939 132.678 74.1009L135.964 74.0742C135.949 72.3066 135.647 70.6609 135.026 69.1615L131.989 70.4189ZM132.677 74.0791C132.666 76.2991 132.11 78.1111 131.076 79.5933L133.771 81.4739C135.24 79.3685 135.949 76.8832 135.964 74.096L132.677 74.0791ZM131.076 79.5933C130.033 81.0876 128.506 82.2798 126.404 83.1347L127.642 86.1789C130.236 85.1238 132.31 83.5673 133.771 81.4739L131.076 79.5933ZM126.401 83.1359C124.313 83.9894 121.717 84.4461 118.564 84.4461V87.7323C122.018 87.7323 125.061 87.2341 127.645 86.1777L126.401 83.1359ZM118.564 84.4461C115.407 84.4461 112.733 83.9729 110.506 83.0748L109.277 86.1226C111.979 87.2119 115.087 87.7323 118.564 87.7323V84.4461ZM110.506 83.0748C108.317 82.1924 106.673 80.8805 105.504 79.1496L102.78 80.9884C104.348 83.3098 106.536 85.0176 109.277 86.1226L110.506 83.0748ZM105.504 79.1496C104.358 77.4521 103.711 75.2254 103.675 72.3635L100.389 72.4046C100.431 75.7372 101.191 78.6338 102.78 80.9884L105.504 79.1496ZM102.032 74.0272H111.208V70.741H102.032V74.0272ZM109.568 72.4835C109.659 73.9993 110.074 75.3779 110.895 76.5312L113.572 74.625C113.18 74.0748 112.911 73.3241 112.848 72.2847L109.568 72.4835ZM110.895 76.5312C111.697 77.6577 112.787 78.4865 114.101 79.0316L115.36 75.996C114.558 75.6636 113.983 75.202 113.572 74.625L110.895 76.5312ZM114.108 79.0343C115.414 79.5695 116.872 79.8151 118.447 79.8151V76.5289C117.21 76.5289 116.189 76.3358 115.354 75.9934L114.108 79.0343ZM118.447 79.8151C119.877 79.8151 121.186 79.6233 122.329 79.1824L121.147 76.1163C120.483 76.3722 119.599 76.5289 118.447 76.5289V79.8151ZM122.322 79.1851C123.449 78.7566 124.423 78.1191 125.136 77.2174L122.56 75.1777C122.293 75.5149 121.86 75.8452 121.154 76.1135L122.322 79.1851ZM125.136 77.2174C125.854 76.3109 126.227 75.2509 126.246 74.0947L122.96 74.0417C122.953 74.4857 122.823 74.8453 122.56 75.1777L125.136 77.2174ZM126.246 74.0399C126.227 72.9413 125.875 71.927 125.156 71.085L122.657 73.2186C122.841 73.4348 122.953 73.6981 122.96 74.0965L126.246 74.0399ZM125.168 71.0999C124.486 70.2814 123.527 69.6851 122.44 69.2383L121.191 72.2778C121.988 72.6053 122.423 72.9381 122.644 73.2037L125.168 71.0999ZM122.465 69.2489C121.415 68.7968 120.126 68.4026 118.625 68.0541L117.882 71.2552C119.272 71.5778 120.357 71.9192 121.166 72.2672L122.465 69.2489ZM118.628 68.0547L114.485 67.0868L113.737 70.2868L117.88 71.2547L118.628 68.0547ZM114.479 67.0853C111.229 66.34 108.803 65.1661 107.092 63.6453L104.909 66.1014C107.147 68.0908 110.129 69.4592 113.744 70.2883L114.479 67.0853ZM107.097 63.6493C105.521 62.2386 104.69 60.3254 104.701 57.7181L101.415 57.704C101.4 61.1104 102.531 63.9722 104.904 66.0974L107.097 63.6493ZM104.701 57.7024C104.69 55.5694 105.256 53.7662 106.366 52.2253L103.699 50.3047C102.151 52.4546 101.4 54.9489 101.415 57.7197L104.701 57.7024ZM106.366 52.2253C107.502 50.6473 109.095 49.3823 111.211 48.4525L109.888 45.4441C107.306 46.5791 105.221 48.1919 103.699 50.3047L106.366 52.2253ZM111.211 48.4525C113.318 47.526 115.765 47.0428 118.583 47.0428V43.7566C115.387 43.7566 112.478 44.3057 109.888 45.4441L111.211 48.4525ZM118.583 47.0428C121.47 47.0428 123.89 47.5342 125.887 48.4587L127.268 45.4765C124.748 44.3105 121.838 43.7566 118.583 43.7566V47.0428ZM125.898 48.4634C127.922 49.3835 129.433 50.6465 130.496 52.2367L133.228 50.4095C131.788 48.2572 129.776 46.6166 127.257 45.4718L125.898 48.4634ZM130.496 52.2367C131.554 53.8173 132.113 55.6674 132.136 57.8444L135.422 57.81C135.393 55.0573 134.674 52.5713 133.228 50.4095L130.496 52.2367ZM133.779 56.1841H124.603V59.4703H133.779V56.1841ZM140.767 85.5859L139.3 84.8454L138.096 87.229H140.767V85.5859ZM156.756 53.917L158.223 54.6575L158.399 54.3083V53.917H156.756ZM156.756 53.6653H158.399V52.0222H156.756V53.6653ZM138.057 53.6653H136.413V55.3084H138.057V53.6653ZM138.057 45.9417V44.2986H136.413V45.9417H138.057ZM166.667 45.9417H168.31V44.2986H166.667V45.9417ZM166.667 53.7234L168.135 54.4625L168.31 54.1138V53.7234H166.667ZM150.62 85.5859V87.229H151.632L152.087 86.325L150.62 85.5859ZM142.233 86.3265L158.223 54.6575L155.289 53.1764L139.3 84.8454L142.233 86.3265ZM158.399 53.917V53.6653H155.113V53.917H158.399ZM156.756 52.0222H138.057V55.3084H156.756V52.0222ZM139.7 53.6653V45.9417H136.413V53.6653H139.7ZM138.057 47.5848H166.667V44.2986H138.057V47.5848ZM165.024 45.9417V53.7234H168.31V45.9417H165.024ZM165.2 52.9843L149.152 84.8468L152.087 86.325L168.135 54.4625L165.2 52.9843ZM150.62 83.9428H140.767V87.229H150.62V83.9428ZM174.85 80.1658L176.488 80.2986L176.632 78.5227H174.85V80.1658ZM174.676 82.3145L176.313 82.4569L176.314 82.4473L174.676 82.3145ZM173.728 87.5217L172.146 87.0751L172.144 87.0822L172.142 87.0894L173.728 87.5217ZM172.237 92.1094L170.707 91.5118L172.237 92.1094ZM170.979 95.2647V96.9078H172.077L172.497 95.893L170.979 95.2647ZM165.017 95.2647L163.433 94.8278L162.859 96.9078H165.017V95.2647ZM165.849 92.1094L164.262 91.6861L164.26 91.6931L164.258 91.7002L165.849 92.1094ZM166.856 87.5217L165.239 87.2278L166.856 87.5217ZM167.378 82.3339L169.021 82.3701L169.021 82.3632L167.378 82.3339ZM167.417 80.1658V78.5227H165.803L165.774 80.1365L167.417 80.1658ZM173.213 80.033L173.038 82.1817L176.314 82.4473L176.488 80.2986L173.213 80.033ZM173.039 82.1722C172.893 83.8519 172.595 85.4857 172.146 87.0751L175.309 87.9683C175.815 86.1766 176.149 84.3389 176.313 82.4568L173.039 82.1722ZM172.142 87.0894C171.69 88.7482 171.211 90.2208 170.707 91.5118L173.768 92.7071C174.322 91.288 174.836 89.7021 175.313 87.954L172.142 87.0894ZM170.707 91.5118C170.179 92.8632 169.764 93.9031 169.461 94.6365L172.497 95.893C172.813 95.1293 173.237 94.0657 173.768 92.7071L170.707 91.5118ZM170.979 93.6216H165.017V96.9078H170.979V93.6216ZM166.601 95.7017C166.811 94.9394 167.091 93.8769 167.44 92.5186L164.258 91.7002C163.91 93.0521 163.636 94.093 163.433 94.8278L166.601 95.7017ZM167.437 92.5328C167.812 91.1265 168.156 89.553 168.472 87.8156L165.239 87.2278C164.936 88.8973 164.609 90.3823 164.262 91.6861L167.437 92.5328ZM168.472 87.8156C168.798 86.0259 168.981 84.2104 169.021 82.3701L165.736 82.2976C165.699 83.9675 165.533 85.6106 165.239 87.2278L168.472 87.8156ZM169.021 82.3632L169.06 80.1952L165.774 80.1365L165.736 82.3045L169.021 82.3632ZM167.417 81.8089H174.85V78.5227H167.417V81.8089ZM187.791 84.0954L186.886 85.4669L186.891 85.4701L187.791 84.0954ZM182.003 76.9912L180.498 77.6498L180.499 77.6521L182.003 76.9912ZM179.99 65.8219L178.347 65.817L179.99 65.8219ZM182.022 54.7494L180.521 54.0814L180.52 54.0844L182.022 54.7494ZM187.791 47.8L188.674 49.1856L188.676 49.1844L187.791 47.8ZM205.677 47.8L204.792 49.1845L204.801 49.1897L205.677 47.8ZM211.485 54.7494L212.986 54.0814L211.485 54.7494ZM213.498 65.8219L211.855 65.817V65.8219H213.498ZM211.465 77.0105L209.96 76.352L211.465 77.0105ZM205.677 84.1148L206.576 85.4906L206.577 85.4895L205.677 84.1148ZM201.748 75.5587L203.152 76.4117L203.154 76.4079L201.748 75.5587ZM203.645 65.8219H202.002L202.002 65.8267L203.645 65.8219ZM202.774 58.737L201.204 59.224L201.205 59.2271L202.774 58.737ZM200.354 54.5558L201.445 53.3269V53.3269L200.354 54.5558ZM191.759 56.298L193.16 57.1562L193.163 57.1523L191.759 56.298ZM189.843 65.8219L191.486 65.8292V65.8268L189.843 65.8219ZM190.675 73.0422L189.1 73.5105L189.103 73.5202L190.675 73.0422ZM193.114 77.3203L192.014 78.5408L192.023 78.5483L193.114 77.3203ZM196.734 84.9107C193.544 84.9107 190.887 84.1585 188.691 82.7207L186.891 85.4701C189.702 87.3102 193.007 88.1969 196.734 88.1969V84.9107ZM188.696 82.7239C186.488 81.2672 184.751 79.1618 183.507 76.3303L180.499 77.6521C181.965 80.9892 184.087 83.6199 186.886 85.4669L188.696 82.7239ZM183.508 76.3326C182.267 73.4953 181.621 70.0102 181.633 65.8268L178.347 65.817C178.333 70.3315 179.029 74.2926 180.498 77.6498L183.508 76.3326ZM181.633 65.8268C181.645 61.6376 182.299 58.1851 183.525 55.4143L180.52 54.0844C179.062 57.379 178.36 61.3081 178.347 65.817L181.633 65.8268ZM183.524 55.4173C184.765 52.6272 186.489 50.5779 188.674 49.1856L186.908 46.4144C184.111 48.1967 181.99 50.7803 180.521 54.0814L183.524 55.4173ZM188.676 49.1844C190.874 47.7793 193.537 47.0428 196.734 47.0428V43.7566C193.014 43.7566 189.715 44.6202 186.906 46.4155L188.676 49.1844ZM196.734 47.0428C199.932 47.0428 202.594 47.7793 204.792 49.1844L206.562 46.4155C203.753 44.6202 200.454 43.7566 196.734 43.7566V47.0428ZM204.801 49.1897C207.01 50.5831 208.744 52.6317 209.983 55.4173L212.986 54.0814C211.515 50.7758 209.378 48.1915 206.554 46.4103L204.801 49.1897ZM209.983 55.4173C211.22 58.1976 211.867 61.6459 211.855 65.817L215.141 65.8268C215.154 61.3257 214.459 57.3923 212.986 54.0814L209.983 55.4173ZM211.855 65.8219C211.855 70.0202 211.202 73.5133 209.96 76.352L212.971 77.6691C214.439 74.3133 215.141 70.3474 215.141 65.8219H211.855ZM209.96 76.352C208.716 79.1959 206.98 81.298 204.777 82.74L206.577 85.4895C209.382 83.6537 211.505 81.0196 212.971 77.6691L209.96 76.352ZM204.779 82.7389C202.598 84.163 199.941 84.9107 196.734 84.9107V88.1969C200.47 88.1969 203.776 87.3186 206.576 85.4906L204.779 82.7389ZM196.734 80.3571C199.491 80.3571 201.644 78.8955 203.152 76.4117L200.343 74.7058C199.297 76.429 198.107 77.0709 196.734 77.0709V80.3571ZM203.154 76.4079C204.666 73.9037 205.301 70.2918 205.288 65.817L202.002 65.8267C202.014 70.1016 201.385 72.9809 200.341 74.7096L203.154 76.4079ZM205.288 65.8219C205.288 62.8614 204.99 60.3196 204.342 58.2469L201.205 59.2271C201.719 60.8711 202.002 63.0525 202.002 65.8219H205.288ZM204.343 58.25C203.709 56.2064 202.776 54.5087 201.445 53.3269L199.263 55.7847C199.996 56.4353 200.677 57.5251 201.204 59.224L204.343 58.25ZM201.445 53.3269C200.111 52.1437 198.517 51.5383 196.734 51.5383V54.8245C197.713 54.8245 198.532 55.1354 199.263 55.7847L201.445 53.3269ZM196.734 51.5383C193.994 51.5383 191.854 52.9827 190.356 55.4436L193.163 57.1523C194.194 55.4578 195.37 54.8245 196.734 54.8245V51.5383ZM190.358 55.4398C188.857 57.8912 188.213 61.4324 188.2 65.8169L191.486 65.8268C191.499 61.6424 192.133 58.8344 193.16 57.1562L190.358 55.4398ZM188.2 65.8146C188.186 68.8127 188.471 71.3933 189.1 73.5105L192.25 72.574C191.744 70.8713 191.473 68.6384 191.486 65.8292L188.2 65.8146ZM189.103 73.5202C189.736 75.6024 190.673 77.3319 192.014 78.5408L194.214 76.0997C193.465 75.4245 192.776 74.3019 192.247 72.5643L189.103 73.5202ZM192.023 78.5483C193.361 79.7383 194.954 80.3571 196.734 80.3571V77.0709C195.778 77.0709 194.958 76.7606 194.206 76.0922L192.023 78.5483ZM226.438 84.0954L225.533 85.4669L225.538 85.4701L226.438 84.0954ZM220.65 76.9912L219.145 77.6498L219.146 77.6521L220.65 76.9912ZM218.637 65.8219L216.994 65.817L218.637 65.8219ZM220.67 54.7494L219.169 54.0814L219.167 54.0844L220.67 54.7494ZM226.438 47.8L227.321 49.1856L227.323 49.1844L226.438 47.8ZM244.325 47.8L243.44 49.1845L243.448 49.1897L244.325 47.8ZM250.132 54.7494L251.633 54.0814L250.132 54.7494ZM252.145 65.8219L250.502 65.817V65.8219H252.145ZM250.113 77.0105L248.607 76.352L250.113 77.0105ZM244.325 84.1148L245.223 85.4906L245.225 85.4895L244.325 84.1148ZM240.395 75.5587L241.799 76.4117L241.802 76.4079L240.395 75.5587ZM242.292 65.8219H240.649L240.649 65.8267L242.292 65.8219ZM241.421 58.737L239.852 59.224L239.853 59.2271L241.421 58.737ZM239.001 54.5558L240.092 53.3269V53.3269L239.001 54.5558ZM230.407 56.298L231.808 57.1562L231.81 57.1523L230.407 56.298ZM228.49 65.8219L230.133 65.8292L230.133 65.8268L228.49 65.8219ZM229.323 73.0422L227.748 73.5105L227.751 73.5202L229.323 73.0422ZM231.762 77.3203L230.662 78.5408L230.67 78.5483L231.762 77.3203ZM235.382 84.9107C232.192 84.9107 229.535 84.1585 227.338 82.7207L225.538 85.4701C228.349 87.3102 231.654 88.1969 235.382 88.1969V84.9107ZM227.343 82.7239C225.135 81.2672 223.399 79.1618 222.155 76.3303L219.146 77.6521C220.612 80.9892 222.734 83.6199 225.533 85.4669L227.343 82.7239ZM222.156 76.3326C220.914 73.4953 220.268 70.0102 220.28 65.8268L216.994 65.817C216.981 70.3315 217.676 74.2926 219.145 77.6498L222.156 76.3326ZM220.28 65.8268C220.293 61.6376 220.946 58.1851 222.172 55.4143L219.167 54.0844C217.709 57.379 217.008 61.3081 216.994 65.817L220.28 65.8268ZM222.171 55.4173C223.412 52.6272 225.137 50.5779 227.321 49.1856L225.555 46.4144C222.758 48.1967 220.637 50.7803 219.169 54.0814L222.171 55.4173ZM227.323 49.1844C229.522 47.7793 232.184 47.0428 235.382 47.0428V43.7566C231.662 43.7566 228.362 44.6202 225.553 46.4155L227.323 49.1844ZM235.382 47.0428C238.579 47.0428 241.241 47.7793 243.44 49.1844L245.21 46.4155C242.401 44.6202 239.101 43.7566 235.382 43.7566V47.0428ZM243.448 49.1897C245.657 50.5831 247.391 52.6317 248.631 55.4173L251.633 54.0814C250.162 50.7758 248.025 48.1915 245.201 46.4103L243.448 49.1897ZM248.631 55.4173C249.868 58.1976 250.514 61.6459 250.502 65.817L253.788 65.8268C253.802 61.3257 253.106 57.3923 251.633 54.0814L248.631 55.4173ZM250.502 65.8219C250.502 70.0202 249.849 73.5133 248.607 76.352L251.618 77.6691C253.086 74.3133 253.788 70.3474 253.788 65.8219H250.502ZM248.607 76.352C247.363 79.1959 245.628 81.298 243.425 82.74L245.225 85.4895C248.029 83.6537 250.152 81.0196 251.618 77.6691L248.607 76.352ZM243.426 82.7389C241.245 84.163 238.588 84.9107 235.382 84.9107V88.1969C239.118 88.1969 242.423 87.3186 245.223 85.4906L243.426 82.7389ZM235.382 80.3571C238.139 80.3571 240.291 78.8955 241.799 76.4117L238.991 74.7058C237.944 76.429 236.754 77.0709 235.382 77.0709V80.3571ZM241.802 76.4079C243.313 73.9037 243.948 70.2918 243.935 65.817L240.649 65.8267C240.662 70.1016 240.032 72.9809 238.988 74.7096L241.802 76.4079ZM243.935 65.8219C243.935 62.8614 243.637 60.3196 242.989 58.2469L239.853 59.2271C240.367 60.8711 240.649 63.0525 240.649 65.8219H243.935ZM242.99 58.25C242.356 56.2064 241.424 54.5087 240.092 53.3269L237.911 55.7847C238.644 56.4353 239.325 57.5251 239.852 59.224L242.99 58.25ZM240.092 53.3269C238.759 52.1437 237.164 51.5383 235.382 51.5383V54.8245C236.361 54.8245 237.179 55.1354 237.911 55.7847L240.092 53.3269ZM235.382 51.5383C232.642 51.5383 230.501 52.9827 229.003 55.4436L231.81 57.1523C232.842 55.4578 234.018 54.8245 235.382 54.8245V51.5383ZM229.005 55.4398C227.504 57.8912 226.86 61.4324 226.847 65.8169L230.133 65.8268C230.146 61.6424 230.78 58.8344 231.808 57.1562L229.005 55.4398ZM226.847 65.8146C226.834 68.8127 227.118 71.3933 227.748 73.5105L230.898 72.574C230.391 70.8713 230.121 68.6384 230.133 65.8292L226.847 65.8146ZM227.751 73.5202C228.384 75.6024 229.32 77.3319 230.662 78.5408L232.862 76.0997C232.112 75.4245 231.423 74.3019 230.895 72.5643L227.751 73.5202ZM230.67 78.5483C232.009 79.7383 233.601 80.3571 235.382 80.3571V77.0709C234.426 77.0709 233.605 76.7606 232.853 76.0922L230.67 78.5483ZM265.086 84.0954L264.181 85.4669L264.186 85.4701L265.086 84.0954ZM259.298 76.9912L257.792 77.6498L257.793 77.6521L259.298 76.9912ZM257.285 65.8219L255.641 65.817L257.285 65.8219ZM259.317 54.7494L257.816 54.0814L257.815 54.0844L259.317 54.7494ZM265.086 47.8L265.969 49.1856L265.971 49.1844L265.086 47.8ZM282.972 47.8L282.087 49.1845L282.095 49.1897L282.972 47.8ZM288.779 54.7494L290.281 54.0814L288.779 54.7494ZM290.792 65.8219L289.149 65.817V65.8219H290.792ZM288.76 77.0105L287.255 76.352L288.76 77.0105ZM282.972 84.1148L283.87 85.4906L283.872 85.4895L282.972 84.1148ZM279.042 75.5587L280.447 76.4117L280.449 76.4079L279.042 75.5587ZM280.939 65.8219H279.296L279.296 65.8267L280.939 65.8219ZM280.068 58.737L278.499 59.224L278.5 59.2271L280.068 58.737ZM277.649 54.5558L278.739 53.3269V53.3269L277.649 54.5558ZM269.054 56.298L270.455 57.1562L270.457 57.1523L269.054 56.298ZM267.138 65.8219L268.781 65.8292V65.8268L267.138 65.8219ZM267.97 73.0422L266.395 73.5105L266.398 73.5202L267.97 73.0422ZM270.409 77.3203L269.309 78.5408L269.317 78.5483L270.409 77.3203ZM274.029 84.9107C270.839 84.9107 268.182 84.1585 265.986 82.7207L264.186 85.4701C266.996 87.3102 270.302 88.1969 274.029 88.1969V84.9107ZM265.991 82.7239C263.783 81.2672 262.046 79.1618 260.802 76.3303L257.793 77.6521C259.26 80.9892 261.381 83.6199 264.181 85.4669L265.991 82.7239ZM260.803 76.3326C259.562 73.4953 258.915 70.0102 258.928 65.8268L255.641 65.817C255.628 70.3315 256.324 74.2926 257.792 77.6498L260.803 76.3326ZM258.928 65.8268C258.94 61.6376 259.593 58.1851 260.82 55.4143L257.815 54.0844C256.357 57.379 255.655 61.3081 255.641 65.817L258.928 65.8268ZM260.818 55.4173C262.06 52.6272 263.784 50.5779 265.969 49.1856L264.203 46.4144C261.406 48.1967 259.285 50.7803 257.816 54.0814L260.818 55.4173ZM265.971 49.1844C268.169 47.7793 270.831 47.0428 274.029 47.0428V43.7566C270.309 43.7566 267.01 44.6202 264.201 46.4155L265.971 49.1844ZM274.029 47.0428C277.226 47.0428 279.889 47.7793 282.087 49.1844L283.857 46.4155C281.048 44.6202 277.749 43.7566 274.029 43.7566V47.0428ZM282.095 49.1897C284.304 50.5831 286.039 52.6317 287.278 55.4173L290.281 54.0814C288.81 50.7758 286.673 48.1915 283.849 46.4103L282.095 49.1897ZM287.278 55.4173C288.515 58.1976 289.162 61.6459 289.149 65.817L292.436 65.8268C292.449 61.3257 291.754 57.3923 290.281 54.0814L287.278 55.4173ZM289.149 65.8219C289.149 70.0202 288.497 73.5133 287.255 76.352L290.265 77.6691C291.733 74.3133 292.436 70.3474 292.436 65.8219H289.149ZM287.255 76.352C286.01 79.1959 284.275 81.298 282.072 82.74L283.872 85.4895C286.676 83.6537 288.799 81.0196 290.265 77.6691L287.255 76.352ZM282.074 82.7389C279.892 84.163 277.236 84.9107 274.029 84.9107V88.1969C277.765 88.1969 281.07 87.3186 283.87 85.4906L282.074 82.7389ZM274.029 80.3571C276.786 80.3571 278.938 78.8955 280.447 76.4117L277.638 74.7058C276.591 76.429 275.401 77.0709 274.029 77.0709V80.3571ZM280.449 76.4079C281.961 73.9037 282.596 70.2918 282.583 65.817L279.296 65.8267C279.309 70.1016 278.679 72.9809 277.636 74.7096L280.449 76.4079ZM282.583 65.8219C282.583 62.8614 282.284 60.3196 281.637 58.2469L278.5 59.2271C279.014 60.8711 279.296 63.0525 279.296 65.8219H282.583ZM281.638 58.25C281.003 56.2064 280.071 54.5087 278.739 53.3269L276.558 55.7847C277.291 56.4353 277.972 57.5251 278.499 59.224L281.638 58.25ZM278.739 53.3269C277.406 52.1437 275.812 51.5383 274.029 51.5383V54.8245C275.008 54.8245 275.826 55.1354 276.558 55.7847L278.739 53.3269ZM274.029 51.5383C271.289 51.5383 269.148 52.9827 267.65 55.4436L270.457 57.1523C271.489 55.4578 272.665 54.8245 274.029 54.8245V51.5383ZM267.653 55.4398C266.151 57.8912 265.508 61.4324 265.494 65.8169L268.781 65.8268C268.793 61.6424 269.427 58.8344 270.455 57.1562L267.653 55.4398ZM265.494 65.8146C265.481 68.8127 265.766 71.3933 266.395 73.5105L269.545 72.574C269.039 70.8713 268.768 68.6384 268.781 65.8292L265.494 65.8146ZM266.398 73.5202C267.031 75.6024 267.968 77.3319 269.309 78.5408L271.509 76.0997C270.76 75.4245 270.07 74.3019 269.542 72.5643L266.398 73.5202ZM269.317 78.5483C270.656 79.7383 272.249 80.3571 274.029 80.3571V77.0709C273.073 77.0709 272.253 76.7606 271.501 76.0922L269.317 78.5483Z" fill="url(#paint2_linear_1178_10930)"/>
<path d="M312.466 103.788L91.8073 104.697L84.9353 143.234L305.996 144.339L312.466 103.788Z" fill="#3B57F4"/>
<path d="M117.62 117.852V132.865H114.9V117.852H117.62ZM123.102 126.268V132.865H120.448V121.605H122.984V123.519H123.116C123.375 122.888 123.788 122.387 124.355 122.016C124.927 121.645 125.633 121.459 126.474 121.459C127.251 121.459 127.928 121.625 128.504 121.957C129.086 122.29 129.535 122.771 129.853 123.401C130.176 124.032 130.334 124.797 130.33 125.696V132.865H127.676V126.106C127.676 125.354 127.48 124.765 127.089 124.34C126.703 123.915 126.168 123.702 125.484 123.702C125.02 123.702 124.607 123.805 124.245 124.01C123.888 124.21 123.607 124.501 123.402 124.882C123.202 125.263 123.102 125.725 123.102 126.268ZM144.188 117.852H146.886V128.408C146.881 129.376 146.675 130.209 146.27 130.908C145.864 131.602 145.297 132.137 144.569 132.513C143.846 132.885 143.003 133.07 142.04 133.07C141.16 133.07 140.369 132.914 139.665 132.601C138.966 132.284 138.411 131.815 138.001 131.194C137.59 130.573 137.385 129.801 137.385 128.877H140.09C140.095 129.283 140.183 129.632 140.354 129.926C140.53 130.219 140.772 130.444 141.08 130.6C141.388 130.756 141.742 130.835 142.143 130.835C142.578 130.835 142.947 130.744 143.25 130.563C143.553 130.378 143.782 130.104 143.939 129.742C144.1 129.381 144.183 128.936 144.188 128.408V117.852ZM151.845 117.852L155.752 129.669H155.906L159.806 117.852H162.797L157.504 132.865H154.147L148.861 117.852H151.845ZM182.745 122.918H180.003C179.925 122.468 179.781 122.07 179.571 121.723C179.361 121.371 179.099 121.073 178.787 120.828C178.474 120.584 178.117 120.401 177.716 120.279C177.32 120.152 176.893 120.088 176.433 120.088C175.617 120.088 174.894 120.293 174.264 120.704C173.633 121.109 173.14 121.706 172.783 122.492C172.426 123.274 172.248 124.23 172.248 125.359C172.248 126.507 172.426 127.475 172.783 128.262C173.144 129.044 173.638 129.635 174.264 130.036C174.894 130.431 175.615 130.629 176.426 130.629C176.876 130.629 177.296 130.571 177.687 130.453C178.083 130.331 178.437 130.153 178.75 129.918C179.068 129.684 179.334 129.395 179.549 129.053C179.769 128.711 179.92 128.32 180.003 127.88L182.745 127.895C182.642 128.609 182.42 129.278 182.078 129.904C181.741 130.529 181.298 131.081 180.751 131.56C180.204 132.034 179.564 132.406 178.83 132.675C178.097 132.939 177.284 133.07 176.389 133.07C175.07 133.07 173.892 132.765 172.856 132.154C171.82 131.543 171.004 130.661 170.408 129.508C169.811 128.354 169.513 126.971 169.513 125.359C169.513 123.741 169.814 122.358 170.415 121.21C171.016 120.056 171.835 119.174 172.871 118.563C173.907 117.952 175.08 117.647 176.389 117.647C177.225 117.647 178.002 117.764 178.721 117.999C179.439 118.233 180.079 118.578 180.641 119.032C181.203 119.482 181.665 120.034 182.027 120.689C182.393 121.339 182.633 122.082 182.745 122.918ZM188.358 133.092C187.645 133.092 187.002 132.965 186.43 132.711C185.864 132.452 185.414 132.071 185.082 131.568C184.754 131.064 184.59 130.444 184.59 129.706C184.59 129.07 184.708 128.545 184.942 128.13C185.177 127.714 185.497 127.382 185.903 127.133C186.308 126.883 186.765 126.695 187.273 126.568C187.787 126.436 188.317 126.341 188.864 126.282C189.524 126.214 190.059 126.153 190.47 126.099C190.88 126.04 191.178 125.952 191.364 125.835C191.555 125.713 191.65 125.525 191.65 125.271V125.227C191.65 124.675 191.486 124.247 191.159 123.944C190.831 123.641 190.36 123.489 189.744 123.489C189.094 123.489 188.578 123.631 188.197 123.915C187.821 124.198 187.567 124.533 187.435 124.919L184.957 124.567C185.153 123.883 185.475 123.311 185.925 122.852C186.374 122.387 186.924 122.04 187.574 121.811C188.224 121.576 188.942 121.459 189.729 121.459C190.272 121.459 190.812 121.522 191.349 121.649C191.887 121.777 192.378 121.987 192.823 122.28C193.267 122.568 193.624 122.962 193.893 123.46C194.167 123.959 194.304 124.582 194.304 125.329V132.865H191.752V131.318H191.665C191.503 131.631 191.276 131.924 190.983 132.198C190.694 132.467 190.33 132.684 189.891 132.851C189.456 133.012 188.945 133.092 188.358 133.092ZM189.047 131.143C189.58 131.143 190.042 131.037 190.433 130.827C190.824 130.612 191.124 130.329 191.335 129.977C191.55 129.625 191.657 129.241 191.657 128.826V127.499C191.574 127.568 191.432 127.631 191.232 127.69C191.037 127.748 190.817 127.8 190.572 127.844C190.328 127.888 190.086 127.927 189.847 127.961C189.607 127.995 189.399 128.025 189.223 128.049C188.828 128.103 188.473 128.191 188.16 128.313C187.848 128.435 187.601 128.606 187.42 128.826C187.239 129.041 187.149 129.32 187.149 129.662C187.149 130.15 187.327 130.519 187.684 130.769C188.041 131.018 188.495 131.143 189.047 131.143ZM205.871 124.582L203.452 124.846C203.384 124.601 203.264 124.372 203.093 124.156C202.927 123.941 202.702 123.768 202.418 123.636C202.135 123.504 201.788 123.438 201.378 123.438C200.825 123.438 200.361 123.558 199.985 123.797C199.613 124.037 199.43 124.347 199.435 124.728C199.43 125.056 199.55 125.322 199.794 125.527C200.043 125.733 200.454 125.901 201.026 126.033L202.946 126.444C204.012 126.673 204.803 127.037 205.321 127.536C205.844 128.034 206.108 128.687 206.113 129.493C206.108 130.202 205.901 130.827 205.49 131.37C205.084 131.907 204.52 132.328 203.797 132.631C203.073 132.934 202.243 133.085 201.304 133.085C199.926 133.085 198.817 132.797 197.976 132.22C197.136 131.639 196.635 130.83 196.473 129.794L199.061 129.544C199.178 130.053 199.428 130.436 199.809 130.695C200.19 130.954 200.686 131.084 201.297 131.084C201.927 131.084 202.433 130.954 202.814 130.695C203.2 130.436 203.393 130.116 203.393 129.735C203.393 129.413 203.269 129.146 203.02 128.936C202.775 128.726 202.394 128.565 201.876 128.452L199.955 128.049C198.875 127.824 198.076 127.445 197.558 126.913C197.04 126.375 196.784 125.696 196.789 124.875C196.784 124.181 196.972 123.58 197.353 123.072C197.739 122.558 198.274 122.163 198.958 121.884C199.648 121.601 200.442 121.459 201.341 121.459C202.66 121.459 203.699 121.74 204.456 122.302C205.219 122.864 205.69 123.624 205.871 124.582ZM210.955 126.268V132.865H208.301V117.852H210.896V123.519H211.028C211.292 122.883 211.7 122.382 212.252 122.016C212.81 121.645 213.518 121.459 214.378 121.459C215.16 121.459 215.842 121.623 216.424 121.95C217.005 122.277 217.455 122.756 217.772 123.387C218.095 124.017 218.256 124.787 218.256 125.696V132.865H215.603V126.106C215.603 125.349 215.407 124.76 215.016 124.34C214.63 123.915 214.088 123.702 213.389 123.702C212.92 123.702 212.499 123.805 212.128 124.01C211.761 124.21 211.473 124.501 211.263 124.882C211.058 125.263 210.955 125.725 210.955 126.268ZM226.199 132.865V117.852H231.829C232.982 117.852 233.95 118.067 234.732 118.497C235.519 118.927 236.112 119.519 236.513 120.271C236.919 121.019 237.121 121.869 237.121 122.822C237.121 123.785 236.919 124.64 236.513 125.388C236.107 126.136 235.509 126.725 234.717 127.155C233.925 127.58 232.95 127.792 231.792 127.792H228.061V125.557H231.426C232.1 125.557 232.652 125.439 233.082 125.205C233.512 124.97 233.83 124.648 234.035 124.237C234.245 123.827 234.351 123.355 234.351 122.822C234.351 122.29 234.245 121.82 234.035 121.415C233.83 121.009 233.51 120.694 233.075 120.469C232.645 120.24 232.09 120.125 231.411 120.125H228.919V132.865H226.199ZM239.366 132.865V121.605H241.939V123.482H242.057C242.262 122.832 242.614 122.331 243.112 121.979C243.616 121.623 244.19 121.444 244.835 121.444C244.982 121.444 245.145 121.452 245.326 121.466C245.512 121.476 245.666 121.493 245.788 121.517V123.959C245.676 123.919 245.497 123.885 245.253 123.856C245.013 123.822 244.781 123.805 244.557 123.805C244.073 123.805 243.638 123.91 243.252 124.12C242.87 124.325 242.57 124.611 242.35 124.978C242.13 125.344 242.02 125.767 242.02 126.246V132.865H239.366ZM247.551 132.865V121.605H250.205V132.865H247.551ZM248.885 120.007C248.465 120.007 248.103 119.868 247.8 119.59C247.497 119.306 247.346 118.966 247.346 118.571C247.346 118.17 247.497 117.83 247.8 117.552C248.103 117.268 248.465 117.126 248.885 117.126C249.31 117.126 249.672 117.268 249.97 117.552C250.273 117.83 250.425 118.17 250.425 118.571C250.425 118.966 250.273 119.306 249.97 119.59C249.672 119.868 249.31 120.007 248.885 120.007ZM252.787 132.865V131.179L258.593 123.9V123.805H252.978V121.605H261.84V123.416L256.313 130.571V130.666H262.031V132.865H252.787ZM269.187 133.085C268.058 133.085 267.083 132.851 266.262 132.381C265.446 131.907 264.818 131.238 264.378 130.373C263.939 129.503 263.719 128.479 263.719 127.301C263.719 126.143 263.939 125.127 264.378 124.252C264.823 123.372 265.444 122.688 266.24 122.199C267.037 121.706 267.973 121.459 269.048 121.459C269.742 121.459 270.397 121.571 271.013 121.796C271.633 122.016 272.181 122.358 272.655 122.822C273.134 123.287 273.51 123.878 273.784 124.596C274.057 125.31 274.194 126.16 274.194 127.147V127.961H264.965V126.172H271.65C271.645 125.664 271.536 125.212 271.32 124.816C271.105 124.416 270.805 124.1 270.419 123.871C270.038 123.641 269.593 123.526 269.085 123.526C268.542 123.526 268.066 123.658 267.655 123.922C267.245 124.181 266.925 124.523 266.695 124.948C266.47 125.368 266.355 125.83 266.35 126.334V127.895C266.35 128.55 266.47 129.112 266.71 129.581C266.949 130.045 267.284 130.402 267.714 130.651C268.144 130.896 268.647 131.018 269.224 131.018C269.61 131.018 269.959 130.964 270.272 130.857C270.585 130.744 270.856 130.581 271.086 130.366C271.316 130.15 271.489 129.884 271.606 129.566L274.084 129.845C273.928 130.5 273.63 131.072 273.19 131.56C272.755 132.044 272.198 132.421 271.518 132.689C270.839 132.953 270.062 133.085 269.187 133.085ZM285.338 124.582L282.919 124.846C282.851 124.601 282.731 124.372 282.56 124.156C282.394 123.941 282.169 123.768 281.886 123.636C281.602 123.504 281.255 123.438 280.845 123.438C280.293 123.438 279.828 123.558 279.452 123.797C279.081 124.037 278.897 124.347 278.902 124.728C278.897 125.056 279.017 125.322 279.261 125.527C279.511 125.733 279.921 125.901 280.493 126.033L282.413 126.444C283.479 126.673 284.271 127.037 284.789 127.536C285.312 128.034 285.575 128.687 285.58 129.493C285.575 130.202 285.368 130.827 284.957 131.37C284.552 131.907 283.987 132.328 283.264 132.631C282.541 132.934 281.71 133.085 280.771 133.085C279.393 133.085 278.284 132.797 277.443 132.22C276.603 131.639 276.102 130.83 275.941 129.794L278.528 129.544C278.646 130.053 278.895 130.436 279.276 130.695C279.657 130.954 280.153 131.084 280.764 131.084C281.395 131.084 281.9 130.954 282.282 130.695C282.668 130.436 282.861 130.116 282.861 129.735C282.861 129.413 282.736 129.146 282.487 128.936C282.242 128.726 281.861 128.565 281.343 128.452L279.423 128.049C278.343 127.824 277.544 127.445 277.026 126.913C276.507 126.375 276.251 125.696 276.256 124.875C276.251 124.181 276.439 123.58 276.82 123.072C277.206 122.558 277.741 122.163 278.426 121.884C279.115 121.601 279.909 121.459 280.808 121.459C282.128 121.459 283.166 121.74 283.924 122.302C284.686 122.864 285.158 123.624 285.338 124.582Z" fill="white"/>
<path d="M48.6458 62.6645C52.4896 60.4452 57.2254 60.4452 61.0692 62.6645L92.6572 80.9018C96.501 83.121 98.8689 87.2223 98.8689 91.6608V128.135C98.8689 132.574 96.501 136.675 92.6572 138.894L61.0692 157.132C57.2254 159.351 52.4896 159.351 48.6458 157.132L17.0579 138.894C13.2141 136.675 10.8462 132.574 10.8462 128.135V91.6608C10.8462 87.2223 13.2141 83.121 17.0579 80.9018L48.6458 62.6645Z" fill="#3B57F4"/>
<path d="M48.6472 72.6938C52.491 70.4745 57.2268 70.4745 61.0706 72.6938L84.4211 86.1751C88.2649 88.3944 90.6328 92.4957 90.6328 96.9341V123.897C90.6328 128.335 88.2649 132.437 84.4211 134.656L61.0706 148.137C57.2268 150.357 52.491 150.357 48.6472 148.137L25.2967 134.656C21.4529 132.437 19.085 128.335 19.085 123.897V96.9341C19.085 92.4957 21.4529 88.3944 25.2967 86.1752L48.6472 72.6938Z" fill="#690097"/>
<mask id="mask0_1178_10930" style="mask-type:alpha" maskUnits="userSpaceOnUse" x="1" y="0" width="105" height="150">
<path d="M10.6244 8.36872C12.3758 3.39868 17.0721 0.0742188 22.3416 0.0742188H93.5433C101.441 0.0742188 107.334 7.34631 105.697 15.0722L89.7333 90.4305C89.554 91.277 89.4636 92.1398 89.4636 93.0051V124.489C89.4636 128.928 87.0957 133.029 83.2519 135.248L61.0703 148.055C57.2265 150.274 52.4907 150.274 48.6469 148.055L26.4653 135.248C22.6215 133.029 20.2536 128.928 20.2536 124.489V93.8073C20.2536 92.4148 20.0195 91.0322 19.561 89.7173L2.29349 40.1908C1.36543 37.5289 1.37024 34.6306 2.30713 31.9719L10.6244 8.36872Z" fill="#9D00E2"/>
</mask>
<g mask="url(#mask0_1178_10930)">
<path d="M52.4875 112.285C50.5634 112.927 46.2164 117.773 46.2164 121.122C46.2164 122.542 46.4701 124.205 46.7624 126.122C47.1596 128.726 47.6281 131.798 47.6281 135.362C47.6281 137.673 44.9279 143.754 42.3852 149.48C40.1228 154.574 37.9851 159.388 37.9851 161.016C39.2813 162.206 44.5881 164.586 55.4461 164.586V112.285H52.4875Z" fill="#D9D9D9"/>
<path d="M52.4875 112.285C50.5634 112.927 46.2164 117.773 46.2164 121.122C46.2164 122.542 46.4701 124.205 46.7624 126.122C47.1596 128.726 47.6281 131.798 47.6281 135.362C47.6281 137.673 44.9279 143.754 42.3852 149.48C40.1228 154.574 37.9851 159.388 37.9851 161.016C39.2813 162.206 44.5881 164.586 55.4461 164.586V112.285H52.4875Z" fill="url(#paint3_linear_1178_10930)"/>
<path d="M58.4047 112.285C60.3288 112.927 64.6757 117.773 64.6757 121.122C64.6757 122.542 64.4221 124.205 64.1298 126.122C63.7326 128.726 63.2641 131.798 63.2641 135.362C63.2641 137.673 65.9643 143.754 68.507 149.48C70.7694 154.574 72.9071 159.388 72.9071 161.016C71.6109 162.206 66.304 164.586 55.4461 164.586V112.285L58.4047 112.285Z" fill="#D9D9D9"/>
<path d="M58.4047 112.285C60.3288 112.927 64.6757 117.773 64.6757 121.122C64.6757 122.542 64.4221 124.205 64.1298 126.122C63.7326 128.726 63.2641 131.798 63.2641 135.362C63.2641 137.673 65.9643 143.754 68.507 149.48C70.7694 154.574 72.9071 159.388 72.9071 161.016C71.6109 162.206 66.304 164.586 55.4461 164.586V112.285L58.4047 112.285Z" fill="url(#paint4_linear_1178_10930)"/>
<circle cx="55.7088" cy="106.925" r="8.41364" fill="#D9D9D9"/>
<circle cx="55.7088" cy="106.925" r="8.41364" fill="url(#paint5_radial_1178_10930)"/>
<circle cx="55.7092" cy="87.9131" r="12.749" fill="#D9D9D9"/>
<circle cx="55.7092" cy="87.9131" r="12.749" fill="url(#paint6_radial_1178_10930)"/>
<path d="M59.7447 16.5203L55.7087 9.81376L51.6726 16.5203L41.949 32.6776L23.5777 36.9324L15.9522 38.6985L21.0833 44.6094L33.4451 58.85L31.8146 77.637L31.1379 85.435L38.3451 82.3816L55.7087 75.0255L73.0723 82.3816L80.2795 85.435L79.6027 77.637L77.9723 58.85L90.334 44.6094L95.4651 38.6985L87.8396 36.9324L69.4683 32.6776L59.7447 16.5203Z" fill="url(#paint7_linear_1178_10930)"/>
<path d="M59.7447 16.5203L55.7087 9.81376L51.6726 16.5203L41.949 32.6776L23.5777 36.9324L15.9522 38.6985L21.0833 44.6094L33.4451 58.85L31.8146 77.637L31.1379 85.435L38.3451 82.3816L55.7087 75.0255L73.0723 82.3816L80.2795 85.435L79.6027 77.637L77.9723 58.85L90.334 44.6094L95.4651 38.6985L87.8396 36.9324L69.4683 32.6776L59.7447 16.5203Z" stroke="black" stroke-width="9.42112"/>
<path d="M59.7447 16.5203L55.7087 9.81376L51.6726 16.5203L41.949 32.6776L23.5777 36.9324L15.9522 38.6985L21.0833 44.6094L33.4451 58.85L31.8146 77.637L31.1379 85.435L38.3451 82.3816L55.7087 75.0255L73.0723 82.3816L80.2795 85.435L79.6027 77.637L77.9723 58.85L90.334 44.6094L95.4651 38.6985L87.8396 36.9324L69.4683 32.6776L59.7447 16.5203Z" stroke="url(#paint8_linear_1178_10930)" stroke-width="9.42112"/>
<path d="M59.7447 16.5203L55.7087 9.81376L51.6726 16.5203L41.949 32.6776L23.5777 36.9324L15.9522 38.6985L21.0833 44.6094L33.4451 58.85L31.8146 77.637L31.1379 85.435L38.3451 82.3816L55.7087 75.0255L73.0723 82.3816L80.2795 85.435L79.6027 77.637L77.9723 58.85L90.334 44.6094L95.4651 38.6985L87.8396 36.9324L69.4683 32.6776L59.7447 16.5203Z" stroke="url(#paint9_linear_1178_10930)" stroke-width="9.42112"/>
<path d="M52.352 40.7559V50.749C52.352 52.2961 51.9129 53.4877 51.0349 54.324C50.1708 55.1602 49 55.5783 47.5226 55.5783C45.9756 55.5783 44.7352 55.1393 43.8013 54.2613C42.8675 53.3832 42.4006 52.1358 42.4006 50.519H45.9547C45.9547 51.1323 46.0801 51.5992 46.331 51.9198C46.5819 52.2264 46.9442 52.3797 47.4181 52.3797C47.8502 52.3797 48.1847 52.2403 48.4216 51.9616C48.6586 51.6828 48.777 51.2786 48.777 50.749V40.7559H52.352Z" fill="#B06F12"/>
<path d="M69.0168 40.7559L63.8112 55.432H59.3373L54.1316 40.7559H57.9365L61.5742 51.8361L65.2328 40.7559H69.0168Z" fill="#B06F12"/>
<path d="M47.115 61.0127C47.115 61.3175 47.0415 61.6032 46.8946 61.8698C46.7531 62.1365 46.5273 62.3514 46.2171 62.5147C45.9124 62.6779 45.526 62.7595 45.058 62.7595H44.103V64.9471H42.9602V59.2496H45.058C45.4988 59.2496 45.8743 59.3258 46.1845 59.4782C46.4946 59.6305 46.7259 59.84 46.8783 60.1067C47.0361 60.3733 47.115 60.6753 47.115 61.0127ZM45.009 61.8372C45.3247 61.8372 45.5587 61.7664 45.711 61.6249C45.8634 61.478 45.9396 61.2739 45.9396 61.0127C45.9396 60.4577 45.6294 60.1801 45.009 60.1801H44.103V61.8372H45.009Z" fill="#B06F12"/>
<path d="M50.8649 64.9471L49.6079 62.7269H49.0691V64.9471H47.9264V59.2496H50.065C50.5058 59.2496 50.8813 59.3285 51.1914 59.4863C51.5016 59.6387 51.7329 59.8482 51.8853 60.1148C52.0431 60.376 52.122 60.6699 52.122 60.9964C52.122 61.3719 52.0131 61.712 51.7955 62.0167C51.5778 62.316 51.254 62.5228 50.8241 62.6371L52.1873 64.9471H50.8649ZM49.0691 61.8698H50.0242C50.3344 61.8698 50.5656 61.7963 50.718 61.6494C50.8704 61.4971 50.9466 61.2875 50.9466 61.0209C50.9466 60.7597 50.8704 60.5583 50.718 60.4169C50.5656 60.2699 50.3344 60.1965 50.0242 60.1965H49.0691V61.8698Z" fill="#B06F12"/>
<path d="M54.2984 59.2496V64.9471H53.1556V59.2496H54.2984Z" fill="#B06F12"/>
<path d="M56.5947 63.9839H59.1578V64.9471H55.2723V64.0656L57.8191 60.2128H55.2723V59.2496H59.1578V60.1312L56.5947 63.9839Z" fill="#B06F12"/>
<path d="M61.2733 60.172V61.6004H63.1915V62.5065H61.2733V64.0166H63.4364V64.9471H60.1305V59.2414H63.4364V60.172H61.2733Z" fill="#B06F12"/>
<path d="M66.4421 65.0043C66.0449 65.0043 65.6857 64.9363 65.3646 64.8002C65.049 64.6642 64.7987 64.4683 64.6137 64.2125C64.4287 63.9567 64.3334 63.6547 64.328 63.3064H65.5524C65.5687 63.5404 65.6503 63.7255 65.7973 63.8615C65.9496 63.9976 66.1564 64.0656 66.4176 64.0656C66.6843 64.0656 66.8938 64.003 67.0461 63.8778C67.1985 63.7472 67.2747 63.5785 67.2747 63.3717C67.2747 63.2031 67.223 63.0643 67.1196 62.9554C67.0162 62.8466 66.8856 62.7623 66.7278 62.7024C66.5754 62.6371 66.3632 62.5664 66.0911 62.4902C65.7211 62.3813 65.4191 62.2752 65.1851 62.1718C64.9565 62.063 64.7579 61.9025 64.5892 61.6902C64.4259 61.4726 64.3443 61.1841 64.3443 60.825C64.3443 60.4876 64.4287 60.1937 64.5973 59.9434C64.766 59.6931 65.0028 59.5026 65.3075 59.372C65.6122 59.236 65.9605 59.168 66.3523 59.168C66.94 59.168 67.4162 59.3122 67.7808 59.6006C68.1508 59.8836 68.3549 60.2808 68.393 60.7923H67.1359C67.1251 60.5964 67.0407 60.4359 66.8829 60.3107C66.7305 60.1801 66.5265 60.1148 66.2707 60.1148C66.0476 60.1148 65.868 60.172 65.732 60.2863C65.6014 60.4005 65.5361 60.5665 65.5361 60.7842C65.5361 60.9365 65.585 61.0644 65.683 61.1678C65.7864 61.2658 65.9115 61.3474 66.0585 61.4127C66.2108 61.4726 66.4231 61.5433 66.6952 61.6249C67.0652 61.7338 67.3672 61.8426 67.6012 61.9514C67.8352 62.0603 68.0366 62.2235 68.2052 62.4412C68.3739 62.6589 68.4583 62.9446 68.4583 63.2983C68.4583 63.603 68.3794 63.886 68.2216 64.1472C68.0638 64.4084 67.8325 64.6179 67.5277 64.7757C67.223 64.9281 66.8611 65.0043 66.4421 65.0043Z" fill="#B06F12"/>
</g>
<defs>
<linearGradient id="paint0_linear_1178_10930" x1="199.415" y1="43.8284" x2="199.415" y2="103.434" gradientUnits="userSpaceOnUse">
<stop stop-color="white"/>
<stop offset="0.262114" stop-color="#FFDF8D"/>
<stop offset="0.753169" stop-color="#FABF7D"/>
<stop offset="1" stop-color="#FFFFFE"/>
</linearGradient>
<linearGradient id="paint1_linear_1178_10930" x1="197.174" y1="40.8694" x2="197.174" y2="93.3386" gradientUnits="userSpaceOnUse">
<stop stop-color="#FBFF94"/>
<stop offset="0.333333" stop-color="#E47800"/>
<stop offset="0.666667" stop-color="#FAFF8F"/>
<stop offset="1" stop-color="#FDD180"/>
</linearGradient>
<linearGradient id="paint2_linear_1178_10930" x1="140.068" y1="106.004" x2="137.552" y2="31.8299" gradientUnits="userSpaceOnUse">
<stop stop-color="#FBFF94"/>
<stop offset="0.333333" stop-color="#E47800"/>
<stop offset="0.666667" stop-color="#FAFF8F"/>
<stop offset="1" stop-color="#FDD180"/>
</linearGradient>
<linearGradient id="paint3_linear_1178_10930" x1="82.7287" y1="125.332" x2="31.4451" y2="125.332" gradientUnits="userSpaceOnUse">
<stop offset="0.0727785" stop-color="#A76611"/>
<stop offset="0.194322" stop-color="#D6B24D"/>
<stop offset="0.307292" stop-color="#EABD57"/>
<stop offset="0.46892" stop-color="#FFEBB0"/>
<stop offset="0.558953" stop-color="#FFFCC2"/>
<stop offset="0.77503" stop-color="#D8B652"/>
<stop offset="1" stop-color="#A76611"/>
</linearGradient>
<linearGradient id="paint4_linear_1178_10930" x1="82.7287" y1="125.332" x2="31.4451" y2="125.332" gradientUnits="userSpaceOnUse">
<stop offset="0.0727785" stop-color="#A76611"/>
<stop offset="0.194322" stop-color="#D6B24D"/>
<stop offset="0.307292" stop-color="#EABD57"/>
<stop offset="0.46892" stop-color="#FFEBB0"/>
<stop offset="0.558953" stop-color="#FFFCC2"/>
<stop offset="0.77503" stop-color="#D8B652"/>
<stop offset="1" stop-color="#A76611"/>
</linearGradient>
<radialGradient id="paint5_radial_1178_10930" cx="0" cy="0" r="1" gradientUnits="userSpaceOnUse" gradientTransform="translate(56.756 94.0233) rotate(117.848) scale(27.3462 29.3368)">
<stop stop-color="#BF8411"/>
<stop offset="0.460001" stop-color="#EABD57"/>
<stop offset="0.788195" stop-color="#D6B24D"/>
<stop offset="1" stop-color="#FFFCC2"/>
</radialGradient>
<radialGradient id="paint6_radial_1178_10930" cx="0" cy="0" r="1" gradientUnits="userSpaceOnUse" gradientTransform="translate(55.7092 77.9648) rotate(123.315) scale(32.3531 34.7081)">
<stop stop-color="#BF8411"/>
<stop offset="0.460001" stop-color="#EABD57"/>
<stop offset="0.788195" stop-color="#D6B24D"/>
<stop offset="1" stop-color="#FFFCC2"/>
</radialGradient>
<linearGradient id="paint7_linear_1178_10930" x1="19.0641" y1="30.2162" x2="88.3758" y2="87.5214" gradientUnits="userSpaceOnUse">
<stop offset="0.0729167" stop-color="#E47800"/>
<stop offset="0.532439" stop-color="#F2F5AC"/>
<stop offset="0.813994" stop-color="#F4EEC6"/>
<stop offset="1" stop-color="#FDD180"/>
</linearGradient>
<linearGradient id="paint8_linear_1178_10930" x1="94.3866" y1="93.4322" x2="37.0085" y2="28.4707" gradientUnits="userSpaceOnUse">
<stop stop-color="#A76611"/>
<stop offset="0.307292" stop-color="#EABD57"/>
<stop offset="0.630208" stop-color="#D6B24D"/>
<stop offset="0.713542" stop-color="#FFEBB0"/>
<stop offset="1" stop-color="#FFFCC2"/>
</linearGradient>
<linearGradient id="paint9_linear_1178_10930" x1="88.3758" y1="86.4388" x2="36.9784" y2="10.7528" gradientUnits="userSpaceOnUse">
<stop offset="0.0762685" stop-color="#E47800"/>
<stop offset="0.670212" stop-color="#F2F5AC"/>
<stop offset="0.813994" stop-color="#F4EEC6"/>
<stop offset="1" stop-color="#FDD180"/>
</linearGradient>
</defs>
</svg>
