<svg width="422" height="257" viewBox="0 0 422 257" fill="none" xmlns="http://www.w3.org/2000/svg">
<g filter="url(#filter0_dd_1178_11434)">
<rect x="74.7236" y="60.9258" width="272.553" height="92.2923" rx="14.944" fill="white" shape-rendering="crispEdges"/>
<rect x="104.611" y="83.3418" width="47.4603" height="47.4603" rx="9.35017" fill="#AB3ADD"/>
<rect x="104.611" y="83.3418" width="47.4603" height="47.4603" rx="9.35017" fill="url(#paint0_linear_1178_11434)"/>
<path d="M126.754 107.446C126.754 108.333 126.035 109.052 125.148 109.052C124.261 109.052 123.542 108.333 123.542 107.446C123.542 106.559 124.261 105.84 125.148 105.84C126.035 105.84 126.754 106.559 126.754 107.446Z" fill="white"/>
<path d="M131.482 109.052C132.369 109.052 133.088 108.333 133.088 107.446C133.088 106.559 132.369 105.84 131.482 105.84C130.595 105.84 129.876 106.559 129.876 107.446C129.876 108.333 130.595 109.052 131.482 109.052Z" fill="white"/>
<path fill-rule="evenodd" clip-rule="evenodd" d="M122.422 100.042C123.364 97.7025 125.657 96.0505 128.337 96.0491C128.335 96.0491 128.334 96.0491 128.332 96.0491C128.337 96.0491 128.343 96.0491 128.348 96.0491C128.347 96.0491 128.345 96.0491 128.343 96.0491C131.023 96.0505 133.316 97.7025 134.258 100.042C135.484 100.126 136.71 100.236 137.936 100.372C139.46 100.541 140.587 101.846 140.587 103.379V114.856C140.587 116.407 139.434 117.721 137.891 117.873C131.503 118.506 125.177 118.506 118.789 117.873C117.246 117.721 116.093 116.407 116.093 114.856V103.379C116.093 101.846 117.221 100.541 118.744 100.372C119.97 100.236 121.196 100.126 122.422 100.042ZM117.825 113.595L128.111 96.4467C128.214 96.2734 128.466 96.2734 128.57 96.4467L138.855 113.595C131.772 114.848 124.908 114.848 117.825 113.595Z" fill="white"/>
<path d="M141.257 103.779H141.656C142.395 103.779 142.995 104.378 142.995 105.117V109.774C142.995 110.513 142.395 111.112 141.656 111.112H141.257V103.779Z" fill="white"/>
<path d="M122.387 120.714V121.453H134.293V120.714C134.293 119.975 133.694 119.376 132.955 119.376H123.725C122.986 119.376 122.387 119.975 122.387 120.714Z" fill="white"/>
<path d="M115.425 103.779H115.027C114.287 103.779 113.688 104.378 113.688 105.117V109.774C113.688 110.513 114.287 111.112 115.027 111.112H115.425V103.779Z" fill="white"/>
<path d="M128.341 95.3605C129.08 95.3605 129.68 94.7613 129.68 94.0221C129.68 93.283 129.08 92.6838 128.341 92.6838C127.602 92.6838 127.003 93.283 127.003 94.0221C127.003 94.7613 127.602 95.3605 128.341 95.3605Z" fill="white"/>
<path d="M127.125 93.4608C127.321 93.2554 127.712 93.1245 128.078 93.1456C128.671 93.1798 129.195 93.6766 129.236 94.2716C129.25 94.4761 129.239 94.914 129.173 95.0712C129.523 94.8317 129.679 94.3707 129.679 94.0221C129.679 93.283 129.08 92.6838 128.341 92.6838C127.802 92.6838 127.338 93.0021 127.125 93.4608Z" fill="white"/>
<path d="M165.315 120.072H159.262L168.485 93.3555H175.764L184.974 120.072H178.921L172.229 99.4607H172.02L165.315 120.072ZM164.937 109.571H179.234V113.98H164.937V109.571ZM194.343 128.003C192.543 128.003 190.999 127.756 189.712 127.26C188.434 126.773 187.416 126.108 186.66 125.264C185.903 124.42 185.412 123.472 185.186 122.42L190.325 121.729C190.482 122.129 190.73 122.503 191.069 122.851C191.408 123.199 191.856 123.477 192.413 123.686C192.978 123.903 193.665 124.012 194.474 124.012C195.683 124.012 196.678 123.716 197.461 123.125C198.252 122.542 198.648 121.564 198.648 120.189V116.524H198.413C198.17 117.08 197.805 117.606 197.318 118.102C196.831 118.598 196.204 119.002 195.439 119.315C194.674 119.628 193.761 119.785 192.7 119.785C191.195 119.785 189.825 119.437 188.59 118.741C187.364 118.037 186.386 116.963 185.655 115.519C184.933 114.067 184.572 112.232 184.572 110.014C184.572 107.744 184.942 105.848 185.681 104.327C186.42 102.805 187.403 101.665 188.629 100.909C189.864 100.152 191.217 99.7738 192.687 99.7738C193.808 99.7738 194.748 99.9651 195.504 100.348C196.261 100.722 196.87 101.191 197.331 101.757C197.8 102.313 198.161 102.861 198.413 103.4H198.622V100.035H204.14V120.268C204.14 121.972 203.723 123.399 202.888 124.547C202.053 125.694 200.896 126.555 199.418 127.129C197.948 127.712 196.257 128.003 194.343 128.003ZM194.461 115.611C195.356 115.611 196.113 115.389 196.731 114.945C197.357 114.493 197.835 113.849 198.165 113.015C198.505 112.171 198.674 111.162 198.674 109.988C198.674 108.814 198.509 107.797 198.179 106.936C197.848 106.066 197.37 105.392 196.744 104.914C196.117 104.435 195.356 104.196 194.461 104.196C193.548 104.196 192.778 104.444 192.152 104.94C191.526 105.427 191.052 106.105 190.73 106.975C190.408 107.844 190.247 108.849 190.247 109.988C190.247 111.145 190.408 112.145 190.73 112.988C191.06 113.823 191.534 114.471 192.152 114.932C192.778 115.384 193.548 115.611 194.461 115.611ZM215.857 120.463C213.796 120.463 212.022 120.046 210.535 119.211C209.056 118.367 207.917 117.176 207.117 115.637C206.317 114.089 205.917 112.258 205.917 110.145C205.917 108.084 206.317 106.275 207.117 104.718C207.917 103.161 209.043 101.948 210.496 101.078C211.957 100.209 213.67 99.7738 215.636 99.7738C216.957 99.7738 218.188 99.9868 219.327 100.413C220.475 100.83 221.475 101.461 222.328 102.305C223.189 103.148 223.858 104.209 224.337 105.488C224.815 106.757 225.054 108.244 225.054 109.949V111.475H208.135V108.031H219.823C219.823 107.231 219.649 106.522 219.301 105.905C218.953 105.288 218.471 104.805 217.853 104.457C217.244 104.1 216.536 103.922 215.727 103.922C214.883 103.922 214.135 104.118 213.483 104.509C212.84 104.892 212.335 105.409 211.97 106.062C211.605 106.705 211.418 107.423 211.409 108.214V111.488C211.409 112.48 211.592 113.336 211.957 114.058C212.331 114.78 212.857 115.337 213.535 115.728C214.214 116.119 215.018 116.315 215.949 116.315C216.566 116.315 217.131 116.228 217.645 116.054C218.158 115.88 218.597 115.619 218.962 115.271C219.327 114.924 219.606 114.497 219.797 113.993L224.937 114.332C224.676 115.567 224.141 116.645 223.332 117.567C222.532 118.481 221.497 119.194 220.227 119.707C218.966 120.211 217.51 120.463 215.857 120.463ZM232.401 108.488V120.072H226.844V100.035H232.14V103.57H232.375C232.819 102.405 233.562 101.483 234.606 100.804C235.649 100.117 236.915 99.7738 238.402 99.7738C239.793 99.7738 241.007 100.078 242.042 100.687C243.076 101.296 243.881 102.165 244.455 103.296C245.029 104.418 245.316 105.757 245.316 107.314V120.072H239.759V108.305C239.767 107.079 239.454 106.122 238.819 105.435C238.185 104.74 237.311 104.392 236.197 104.392C235.449 104.392 234.788 104.553 234.214 104.874C233.649 105.196 233.206 105.666 232.884 106.283C232.571 106.892 232.41 107.627 232.401 108.488ZM256.912 120.463C254.86 120.463 253.095 120.029 251.616 119.159C250.146 118.28 249.016 117.063 248.224 115.506C247.442 113.949 247.05 112.158 247.05 110.132C247.05 108.079 247.446 106.279 248.237 104.731C249.037 103.174 250.172 101.961 251.642 101.091C253.112 100.213 254.86 99.7738 256.886 99.7738C258.634 99.7738 260.165 100.091 261.478 100.726C262.791 101.361 263.831 102.252 264.596 103.4C265.361 104.548 265.783 105.896 265.861 107.444H260.617C260.469 106.444 260.078 105.64 259.443 105.031C258.817 104.413 257.995 104.105 256.978 104.105C256.117 104.105 255.364 104.34 254.721 104.809C254.086 105.27 253.59 105.944 253.234 106.831C252.877 107.718 252.699 108.792 252.699 110.053C252.699 111.332 252.873 112.419 253.221 113.315C253.577 114.21 254.077 114.893 254.721 115.363C255.364 115.832 256.117 116.067 256.978 116.067C257.613 116.067 258.182 115.937 258.687 115.676C259.2 115.415 259.621 115.037 259.952 114.541C260.291 114.036 260.513 113.432 260.617 112.728H265.861C265.774 114.258 265.357 115.606 264.609 116.772C263.87 117.928 262.848 118.833 261.543 119.485C260.239 120.137 258.695 120.463 256.912 120.463ZM271.014 127.586C270.309 127.586 269.648 127.53 269.031 127.416C268.422 127.312 267.918 127.177 267.517 127.012L268.77 122.864C269.422 123.064 270.009 123.172 270.531 123.19C271.061 123.207 271.518 123.085 271.901 122.825C272.292 122.564 272.609 122.12 272.853 121.494L273.179 120.646L265.991 100.035H271.835L275.984 114.75H276.193L280.38 100.035H286.263L278.475 122.238C278.101 123.316 277.593 124.255 276.949 125.055C276.314 125.864 275.51 126.486 274.536 126.921C273.562 127.364 272.388 127.586 271.014 127.586ZM289.384 120.072H285.992L295.802 93.3555H299.142L308.952 120.072H305.56L297.576 97.5822H297.367L289.384 120.072ZM290.636 109.636H304.307V112.506H290.636V109.636ZM311.074 120.072V100.035H314.153V120.072H311.074ZM312.639 96.6951C312.039 96.6951 311.522 96.4907 311.087 96.082C310.661 95.6732 310.448 95.1819 310.448 94.6079C310.448 94.0339 310.661 93.5425 311.087 93.1338C311.522 92.725 312.039 92.5206 312.639 92.5206C313.239 92.5206 313.753 92.725 314.179 93.1338C314.614 93.5425 314.831 94.0339 314.831 94.6079C314.831 95.1819 314.614 95.6732 314.179 96.082C313.753 96.4907 313.239 96.6951 312.639 96.6951Z" fill="#333333"/>
</g>
<defs>
<filter id="filter0_dd_1178_11434" x="0.00367737" y="0.215817" width="421.993" height="256.676" filterUnits="userSpaceOnUse" color-interpolation-filters="sRGB">
<feFlood flood-opacity="0" result="BackgroundImageFix"/>
<feColorMatrix in="SourceAlpha" type="matrix" values="0 0 0 0 0 0 0 0 0 0 0 0 0 0 0 0 0 0 127 0" result="hardAlpha"/>
<feOffset dy="28.954"/>
<feGaussianBlur stdDeviation="37.36"/>
<feComposite in2="hardAlpha" operator="out"/>
<feColorMatrix type="matrix" values="0 0 0 0 0.231373 0 0 0 0 0.341176 0 0 0 0 0.956863 0 0 0 0.1 0"/>
<feBlend mode="normal" in2="BackgroundImageFix" result="effect1_dropShadow_1178_11434"/>
<feColorMatrix in="SourceAlpha" type="matrix" values="0 0 0 0 0 0 0 0 0 0 0 0 0 0 0 0 0 0 127 0" result="hardAlpha"/>
<feOffset dy="-4.67"/>
<feGaussianBlur stdDeviation="28.02"/>
<feComposite in2="hardAlpha" operator="out"/>
<feColorMatrix type="matrix" values="0 0 0 0 0.231373 0 0 0 0 0.341176 0 0 0 0 0.956863 0 0 0 0.1 0"/>
<feBlend mode="normal" in2="effect1_dropShadow_1178_11434" result="effect2_dropShadow_1178_11434"/>
<feBlend mode="normal" in="SourceGraphic" in2="effect2_dropShadow_1178_11434" result="shape"/>
</filter>
<linearGradient id="paint0_linear_1178_11434" x1="126.694" y1="83.3418" x2="155.265" y2="158.807" gradientUnits="userSpaceOnUse">
<stop offset="0.1875" stop-color="#AB3ADD"/>
<stop offset="1" stop-color="#3B57F4"/>
</linearGradient>
</defs>
</svg>
