<svg width="34" height="34" viewBox="0 0 34 34" fill="none" xmlns="http://www.w3.org/2000/svg">
<path d="M15.03 17.4341C15.03 18.4544 14.2028 19.2815 13.1825 19.2815C12.1622 19.2815 11.3351 18.4544 11.3351 17.4341C11.3351 16.4138 12.1622 15.5867 13.1825 15.5867C14.2028 15.5867 15.03 16.4138 15.03 17.4341Z" fill="url(#paint0_linear_1178_10785)"/>
<path d="M20.4694 19.2815C21.4897 19.2815 22.3168 18.4544 22.3168 17.4341C22.3168 16.4138 21.4897 15.5867 20.4694 15.5867C19.4491 15.5867 18.622 16.4138 18.622 17.4341C18.622 18.4544 19.4491 19.2815 20.4694 19.2815Z" fill="url(#paint1_linear_1178_10785)"/>
<path fill-rule="evenodd" clip-rule="evenodd" d="M10.0474 8.9176C11.131 6.22621 13.7686 4.32582 16.8508 4.32422C16.8489 4.32423 16.8471 4.32425 16.8453 4.32429C16.8515 4.3242 16.8578 4.3242 16.864 4.32429C16.8622 4.32426 16.8604 4.32423 16.8585 4.32422C19.9407 4.32582 22.5783 6.22621 23.6619 8.9176C25.0726 9.01403 26.483 9.14045 27.893 9.29684C29.6459 9.49128 30.9434 10.993 30.9434 12.7567V25.9586C30.9434 27.7425 29.6167 29.254 27.8416 29.4297C20.493 30.1574 13.2163 30.1574 5.8677 29.4297C4.09255 29.254 2.76594 27.7425 2.76594 25.9586V12.7567C2.76594 10.993 4.06337 9.49128 5.81632 9.29684C7.22631 9.14045 8.63672 9.01403 10.0474 8.9176ZM4.7587 24.5084L16.5906 4.78165C16.7102 4.58228 16.9991 4.58228 17.1187 4.78165L28.9506 24.5084C20.8022 25.9493 12.9071 25.9493 4.7587 24.5084Z" fill="url(#paint2_linear_1178_10785)"/>
<path d="M31.714 13.2159H32.173C33.0232 13.2159 33.7125 13.9052 33.7125 14.7554V20.1128C33.7125 20.963 33.0232 21.6523 32.173 21.6523H31.714V13.2159Z" fill="url(#paint3_linear_1178_10785)"/>
<path d="M10.0066 32.6979V33.5475H23.7027V32.6979C23.7027 31.8476 23.0134 31.1584 22.1631 31.1584H11.5461C10.6959 31.1584 10.0066 31.8476 10.0066 32.6979Z" fill="url(#paint4_linear_1178_10785)"/>
<path d="M1.99845 13.2159H1.53952C0.689265 13.2159 0 13.9052 0 14.7554V20.1128C0 20.963 0.689265 21.6523 1.53952 21.6523H1.99845V13.2159Z" fill="url(#paint5_linear_1178_10785)"/>
<path d="M16.8559 3.53216C17.7062 3.53216 18.3954 2.84289 18.3954 1.99264C18.3954 1.14239 17.7062 0.453125 16.8559 0.453125C16.0057 0.453125 15.3164 1.14239 15.3164 1.99264C15.3164 2.84289 16.0057 3.53216 16.8559 3.53216Z" fill="url(#paint6_linear_1178_10785)"/>
<path d="M15.4578 1.34693C15.6826 1.11064 16.1327 0.960019 16.5538 0.984325C17.2353 1.02366 17.8383 1.59518 17.8851 2.27957C17.9012 2.51479 17.8893 3.01854 17.8133 3.19937C18.2155 2.92391 18.3952 2.39363 18.3952 1.99264C18.3952 1.14239 17.706 0.453125 16.8557 0.453125C16.2361 0.453125 15.7019 0.819224 15.4578 1.34693Z" fill="url(#paint7_linear_1178_10785)"/>
<defs>
<linearGradient id="paint0_linear_1178_10785" x1="15.6859" y1="4.32422" x2="31.4261" y2="52.286" gradientUnits="userSpaceOnUse">
<stop offset="0.1875" stop-color="#AB3ADD"/>
<stop offset="1" stop-color="#3B57F4"/>
</linearGradient>
<linearGradient id="paint1_linear_1178_10785" x1="15.6859" y1="4.32422" x2="31.4261" y2="52.286" gradientUnits="userSpaceOnUse">
<stop offset="0.1875" stop-color="#AB3ADD"/>
<stop offset="1" stop-color="#3B57F4"/>
</linearGradient>
<linearGradient id="paint2_linear_1178_10785" x1="15.6859" y1="4.32422" x2="31.4261" y2="52.286" gradientUnits="userSpaceOnUse">
<stop offset="0.1875" stop-color="#AB3ADD"/>
<stop offset="1" stop-color="#3B57F4"/>
</linearGradient>
<linearGradient id="paint3_linear_1178_10785" x1="15.6859" y1="4.32422" x2="31.4261" y2="52.286" gradientUnits="userSpaceOnUse">
<stop offset="0.1875" stop-color="#AB3ADD"/>
<stop offset="1" stop-color="#3B57F4"/>
</linearGradient>
<linearGradient id="paint4_linear_1178_10785" x1="15.6859" y1="4.32422" x2="31.4261" y2="52.286" gradientUnits="userSpaceOnUse">
<stop offset="0.1875" stop-color="#AB3ADD"/>
<stop offset="1" stop-color="#3B57F4"/>
</linearGradient>
<linearGradient id="paint5_linear_1178_10785" x1="15.6859" y1="4.32422" x2="31.4261" y2="52.286" gradientUnits="userSpaceOnUse">
<stop offset="0.1875" stop-color="#AB3ADD"/>
<stop offset="1" stop-color="#3B57F4"/>
</linearGradient>
<linearGradient id="paint6_linear_1178_10785" x1="16.749" y1="0.453125" x2="18.6026" y2="5.34901" gradientUnits="userSpaceOnUse">
<stop offset="0.1875" stop-color="#AB3ADD"/>
<stop offset="1" stop-color="#3B57F4"/>
</linearGradient>
<linearGradient id="paint7_linear_1178_10785" x1="16.8245" y1="0.453125" x2="18.3949" y2="4.88992" gradientUnits="userSpaceOnUse">
<stop offset="0.1875" stop-color="#AB3ADD"/>
<stop offset="1" stop-color="#3B57F4"/>
</linearGradient>
</defs>
</svg>
