<svg width="508" height="114" viewBox="0 0 508 114" fill="none" xmlns="http://www.w3.org/2000/svg">
<rect x="0.625" y="0.584961" width="113.145" height="113.145" rx="22.2907" fill="#AB3ADD"/>
<rect x="0.625" y="0.584961" width="113.145" height="113.145" rx="22.2907" fill="url(#paint0_linear_1178_10976)"/>
<path d="M53.413 58.0568C53.413 60.1713 51.6989 61.8855 49.5844 61.8855C47.4699 61.8855 45.7557 60.1713 45.7557 58.0568C45.7557 55.9423 47.4699 54.2282 49.5844 54.2282C51.6989 54.2282 53.413 55.9423 53.413 58.0568Z" fill="white"/>
<path d="M64.6858 61.8855C66.8002 61.8855 68.5144 60.1713 68.5144 58.0568C68.5144 55.9423 66.8002 54.2282 64.6858 54.2282C62.5713 54.2282 60.8571 55.9423 60.8571 58.0568C60.8571 60.1713 62.5713 61.8855 64.6858 61.8855Z" fill="white"/>
<path fill-rule="evenodd" clip-rule="evenodd" d="M43.087 40.4071C45.3328 34.8294 50.7989 30.891 57.1865 30.8877C57.1827 30.8877 57.1789 30.8878 57.1751 30.8878C57.1881 30.8876 57.201 30.8876 57.214 30.8878C57.2102 30.8878 57.2063 30.8877 57.2025 30.8877C63.5901 30.891 69.0563 34.8294 71.302 40.4071C74.2255 40.6069 77.1485 40.8689 80.0705 41.193C83.7034 41.596 86.3922 44.7082 86.3922 48.3633V75.7232C86.3922 79.4201 83.6429 82.5525 79.9641 82.9168C64.7347 84.4249 49.6543 84.4249 34.425 82.9168C30.7461 82.5525 27.9968 79.4201 27.9968 75.7232V48.3633C27.9968 44.7082 30.6857 41.596 34.3185 41.193C37.2406 40.8689 40.1635 40.6069 43.087 40.4071ZM32.1267 72.7176L56.6473 31.8357C56.8951 31.4225 57.4939 31.4225 57.7417 31.8357L82.2624 72.7176C65.3754 75.704 49.0136 75.704 32.1267 72.7176Z" fill="white"/>
<path d="M87.9894 49.315H88.9405C90.7026 49.315 92.131 50.7435 92.131 52.5055V63.6081C92.131 65.3702 90.7025 66.7987 88.9405 66.7987H87.9894V49.315Z" fill="white"/>
<path d="M43.0026 89.6898V91.4505H71.3864V89.6898C71.3864 87.9277 69.958 86.4992 68.1959 86.4992H46.1931C44.431 86.4992 43.0026 87.9277 43.0026 89.6898Z" fill="white"/>
<path d="M26.4063 49.315H25.4552C23.6931 49.315 22.2646 50.7435 22.2646 52.5055V63.6081C22.2646 65.3702 23.6931 66.7987 25.4552 66.7987H26.4063V49.315Z" fill="white"/>
<path d="M57.1974 29.2473C58.9594 29.2473 60.3879 27.8188 60.3879 26.0567C60.3879 24.2947 58.9594 22.8662 57.1974 22.8662C55.4353 22.8662 54.0068 24.2947 54.0068 26.0567C54.0068 27.8188 55.4353 29.2473 57.1974 29.2473Z" fill="white"/>
<path d="M54.2998 24.7185C54.7658 24.2289 55.6985 23.9167 56.5713 23.9671C57.9836 24.0486 59.2333 25.233 59.3302 26.6514C59.3635 27.1388 59.339 28.1828 59.1814 28.5576C60.0149 27.9867 60.3875 26.8877 60.3875 26.0567C60.3875 24.2947 58.959 22.8662 57.197 22.8662C55.9128 22.8662 54.8058 23.6249 54.2998 24.7185Z" fill="white"/>
<path d="M145.343 89.1572H130.913L152.9 25.4653H170.253L192.21 89.1572H177.78L161.825 40.0199H161.328L145.343 89.1572ZM144.441 64.1221H178.526V74.6337H144.441V64.1221ZM214.545 108.066C210.254 108.066 206.574 107.475 203.505 106.293C200.457 105.132 198.032 103.546 196.228 101.535C194.424 99.5237 193.253 97.2638 192.714 94.7551L204.967 93.1069C205.34 94.0606 205.931 94.9521 206.739 95.7814C207.548 96.6108 208.616 97.2742 209.943 97.7718C211.29 98.2901 212.928 98.5493 214.856 98.5493C217.738 98.5493 220.112 97.8444 221.978 96.4345C223.865 95.0454 224.808 92.7129 224.808 89.4371V80.6981H224.249C223.668 82.0251 222.797 83.2794 221.636 84.4612C220.475 85.643 218.982 86.6071 217.158 87.3535C215.333 88.0998 213.156 88.473 210.627 88.473C207.04 88.473 203.775 87.6437 200.831 85.9851C197.907 84.3057 195.575 81.7452 193.833 78.3035C192.112 74.8411 191.252 70.4664 191.252 65.1795C191.252 59.7681 192.133 55.2483 193.895 51.62C195.658 47.9918 198.001 45.2757 200.924 43.472C203.868 41.6682 207.092 40.7663 210.596 40.7663C213.27 40.7663 215.51 41.2224 217.313 42.1347C219.117 43.0262 220.568 44.1458 221.667 45.4934C222.787 46.8203 223.647 48.1265 224.249 49.412H224.746V41.3883H237.901V89.6237C237.901 93.6874 236.906 97.0876 234.916 99.8244C232.925 102.561 230.168 104.614 226.643 105.982C223.139 107.371 219.107 108.066 214.545 108.066ZM214.825 78.5212C216.961 78.5212 218.765 77.9925 220.237 76.9351C221.729 75.857 222.87 74.3227 223.658 72.3324C224.466 70.3213 224.871 67.9162 224.871 65.1173C224.871 62.3183 224.477 59.8925 223.689 57.84C222.901 55.7667 221.761 54.1598 220.268 53.0195C218.775 51.8792 216.961 51.3091 214.825 51.3091C212.648 51.3091 210.814 51.8999 209.321 53.0817C207.828 54.2428 206.698 55.86 205.931 57.9333C205.164 60.0066 204.78 62.4012 204.78 65.1173C204.78 67.8748 205.164 70.2591 205.931 72.2702C206.719 74.2605 207.849 75.8051 209.321 76.904C210.814 77.9821 212.648 78.5212 214.825 78.5212ZM265.835 90.0902C260.921 90.0902 256.692 89.095 253.146 87.1047C249.622 85.0935 246.906 82.2531 244.998 78.5834C243.091 74.8929 242.137 70.5286 242.137 65.4905C242.137 60.5767 243.091 56.2643 244.998 52.553C246.906 48.8418 249.591 45.9496 253.053 43.8763C256.536 41.803 260.621 40.7663 265.306 40.7663C268.458 40.7663 271.391 41.2743 274.107 42.2902C276.844 43.2854 279.228 44.7885 281.26 46.7996C283.313 48.8107 284.909 51.3402 286.05 54.3879C287.19 57.4149 287.76 60.9603 287.76 65.024V68.6626H247.424V60.4523H275.289C275.289 58.5449 274.874 56.8551 274.045 55.3831C273.216 53.9111 272.065 52.7604 270.593 51.931C269.142 51.081 267.452 50.656 265.524 50.656C263.513 50.656 261.73 51.1225 260.175 52.0554C258.641 52.9677 257.438 54.2013 256.567 55.7563C255.696 57.2905 255.251 59.001 255.23 60.8877V68.6937C255.23 71.0573 255.665 73.0995 256.536 74.8203C257.428 76.5412 258.682 77.8681 260.299 78.8011C261.916 79.7341 263.834 80.2006 266.053 80.2006C267.525 80.2006 268.872 79.9932 270.096 79.5786C271.319 79.1639 272.366 78.5419 273.237 77.7126C274.107 76.8833 274.771 75.8673 275.227 74.6648L287.48 75.4734C286.858 78.4175 285.583 80.9884 283.655 83.1861C281.747 85.3631 279.28 87.0632 276.253 88.2864C273.247 89.489 269.774 90.0902 265.835 90.0902ZM305.275 61.5408V89.1572H292.027V41.3883H304.653V49.8163H305.213C306.271 47.038 308.043 44.8403 310.531 43.2232C313.019 41.5853 316.036 40.7663 319.581 40.7663C322.898 40.7663 325.791 41.492 328.258 42.9433C330.725 44.3946 332.643 46.4679 334.011 49.1632C335.38 51.8377 336.064 55.0306 336.064 58.7418V89.1572H322.816V61.1054C322.836 58.1821 322.09 55.9014 320.576 54.2635C319.063 52.6049 316.979 51.7755 314.325 51.7755C312.542 51.7755 310.967 52.1591 309.598 52.9262C308.251 53.6934 307.193 54.8129 306.426 56.285C305.68 57.7363 305.296 59.4882 305.275 61.5408ZM363.71 90.0902C358.817 90.0902 354.608 89.0536 351.083 86.9803C347.58 84.8862 344.884 81.9836 342.998 78.2724C341.132 74.5612 340.199 70.2902 340.199 65.4594C340.199 60.5664 341.142 56.2746 343.029 52.5841C344.936 48.8729 347.642 45.9807 351.146 43.9074C354.65 41.8133 358.817 40.7663 363.648 40.7663C367.815 40.7663 371.464 41.5231 374.595 43.0366C377.725 44.5501 380.203 46.6752 382.028 49.412C383.852 52.1487 384.858 55.3624 385.044 59.0528H372.542C372.19 56.6685 371.257 54.7507 369.743 53.2994C368.25 51.8274 366.291 51.0914 363.865 51.0914C361.813 51.0914 360.019 51.6511 358.485 52.7707C356.972 53.8696 355.79 55.4764 354.94 57.5912C354.09 59.7059 353.665 62.2665 353.665 65.2728C353.665 68.3205 354.079 70.9121 354.909 73.0477C355.759 75.1832 356.951 76.8107 358.485 77.9303C360.019 79.0499 361.813 79.6097 363.865 79.6097C365.379 79.6097 366.737 79.2987 367.939 78.6767C369.163 78.0547 370.168 77.1528 370.956 75.971C371.765 74.7685 372.293 73.3275 372.542 71.6482H385.044C384.837 75.2972 383.842 78.5108 382.059 81.289C380.296 84.0465 377.86 86.2028 374.75 87.7577C371.64 89.3127 367.96 90.0902 363.71 90.0902ZM397.327 107.071C395.648 107.071 394.072 106.936 392.6 106.666C391.149 106.417 389.946 106.096 388.992 105.702L391.978 95.8125C393.533 96.2894 394.932 96.5486 396.176 96.59C397.441 96.6315 398.529 96.3412 399.442 95.7192C400.375 95.0972 401.131 94.0399 401.712 92.5471L402.489 90.5256L385.354 41.3883H399.286L409.176 76.4686H409.673L419.656 41.3883H433.682L415.116 94.3198C414.224 96.8907 413.012 99.1298 411.477 101.037C409.964 102.965 408.046 104.448 405.724 105.484C403.402 106.542 400.603 107.071 397.327 107.071ZM441.121 89.1572H433.035L456.422 25.4653H464.384L487.771 89.1572H479.685L460.652 35.5416H460.154L441.121 89.1572ZM444.107 64.2776H476.699V71.1195H444.107V64.2776ZM492.831 89.1572V41.3883H500.17V89.1572H492.831ZM496.563 33.4268C495.132 33.4268 493.898 32.9396 492.862 31.9651C491.846 30.9907 491.338 29.8193 491.338 28.4509C491.338 27.0825 491.846 25.9111 492.862 24.9366C493.898 23.9622 495.132 23.4749 496.563 23.4749C497.993 23.4749 499.216 23.9622 500.232 24.9366C501.269 25.9111 501.787 27.0825 501.787 28.4509C501.787 29.8193 501.269 30.9907 500.232 31.9651C499.216 32.9396 497.993 33.4268 496.563 33.4268Z" fill="#333333"/>
<defs>
<linearGradient id="paint0_linear_1178_10976" x1="53.2696" y1="0.58496" x2="121.382" y2="180.494" gradientUnits="userSpaceOnUse">
<stop offset="0.1875" stop-color="#AB3ADD"/>
<stop offset="1" stop-color="#3B57F4"/>
</linearGradient>
</defs>
</svg>
