<svg width="170" height="36" viewBox="0 0 170 36" fill="none" xmlns="http://www.w3.org/2000/svg">
<path d="M15.03 18.4341C15.03 19.4544 14.2028 20.2815 13.1825 20.2815C12.1622 20.2815 11.3351 19.4544 11.3351 18.4341C11.3351 17.4138 12.1622 16.5867 13.1825 16.5867C14.2028 16.5867 15.03 17.4138 15.03 18.4341Z" fill="url(#paint0_linear_1178_10783)"/>
<path d="M20.4694 20.2815C21.4897 20.2815 22.3168 19.4544 22.3168 18.4341C22.3168 17.4138 21.4897 16.5867 20.4694 16.5867C19.4491 16.5867 18.622 17.4138 18.622 18.4341C18.622 19.4544 19.4491 20.2815 20.4694 20.2815Z" fill="url(#paint1_linear_1178_10783)"/>
<path fill-rule="evenodd" clip-rule="evenodd" d="M10.0474 9.9176C11.131 7.22621 13.7686 5.32582 16.8508 5.32422C16.8489 5.32423 16.8471 5.32425 16.8453 5.32429C16.8515 5.3242 16.8578 5.3242 16.864 5.32429C16.8622 5.32426 16.8604 5.32423 16.8585 5.32422C19.9407 5.32582 22.5783 7.22621 23.6619 9.9176C25.0726 10.014 26.483 10.1404 27.893 10.2968C29.6459 10.4913 30.9434 11.993 30.9434 13.7567V26.9586C30.9434 28.7425 29.6167 30.254 27.8416 30.4297C20.493 31.1574 13.2163 31.1574 5.8677 30.4297C4.09255 30.254 2.76594 28.7425 2.76594 26.9586V13.7567C2.76594 11.993 4.06337 10.4913 5.81632 10.2968C7.22631 10.1404 8.63672 10.014 10.0474 9.9176ZM4.7587 25.5084L16.5906 5.78165C16.7102 5.58228 16.9991 5.58228 17.1187 5.78165L28.9506 25.5084C20.8022 26.9493 12.9071 26.9493 4.7587 25.5084Z" fill="url(#paint2_linear_1178_10783)"/>
<path d="M31.714 14.2159H32.173C33.0232 14.2159 33.7125 14.9052 33.7125 15.7554V21.1128C33.7125 21.963 33.0232 22.6523 32.173 22.6523H31.714V14.2159Z" fill="url(#paint3_linear_1178_10783)"/>
<path d="M10.0066 33.6979V34.5475H23.7027V33.6979C23.7027 32.8476 23.0134 32.1584 22.1631 32.1584H11.5461C10.6959 32.1584 10.0066 32.8476 10.0066 33.6979Z" fill="url(#paint4_linear_1178_10783)"/>
<path d="M1.99845 14.2159H1.53952C0.689265 14.2159 0 14.9052 0 15.7554V21.1128C0 21.963 0.689265 22.6523 1.53952 22.6523H1.99845V14.2159Z" fill="url(#paint5_linear_1178_10783)"/>
<path d="M16.8559 4.53216C17.7062 4.53216 18.3954 3.84289 18.3954 2.99264C18.3954 2.14239 17.7062 1.45312 16.8559 1.45312C16.0057 1.45312 15.3164 2.14239 15.3164 2.99264C15.3164 3.84289 16.0057 4.53216 16.8559 4.53216Z" fill="url(#paint6_linear_1178_10783)"/>
<path d="M15.4578 2.34693C15.6826 2.11064 16.1327 1.96002 16.5538 1.98432C17.2353 2.02366 17.8383 2.59518 17.8851 3.27957C17.9012 3.51479 17.8893 4.01854 17.8133 4.19937C18.2155 3.92391 18.3952 3.39363 18.3952 2.99264C18.3952 2.14239 17.706 1.45312 16.8557 1.45312C16.2361 1.45312 15.7019 1.81922 15.4578 2.34693Z" fill="url(#paint7_linear_1178_10783)"/>
<path d="M46.6074 29H41.689L49.1833 7.29087H55.0982L62.5819 29H57.6634L52.2255 12.2517H52.0559L46.6074 29ZM46.3 20.4669H57.9178V24.0497H46.3V20.4669ZM70.1949 35.4449C68.7321 35.4449 67.4777 35.2435 66.4319 34.8407C65.3931 34.4449 64.5662 33.9043 63.9514 33.2189C63.3366 32.5334 62.9373 31.7631 62.7536 30.908L66.9301 30.3462C67.0573 30.6713 67.2587 30.9752 67.5343 31.2578C67.8099 31.5405 68.1738 31.7666 68.6261 31.9362C69.0854 32.1129 69.6437 32.2012 70.3009 32.2012C71.2832 32.2012 72.0924 31.961 72.7284 31.4804C73.3714 31.007 73.693 30.212 73.693 29.0954V26.1168H73.5022C73.3043 26.569 73.0075 26.9966 72.6118 27.3994C72.216 27.8022 71.7072 28.1308 71.0853 28.3852C70.4635 28.6396 69.7214 28.7668 68.8593 28.7668C67.6368 28.7668 66.5237 28.4841 65.5203 27.9188C64.5238 27.3464 63.7288 26.4736 63.1352 25.3005C62.5487 24.1204 62.2554 22.6293 62.2554 20.8273C62.2554 18.9828 62.5557 17.4423 63.1564 16.2056C63.7571 14.9689 64.5556 14.0432 65.5521 13.4284C66.5555 12.8136 67.6544 12.5061 68.8487 12.5061C69.7603 12.5061 70.5235 12.6616 71.1383 12.9726C71.7531 13.2764 72.2478 13.658 72.6224 14.1174C73.004 14.5696 73.2972 15.0149 73.5022 15.453H73.6718V12.7182H78.1556V29.159C78.1556 30.5441 77.8164 31.703 77.138 32.6359C76.4596 33.5687 75.5197 34.2683 74.3184 34.7347C73.1241 35.2082 71.7496 35.4449 70.1949 35.4449ZM70.2903 25.3747C71.0182 25.3747 71.633 25.1945 72.1348 24.8341C72.6436 24.4667 73.0322 23.9437 73.3008 23.2653C73.5764 22.5798 73.7142 21.7601 73.7142 20.8061C73.7142 19.8521 73.5799 19.0252 73.3114 18.3256C73.0428 17.619 72.6542 17.0713 72.1454 16.6826C71.6365 16.2939 71.0182 16.0996 70.2903 16.0996C69.5483 16.0996 68.9229 16.301 68.4141 16.7038C67.9053 17.0996 67.5201 17.6508 67.2587 18.3574C66.9972 19.0641 66.8665 19.8803 66.8665 20.8061C66.8665 21.746 66.9972 22.5586 67.2587 23.2441C67.5272 23.9225 67.9124 24.449 68.4141 24.8235C68.9229 25.191 69.5483 25.3747 70.2903 25.3747ZM87.6767 29.318C86.0019 29.318 84.5603 28.9788 83.3518 28.3004C82.1505 27.6149 81.2247 26.6468 80.5746 25.3959C79.9245 24.1381 79.5994 22.6505 79.5994 20.9333C79.5994 19.2585 79.9245 17.7886 80.5746 16.5236C81.2247 15.2587 82.1399 14.2728 83.32 13.5662C84.5073 12.8595 85.8994 12.5061 87.4965 12.5061C88.5707 12.5061 89.5706 12.6793 90.4964 13.0256C91.4292 13.3648 92.2418 13.8771 92.9344 14.5626C93.634 15.2481 94.1781 16.1102 94.5668 17.149C94.9555 18.1808 95.1498 19.3892 95.1498 20.7743V22.0145H81.4014V19.2161H90.8992C90.8992 18.5659 90.7578 17.99 90.4752 17.4882C90.1925 16.9865 89.8003 16.5943 89.2985 16.3116C88.8039 16.0219 88.2279 15.877 87.5707 15.877C86.8852 15.877 86.2775 16.036 85.7475 16.354C85.2245 16.6649 84.8147 17.0854 84.5179 17.6154C84.2211 18.1384 84.0691 18.7214 84.0621 19.3645V22.0251C84.0621 22.8307 84.2105 23.5268 84.5073 24.1133C84.8111 24.6999 85.2387 25.1521 85.7899 25.4701C86.3411 25.7882 86.9948 25.9472 87.7509 25.9472C88.2526 25.9472 88.712 25.8765 89.1289 25.7352C89.5459 25.5938 89.9027 25.3818 90.1995 25.0991C90.4964 24.8165 90.7225 24.4702 90.878 24.0603L95.0544 24.3359C94.8424 25.3394 94.4078 26.2157 93.7506 26.9648C93.1005 27.7068 92.2595 28.2863 91.2278 28.7032C90.2031 29.1131 89.0194 29.318 87.6767 29.318ZM101.12 19.5871V29H96.6042V12.7182H100.908V15.5908H101.099C101.459 14.6438 102.063 13.8948 102.911 13.3436C103.759 12.7853 104.787 12.5061 105.996 12.5061C107.127 12.5061 108.112 12.7535 108.953 13.2482C109.794 13.7428 110.448 14.4495 110.914 15.3682C111.381 16.2798 111.614 17.3681 111.614 18.633V29H107.098V19.4387C107.105 18.4422 106.851 17.6649 106.335 17.1066C105.819 16.5413 105.109 16.2586 104.204 16.2586C103.597 16.2586 103.06 16.3893 102.593 16.6508C102.134 16.9123 101.774 17.2939 101.512 17.7956C101.258 18.2903 101.127 18.8874 101.12 19.5871ZM121.037 29.318C119.369 29.318 117.935 28.9647 116.733 28.258C115.539 27.5442 114.62 26.5549 113.977 25.2899C113.341 24.025 113.023 22.5692 113.023 20.9227C113.023 19.2549 113.345 17.7921 113.988 16.5342C114.638 15.2693 115.56 14.2834 116.755 13.5768C117.949 12.863 119.369 12.5061 121.016 12.5061C122.436 12.5061 123.68 12.7641 124.747 13.28C125.814 13.7958 126.659 14.5202 127.28 15.453C127.902 16.3858 128.245 17.4812 128.309 18.739H124.047C123.927 17.9264 123.609 17.2727 123.093 16.778C122.585 16.2763 121.917 16.0254 121.09 16.0254C120.39 16.0254 119.779 16.2162 119.256 16.5978C118.74 16.9724 118.337 17.52 118.048 18.2408C117.758 18.9616 117.613 19.8344 117.613 20.8591C117.613 21.8979 117.754 22.7812 118.037 23.5091C118.327 24.237 118.733 24.7917 119.256 25.1733C119.779 25.5549 120.39 25.7458 121.09 25.7458C121.606 25.7458 122.069 25.6397 122.479 25.4277C122.896 25.2157 123.238 24.9083 123.507 24.5055C123.782 24.0957 123.963 23.6045 124.047 23.0321H128.309C128.238 24.2759 127.899 25.3712 127.291 26.3182C126.69 27.258 125.86 27.993 124.8 28.523C123.74 29.053 122.486 29.318 121.037 29.318ZM132.495 35.1057C131.923 35.1057 131.386 35.0598 130.884 34.9679C130.389 34.8831 129.979 34.7736 129.654 34.6393L130.672 31.2684C131.202 31.431 131.679 31.5193 132.103 31.5334C132.534 31.5476 132.905 31.4486 133.216 31.2366C133.534 31.0246 133.792 30.6642 133.99 30.1554L134.255 29.4664L128.414 12.7182H133.163L136.534 24.6751H136.704L140.106 12.7182H144.887L138.559 30.7596C138.255 31.6359 137.841 32.3991 137.318 33.0493C136.802 33.7065 136.149 34.2117 135.357 34.5651C134.566 34.9255 133.612 35.1057 132.495 35.1057ZM147.422 29H144.666L152.638 7.29087H155.351L163.323 29H160.567L154.079 10.7253H153.91L147.422 29ZM148.44 20.5199H159.549V22.8519H148.44V20.5199ZM165.047 29V12.7182H167.549V29H165.047ZM166.319 10.0045C165.832 10.0045 165.411 9.83844 165.058 9.5063C164.712 9.17417 164.538 8.77489 164.538 8.30849C164.538 7.84208 164.712 7.44281 165.058 7.11067C165.411 6.77853 165.832 6.61246 166.319 6.61246C166.807 6.61246 167.224 6.77853 167.57 7.11067C167.923 7.44281 168.1 7.84208 168.1 8.30849C168.1 8.77489 167.923 9.17417 167.57 9.5063C167.224 9.83844 166.807 10.0045 166.319 10.0045Z" fill="#333333"/>
<defs>
<linearGradient id="paint0_linear_1178_10783" x1="15.6859" y1="5.32422" x2="31.4261" y2="53.286" gradientUnits="userSpaceOnUse">
<stop offset="0.1875" stop-color="#AB3ADD"/>
<stop offset="1" stop-color="#3B57F4"/>
</linearGradient>
<linearGradient id="paint1_linear_1178_10783" x1="15.6859" y1="5.32422" x2="31.4261" y2="53.286" gradientUnits="userSpaceOnUse">
<stop offset="0.1875" stop-color="#AB3ADD"/>
<stop offset="1" stop-color="#3B57F4"/>
</linearGradient>
<linearGradient id="paint2_linear_1178_10783" x1="15.6859" y1="5.32422" x2="31.4261" y2="53.286" gradientUnits="userSpaceOnUse">
<stop offset="0.1875" stop-color="#AB3ADD"/>
<stop offset="1" stop-color="#3B57F4"/>
</linearGradient>
<linearGradient id="paint3_linear_1178_10783" x1="15.6859" y1="5.32422" x2="31.4261" y2="53.286" gradientUnits="userSpaceOnUse">
<stop offset="0.1875" stop-color="#AB3ADD"/>
<stop offset="1" stop-color="#3B57F4"/>
</linearGradient>
<linearGradient id="paint4_linear_1178_10783" x1="15.6859" y1="5.32422" x2="31.4261" y2="53.286" gradientUnits="userSpaceOnUse">
<stop offset="0.1875" stop-color="#AB3ADD"/>
<stop offset="1" stop-color="#3B57F4"/>
</linearGradient>
<linearGradient id="paint5_linear_1178_10783" x1="15.6859" y1="5.32422" x2="31.4261" y2="53.286" gradientUnits="userSpaceOnUse">
<stop offset="0.1875" stop-color="#AB3ADD"/>
<stop offset="1" stop-color="#3B57F4"/>
</linearGradient>
<linearGradient id="paint6_linear_1178_10783" x1="16.749" y1="1.45312" x2="18.6026" y2="6.34901" gradientUnits="userSpaceOnUse">
<stop offset="0.1875" stop-color="#AB3ADD"/>
<stop offset="1" stop-color="#3B57F4"/>
</linearGradient>
<linearGradient id="paint7_linear_1178_10783" x1="16.8245" y1="1.45312" x2="18.3949" y2="5.88992" gradientUnits="userSpaceOnUse">
<stop offset="0.1875" stop-color="#AB3ADD"/>
<stop offset="1" stop-color="#3B57F4"/>
</linearGradient>
</defs>
</svg>
