<svg width="1011" height="263" viewBox="0 0 1011 263" fill="none" xmlns="http://www.w3.org/2000/svg">
<mask id="mask0_1178_10921" style="mask-type:alpha" maskUnits="userSpaceOnUse" x="0" y="0" width="1011" height="263">
<rect x="0.5" y="0.123047" width="1010" height="262.184" rx="24" fill="#8A00C7"/>
</mask>
<g mask="url(#mask0_1178_10921)">
<g style="mix-blend-mode:overlay" filter="url(#filter0_f_1178_10921)">
<ellipse cx="499.652" cy="146.495" rx="298.217" ry="240.671" fill="white" fill-opacity="0.3"/>
</g>
<path fill-rule="evenodd" clip-rule="evenodd" d="M0.759207 1.52738C1.01673 2.89065 1.04955 2.90312 10.6958 5.2343C39.6865 12.2403 105.489 27.7038 107.472 27.9765C110.07 28.3338 88.5832 22.1605 50.2501 11.5362C4.62964 -1.10762 9.6867 0.159515 4.84761 0.159515H0.5L0.759207 1.52738ZM114.284 0.686778C115.206 1.11922 176.746 20.4065 188.811 24.0442C193.283 25.3923 194.315 25.3881 191.162 24.0343C188.243 22.7813 188.954 22.9906 202.086 27.2533C243.596 40.7273 277.998 51.7325 285.002 53.7782C288.998 54.9453 281.511 52.0337 251.158 40.6173C207.345 24.1387 154.177 4.50591 144.396 1.19435L141.339 0.159515H127.251C114.408 0.159515 113.262 0.206106 114.284 0.686778ZM223.275 0.891514C227.552 2.84373 252.46 13.2837 252.841 13.2837C253.081 13.2837 252.915 13.0993 252.473 12.8735C252.03 12.6481 246.264 9.69519 239.657 6.31146C228.042 0.362611 227.548 0.159515 224.659 0.159515H221.672L223.275 0.891514ZM251.077 0.569645C252.072 1.21831 283.734 16.6169 301.675 25.1774C316.281 32.147 320.143 33.8715 318.209 32.5598C317.539 32.1053 299.892 21.9177 292.208 17.549C289.511 16.0151 284.838 13.3575 281.826 11.6431C278.813 9.92881 272.969 6.6435 268.836 4.34284L261.323 0.159515H255.885C251.76 0.159515 250.599 0.258602 251.077 0.569645ZM307.774 0.46137C307.774 0.870188 344.421 23.4211 346.201 24.1075C347.388 24.5649 340.922 19.6358 321.028 4.91702L314.82 0.323567L311.297 0.222839C309.264 0.164436 307.774 0.265492 307.774 0.46137ZM356.586 0.426263C356.586 1.16811 388.651 31.4058 389.207 31.1886C389.56 31.0508 386.537 27.1415 378.28 17.0569C375.03 13.0868 371.13 8.28829 369.615 6.39349C364.527 0.03057 364.98 0.338003 360.503 0.223495C358.349 0.168702 356.586 0.259586 356.586 0.426263ZM422.229 0.659217C422.229 1.2206 426.303 9.00257 430.642 16.7288C432.061 19.2552 434.318 23.3154 435.657 25.7516C440.963 35.4025 451.946 56.2359 452.804 57.0132C453.686 57.8131 453.7 57.8092 453.324 56.8491C453.111 56.3078 452.171 53.6501 451.236 50.9433C447.58 40.375 439.774 21.1762 438.6 18.0412C437.924 16.2366 436.397 12.0287 435.206 8.69021C431.938 -0.466507 432.719 0.341612 427.033 0.225136C423.058 0.143766 422.229 0.218573 422.229 0.659217ZM450.407 2.04611C450.737 3.08358 451.883 5.99976 452.953 8.52616C454.025 11.0526 458.54 24.7115 458.867 25.7516C459.194 26.7917 459.847 27.736 460.32 27.8498C460.875 27.9834 461.006 27.6612 460.691 26.9433C460.421 26.3307 456.406 12.0615 455.89 8.36211C454.732 0.0755196 454.772 0.159515 451.992 0.159515C449.823 0.159515 449.812 0.173951 450.407 2.04611ZM491.835 0.405593C491.15 0.896108 494.504 36.5272 495.426 38.5477L496.099 40.0241L496.194 38.5247C496.246 37.6998 497.021 31.0557 497.916 23.76C498.812 16.464 499.799 8.16951 500.109 5.32715L500.673 0.159515H496.426C494.091 0.159515 492.025 0.270086 491.835 0.405593ZM536.665 1.0618C536.655 1.55822 536.107 4.32643 535.446 7.21375C532.888 18.3945 530.919 27.6799 530.507 30.5091L530.076 33.462L531.59 30.3451C534.312 24.7417 544.258 1.60153 544.258 0.871828C544.258 0.246462 543.796 0.159515 540.471 0.159515C536.905 0.159515 536.683 0.21234 536.665 1.0618ZM598.5 0.512554C597.954 0.857063 596.678 2.69937 583.405 22.3065C574.403 35.6046 564.448 51.0606 564.498 51.6607C564.572 52.5334 586.415 28.0224 602.353 9.18237C606.169 4.67094 609.47 0.79538 609.687 0.569645C610.192 0.0446784 599.33 -0.0110992 598.5 0.512554ZM637.42 4.17879C633.952 7.79974 614.217 28.904 612.799 30.5091L612.219 31.1653L613.458 30.5091C614.562 29.9244 647.599 2.15734 648.884 0.733696C649.332 0.23826 648.846 0.159515 645.337 0.159515H641.271L637.42 4.17879ZM673.067 0.897748C672.654 1.30394 669.064 4.64961 665.089 8.33324C661.115 12.0165 657.996 15.0823 658.159 15.1457C658.555 15.2999 678.069 0.954182 678.069 0.508617C678.069 -0.191884 673.843 0.136548 673.067 0.897748ZM752.081 1.40237C750.897 2.07236 746.952 4.31823 743.314 6.39349C739.676 8.46874 735.124 11.0526 733.198 12.1353C721.646 18.6308 703.084 29.3227 686.49 39.0398C665.493 51.3358 666.026 51.0156 666.583 51.0156C667.807 51.0156 764.716 3.01861 768.437 0.569645C768.916 0.253681 767.354 0.162468 761.646 0.171983L754.232 0.184451L752.081 1.40237ZM780.306 4.50689C770.724 9.03242 752.263 17.9463 747.179 20.5019C745.477 21.358 748.044 20.5305 753.289 18.5333C763.524 14.6364 797.005 0.932527 797.433 0.465308C797.588 0.29699 795.868 0.159515 793.612 0.159515H789.509L780.306 4.50689ZM851.843 10.0627C805.385 26.1486 746.711 46.9609 732.783 52.2942C728.566 53.9091 728.078 54.1795 730.668 53.4665C750.642 47.9682 900.082 1.46602 900.948 0.479088C901.12 0.28321 897.212 0.159515 890.837 0.159515H880.444L851.843 10.0627ZM895.865 7.4362C855.667 20.6548 841.921 25.4297 852.698 22.4312C855.012 21.7875 865.048 18.9953 874.999 16.2271C901.3 8.91037 929.578 0.831799 930.148 0.471541C930.444 0.28485 928.102 0.159515 924.319 0.159515H917.994L895.865 7.4362ZM973.029 8.8979C926.44 20.9967 877.924 33.9427 840.705 44.2058C826.303 48.1775 822.749 49.2724 827.24 48.3553C834.167 46.9402 892.126 33.777 909.083 29.7676C915.564 28.2354 925.221 25.9898 930.544 24.7771C940.063 22.6084 965.919 16.5037 992.4 10.1723C999.806 8.40181 1006.9 6.71634 1008.17 6.42728C1010.41 5.91741 1010.48 5.8134 1010.49 3.03042C1010.49 0.264836 1010.42 0.159515 1008.59 0.159515C1007.49 0.159515 992.306 3.89202 973.029 8.8979ZM0.596782 29.6419V32.5483L25.213 37.1673C89.7825 49.2839 173.896 64.3727 171.438 63.3982C169.105 62.4733 2.93133 26.7359 0.964553 26.7359C0.761732 26.7359 0.596782 28.0437 0.596782 29.6419ZM1002.5 33.6382C998.796 34.3453 979.292 38.0384 959.157 41.8451C925.473 48.2133 851.238 62.7594 826.188 67.9001C820.402 69.0876 808.851 71.4013 800.519 73.0419C792.188 74.6824 783.477 76.4266 781.163 76.9181C778.849 77.4093 772.121 78.8181 766.213 80.0489C755.532 82.2734 752.703 83.0874 759.783 81.8997C761.822 81.5575 766.709 80.7543 770.643 80.1148C790.161 76.9424 850.113 66.9519 866.584 64.1276C917.158 55.4548 961.838 47.6289 1003.97 40.0635L1010.49 38.8922V35.6029C1010.49 33.7938 1010.21 32.3225 1009.86 32.333C1009.52 32.3435 1006.2 32.9308 1002.5 33.6382ZM0.777722 40.2741L1.01757 43.6277L19.5324 46.85C95.1972 60.0194 252.11 85.6223 253.599 85.0419C254.225 84.7978 122.791 59.3324 83.9133 52.165C75.8131 50.6718 63.8837 48.461 57.4035 47.2526C50.9233 46.0438 43.5385 44.6796 40.9927 44.2206C38.4469 43.7616 29.9259 42.2044 22.0571 40.7601C14.1883 39.3161 6.12765 37.8613 4.14405 37.5276L0.537871 36.9206L0.777722 40.2741ZM978.645 46.1419C961.822 49.3902 948.203 52.1036 948.379 52.1725C948.757 52.3201 954.604 51.4907 973.464 48.6149C981.102 47.4501 992.558 45.7069 998.922 44.7413L1010.49 42.9853V41.5866C1010.49 40.8175 1010.21 40.199 1009.86 40.2125C1009.52 40.2259 995.467 42.894 978.645 46.1419ZM0.754157 54.7068L1.01757 55.7731L24.161 58.7956C57.5912 63.1613 57.2428 62.9281 21.3014 56.8821C10.7025 55.0992 1.6841 53.6404 1.26079 53.6404C0.836632 53.6404 0.608564 54.1204 0.754157 54.7068ZM1006.29 68.4051C1005.13 68.557 989.412 70.5525 971.36 72.8401C940.993 76.6878 890.718 83.2406 862.881 86.9794C856.446 87.8436 851.536 88.5966 851.969 88.6527C853.341 88.8312 973.107 76.9991 1002.71 73.7607L1010.49 72.909V70.4931C1010.49 67.9356 1010.36 67.87 1006.29 68.4051ZM0.596782 84.9829C0.596782 86.9899 0.842524 87.4204 2.06955 87.5687C3.94796 87.7954 54.2392 91.6132 86.8588 94.0054C132.421 97.3465 158.622 99.1028 159.25 98.8584C159.831 98.6313 113.766 93.7659 66.6609 89.0789C40.5407 86.48 4.23578 82.8974 2.06955 82.7055C0.770148 82.5903 0.596782 82.8587 0.596782 84.9829ZM992.4 96.81C983.143 97.5912 973.202 98.4003 970.308 98.6084C967.416 98.816 965.049 99.09 965.049 99.2173C965.049 99.4355 1007.19 97.7507 1009.44 97.4429C1010.55 97.2914 1010.95 95.2807 1009.86 95.3496C1009.52 95.3716 1001.66 96.0288 992.4 96.81ZM0.596782 97.3793C0.596782 98.1211 0.949406 98.152 17.6388 98.8791C27.0123 99.2872 35.6276 99.7039 36.7848 99.8046C38.1978 99.9277 38.6118 99.8791 38.0471 99.6567C37.5843 99.4746 32.661 98.9985 27.1066 98.5988C21.5521 98.1995 13.9779 97.5922 10.275 97.2497C1.46613 96.4347 0.596782 96.4462 0.596782 97.3793ZM989.034 114.212C981.165 114.456 968.289 114.884 960.42 115.163C952.551 115.442 935.698 116.031 922.969 116.472C871.059 118.272 800.964 121.102 800.19 121.43C799.579 121.69 853.818 121.359 887.623 120.897C979.89 119.637 1008.52 119.213 1009.44 119.092C1010.17 118.997 1010.49 118.134 1010.49 116.318V113.683L1006.92 113.726C1004.95 113.75 996.902 113.969 989.034 114.212ZM0.596782 128.966V131.799L21.0051 131.592C88.845 130.904 125.036 130.469 159.235 129.929C164.789 129.842 175.583 129.69 183.22 129.592C190.857 129.494 199.378 129.319 202.155 129.204C206.609 129.019 206.891 128.968 204.543 128.769C203.079 128.644 193.99 128.443 184.345 128.321C174.701 128.2 152.607 127.889 135.25 127.631C103 127.151 58.6095 126.637 21.4259 126.314L0.596782 126.134V128.966ZM977.11 127.923C966.386 128.121 957.329 128.395 956.982 128.53C956.635 128.666 957.824 128.776 959.621 128.776C961.42 128.776 969.909 128.92 978.487 129.095C987.064 129.271 997.776 129.462 1002.29 129.521L1010.49 129.627V128.545V127.464L1003.55 127.513C999.733 127.54 987.833 127.724 977.11 127.923ZM841.757 148.621C843.608 148.86 853.455 149.655 863.638 150.387C873.821 151.119 891.621 152.402 903.192 153.238C928.901 155.094 943.928 156.126 979.355 158.466C994.399 159.46 1007.58 160.351 1008.64 160.447C1010.54 160.619 1010.56 160.583 1010.32 158.072L1010.07 155.523L1001.66 155.108C988.28 154.448 943.649 152.443 922.969 151.573C880.56 149.788 840.026 148.136 839.233 148.16C838.77 148.174 839.906 148.382 841.757 148.621ZM19.7427 156.587L0.596782 157.422V158.356C0.596782 158.87 0.69188 159.289 0.807177 159.288C0.922474 159.286 10.6284 158.554 22.3761 157.66C52.2816 155.383 51.8078 155.19 19.7427 156.587ZM206.363 157.474C174.921 159.964 152.795 161.756 143.245 162.585C137.227 163.107 126.055 164.055 118.418 164.691C103.268 165.953 91.1172 166.997 74.2351 168.488C68.2178 169.02 59.1287 169.82 54.0372 170.267C44.0072 171.146 24.0685 172.943 9.64378 174.266L0.596782 175.096V178.01C0.596782 180.199 0.858514 180.889 1.64876 180.782C2.22777 180.703 10.0856 179.887 19.1116 178.968C28.1375 178.05 39.6882 176.854 44.7798 176.311C69.9624 173.628 159.223 163.812 169.755 162.568C174.152 162.048 186.839 160.568 197.948 159.279C223.13 156.357 224.683 156.024 206.363 157.474ZM982.603 162.238C983.695 162.424 989.893 163.029 996.377 163.583C1002.86 164.137 1008.69 164.668 1009.33 164.764C1010.12 164.882 1010.49 164.685 1010.49 164.143C1010.49 163.371 1010.18 163.333 999.343 162.782C981.898 161.894 980.275 161.841 982.603 162.238ZM784.117 166.93C784.354 167.033 793.632 168.508 804.736 170.208C850.923 177.279 861.782 178.919 877.945 181.265C882.574 181.937 891.473 183.234 897.722 184.146C946.06 191.205 959.349 193.116 986.509 196.913C996.229 198.271 1005.6 199.583 1007.34 199.828L1010.49 200.274V197.19V194.107L981.67 190.46C965.816 188.454 950.763 186.538 948.217 186.202C935.283 184.494 871.469 176.776 838.391 172.92C791.659 167.471 783.217 166.539 784.117 166.93ZM264.432 177.964C261.655 178.667 251.809 181.152 242.551 183.487C200.201 194.167 138.515 210.31 74.6559 227.422C65.1822 229.961 36.47 237.807 15.5348 243.579L0.596782 247.697V251.435V255.172L2.91113 254.591C7.90086 253.339 56.8413 239.619 97.4215 228.094C112.009 223.951 188.348 201.679 203.418 197.168C250.082 183.202 271.253 176.669 269.795 176.682C269.623 176.684 267.21 177.26 264.432 177.964ZM149.136 180.289C146.821 180.627 133.188 182.403 118.839 184.236C93.2389 187.507 28.5196 196.079 10.275 198.615L1.01757 199.902L0.771831 202.399C0.636336 203.773 0.815593 204.896 1.1699 204.896C4.07588 204.896 155.448 180.233 155.448 179.76C155.448 179.504 153.249 179.689 149.136 180.289ZM710.891 194.249C710.891 195.051 797.182 231.472 851.354 253.534L872.895 262.307L883.38 262.31L893.864 262.314L890.112 260.808C873.48 254.133 785.15 220.939 749.186 207.849C717.672 196.379 710.891 193.971 710.891 194.249ZM767.698 194.642C769.453 195.368 806.219 205.323 850.173 216.972C899.981 230.172 1008.48 258.049 1010.05 258.049C1010.29 258.049 1010.49 256.454 1010.49 254.506V250.962L982.511 244.199C967.121 240.48 945.629 235.336 934.752 232.77C923.874 230.203 910.619 227.07 905.296 225.808C859.933 215.053 765.14 193.583 767.698 194.642ZM25.6372 206.31L0.604356 209.982L0.600148 211.201L0.596782 212.421L8.38141 211.001C12.6634 210.219 20.1257 208.858 24.9656 207.977C41.4395 204.974 53.199 202.649 51.9332 202.644C51.2389 202.641 39.4054 204.291 25.6372 206.31ZM421.896 210.884C420.129 212.76 410.917 223.945 403.183 233.605C399.716 237.936 395.402 243.325 393.596 245.581C391.791 247.837 388.065 252.488 385.317 255.916L380.321 262.15L385.805 262.248C388.821 262.302 391.467 262.277 391.682 262.193C392.072 262.041 395.897 256.096 401.105 247.55C402.59 245.114 404.896 241.349 406.23 239.183C409.7 233.552 416.866 221.616 420.118 216.052C421.647 213.435 423.167 210.888 423.496 210.392C424.419 209.001 423.365 209.324 421.896 210.884ZM277.477 217.272C242.922 232.142 177.852 260.811 176.175 261.904C175.689 262.222 177.415 262.311 183.801 262.298L192.056 262.282L204.68 255.998C237.834 239.494 261.52 227.589 277.3 219.497C286.802 214.625 294.941 210.454 295.387 210.228C295.833 210.003 295.867 209.825 295.463 209.833C295.06 209.841 286.966 213.189 277.477 217.272ZM362.33 212.31C353.812 216.87 334.916 229.195 301.337 252.093C293.305 257.569 286.734 262.109 286.734 262.182C286.734 262.255 290.075 262.314 294.156 262.314H301.579L309.639 256.327C333.783 238.39 362.145 216.008 364.941 212.686C366.595 210.719 365.575 210.572 362.33 212.31ZM557.731 212.142C557.734 212.939 558.125 215.289 558.599 217.364C559.072 219.439 560.387 226.01 561.521 231.965C562.654 237.92 564.533 246.926 565.697 251.979C566.859 257.032 567.813 261.425 567.816 261.74C567.821 262.228 568.646 262.314 573.293 262.314C576.301 262.314 578.763 262.26 578.763 262.193C578.763 261.702 569.91 238.581 566.624 230.488C559.858 213.83 558.673 211.063 558.222 210.887C557.948 210.78 557.727 211.345 557.731 212.142ZM615.01 212.687C614.978 212.913 617.167 215.349 619.876 218.101C629.812 228.198 638.001 236.405 645.334 243.613C649.464 247.673 655.396 253.536 658.514 256.643L664.183 262.291L670.285 262.303C673.64 262.309 676.386 262.257 676.386 262.187C676.386 262.043 662.38 250.483 646.328 237.379C639.599 231.885 624.759 219.943 619.01 215.396C616.842 213.681 615.043 212.463 615.01 212.687ZM920.475 217.491C922.245 218.145 1009.09 238.363 1010.13 238.363C1010.33 238.363 1010.49 237.466 1010.49 236.37V234.378L967.784 226.186C944.293 221.681 924.069 217.779 922.84 217.515C920.019 216.91 918.869 216.898 920.475 217.491ZM478.802 235.984C477.783 239.368 476.183 245.31 475.246 249.19C474.309 253.07 473.169 257.326 472.713 258.647C471.41 262.415 471.332 262.314 475.552 262.314H479.222L479.752 257.147C480.529 249.566 481.446 229.832 481.02 229.832C480.819 229.832 479.821 232.601 478.802 235.984ZM710.076 230.231C710.034 230.606 714.69 233.536 751.672 256.409C756.194 259.206 760.358 261.687 760.926 261.922C761.606 262.204 763.611 262.316 766.785 262.25L771.61 262.15L760.481 256.245C750.764 251.088 713.947 231.882 711.128 230.499C710.565 230.223 710.091 230.102 710.076 230.231ZM843.828 232.574C844.504 232.909 851.321 235.248 858.977 237.773C866.632 240.297 874.032 242.762 875.42 243.252C876.809 243.741 890.53 248.235 905.912 253.24L933.88 262.338L941.971 262.244L950.062 262.15L933.36 257.373C915.921 252.385 909.469 250.56 898.631 247.55C895.058 246.557 881.556 242.807 868.629 239.217C855.7 235.626 844.555 232.526 843.861 232.326C842.747 232.007 842.742 232.036 843.828 232.574ZM153.765 235.323C127.797 243.635 72.1312 261.94 72.1312 262.167C72.1312 262.248 75.0658 262.314 78.6534 262.313L85.1757 262.311L118.937 249.435C148.803 238.045 158.859 234.082 157.85 234.104C157.685 234.107 155.847 234.656 153.765 235.323ZM515.261 244.433C515.488 248.944 515.909 254.813 516.197 257.475L516.721 262.314H520.008C523.252 262.314 523.288 262.301 522.822 261.248C522.562 260.661 521.597 257.598 520.677 254.44C519.757 251.282 518.07 245.893 516.927 242.464L514.849 236.23L515.261 244.433ZM444.278 249.225C443.722 250.559 442.551 253.275 441.679 255.26C440.805 257.245 439.823 259.644 439.496 260.592C438.919 262.267 438.96 262.314 440.977 262.314C443.389 262.314 443.425 262.231 445.021 253.069C446.082 246.979 445.808 245.56 444.278 249.225ZM798.66 248.833C799.412 249.269 806.504 252.48 814.419 255.97C828.464 262.162 828.889 262.314 832.085 262.314H835.358L823.409 257.794C803.993 250.45 797.207 247.993 798.66 248.833ZM353.257 250.271C352.618 250.669 349.851 252.619 347.107 254.604C344.363 256.589 340.797 259.136 339.181 260.264L336.243 262.314H338.685C340.87 262.314 341.334 262.115 343.091 260.428C344.171 259.39 346.089 257.655 347.351 256.573C352.256 252.368 355.018 249.782 354.724 249.668C354.556 249.602 353.896 249.874 353.257 250.271ZM630.974 259.134C630.884 259.861 632.926 262.314 633.622 262.314C634.061 262.314 634.158 261.992 633.837 261.598C632.941 260.498 631.011 258.837 630.974 259.134ZM226.023 260.592C222.872 262.075 222.342 262.423 223.448 262.28C224.051 262.203 225.319 261.662 226.266 261.078C228.128 259.932 227.994 259.664 226.023 260.592Z" fill="#FBFBFB" fill-opacity="0.1"/>
</g>
<defs>
<filter id="filter0_f_1178_10921" x="-48.5649" y="-344.176" width="1096.43" height="981.342" filterUnits="userSpaceOnUse" color-interpolation-filters="sRGB">
<feFlood flood-opacity="0" result="BackgroundImageFix"/>
<feBlend mode="normal" in="SourceGraphic" in2="BackgroundImageFix" result="shape"/>
<feGaussianBlur stdDeviation="125" result="effect1_foregroundBlur_1178_10921"/>
</filter>
</defs>
</svg>
