<svg width="64" height="62" viewBox="0 0 64 62" fill="none" xmlns="http://www.w3.org/2000/svg">
<path d="M29.5189 32.1803C29.8425 33.7584 28.8257 35.3 27.2476 35.6237C25.6696 35.9474 24.1279 34.9305 23.8042 33.3524C23.4806 31.7744 24.4975 30.2327 26.0755 29.9091C27.6536 29.5854 29.1952 30.6023 29.5189 32.1803Z" fill="white"/>
<path d="M29.5189 32.1803C29.8425 33.7584 28.8257 35.3 27.2476 35.6237C25.6696 35.9474 24.1279 34.9305 23.8042 33.3524C23.4806 31.7744 24.4975 30.2327 26.0755 29.9091C27.6536 29.5854 29.1952 30.6023 29.5189 32.1803Z" fill="#3B57F4"/>
<path d="M38.5178 33.3121C40.0958 32.9885 41.1127 31.4468 40.789 29.8688C40.4654 28.2907 38.9237 27.2738 37.3457 27.5975C35.7676 27.9212 34.7508 29.4628 35.0744 31.0409C35.3981 32.6189 36.9397 33.6358 38.5178 33.3121Z" fill="white"/>
<path d="M38.5178 33.3121C40.0958 32.9885 41.1127 31.4468 40.789 29.8688C40.4654 28.2907 38.9237 27.2738 37.3457 27.5975C35.7676 27.9212 34.7508 29.4628 35.0744 31.0409C35.3981 32.6189 36.9397 33.6358 38.5178 33.3121Z" fill="#3B57F4"/>
<path fill-rule="evenodd" clip-rule="evenodd" d="M19.1109 20.5889C19.9331 16.0825 23.4097 12.3066 28.1762 11.3264C28.1734 11.327 28.1706 11.3276 28.1678 11.3282C28.1774 11.3261 28.1871 11.3241 28.1967 11.3223C28.1939 11.3228 28.191 11.3234 28.1882 11.3239C32.9558 10.3486 37.638 12.4512 40.1678 16.27C42.3802 15.9717 44.6017 15.7198 46.8321 15.5144C49.6049 15.259 52.088 17.1701 52.6475 19.8979L56.8355 40.3166C57.4014 43.0756 55.829 45.8342 53.1393 46.6692C42.0044 50.1258 30.7499 52.4342 19.1534 53.6399C16.3521 53.9311 13.8208 52.0142 13.2549 49.2553L9.06694 28.8365C8.50745 26.1087 10.0377 23.3745 12.6873 22.5177C14.8184 21.8285 16.9597 21.1856 19.1109 20.5889ZM15.877 46.38L27.9189 12.1164C28.0406 11.7701 28.4875 11.6784 28.7357 11.9489L53.2933 38.7057C41.1477 43.5193 28.9368 46.0238 15.877 46.38Z" fill="white"/>
<path fill-rule="evenodd" clip-rule="evenodd" d="M19.1109 20.5889C19.9331 16.0825 23.4097 12.3066 28.1762 11.3264C28.1734 11.327 28.1706 11.3276 28.1678 11.3282C28.1774 11.3261 28.1871 11.3241 28.1967 11.3223C28.1939 11.3228 28.191 11.3234 28.1882 11.3239C32.9558 10.3486 37.638 12.4512 40.1678 16.27C42.3802 15.9717 44.6017 15.7198 46.8321 15.5144C49.6049 15.259 52.088 17.1701 52.6475 19.8979L56.8355 40.3166C57.4014 43.0756 55.829 45.8342 53.1393 46.6692C42.0044 50.1258 30.7499 52.4342 19.1534 53.6399C16.3521 53.9311 13.8208 52.0142 13.2549 49.2553L9.06694 28.8365C8.50745 26.1087 10.0377 23.3745 12.6873 22.5177C14.8184 21.8285 16.9597 21.1856 19.1109 20.5889ZM15.877 46.38L27.9189 12.1164C28.0406 11.7701 28.4875 11.6784 28.7357 11.9489L53.2933 38.7057C41.1477 43.5193 28.9368 46.0238 15.877 46.38Z" fill="#3B57F4"/>
<path d="M53.9851 20.3637L54.6949 20.2181C56.01 19.9484 57.2947 20.7958 57.5644 22.1108L59.2639 30.3967C59.5336 31.7117 58.6862 32.9964 57.3712 33.2662L56.6614 33.4117L53.9851 20.3637Z" fill="white"/>
<path d="M53.9851 20.3637L54.6949 20.2181C56.01 19.9484 57.2947 20.7958 57.5644 22.1108L59.2639 30.3967C59.5336 31.7117 58.6862 32.9964 57.3712 33.2662L56.6614 33.4117L53.9851 20.3637Z" fill="#3B57F4"/>
<path d="M26.5916 57.3816L26.8611 58.6956L48.044 54.3508L47.7745 53.0368C47.5048 51.7218 46.2201 50.8744 44.9051 51.1441L28.4843 54.5121C27.1693 54.7818 26.3219 56.0665 26.5916 57.3816Z" fill="white"/>
<path d="M26.5916 57.3816L26.8611 58.6956L48.044 54.3508L47.7745 53.0368C47.5048 51.7218 46.2201 50.8744 44.9051 51.1441L28.4843 54.5121C27.1693 54.7818 26.3219 56.0665 26.5916 57.3816Z" fill="#3B57F4"/>
<path d="M8.02559 29.7902L7.31578 29.9358C6.00074 30.2055 5.15335 31.4902 5.42307 32.8053L7.12255 41.0912C7.39227 42.4062 8.67698 43.2536 9.99202 42.9839L10.7018 42.8383L8.02559 29.7902Z" fill="white"/>
<path d="M8.02559 29.7902L7.31578 29.9358C6.00074 30.2055 5.15335 31.4902 5.42307 32.8053L7.12255 41.0912C7.39227 42.4062 8.67698 43.2536 9.99202 42.9839L10.7018 42.8383L8.02559 29.7902Z" fill="#3B57F4"/>
<path d="M27.8845 10.3285C29.1995 10.0588 30.0469 8.77407 29.7772 7.45903C29.5074 6.14399 28.2227 5.29659 26.9077 5.56631C25.5927 5.83603 24.7453 7.12074 25.015 8.43578C25.2847 9.75082 26.5694 10.5982 27.8845 10.3285Z" fill="white"/>
<path d="M27.8845 10.3285C29.1995 10.0588 30.0469 8.77407 29.7772 7.45903C29.5074 6.14399 28.2227 5.29659 26.9077 5.56631C25.5927 5.83603 24.7453 7.12074 25.015 8.43578C25.2847 9.75082 26.5694 10.5982 27.8845 10.3285Z" fill="#3B57F4"/>
<path d="M25.0287 7.39216C25.3014 6.95538 25.9498 6.57965 26.6088 6.48365C27.6753 6.3283 28.7893 7.02095 29.0787 8.06463C29.1782 8.42333 29.3197 9.2062 29.2594 9.51002C29.7941 8.95639 29.9039 8.07919 29.7767 7.45901C29.507 6.14397 28.2223 5.29657 26.9073 5.56629C25.9489 5.76287 25.2389 6.49854 25.0287 7.39216Z" fill="white"/>
<path d="M25.0287 7.39216C25.3014 6.95538 25.9498 6.57965 26.6088 6.48365C27.6753 6.3283 28.7893 7.02095 29.0787 8.06463C29.1782 8.42333 29.3197 9.2062 29.2594 9.51002C29.7941 8.95639 29.9039 8.07919 29.7767 7.45901C29.507 6.14397 28.2223 5.29657 26.9073 5.56629C25.9489 5.76287 25.2389 6.49854 25.0287 7.39216Z" fill="#3B57F4"/>
</svg>
