<svg width="66" height="66" viewBox="0 0 66 66" fill="none" xmlns="http://www.w3.org/2000/svg">
<path d="M30.0809 32.7914C29.6223 34.2997 28.0279 35.1507 26.5196 34.6922C25.0112 34.2336 24.1602 32.6392 24.6188 31.1309C25.0773 29.6226 26.6718 28.7715 28.1801 29.2301C29.6884 29.6886 30.5394 31.2831 30.0809 32.7914Z" fill="white"/>
<path d="M30.0809 32.7914C29.6223 34.2997 28.0279 35.1507 26.5196 34.6922C25.0112 34.2336 24.1602 32.6392 24.6188 31.1309C25.0773 29.6226 26.6718 28.7715 28.1801 29.2301C29.6884 29.6886 30.5394 31.2831 30.0809 32.7914Z" fill="#AB3ADD"/>
<path d="M37.2917 37.9671C38.8 38.4256 40.3945 37.5746 40.853 36.0663C41.3116 34.558 40.4606 32.9635 38.9523 32.505C37.4439 32.0464 35.8495 32.8974 35.3909 34.4057C34.9324 35.914 35.7834 37.5085 37.2917 37.9671Z" fill="white"/>
<path d="M37.2917 37.9671C38.8 38.4256 40.3945 37.5746 40.853 36.0663C41.3116 34.558 40.4606 32.9635 38.9523 32.505C37.4439 32.0464 35.8495 32.8974 35.3909 34.4057C34.9324 35.914 35.7834 37.5085 37.2917 37.9671Z" fill="#AB3ADD"/>
<path fill-rule="evenodd" clip-rule="evenodd" d="M26.5426 17.9622C29.3541 14.4705 34.1073 12.8465 38.6645 14.2294C38.6617 14.2286 38.659 14.2278 38.6563 14.227C38.6656 14.2297 38.6748 14.2325 38.684 14.2354C38.6813 14.2345 38.6786 14.2337 38.6759 14.2328C43.2316 15.6204 46.2766 19.6151 46.669 24.0808C48.7111 24.8574 50.7393 25.6781 52.7534 26.543C55.2574 27.6182 56.5005 30.4213 55.7078 33.0286L49.7746 52.5451C48.9729 55.1821 46.3324 56.8204 43.6292 56.2824C32.4388 54.0556 21.6816 50.7852 11.1452 46.4069C8.59997 45.3492 7.31813 42.5186 8.11982 39.8815L14.0531 20.3651C14.8457 17.7578 17.4386 16.1209 20.1174 16.6213C22.2721 17.0238 24.4139 17.4707 26.5426 17.9622ZM11.7175 38.6332L38.0743 14.7886C38.3406 14.5477 38.7678 14.6775 38.8549 15.026L47.4805 49.5055C34.787 47.9737 23.1157 44.4255 11.7175 38.6332Z" fill="white"/>
<path fill-rule="evenodd" clip-rule="evenodd" d="M26.5426 17.9622C29.3541 14.4705 34.1073 12.8465 38.6645 14.2294C38.6617 14.2286 38.659 14.2278 38.6563 14.227C38.6656 14.2297 38.6748 14.2325 38.684 14.2354C38.6813 14.2345 38.6786 14.2337 38.6759 14.2328C43.2316 15.6204 46.2766 19.6151 46.669 24.0808C48.7111 24.8574 50.7393 25.6781 52.7534 26.543C55.2574 27.6182 56.5005 30.4213 55.7078 33.0286L49.7746 52.5451C48.9729 55.1821 46.3324 56.8204 43.6292 56.2824C32.4388 54.0556 21.6816 50.7852 11.1452 46.4069C8.59997 45.3492 7.31813 42.5186 8.11982 39.8815L14.0531 20.3651C14.8457 17.7578 17.4386 16.1209 20.1174 16.6213C22.2721 17.0238 24.4139 17.4707 26.5426 17.9622ZM11.7175 38.6332L38.0743 14.7886C38.3406 14.5477 38.7678 14.6775 38.8549 15.026L47.4805 49.5055C34.787 47.9737 23.1157 44.4255 11.7175 38.6332Z" fill="#AB3ADD"/>
<path d="M56.6407 34.0538L57.3192 34.2601C58.5761 34.6422 59.2853 35.9709 58.9031 37.2279L56.4954 45.1476C56.1133 46.4045 54.7846 47.1137 53.5277 46.7316L52.8492 46.5253L56.6407 34.0538Z" fill="white"/>
<path d="M56.6407 34.0538L57.3192 34.2601C58.5761 34.6422 59.2853 35.9709 58.9031 37.2279L56.4954 45.1476C56.1133 46.4045 54.7846 47.1137 53.5277 46.7316L52.8492 46.5253L56.6407 34.0538Z" fill="#AB3ADD"/>
<path d="M15.795 53.0983L15.4132 54.3542L35.66 60.5095L36.0419 59.2536C36.424 57.9967 35.7148 56.668 34.4579 56.2858L18.7628 51.5143C17.5058 51.1322 16.1771 51.8414 15.795 53.0983Z" fill="white"/>
<path d="M15.795 53.0983L15.4132 54.3542L35.66 60.5095L36.0419 59.2536C36.424 57.9967 35.7148 56.668 34.4579 56.2858L18.7628 51.5143C17.5058 51.1322 16.1771 51.8414 15.795 53.0983Z" fill="#AB3ADD"/>
<path d="M12.7121 20.699L12.0337 20.4928C10.7767 20.1106 9.44801 20.8198 9.06589 22.0767L6.65819 29.9965C6.27607 31.2534 6.98524 32.5821 8.24217 32.9643L8.92061 33.1705L12.7121 20.699Z" fill="white"/>
<path d="M12.7121 20.699L12.0337 20.4928C10.7767 20.1106 9.44801 20.8198 9.06589 22.0767L6.65819 29.9965C6.27607 31.2534 6.98524 32.5821 8.24217 32.9643L8.92061 33.1705L12.7121 20.699Z" fill="#AB3ADD"/>
<path d="M39.0286 13.062C40.2855 13.4441 41.6142 12.7349 41.9963 11.478C42.3784 10.2211 41.6693 8.89237 40.4123 8.51025C39.1554 8.12813 37.8267 8.8373 37.4446 10.0942C37.0625 11.3512 37.7716 12.6799 39.0286 13.062Z" fill="white"/>
<path d="M39.0286 13.062C40.2855 13.4441 41.6142 12.7349 41.9963 11.478C42.3784 10.2211 41.6693 8.89237 40.4123 8.51025C39.1554 8.12813 37.8267 8.8373 37.4446 10.0942C37.0625 11.3512 37.7716 12.6799 39.0286 13.062Z" fill="#AB3ADD"/>
<path d="M37.9438 9.20412C38.3823 8.95586 39.1154 8.93547 39.727 9.16067C40.7168 9.52509 41.3514 10.641 41.1129 11.6737C41.031 12.0287 40.7871 12.7681 40.5934 13.0012C41.3117 12.7747 41.8158 12.0716 41.9961 11.4789C42.3782 10.2219 41.669 8.89321 40.4121 8.51109C39.496 8.2326 38.5419 8.53374 37.9438 9.20412Z" fill="white"/>
<path d="M37.9438 9.20412C38.3823 8.95586 39.1154 8.93547 39.727 9.16067C40.7168 9.52509 41.3514 10.641 41.1129 11.6737C41.031 12.0287 40.7871 12.7681 40.5934 13.0012C41.3117 12.7747 41.8158 12.0716 41.9961 11.4789C42.3782 10.2219 41.669 8.89321 40.4121 8.51109C39.496 8.2326 38.5419 8.53374 37.9438 9.20412Z" fill="#AB3ADD"/>
</svg>
