<svg width="91" height="90" viewBox="0 0 91 90" fill="none" xmlns="http://www.w3.org/2000/svg">
<path d="M35.811 24.9683C40.1338 18.3016 42.6932 12.1439 44.0263 7.7885C44.5382 6.11975 46.6982 5.43835 47.9807 6.63428C67.311 24.6596 73.6307 38.424 74.8879 54.3272C75.8103 69.7103 68.166 83.3996 47.6432 83.3996C28.3775 83.3996 14.1547 70.1024 16.0869 49.0233C17.2457 36.4298 22.1985 26.8317 26.1557 21.119C27.3875 19.3418 29.9553 19.3168 31.3757 20.9522L34.9166 25.0295C35.1613 25.3104 35.6085 25.2798 35.811 24.9683Z" fill="url(#paint0_radial_1178_12638)"/>
<path d="M35.811 24.9683C40.1338 18.3016 42.6932 12.1439 44.0263 7.7885C44.5382 6.11975 46.6982 5.43835 47.9807 6.63428C67.311 24.6596 73.6307 38.424 74.8879 54.3272C75.8103 69.7103 68.166 83.3996 47.6432 83.3996C28.3775 83.3996 14.1547 70.1024 16.0869 49.0233C17.2457 36.4298 22.1985 26.8317 26.1557 21.119C27.3875 19.3418 29.9553 19.3168 31.3757 20.9522L34.9166 25.0295C35.1613 25.3104 35.6085 25.2798 35.811 24.9683Z" fill="url(#paint1_radial_1178_12638)"/>
<path d="M35.811 24.9683C40.1338 18.3016 42.6932 12.1439 44.0263 7.7885C44.5382 6.11975 46.6982 5.43835 47.9807 6.63428C67.311 24.6596 73.6307 38.424 74.8879 54.3272C75.8103 69.7103 68.166 83.3996 47.6432 83.3996C28.3775 83.3996 14.1547 70.1024 16.0869 49.0233C17.2457 36.4298 22.1985 26.8317 26.1557 21.119C27.3875 19.3418 29.9553 19.3168 31.3757 20.9522L34.9166 25.0295C35.1613 25.3104 35.6085 25.2798 35.811 24.9683Z" fill="url(#paint2_linear_1178_12638)"/>
<path d="M35.811 24.9683C40.1338 18.3016 42.6932 12.1439 44.0263 7.7885C44.5382 6.11975 46.6982 5.43835 47.9807 6.63428C67.311 24.6596 73.6307 38.424 74.8879 54.3272C75.8103 69.7103 68.166 83.3996 47.6432 83.3996C28.3775 83.3996 14.1547 70.1024 16.0869 49.0233C17.2457 36.4298 22.1985 26.8317 26.1557 21.119C27.3875 19.3418 29.9553 19.3168 31.3757 20.9522L34.9166 25.0295C35.1613 25.3104 35.6085 25.2798 35.811 24.9683Z" fill="url(#paint3_radial_1178_12638)"/>
<path d="M35.811 24.9683C40.1338 18.3016 42.6932 12.1439 44.0263 7.7885C44.5382 6.11975 46.6982 5.43835 47.9807 6.63428C67.311 24.6596 73.6307 38.424 74.8879 54.3272C75.8103 69.7103 68.166 83.3996 47.6432 83.3996C28.3775 83.3996 14.1547 70.1024 16.0869 49.0233C17.2457 36.4298 22.1985 26.8317 26.1557 21.119C27.3875 19.3418 29.9553 19.3168 31.3757 20.9522L34.9166 25.0295C35.1613 25.3104 35.6085 25.2798 35.811 24.9683Z" fill="url(#paint4_radial_1178_12638)"/>
<path d="M35.811 24.9683C40.1338 18.3016 42.6932 12.1439 44.0263 7.7885C44.5382 6.11975 46.6982 5.43835 47.9807 6.63428C67.311 24.6596 73.6307 38.424 74.8879 54.3272C75.8103 69.7103 68.166 83.3996 47.6432 83.3996C28.3775 83.3996 14.1547 70.1024 16.0869 49.0233C17.2457 36.4298 22.1985 26.8317 26.1557 21.119C27.3875 19.3418 29.9553 19.3168 31.3757 20.9522L34.9166 25.0295C35.1613 25.3104 35.6085 25.2798 35.811 24.9683Z" fill="url(#paint5_radial_1178_12638)"/>
<path d="M35.811 24.9683C40.1338 18.3016 42.6932 12.1439 44.0263 7.7885C44.5382 6.11975 46.6982 5.43835 47.9807 6.63428C67.311 24.6596 73.6307 38.424 74.8879 54.3272C75.8103 69.7103 68.166 83.3996 47.6432 83.3996C28.3775 83.3996 14.1547 70.1024 16.0869 49.0233C17.2457 36.4298 22.1985 26.8317 26.1557 21.119C27.3875 19.3418 29.9553 19.3168 31.3757 20.9522L34.9166 25.0295C35.1613 25.3104 35.6085 25.2798 35.811 24.9683Z" fill="url(#paint6_radial_1178_12638)"/>
<path d="M35.811 24.9683C40.1338 18.3016 42.6932 12.1439 44.0263 7.7885C44.5382 6.11975 46.6982 5.43835 47.9807 6.63428C67.311 24.6596 73.6307 38.424 74.8879 54.3272C75.8103 69.7103 68.166 83.3996 47.6432 83.3996C28.3775 83.3996 14.1547 70.1024 16.0869 49.0233C17.2457 36.4298 22.1985 26.8317 26.1557 21.119C27.3875 19.3418 29.9553 19.3168 31.3757 20.9522L34.9166 25.0295C35.1613 25.3104 35.6085 25.2798 35.811 24.9683Z" fill="url(#paint7_radial_1178_12638)"/>
<g filter="url(#filter0_i_1178_12638)">
<path d="M29.1256 55.4007C32.7875 46.7788 40.3053 37.2419 45.3819 32.066C46.0704 31.3696 47.0079 30.9683 47.9925 30.9485C48.9772 30.9288 49.9304 31.2921 50.6469 31.9603C60.381 40.8297 63.3116 48.8481 65.7978 58.182C68.3853 67.8941 65.7978 83.5414 46.3325 83.5414C29.57 83.5414 23.7594 68.0276 29.1256 55.4007Z" fill="url(#paint8_radial_1178_12638)"/>
<path d="M29.1256 55.4007C32.7875 46.7788 40.3053 37.2419 45.3819 32.066C46.0704 31.3696 47.0079 30.9683 47.9925 30.9485C48.9772 30.9288 49.9304 31.2921 50.6469 31.9603C60.381 40.8297 63.3116 48.8481 65.7978 58.182C68.3853 67.8941 65.7978 83.5414 46.3325 83.5414C29.57 83.5414 23.7594 68.0276 29.1256 55.4007Z" fill="url(#paint9_radial_1178_12638)"/>
<path d="M29.1256 55.4007C32.7875 46.7788 40.3053 37.2419 45.3819 32.066C46.0704 31.3696 47.0079 30.9683 47.9925 30.9485C48.9772 30.9288 49.9304 31.2921 50.6469 31.9603C60.381 40.8297 63.3116 48.8481 65.7978 58.182C68.3853 67.8941 65.7978 83.5414 46.3325 83.5414C29.57 83.5414 23.7594 68.0276 29.1256 55.4007Z" fill="url(#paint10_radial_1178_12638)"/>
</g>
<path d="M29.1256 55.4007C32.7875 46.7788 40.3053 37.2419 45.3819 32.066C46.0704 31.3696 47.0079 30.9683 47.9925 30.9485C48.9772 30.9288 49.9304 31.2921 50.6469 31.9603C60.381 40.8297 63.3116 48.8481 65.7978 58.182C68.3853 67.8941 65.7978 83.5414 46.3325 83.5414C29.57 83.5414 23.7594 68.0276 29.1256 55.4007Z" fill="url(#paint11_linear_1178_12638)"/>
<path d="M29.1256 55.4007C32.7875 46.7788 40.3053 37.2419 45.3819 32.066C46.0704 31.3696 47.0079 30.9683 47.9925 30.9485C48.9772 30.9288 49.9304 31.2921 50.6469 31.9603C60.381 40.8297 63.3116 48.8481 65.7978 58.182C68.3853 67.8941 65.7978 83.5414 46.3325 83.5414C29.57 83.5414 23.7594 68.0276 29.1256 55.4007Z" fill="url(#paint12_radial_1178_12638)"/>
<g filter="url(#filter1_f_1178_12638)">
<path d="M33.7268 32.2107C40.2377 22.7823 44.0487 12.5807 45.2102 10.0664C43.5143 22.9547 38.5727 32.3943 29.269 44.5483C21.8271 54.2716 20.4827 62.5931 20.5474 64.6206C18.2215 49.1513 25.5846 43.9949 33.7268 32.2107Z" fill="url(#paint13_linear_1178_12638)"/>
</g>
<g filter="url(#filter2_f_1178_12638)">
<path d="M28.1019 22.0173C24.4456 26.5063 17.1753 38.9551 17.3581 52.8447C20.9581 38.5991 29.3816 34.1102 28.1019 22.0173Z" fill="url(#paint14_linear_1178_12638)"/>
</g>
<defs>
<filter id="filter0_i_1178_12638" x="27.1902" y="30.9478" width="39.9458" height="52.5938" filterUnits="userSpaceOnUse" color-interpolation-filters="sRGB">
<feFlood flood-opacity="0" result="BackgroundImageFix"/>
<feBlend mode="normal" in="SourceGraphic" in2="BackgroundImageFix" result="shape"/>
<feColorMatrix in="SourceAlpha" type="matrix" values="0 0 0 0 0 0 0 0 0 0 0 0 0 0 0 0 0 0 127 0" result="hardAlpha"/>
<feOffset dx="0.5"/>
<feGaussianBlur stdDeviation="0.25"/>
<feComposite in2="hardAlpha" operator="arithmetic" k2="-1" k3="1"/>
<feColorMatrix type="matrix" values="0 0 0 0 0.952941 0 0 0 0 0.615686 0 0 0 0 0.364706 0 0 0 1 0"/>
<feBlend mode="normal" in2="shape" result="effect1_innerShadow_1178_12638"/>
</filter>
<filter id="filter1_f_1178_12638" x="18.8618" y="8.81641" width="27.5984" height="57.0542" filterUnits="userSpaceOnUse" color-interpolation-filters="sRGB">
<feFlood flood-opacity="0" result="BackgroundImageFix"/>
<feBlend mode="normal" in="SourceGraphic" in2="BackgroundImageFix" result="shape"/>
<feGaussianBlur stdDeviation="0.625" result="effect1_foregroundBlur_1178_12638"/>
</filter>
<filter id="filter2_f_1178_12638" x="15.8547" y="20.5173" width="13.8782" height="33.8274" filterUnits="userSpaceOnUse" color-interpolation-filters="sRGB">
<feFlood flood-opacity="0" result="BackgroundImageFix"/>
<feBlend mode="normal" in="SourceGraphic" in2="BackgroundImageFix" result="shape"/>
<feGaussianBlur stdDeviation="0.75" result="effect1_foregroundBlur_1178_12638"/>
</filter>
<radialGradient id="paint0_radial_1178_12638" cx="0" cy="0" r="1" gradientUnits="userSpaceOnUse" gradientTransform="translate(68.0042 54.9645) rotate(-179.48) scale(48.0903 71.7177)">
<stop stop-color="#FF953D"/>
<stop offset="1" stop-color="#FF5141"/>
</radialGradient>
<radialGradient id="paint1_radial_1178_12638" cx="0" cy="0" r="1" gradientUnits="userSpaceOnUse" gradientTransform="translate(29.6719 43.6557) rotate(-158.159) scale(29.0474 49.7215)">
<stop stop-color="#CE5327"/>
<stop offset="1" stop-color="#CE5327" stop-opacity="0"/>
</radialGradient>
<linearGradient id="paint2_linear_1178_12638" x1="52.07" y1="83.3996" x2="52.07" y2="69.2208" gradientUnits="userSpaceOnUse">
<stop stop-color="#FF7583"/>
<stop offset="1" stop-color="#FF7583" stop-opacity="0"/>
</linearGradient>
<radialGradient id="paint3_radial_1178_12638" cx="0" cy="0" r="1" gradientUnits="userSpaceOnUse" gradientTransform="translate(14.4431 40.1444) rotate(23.7779) scale(8.71583 71.6068)">
<stop stop-color="#FFAA7B"/>
<stop offset="1" stop-color="#FFAA7B" stop-opacity="0"/>
</radialGradient>
<radialGradient id="paint4_radial_1178_12638" cx="0" cy="0" r="1" gradientUnits="userSpaceOnUse" gradientTransform="translate(26.6844 17.5006) rotate(77.1819) scale(10.6868 13.4698)">
<stop stop-color="#FF5E47"/>
<stop offset="1" stop-color="#FF5E47" stop-opacity="0"/>
</radialGradient>
<radialGradient id="paint5_radial_1178_12638" cx="0" cy="0" r="1" gradientUnits="userSpaceOnUse" gradientTransform="translate(46.7066 3.917) rotate(87.8581) scale(28.1951 26.3899)">
<stop stop-color="#FF2F3C"/>
<stop offset="1" stop-color="#FF2F3C" stop-opacity="0"/>
</radialGradient>
<radialGradient id="paint6_radial_1178_12638" cx="0" cy="0" r="1" gradientUnits="userSpaceOnUse" gradientTransform="translate(39.5938 13.4678) rotate(25.0817) scale(6.45269 12.8574)">
<stop stop-color="#FF846C"/>
<stop offset="1" stop-color="#FF846C" stop-opacity="0"/>
</radialGradient>
<radialGradient id="paint7_radial_1178_12638" cx="0" cy="0" r="1" gradientUnits="userSpaceOnUse" gradientTransform="translate(35.5382 22.9519) rotate(113.457) scale(6.34783 1.46585)">
<stop stop-color="#FFA682"/>
<stop offset="1" stop-color="#FFA682" stop-opacity="0"/>
</radialGradient>
<radialGradient id="paint8_radial_1178_12638" cx="0" cy="0" r="1" gradientUnits="userSpaceOnUse" gradientTransform="translate(60.136 67.9143) rotate(-168.682) scale(28.1946 34.7504)">
<stop stop-color="#FFDA2F"/>
<stop offset="1" stop-color="#FF8E41"/>
</radialGradient>
<radialGradient id="paint9_radial_1178_12638" cx="0" cy="0" r="1" gradientUnits="userSpaceOnUse" gradientTransform="translate(35.375 24.0143) rotate(68.8293) scale(39.3906 34.5099)">
<stop stop-color="#FD5639"/>
<stop offset="1" stop-color="#FE5533" stop-opacity="0"/>
</radialGradient>
<radialGradient id="paint10_radial_1178_12638" cx="0" cy="0" r="1" gradientUnits="userSpaceOnUse" gradientTransform="translate(54.6097 57.4922) rotate(174.303) scale(27.5557 66.7335)">
<stop offset="0.628" stop-color="#D7812D" stop-opacity="0"/>
<stop offset="1" stop-color="#D7812D"/>
</radialGradient>
<linearGradient id="paint11_linear_1178_12638" x1="46.9147" y1="29.6324" x2="46.9147" y2="39.7757" gradientUnits="userSpaceOnUse">
<stop stop-color="#F95131"/>
<stop offset="1" stop-color="#F95131" stop-opacity="0"/>
</linearGradient>
<radialGradient id="paint12_radial_1178_12638" cx="0" cy="0" r="1" gradientUnits="userSpaceOnUse" gradientTransform="translate(65.1479 52.4138) rotate(143.37) scale(44.973 32.4406)">
<stop offset="0.772" stop-color="#F18A52" stop-opacity="0"/>
<stop offset="1" stop-color="#F18A52"/>
</radialGradient>
<linearGradient id="paint13_linear_1178_12638" x1="42.6762" y1="11.9521" x2="22.4249" y2="63.4965" gradientUnits="userSpaceOnUse">
<stop stop-color="#FF7558"/>
<stop offset="1" stop-color="#F38758"/>
</linearGradient>
<linearGradient id="paint14_linear_1178_12638" x1="27.3341" y1="22.7683" x2="16.4192" y2="54.3697" gradientUnits="userSpaceOnUse">
<stop stop-color="#FF815B"/>
<stop offset="1" stop-color="#FF9C6D"/>
</linearGradient>
</defs>
</svg>
