<svg width="141" height="141" viewBox="0 0 141 141" fill="none" xmlns="http://www.w3.org/2000/svg">
<g clip-path="url(#clip0_1178_11516)">
<g filter="url(#filter0_ii_1178_11516)">
<path d="M113.735 59.9569L103.949 64.2418C101.326 65.4031 101.394 69.0907 104.059 70.0632L114.03 73.6136C116.205 74.3897 118.507 72.7495 118.452 70.4706L118.28 62.7805C118.257 60.4901 115.865 59.0083 113.735 59.9569Z" fill="#F6C327"/>
</g>
<path d="M113.735 59.9569L103.949 64.2418C101.326 65.4031 101.394 69.0907 104.059 70.0632L114.03 73.6136C116.205 74.3897 118.507 72.7495 118.452 70.4706L118.28 62.7805C118.257 60.4901 115.865 59.0083 113.735 59.9569Z" fill="url(#paint0_radial_1178_11516)"/>
<g filter="url(#filter1_ii_1178_11516)">
<path d="M73.8491 22.1159L74.878 32.3112C75.1342 35.0607 78.6393 36.1002 80.3374 33.9256L86.7108 25.8875C88.0933 24.1538 87.2651 21.5363 85.1146 20.9223L77.8761 18.8158C77.3835 18.6651 76.8613 18.6385 76.3558 18.7382C75.8504 18.838 75.3774 19.061 74.979 19.3876C74.5805 19.7141 74.2689 20.134 74.0717 20.61C73.8746 21.086 73.7982 21.6033 73.8491 22.1159Z" fill="#F4C226"/>
</g>
<path d="M73.8491 22.1159L74.878 32.3112C75.1342 35.0607 78.6393 36.1002 80.3374 33.9256L86.7108 25.8875C88.0933 24.1538 87.2651 21.5363 85.1146 20.9223L77.8761 18.8158C77.3835 18.6651 76.8613 18.6385 76.3558 18.7382C75.8504 18.838 75.3774 19.061 74.979 19.3876C74.5805 19.7141 74.2689 20.134 74.0717 20.61C73.8746 21.086 73.7982 21.6033 73.8491 22.1159Z" fill="url(#paint1_linear_1178_11516)"/>
<g filter="url(#filter2_ii_1178_11516)">
<path d="M27.0502 47.2626L37.0454 49.4381C39.738 50.04 41.7976 47.0439 40.2707 44.7131L34.5927 36.183C34.3055 35.7561 33.9182 35.4059 33.4646 35.163C33.011 34.9201 32.5049 34.7918 31.9904 34.7893C31.4758 34.7868 30.9685 34.9102 30.5126 35.1487C30.0567 35.3872 29.666 35.7336 29.3747 36.1577L25.1196 42.3808C23.871 44.285 24.8814 46.8009 27.0502 47.2626Z" fill="#EABA25"/>
</g>
<g filter="url(#filter3_i_1178_11516)">
<path d="M37.9777 100.605L43.1508 91.7578C44.5512 89.362 42.3178 86.4828 39.6772 87.2464L29.8134 90.0144C29.3162 90.1532 28.8607 90.4121 28.487 90.7682C28.1132 91.1243 27.8327 91.5668 27.67 92.0568C27.5073 92.5467 27.4675 93.0691 27.554 93.5781C27.6406 94.087 27.8508 94.5669 28.1662 94.9755L32.7784 100.937C34.141 102.707 36.8814 102.527 37.9777 100.605Z" fill="#DFAD26"/>
<path d="M37.9777 100.605L43.1508 91.7578C44.5512 89.362 42.3178 86.4828 39.6772 87.2464L29.8134 90.0144C29.3162 90.1532 28.8607 90.4121 28.487 90.7682C28.1132 91.1243 27.8327 91.5668 27.67 92.0568C27.5073 92.5467 27.4675 93.0691 27.554 93.5781C27.6406 94.087 27.8508 94.5669 28.1662 94.9755L32.7784 100.937C34.141 102.707 36.8814 102.527 37.9777 100.605Z" fill="url(#paint2_linear_1178_11516)"/>
</g>
<g filter="url(#filter4_i_1178_11516)">
<path d="M90.3497 108.409L83.5307 100.761C81.6949 98.6865 78.2727 99.9122 78.1714 102.68L77.7585 112.919C77.6775 115.133 79.8612 116.755 81.9597 116.004L89.0625 113.46C89.5446 113.283 89.9764 112.992 90.3206 112.611C90.6647 112.23 90.9109 111.771 91.0376 111.274C91.1644 110.776 91.168 110.255 91.0482 109.756C90.9283 109.257 90.6886 108.794 90.3497 108.409Z" fill="#E3B028"/>
<path d="M90.3497 108.409L83.5307 100.761C81.6949 98.6865 78.2727 99.9122 78.1714 102.68L77.7585 112.919C77.6775 115.133 79.8612 116.755 81.9597 116.004L89.0625 113.46C89.5446 113.283 89.9764 112.992 90.3206 112.611C90.6647 112.23 90.9109 111.771 91.0376 111.274C91.1644 110.776 91.168 110.255 91.0482 109.756C90.9283 109.257 90.6886 108.794 90.3497 108.409Z" fill="url(#paint3_linear_1178_11516)"/>
</g>
<g filter="url(#filter5_iii_1178_11516)">
<path d="M61.0652 28.9965L70.9425 39.0096C72.7975 40.8732 75.4289 41.701 77.9764 41.1857L91.7939 38.5133C98.0397 37.289 103.033 43.7039 100.43 49.4738L94.1396 63.3285C93.6345 64.4441 93.398 65.6626 93.449 66.8861C93.5001 68.1096 93.8374 69.3042 94.4337 70.3738L101.785 83.6775C104.955 89.405 100.146 96.2597 93.6971 95.2074L80.5139 93.03C79.2052 92.8061 77.8609 92.9237 76.611 93.3714C75.3611 93.8191 74.2478 94.5817 73.3789 95.5855L64.5803 105.64C60.2613 110.545 52.1976 108.301 51.007 101.865L48.2402 86.9188C48.0219 85.7138 47.5241 84.5768 46.7867 83.599C46.0493 82.6213 45.093 81.8301 43.9945 81.2889L30.343 74.5801C24.619 71.7491 24.4491 63.6467 30.054 60.6229L42.424 53.9193C43.5474 53.2996 44.5033 52.4159 45.2091 51.3444C45.915 50.273 46.3497 49.046 46.4757 47.7691L47.7497 33.7621C48.3529 27.1167 56.3834 24.2441 61.0652 28.9965Z" fill="url(#paint4_radial_1178_11516)"/>
<path d="M61.0652 28.9965L70.9425 39.0096C72.7975 40.8732 75.4289 41.701 77.9764 41.1857L91.7939 38.5133C98.0397 37.289 103.033 43.7039 100.43 49.4738L94.1396 63.3285C93.6345 64.4441 93.398 65.6626 93.449 66.8861C93.5001 68.1096 93.8374 69.3042 94.4337 70.3738L101.785 83.6775C104.955 89.405 100.146 96.2597 93.6971 95.2074L80.5139 93.03C79.2052 92.8061 77.8609 92.9237 76.611 93.3714C75.3611 93.8191 74.2478 94.5817 73.3789 95.5855L64.5803 105.64C60.2613 110.545 52.1976 108.301 51.007 101.865L48.2402 86.9188C48.0219 85.7138 47.5241 84.5768 46.7867 83.599C46.0493 82.6213 45.093 81.8301 43.9945 81.2889L30.343 74.5801C24.619 71.7491 24.4491 63.6467 30.054 60.6229L42.424 53.9193C43.5474 53.2996 44.5033 52.4159 45.2091 51.3444C45.915 50.273 46.3497 49.046 46.4757 47.7691L47.7497 33.7621C48.3529 27.1167 56.3834 24.2441 61.0652 28.9965Z" fill="url(#paint5_radial_1178_11516)"/>
</g>
</g>
<defs>
<filter id="filter0_ii_1178_11516" x="101.921" y="59.266" width="16.7819" height="14.6426" filterUnits="userSpaceOnUse" color-interpolation-filters="sRGB">
<feFlood flood-opacity="0" result="BackgroundImageFix"/>
<feBlend mode="normal" in="SourceGraphic" in2="BackgroundImageFix" result="shape"/>
<feColorMatrix in="SourceAlpha" type="matrix" values="0 0 0 0 0 0 0 0 0 0 0 0 0 0 0 0 0 0 127 0" result="hardAlpha"/>
<feOffset dx="0.25" dy="-0.4"/>
<feGaussianBlur stdDeviation="0.35"/>
<feComposite in2="hardAlpha" operator="arithmetic" k2="-1" k3="1"/>
<feColorMatrix type="matrix" values="0 0 0 0 0.858824 0 0 0 0 0.607843 0 0 0 0 0.278431 0 0 0 1 0"/>
<feBlend mode="normal" in2="shape" result="effect1_innerShadow_1178_11516"/>
<feColorMatrix in="SourceAlpha" type="matrix" values="0 0 0 0 0 0 0 0 0 0 0 0 0 0 0 0 0 0 127 0" result="hardAlpha"/>
<feOffset dx="-0.1" dy="0.1"/>
<feGaussianBlur stdDeviation="0.5"/>
<feComposite in2="hardAlpha" operator="arithmetic" k2="-1" k3="1"/>
<feColorMatrix type="matrix" values="0 0 0 0 0.996078 0 0 0 0 0.945098 0 0 0 0 0.372549 0 0 0 1 0"/>
<feBlend mode="normal" in2="effect1_innerShadow_1178_11516" result="effect2_innerShadow_1178_11516"/>
</filter>
<filter id="filter1_ii_1178_11516" x="73.4337" y="18.6787" width="14.4557" height="16.817" filterUnits="userSpaceOnUse" color-interpolation-filters="sRGB">
<feFlood flood-opacity="0" result="BackgroundImageFix"/>
<feBlend mode="normal" in="SourceGraphic" in2="BackgroundImageFix" result="shape"/>
<feColorMatrix in="SourceAlpha" type="matrix" values="0 0 0 0 0 0 0 0 0 0 0 0 0 0 0 0 0 0 127 0" result="hardAlpha"/>
<feOffset dx="-0.4" dy="0.4"/>
<feGaussianBlur stdDeviation="0.375"/>
<feComposite in2="hardAlpha" operator="arithmetic" k2="-1" k3="1"/>
<feColorMatrix type="matrix" values="0 0 0 0 1 0 0 0 0 0.94902 0 0 0 0 0.294118 0 0 0 1 0"/>
<feBlend mode="normal" in2="shape" result="effect1_innerShadow_1178_11516"/>
<feColorMatrix in="SourceAlpha" type="matrix" values="0 0 0 0 0 0 0 0 0 0 0 0 0 0 0 0 0 0 127 0" result="hardAlpha"/>
<feOffset dx="0.5"/>
<feGaussianBlur stdDeviation="0.5"/>
<feComposite in2="hardAlpha" operator="arithmetic" k2="-1" k3="1"/>
<feColorMatrix type="matrix" values="0 0 0 0 0.909804 0 0 0 0 0.705882 0 0 0 0 0.168627 0 0 0 1 0"/>
<feBlend mode="normal" in2="effect1_innerShadow_1178_11516" result="effect2_innerShadow_1178_11516"/>
</filter>
<filter id="filter2_ii_1178_11516" x="24.2762" y="34.3891" width="16.9151" height="15.4275" filterUnits="userSpaceOnUse" color-interpolation-filters="sRGB">
<feFlood flood-opacity="0" result="BackgroundImageFix"/>
<feBlend mode="normal" in="SourceGraphic" in2="BackgroundImageFix" result="shape"/>
<feColorMatrix in="SourceAlpha" type="matrix" values="0 0 0 0 0 0 0 0 0 0 0 0 0 0 0 0 0 0 127 0" result="hardAlpha"/>
<feOffset dx="-0.3" dy="0.3"/>
<feGaussianBlur stdDeviation="0.3"/>
<feComposite in2="hardAlpha" operator="arithmetic" k2="-1" k3="1"/>
<feColorMatrix type="matrix" values="0 0 0 0 1 0 0 0 0 0.905882 0 0 0 0 0.298039 0 0 0 1 0"/>
<feBlend mode="normal" in2="shape" result="effect1_innerShadow_1178_11516"/>
<feColorMatrix in="SourceAlpha" type="matrix" values="0 0 0 0 0 0 0 0 0 0 0 0 0 0 0 0 0 0 127 0" result="hardAlpha"/>
<feOffset dx="0.4" dy="-0.4"/>
<feGaussianBlur stdDeviation="0.3"/>
<feComposite in2="hardAlpha" operator="arithmetic" k2="-1" k3="1"/>
<feColorMatrix type="matrix" values="0 0 0 0 0.894118 0 0 0 0 0.658824 0 0 0 0 0.160784 0 0 0 1 0"/>
<feBlend mode="normal" in2="effect1_innerShadow_1178_11516" result="effect2_innerShadow_1178_11516"/>
</filter>
<filter id="filter3_i_1178_11516" x="27.2595" y="86.8711" width="16.3228" height="15.291" filterUnits="userSpaceOnUse" color-interpolation-filters="sRGB">
<feFlood flood-opacity="0" result="BackgroundImageFix"/>
<feBlend mode="normal" in="SourceGraphic" in2="BackgroundImageFix" result="shape"/>
<feColorMatrix in="SourceAlpha" type="matrix" values="0 0 0 0 0 0 0 0 0 0 0 0 0 0 0 0 0 0 127 0" result="hardAlpha"/>
<feOffset dx="-0.25" dy="-0.25"/>
<feGaussianBlur stdDeviation="0.25"/>
<feComposite in2="hardAlpha" operator="arithmetic" k2="-1" k3="1"/>
<feColorMatrix type="matrix" values="0 0 0 0 0.854902 0 0 0 0 0.615686 0 0 0 0 0.219608 0 0 0 1 0"/>
<feBlend mode="normal" in2="shape" result="effect1_innerShadow_1178_11516"/>
</filter>
<filter id="filter4_i_1178_11516" x="77.7563" y="99.4197" width="13.8792" height="16.7697" filterUnits="userSpaceOnUse" color-interpolation-filters="sRGB">
<feFlood flood-opacity="0" result="BackgroundImageFix"/>
<feBlend mode="normal" in="SourceGraphic" in2="BackgroundImageFix" result="shape"/>
<feColorMatrix in="SourceAlpha" type="matrix" values="0 0 0 0 0 0 0 0 0 0 0 0 0 0 0 0 0 0 127 0" result="hardAlpha"/>
<feOffset dx="0.5" dy="-0.3"/>
<feGaussianBlur stdDeviation="0.5"/>
<feComposite in2="hardAlpha" operator="arithmetic" k2="-1" k3="1"/>
<feColorMatrix type="matrix" values="0 0 0 0 0.831373 0 0 0 0 0.588235 0 0 0 0 0.282353 0 0 0 1 0"/>
<feBlend mode="normal" in2="shape" result="effect1_innerShadow_1178_11516"/>
</filter>
<filter id="filter5_iii_1178_11516" x="24.6985" y="26.1416" width="79.5876" height="83.4062" filterUnits="userSpaceOnUse" color-interpolation-filters="sRGB">
<feFlood flood-opacity="0" result="BackgroundImageFix"/>
<feBlend mode="normal" in="SourceGraphic" in2="BackgroundImageFix" result="shape"/>
<feColorMatrix in="SourceAlpha" type="matrix" values="0 0 0 0 0 0 0 0 0 0 0 0 0 0 0 0 0 0 127 0" result="hardAlpha"/>
<feOffset dy="-0.5"/>
<feGaussianBlur stdDeviation="1.5"/>
<feComposite in2="hardAlpha" operator="arithmetic" k2="-1" k3="1"/>
<feColorMatrix type="matrix" values="0 0 0 0 0.772549 0 0 0 0 0.494118 0 0 0 0 0.282353 0 0 0 1 0"/>
<feBlend mode="normal" in2="shape" result="effect1_innerShadow_1178_11516"/>
<feColorMatrix in="SourceAlpha" type="matrix" values="0 0 0 0 0 0 0 0 0 0 0 0 0 0 0 0 0 0 127 0" result="hardAlpha"/>
<feOffset dx="-1.25" dy="1.25"/>
<feGaussianBlur stdDeviation="0.75"/>
<feComposite in2="hardAlpha" operator="arithmetic" k2="-1" k3="1"/>
<feColorMatrix type="matrix" values="0 0 0 0 1 0 0 0 0 0.952941 0 0 0 0 0.286275 0 0 0 1 0"/>
<feBlend mode="normal" in2="effect1_innerShadow_1178_11516" result="effect2_innerShadow_1178_11516"/>
<feColorMatrix in="SourceAlpha" type="matrix" values="0 0 0 0 0 0 0 0 0 0 0 0 0 0 0 0 0 0 127 0" result="hardAlpha"/>
<feOffset dx="1.5" dy="-0.5"/>
<feGaussianBlur stdDeviation="0.75"/>
<feComposite in2="hardAlpha" operator="arithmetic" k2="-1" k3="1"/>
<feColorMatrix type="matrix" values="0 0 0 0 0.839216 0 0 0 0 0.619608 0 0 0 0 0.121569 0 0 0 1 0"/>
<feBlend mode="normal" in2="effect2_innerShadow_1178_11516" result="effect3_innerShadow_1178_11516"/>
</filter>
<radialGradient id="paint0_radial_1178_11516" cx="0" cy="0" r="1" gradientUnits="userSpaceOnUse" gradientTransform="translate(107.919 69.8864) rotate(-47.0298) scale(14.4751 20.0782)">
<stop offset="0.747" stop-color="#FFF055" stop-opacity="0"/>
<stop offset="1" stop-color="#FFF055"/>
</radialGradient>
<linearGradient id="paint1_linear_1178_11516" x1="83.1755" y1="17.9596" x2="82.1477" y2="22.087" gradientUnits="userSpaceOnUse">
<stop stop-color="#FFF659"/>
<stop offset="1" stop-color="#FFF659" stop-opacity="0"/>
</linearGradient>
<linearGradient id="paint2_linear_1178_11516" x1="34.3762" y1="88.3728" x2="35.5326" y2="91.6014" gradientUnits="userSpaceOnUse">
<stop stop-color="#DEAE2C"/>
<stop offset="1" stop-color="#DEAE2C" stop-opacity="0"/>
</linearGradient>
<linearGradient id="paint3_linear_1178_11516" x1="88.6029" y1="105.261" x2="85.6132" y2="108.04" gradientUnits="userSpaceOnUse">
<stop stop-color="#F9C83C"/>
<stop offset="1" stop-color="#F9C83C" stop-opacity="0"/>
</linearGradient>
<radialGradient id="paint4_radial_1178_11516" cx="0" cy="0" r="1" gradientUnits="userSpaceOnUse" gradientTransform="translate(82.1268 37.562) rotate(113.205) scale(56.469 55.8795)">
<stop stop-color="#FAC632"/>
<stop offset="1" stop-color="#F7C632"/>
</radialGradient>
<radialGradient id="paint5_radial_1178_11516" cx="0" cy="0" r="1" gradientUnits="userSpaceOnUse" gradientTransform="translate(66.1686 64.2365) rotate(70.2941) scale(39.4375 39.4375)">
<stop stop-color="#DDBA38"/>
<stop offset="1" stop-color="#DDBA38" stop-opacity="0"/>
</radialGradient>
<clipPath id="clip0_1178_11516">
<rect width="109.739" height="109.739" fill="white" transform="translate(0.0905762 37.3867) rotate(-19.7059)"/>
</clipPath>
</defs>
</svg>
