<svg width="101" height="101" viewBox="0 0 101 101" fill="none" xmlns="http://www.w3.org/2000/svg">
<path d="M64.3005 21.0066C68.1036 29.391 72.7692 39.6785 76.2692 43.766C76.9567 42.1785 76.8817 39.516 77.663 33.016C78.3692 27.1535 83.2067 26.5941 85.2849 27.0098C89.8786 27.9691 91.2755 32.6223 91.1224 34.3379C90.8786 37.0723 90.8661 36.9785 90.3661 43.5941C89.6317 53.266 93.3661 60.5691 93.7099 68.8504C93.7099 84.4566 80.0317 92.1254 70.4599 92.1254C62.8005 92.1254 55.1349 87.2254 52.263 84.7754L37.9005 71.6566C36.1411 70.291 31.7974 65.7785 29.8911 63.1816C24.6911 56.1098 32.2099 51.2379 36.4349 52.4629C36.1036 52.2066 34.0974 48.9504 33.138 47.3566C30.5599 42.1785 33.138 38.7316 35.0442 37.7816C39.3661 35.6316 42.5442 38.0504 43.5442 39.3691C43.1599 38.7191 41.9599 36.0879 40.0255 31.2598C38.0911 26.4348 41.2067 23.4535 43.0067 22.566C46.913 20.7566 50.6255 23.0535 51.5536 25.1066C52.0099 26.1098 54.4599 31.4816 55.5286 33.8473C54.7224 31.8848 53.2661 27.9816 52.7505 26.1785C51.7255 21.9285 54.1911 19.016 55.7567 18.266C57.9286 17.2254 62.463 16.9535 64.2567 20.9035L64.3005 21.0066Z" fill="url(#paint0_radial_1178_13673)"/>
<path d="M64.3019 21.0066C68.105 29.391 72.7706 39.6785 76.2706 43.766C76.9581 42.1785 76.8831 39.516 77.6644 33.016C78.3706 27.1535 83.2081 26.5941 85.2862 27.0098C89.88 27.9691 91.2769 32.6223 91.1237 34.3379C90.88 37.0723 90.8675 36.9785 90.3675 43.5941C89.6331 53.266 93.3675 60.5691 93.7112 68.8504C93.7112 84.4566 80.0331 92.1254 70.4612 92.1254C62.8019 92.1254 55.1362 87.2254 52.2644 84.7754L37.9019 71.6566C36.1425 70.291 31.7987 65.7785 29.8894 63.1816C24.6925 56.1098 32.2112 51.2379 36.4362 52.4629C36.105 52.2066 34.0987 48.9504 33.1394 47.3566C30.5612 42.1785 33.1394 38.7316 35.0456 37.7816C39.3675 35.6316 42.5456 38.0504 43.5456 39.3691C43.1612 38.7191 41.9612 36.0879 40.0269 31.2598C38.0925 26.4348 41.2081 23.4535 43.0081 22.566C46.9144 20.7566 50.6269 23.0535 51.555 25.1066C52.0112 26.1098 54.4612 31.4816 55.53 33.8473C54.7237 31.8848 53.2675 27.9816 52.7519 26.1785C51.7269 21.9285 54.1925 19.016 55.755 18.266C57.93 17.2254 62.4644 16.9535 64.255 20.9035L64.3019 21.0066Z" fill="url(#paint1_radial_1178_13673)"/>
<path d="M91.1237 34.3376C90.8799 37.072 90.8674 36.9782 90.3674 43.5938C90.1081 47.0126 91.9643 59.597 91.9643 59.597C87.4487 61.072 77.6643 59.1188 76.2737 43.7657C76.9581 42.1782 76.8831 39.5157 77.6643 33.0157C78.3706 27.1501 83.2081 26.5938 85.2862 27.0095C89.8799 27.9688 91.2768 32.622 91.1237 34.3376Z" fill="url(#paint2_radial_1178_13673)"/>
<path d="M91.1237 34.3376C90.8799 37.072 90.8674 36.9782 90.3674 43.5938C90.1081 47.0126 91.9643 59.597 91.9643 59.597C87.4487 61.072 77.6643 59.1188 76.2737 43.7657C76.9581 42.1782 76.8831 39.5157 77.6643 33.0157C78.3706 27.1501 83.2081 26.5938 85.2862 27.0095C89.8799 27.9688 91.2768 32.622 91.1237 34.3376Z" fill="url(#paint3_radial_1178_13673)"/>
<path d="M91.1237 34.3376C90.8799 37.072 90.8674 36.9782 90.3674 43.5938C90.1081 47.0126 91.9643 59.597 91.9643 59.597C87.4487 61.072 77.6643 59.1188 76.2737 43.7657C76.9581 42.1782 76.8831 39.5157 77.6643 33.0157C78.3706 27.1501 83.2081 26.5938 85.2862 27.0095C89.8799 27.9688 91.2768 32.622 91.1237 34.3376Z" fill="url(#paint4_radial_1178_13673)"/>
<path d="M64.3018 21.0066C68.1049 29.391 72.7705 39.6785 76.2705 43.766C75.7237 48.441 71.5455 50.6785 67.9455 49.841C63.4049 48.5223 61.6799 45.3004 61.6799 45.3004C61.6799 45.3004 60.4924 43.4629 59.3362 41.441C57.9987 39.1035 58.2424 39.1566 56.0018 34.9254C55.5612 34.0941 53.4049 28.4566 52.7518 26.1785C51.7268 21.9285 54.1924 19.016 55.758 18.266C57.9299 17.2254 62.4643 16.9535 64.258 20.9035L64.3018 21.0066Z" fill="url(#paint5_radial_1178_13673)"/>
<path d="M64.3018 21.0066C68.1049 29.391 72.7705 39.6785 76.2705 43.766C75.7237 48.441 71.5455 50.6785 67.9455 49.841C63.4049 48.5223 61.6799 45.3004 61.6799 45.3004C61.6799 45.3004 60.4924 43.4629 59.3362 41.441C57.9987 39.1035 58.2424 39.1566 56.0018 34.9254C55.5612 34.0941 53.4049 28.4566 52.7518 26.1785C51.7268 21.9285 54.1924 19.016 55.758 18.266C57.9299 17.2254 62.4643 16.9535 64.258 20.9035L64.3018 21.0066Z" fill="url(#paint6_linear_1178_13673)"/>
<path d="M64.3018 21.0066C68.1049 29.391 72.7705 39.6785 76.2705 43.766C75.7237 48.441 71.5455 50.6785 67.9455 49.841C63.4049 48.5223 61.6799 45.3004 61.6799 45.3004C61.6799 45.3004 60.4924 43.4629 59.3362 41.441C57.9987 39.1035 58.2424 39.1566 56.0018 34.9254C55.5612 34.0941 53.4049 28.4566 52.7518 26.1785C51.7268 21.9285 54.1924 19.016 55.758 18.266C57.9299 17.2254 62.4643 16.9535 64.258 20.9035L64.3018 21.0066Z" fill="url(#paint7_radial_1178_13673)"/>
<path d="M64.3018 21.0066C68.1049 29.391 72.7705 39.6785 76.2705 43.766C75.7237 48.441 71.5455 50.6785 67.9455 49.841C63.4049 48.5223 61.6799 45.3004 61.6799 45.3004C61.6799 45.3004 60.4924 43.4629 59.3362 41.441C57.9987 39.1035 58.2424 39.1566 56.0018 34.9254C55.5612 34.0941 53.4049 28.4566 52.7518 26.1785C51.7268 21.9285 54.1924 19.016 55.758 18.266C57.9299 17.2254 62.4643 16.9535 64.258 20.9035L64.3018 21.0066Z" fill="url(#paint8_radial_1178_13673)"/>
<path d="M64.3018 21.0066C68.1049 29.391 72.7705 39.6785 76.2705 43.766C75.7237 48.441 71.5455 50.6785 67.9455 49.841C63.4049 48.5223 61.6799 45.3004 61.6799 45.3004C61.6799 45.3004 60.4924 43.4629 59.3362 41.441C57.9987 39.1035 58.2424 39.1566 56.0018 34.9254C55.5612 34.0941 53.4049 28.4566 52.7518 26.1785C51.7268 21.9285 54.1924 19.016 55.758 18.266C57.9299 17.2254 62.4643 16.9535 64.258 20.9035L64.3018 21.0066Z" fill="url(#paint9_linear_1178_13673)"/>
<path d="M51.5535 25.1061C52.166 26.4561 56.391 35.7061 56.0003 34.9248C57.1347 37.4873 60.6566 43.7373 61.6785 45.4467C63.941 49.2154 61.3878 52.3498 59.741 53.3061C55.0003 56.0561 52.2785 52.5498 52.2785 52.5498C49.7785 48.8873 47.691 45.8373 43.5628 39.3436C42.5691 37.4686 40.7566 33.2873 40.0253 31.2592C38.2222 26.2529 41.2066 23.4529 43.0066 22.5654C46.9128 20.7561 50.6253 23.0529 51.5535 25.1061Z" fill="url(#paint10_radial_1178_13673)"/>
<path d="M51.5535 25.1061C52.166 26.4561 56.391 35.7061 56.0003 34.9248C57.1347 37.4873 60.6566 43.7373 61.6785 45.4467C63.941 49.2154 61.3878 52.3498 59.741 53.3061C55.0003 56.0561 52.2785 52.5498 52.2785 52.5498C49.7785 48.8873 47.691 45.8373 43.5628 39.3436C42.5691 37.4686 40.7566 33.2873 40.0253 31.2592C38.2222 26.2529 41.2066 23.4529 43.0066 22.5654C46.9128 20.7561 50.6253 23.0529 51.5535 25.1061Z" fill="url(#paint11_linear_1178_13673)"/>
<path d="M51.5535 25.1061C52.166 26.4561 56.391 35.7061 56.0003 34.9248C57.1347 37.4873 60.6566 43.7373 61.6785 45.4467C63.941 49.2154 61.3878 52.3498 59.741 53.3061C55.0003 56.0561 52.2785 52.5498 52.2785 52.5498C49.7785 48.8873 47.691 45.8373 43.5628 39.3436C42.5691 37.4686 40.7566 33.2873 40.0253 31.2592C38.2222 26.2529 41.2066 23.4529 43.0066 22.5654C46.9128 20.7561 50.6253 23.0529 51.5535 25.1061Z" fill="url(#paint12_radial_1178_13673)"/>
<path d="M51.5535 25.1061C52.166 26.4561 56.391 35.7061 56.0003 34.9248C57.1347 37.4873 60.6566 43.7373 61.6785 45.4467C63.941 49.2154 61.3878 52.3498 59.741 53.3061C55.0003 56.0561 52.2785 52.5498 52.2785 52.5498C49.7785 48.8873 47.691 45.8373 43.5628 39.3436C42.5691 37.4686 40.7566 33.2873 40.0253 31.2592C38.2222 26.2529 41.2066 23.4529 43.0066 22.5654C46.9128 20.7561 50.6253 23.0529 51.5535 25.1061Z" fill="url(#paint13_radial_1178_13673)"/>
<path d="M51.5535 25.1061C52.166 26.4561 56.391 35.7061 56.0003 34.9248C57.1347 37.4873 60.6566 43.7373 61.6785 45.4467C63.941 49.2154 61.3878 52.3498 59.741 53.3061C55.0003 56.0561 52.2785 52.5498 52.2785 52.5498C49.7785 48.8873 47.691 45.8373 43.5628 39.3436C42.5691 37.4686 40.7566 33.2873 40.0253 31.2592C38.2222 26.2529 41.2066 23.4529 43.0066 22.5654C46.9128 20.7561 50.6253 23.0529 51.5535 25.1061Z" fill="url(#paint14_radial_1178_13673)"/>
<path d="M51.5535 25.1061C52.166 26.4561 56.391 35.7061 56.0003 34.9248C57.1347 37.4873 60.6566 43.7373 61.6785 45.4467C63.941 49.2154 61.3878 52.3498 59.741 53.3061C55.0003 56.0561 52.2785 52.5498 52.2785 52.5498C49.7785 48.8873 47.691 45.8373 43.5628 39.3436C42.5691 37.4686 40.7566 33.2873 40.0253 31.2592C38.2222 26.2529 41.2066 23.4529 43.0066 22.5654C46.9128 20.7561 50.6253 23.0529 51.5535 25.1061Z" fill="url(#paint15_linear_1178_13673)"/>
<path d="M35.046 37.782C39.3678 35.632 42.546 38.0507 43.546 39.3695C46.6647 44.0789 50.3897 49.432 52.1085 52.282C56.7022 59.8757 47.3022 63.1695 47.3022 63.1695C38.6585 53.4289 37.0584 52.9382 36.4366 52.4601C36.1053 52.207 34.0991 48.9507 33.1397 47.357C30.5616 42.1789 33.1397 38.7289 35.046 37.782Z" fill="url(#paint16_radial_1178_13673)"/>
<path d="M35.046 37.782C39.3678 35.632 42.546 38.0507 43.546 39.3695C46.6647 44.0789 50.3897 49.432 52.1085 52.282C56.7022 59.8757 47.3022 63.1695 47.3022 63.1695C38.6585 53.4289 37.0584 52.9382 36.4366 52.4601C36.1053 52.207 34.0991 48.9507 33.1397 47.357C30.5616 42.1789 33.1397 38.7289 35.046 37.782Z" fill="url(#paint17_linear_1178_13673)"/>
<path d="M35.046 37.782C39.3678 35.632 42.546 38.0507 43.546 39.3695C46.6647 44.0789 50.3897 49.432 52.1085 52.282C56.7022 59.8757 47.3022 63.1695 47.3022 63.1695C38.6585 53.4289 37.0584 52.9382 36.4366 52.4601C36.1053 52.207 34.0991 48.9507 33.1397 47.357C30.5616 42.1789 33.1397 38.7289 35.046 37.782Z" fill="url(#paint18_radial_1178_13673)"/>
<path d="M35.046 37.782C39.3678 35.632 42.546 38.0507 43.546 39.3695C46.6647 44.0789 50.3897 49.432 52.1085 52.282C56.7022 59.8757 47.3022 63.1695 47.3022 63.1695C38.6585 53.4289 37.0584 52.9382 36.4366 52.4601C36.1053 52.207 34.0991 48.9507 33.1397 47.357C30.5616 42.1789 33.1397 38.7289 35.046 37.782Z" fill="url(#paint19_radial_1178_13673)"/>
<path d="M35.046 37.782C39.3678 35.632 42.546 38.0507 43.546 39.3695C46.6647 44.0789 50.3897 49.432 52.1085 52.282C56.7022 59.8757 47.3022 63.1695 47.3022 63.1695C38.6585 53.4289 37.0584 52.9382 36.4366 52.4601C36.1053 52.207 34.0991 48.9507 33.1397 47.357C30.5616 42.1789 33.1397 38.7289 35.046 37.782Z" fill="url(#paint20_radial_1178_13673)"/>
<path d="M35.046 37.782C39.3678 35.632 42.546 38.0507 43.546 39.3695C46.6647 44.0789 50.3897 49.432 52.1085 52.282C56.7022 59.8757 47.3022 63.1695 47.3022 63.1695C38.6585 53.4289 37.0584 52.9382 36.4366 52.4601C36.1053 52.207 34.0991 48.9507 33.1397 47.357C30.5616 42.1789 33.1397 38.7289 35.046 37.782Z" fill="url(#paint21_radial_1178_13673)"/>
<path d="M29.8894 63.1829C24.6925 56.111 32.2112 51.2391 36.4362 52.4641C38.4362 53.6985 41.53 56.7954 42.8456 58.1923C51.2269 66.3641 49.83 68.886 47.4862 71.661C45.2144 73.5423 42.2612 75.0516 37.9019 71.661C36.1425 70.2923 31.7987 65.7798 29.8894 63.1829Z" fill="url(#paint22_radial_1178_13673)"/>
<path d="M29.8894 63.1829C24.6925 56.111 32.2112 51.2391 36.4362 52.4641C38.4362 53.6985 41.53 56.7954 42.8456 58.1923C51.2269 66.3641 49.83 68.886 47.4862 71.661C45.2144 73.5423 42.2612 75.0516 37.9019 71.661C36.1425 70.2923 31.7987 65.7798 29.8894 63.1829Z" fill="url(#paint23_radial_1178_13673)"/>
<path d="M29.8894 63.1829C24.6925 56.111 32.2112 51.2391 36.4362 52.4641C38.4362 53.6985 41.53 56.7954 42.8456 58.1923C51.2269 66.3641 49.83 68.886 47.4862 71.661C45.2144 73.5423 42.2612 75.0516 37.9019 71.661C36.1425 70.2923 31.7987 65.7798 29.8894 63.1829Z" fill="url(#paint24_radial_1178_13673)"/>
<path d="M29.8894 63.1829C24.6925 56.111 32.2112 51.2391 36.4362 52.4641C38.4362 53.6985 41.53 56.7954 42.8456 58.1923C51.2269 66.3641 49.83 68.886 47.4862 71.661C45.2144 73.5423 42.2612 75.0516 37.9019 71.661C36.1425 70.2923 31.7987 65.7798 29.8894 63.1829Z" fill="url(#paint25_radial_1178_13673)"/>
<path d="M29.8894 63.1829C24.6925 56.111 32.2112 51.2391 36.4362 52.4641C38.4362 53.6985 41.53 56.7954 42.8456 58.1923C51.2269 66.3641 49.83 68.886 47.4862 71.661C45.2144 73.5423 42.2612 75.0516 37.9019 71.661C36.1425 70.2923 31.7987 65.7798 29.8894 63.1829Z" fill="url(#paint26_linear_1178_13673)"/>
<path d="M64.3019 21.0066C68.105 29.391 72.7706 39.6785 76.2706 43.766C76.9581 42.1785 76.8831 39.516 77.6644 33.016C78.3706 27.1535 83.2081 26.5941 85.2862 27.0098C89.88 27.9691 91.2769 32.6223 91.1237 34.3379C90.88 37.0723 90.8675 36.9785 90.3675 43.5941C89.6331 53.266 93.3675 60.5691 93.7112 68.8504C93.7112 84.4566 80.0331 92.1254 70.4612 92.1254C62.8019 92.1254 55.1362 87.2254 52.2644 84.7754L37.9019 71.6566C36.1425 70.291 31.7987 65.7785 29.8894 63.1816C24.6925 56.1098 32.2112 51.2379 36.4362 52.4629C36.105 52.2066 34.0987 48.9504 33.1394 47.3566C30.5612 42.1785 33.1394 38.7316 35.0456 37.7816C39.3675 35.6316 42.5456 38.0504 43.5456 39.3691C43.1612 38.7191 41.9612 36.0879 40.0269 31.2598C38.0925 26.4348 41.2081 23.4535 43.0081 22.566C46.9144 20.7566 50.6269 23.0535 51.555 25.1066C52.0112 26.1098 54.4612 31.4816 55.53 33.8473C54.7237 31.8848 53.2675 27.9816 52.7519 26.1785C51.7269 21.9285 54.1925 19.016 55.755 18.266C57.93 17.2254 62.4644 16.9535 64.255 20.9035L64.3019 21.0066Z" fill="url(#paint27_radial_1178_13673)"/>
<path d="M64.3019 21.0066C68.105 29.391 72.7706 39.6785 76.2706 43.766C76.9581 42.1785 76.8831 39.516 77.6644 33.016C78.3706 27.1535 83.2081 26.5941 85.2862 27.0098C89.88 27.9691 91.2769 32.6223 91.1237 34.3379C90.88 37.0723 90.8675 36.9785 90.3675 43.5941C89.6331 53.266 93.3675 60.5691 93.7112 68.8504C93.7112 84.4566 80.0331 92.1254 70.4612 92.1254C62.8019 92.1254 55.1362 87.2254 52.2644 84.7754L37.9019 71.6566C36.1425 70.291 31.7987 65.7785 29.8894 63.1816C24.6925 56.1098 32.2112 51.2379 36.4362 52.4629C36.105 52.2066 34.0987 48.9504 33.1394 47.3566C30.5612 42.1785 33.1394 38.7316 35.0456 37.7816C39.3675 35.6316 42.5456 38.0504 43.5456 39.3691C43.1612 38.7191 41.9612 36.0879 40.0269 31.2598C38.0925 26.4348 41.2081 23.4535 43.0081 22.566C46.9144 20.7566 50.6269 23.0535 51.555 25.1066C52.0112 26.1098 54.4612 31.4816 55.53 33.8473C54.7237 31.8848 53.2675 27.9816 52.7519 26.1785C51.7269 21.9285 54.1925 19.016 55.755 18.266C57.93 17.2254 62.4644 16.9535 64.255 20.9035L64.3019 21.0066Z" fill="url(#paint28_radial_1178_13673)"/>
<path d="M64.3019 21.0066C68.105 29.391 72.7706 39.6785 76.2706 43.766C76.9581 42.1785 76.8831 39.516 77.6644 33.016C78.3706 27.1535 83.2081 26.5941 85.2862 27.0098C89.88 27.9691 91.2769 32.6223 91.1237 34.3379C90.88 37.0723 90.8675 36.9785 90.3675 43.5941C89.6331 53.266 93.3675 60.5691 93.7112 68.8504C93.7112 84.4566 80.0331 92.1254 70.4612 92.1254C62.8019 92.1254 55.1362 87.2254 52.2644 84.7754L37.9019 71.6566C36.1425 70.291 31.7987 65.7785 29.8894 63.1816C24.6925 56.1098 32.2112 51.2379 36.4362 52.4629C36.105 52.2066 34.0987 48.9504 33.1394 47.3566C30.5612 42.1785 33.1394 38.7316 35.0456 37.7816C39.3675 35.6316 42.5456 38.0504 43.5456 39.3691C43.1612 38.7191 41.9612 36.0879 40.0269 31.2598C38.0925 26.4348 41.2081 23.4535 43.0081 22.566C46.9144 20.7566 50.6269 23.0535 51.555 25.1066C52.0112 26.1098 54.4612 31.4816 55.53 33.8473C54.7237 31.8848 53.2675 27.9816 52.7519 26.1785C51.7269 21.9285 54.1925 19.016 55.755 18.266C57.93 17.2254 62.4644 16.9535 64.255 20.9035L64.3019 21.0066Z" fill="url(#paint29_radial_1178_13673)"/>
<path d="M69.6 32.2277C71.9469 37.0215 74.2907 41.3184 76.2719 43.6715C76.475 45.7652 76.6563 46.959 77.1563 48.7652C73.2032 44.809 69.375 36.1621 69.6 32.2246V32.2277Z" fill="url(#paint30_radial_1178_13673)"/>
<path fill-rule="evenodd" clip-rule="evenodd" d="M13.6006 51.7051C14.0476 51.7059 14.4761 51.8841 14.7919 52.2004C15.1076 52.5168 15.285 52.9456 15.285 53.3926C15.285 56.2051 16.4225 59.9707 18.8756 63.0113C21.2819 66.002 24.9381 68.2645 30.0631 68.2645C30.5099 68.2645 30.9383 68.4419 31.2542 68.7578C31.57 69.0737 31.7475 69.5021 31.7475 69.9488C31.7475 70.3956 31.57 70.824 31.2542 71.1399C30.9383 71.4557 30.5099 71.6332 30.0631 71.6332C23.8069 71.6332 19.2288 68.8207 16.2506 65.127C13.3194 61.4895 11.9163 56.9738 11.9163 53.3895C11.9171 52.943 12.0948 52.515 12.4105 52.1993C12.7262 51.8836 13.1542 51.7059 13.6006 51.7051Z" fill="url(#paint31_radial_1178_13673)"/>
<path fill-rule="evenodd" clip-rule="evenodd" d="M13.6006 51.7051C14.0476 51.7059 14.4761 51.8841 14.7919 52.2004C15.1076 52.5168 15.285 52.9456 15.285 53.3926C15.285 56.2051 16.4225 59.9707 18.8756 63.0113C21.2819 66.002 24.9381 68.2645 30.0631 68.2645C30.5099 68.2645 30.9383 68.4419 31.2542 68.7578C31.57 69.0737 31.7475 69.5021 31.7475 69.9488C31.7475 70.3956 31.57 70.824 31.2542 71.1399C30.9383 71.4557 30.5099 71.6332 30.0631 71.6332C23.8069 71.6332 19.2288 68.8207 16.2506 65.127C13.3194 61.4895 11.9163 56.9738 11.9163 53.3895C11.9171 52.943 12.0948 52.515 12.4105 52.1993C12.7262 51.8836 13.1542 51.7059 13.6006 51.7051Z" fill="url(#paint32_radial_1178_13673)"/>
<path fill-rule="evenodd" clip-rule="evenodd" d="M13.6006 51.7051C14.0476 51.7059 14.4761 51.8841 14.7919 52.2004C15.1076 52.5168 15.285 52.9456 15.285 53.3926C15.285 56.2051 16.4225 59.9707 18.8756 63.0113C21.2819 66.002 24.9381 68.2645 30.0631 68.2645C30.5099 68.2645 30.9383 68.4419 31.2542 68.7578C31.57 69.0737 31.7475 69.5021 31.7475 69.9488C31.7475 70.3956 31.57 70.824 31.2542 71.1399C30.9383 71.4557 30.5099 71.6332 30.0631 71.6332C23.8069 71.6332 19.2288 68.8207 16.2506 65.127C13.3194 61.4895 11.9163 56.9738 11.9163 53.3895C11.9171 52.943 12.0948 52.515 12.4105 52.1993C12.7262 51.8836 13.1542 51.7059 13.6006 51.7051Z" fill="url(#paint33_radial_1178_13673)"/>
<path fill-rule="evenodd" clip-rule="evenodd" d="M8.35723 57.7129C8.80478 57.7129 9.234 57.8907 9.55047 58.2072C9.86694 58.5236 10.0447 58.9528 10.0447 59.4004C10.0447 65.3691 14.5135 73.3441 23.9072 73.3441C24.354 73.3441 24.7824 73.5216 25.0983 73.8375C25.4141 74.1534 25.5916 74.5818 25.5916 75.0285C25.5916 75.4752 25.4141 75.9037 25.0983 76.2195C24.7824 76.5354 24.354 76.7129 23.9072 76.7129C12.0947 76.7129 6.67285 66.6191 6.67285 59.4004C6.67285 58.9528 6.85064 58.5236 7.16711 58.2072C7.48358 57.8907 7.90967 57.7129 8.35723 57.7129Z" fill="url(#paint34_radial_1178_13673)"/>
<path fill-rule="evenodd" clip-rule="evenodd" d="M8.35723 57.7129C8.80478 57.7129 9.234 57.8907 9.55047 58.2072C9.86694 58.5236 10.0447 58.9528 10.0447 59.4004C10.0447 65.3691 14.5135 73.3441 23.9072 73.3441C24.354 73.3441 24.7824 73.5216 25.0983 73.8375C25.4141 74.1534 25.5916 74.5818 25.5916 75.0285C25.5916 75.4752 25.4141 75.9037 25.0983 76.2195C24.7824 76.5354 24.354 76.7129 23.9072 76.7129C12.0947 76.7129 6.67285 66.6191 6.67285 59.4004C6.67285 58.9528 6.85064 58.5236 7.16711 58.2072C7.48358 57.8907 7.90967 57.7129 8.35723 57.7129Z" fill="url(#paint35_radial_1178_13673)"/>
<path fill-rule="evenodd" clip-rule="evenodd" d="M71.4439 29.6778C71.2227 29.679 71.0035 29.6367 70.7986 29.5532C70.5938 29.4697 70.4074 29.3466 70.2501 29.1911C70.0929 29.0355 69.9678 28.8505 69.882 28.6467C69.7962 28.4428 69.7514 28.224 69.7502 28.0028C69.7314 25.1903 68.5689 21.4309 66.0971 18.4059C63.6689 15.4309 60.0033 13.1934 54.8752 13.2247C54.4459 13.2014 54.0417 13.0153 53.745 12.7042C53.4484 12.3931 53.2816 11.9805 53.2788 11.5506C53.2761 11.1207 53.4374 10.706 53.73 10.391C54.0226 10.0761 54.4244 9.88469 54.8533 9.85591C61.1096 9.81528 65.7064 12.6028 68.7064 16.2747C71.6627 19.8934 73.0939 24.3997 73.1189 27.9809C73.1206 28.2024 73.0785 28.422 72.9952 28.6272C72.9119 28.8324 72.7889 29.0191 72.6333 29.1767C72.4778 29.3343 72.2926 29.4597 72.0885 29.5457C71.8844 29.6317 71.6654 29.6766 71.4439 29.6778Z" fill="url(#paint36_radial_1178_13673)"/>
<path fill-rule="evenodd" clip-rule="evenodd" d="M71.4439 29.6778C71.2227 29.679 71.0035 29.6367 70.7986 29.5532C70.5938 29.4697 70.4074 29.3466 70.2501 29.1911C70.0929 29.0355 69.9678 28.8505 69.882 28.6467C69.7962 28.4428 69.7514 28.224 69.7502 28.0028C69.7314 25.1903 68.5689 21.4309 66.0971 18.4059C63.6689 15.4309 60.0033 13.1934 54.8752 13.2247C54.4459 13.2014 54.0417 13.0153 53.745 12.7042C53.4484 12.3931 53.2816 11.9805 53.2788 11.5506C53.2761 11.1207 53.4374 10.706 53.73 10.391C54.0226 10.0761 54.4244 9.88469 54.8533 9.85591C61.1096 9.81528 65.7064 12.6028 68.7064 16.2747C71.6627 19.8934 73.0939 24.3997 73.1189 27.9809C73.1206 28.2024 73.0785 28.422 72.9952 28.6272C72.9119 28.8324 72.7889 29.0191 72.6333 29.1767C72.4778 29.3343 72.2926 29.4597 72.0885 29.5457C71.8844 29.6317 71.6654 29.6766 71.4439 29.6778Z" fill="url(#paint37_radial_1178_13673)"/>
<path fill-rule="evenodd" clip-rule="evenodd" d="M76.6451 23.6387C76.424 23.64 76.2047 23.5976 75.9999 23.5141C75.795 23.4306 75.6086 23.3076 75.4514 23.152C75.2941 22.9965 75.169 22.8115 75.0832 22.6076C74.9974 22.4037 74.9526 22.1849 74.9514 21.9637C74.9108 15.995 70.3889 8.04498 60.9952 8.10748C60.5484 8.11038 60.1188 7.93571 59.8009 7.62187C59.483 7.30804 59.3027 6.88077 59.2998 6.43405C59.2969 5.98732 59.4716 5.55774 59.7854 5.23981C60.0993 4.92188 60.5266 4.74163 60.9733 4.73873C72.7858 4.66061 78.2701 14.7231 78.317 21.9419C78.3187 22.1631 78.2767 22.3824 78.1936 22.5874C78.1105 22.7924 77.9878 22.979 77.8325 23.1366C77.6773 23.2941 77.4925 23.4196 77.2888 23.5057C77.0851 23.5919 76.8663 23.6371 76.6451 23.6387Z" fill="url(#paint38_radial_1178_13673)"/>
<path fill-rule="evenodd" clip-rule="evenodd" d="M76.6451 23.6387C76.424 23.64 76.2047 23.5976 75.9999 23.5141C75.795 23.4306 75.6086 23.3076 75.4514 23.152C75.2941 22.9965 75.169 22.8115 75.0832 22.6076C74.9974 22.4037 74.9526 22.1849 74.9514 21.9637C74.9108 15.995 70.3889 8.04498 60.9952 8.10748C60.5484 8.11038 60.1188 7.93571 59.8009 7.62187C59.483 7.30804 59.3027 6.88077 59.2998 6.43405C59.2969 5.98732 59.4716 5.55774 59.7854 5.23981C60.0993 4.92188 60.5266 4.74163 60.9733 4.73873C72.7858 4.66061 78.2701 14.7231 78.317 21.9419C78.3187 22.1631 78.2767 22.3824 78.1936 22.5874C78.1105 22.7924 77.9878 22.979 77.8325 23.1366C77.6773 23.2941 77.4925 23.4196 77.2888 23.5057C77.0851 23.5919 76.8663 23.6371 76.6451 23.6387Z" fill="url(#paint39_radial_1178_13673)"/>
<defs>
<radialGradient id="paint0_radial_1178_13673" cx="0" cy="0" r="1" gradientUnits="userSpaceOnUse" gradientTransform="translate(60.9161 42.1254) rotate(60.1006) scale(65.7875 42.9781)">
<stop offset="0.003" stop-color="#FFC133"/>
<stop offset="0.698" stop-color="#FFC53F"/>
<stop offset="0.797" stop-color="#FFAD3E"/>
<stop offset="0.945" stop-color="#EC7D58"/>
</radialGradient>
<radialGradient id="paint1_radial_1178_13673" cx="0" cy="0" r="1" gradientUnits="userSpaceOnUse" gradientTransform="translate(93.7112 56.5785) rotate(-93.012) scale(39.0316 14.9528)">
<stop offset="0.003" stop-color="#FFE849"/>
<stop offset="1" stop-color="#FFE647" stop-opacity="0"/>
</radialGradient>
<radialGradient id="paint2_radial_1178_13673" cx="0" cy="0" r="1" gradientUnits="userSpaceOnUse" gradientTransform="translate(89.0241 28.6473) rotate(99.682) scale(20.9032 8.00797)">
<stop offset="0.003" stop-color="#FFE849"/>
<stop offset="1" stop-color="#FFE647" stop-opacity="0"/>
</radialGradient>
<radialGradient id="paint3_radial_1178_13673" cx="0" cy="0" r="1" gradientUnits="userSpaceOnUse" gradientTransform="translate(76.2706 41.2345) scale(8.45459 34.2866)">
<stop stop-color="#EE9F2C"/>
<stop offset="1" stop-color="#EE9F2C" stop-opacity="0"/>
</radialGradient>
<radialGradient id="paint4_radial_1178_13673" cx="0" cy="0" r="1" gradientUnits="userSpaceOnUse" gradientTransform="translate(79.9831 54.5282) rotate(-94.0856) scale(14.2304 9.88409)">
<stop stop-color="#FFC93D"/>
<stop offset="1" stop-color="#FFC33A" stop-opacity="0"/>
</radialGradient>
<radialGradient id="paint5_radial_1178_13673" cx="0" cy="0" r="1" gradientUnits="userSpaceOnUse" gradientTransform="translate(72.033 32.9254) rotate(151.024) scale(14.9584 30.0484)">
<stop offset="0.563" stop-color="#F09D2E" stop-opacity="0"/>
<stop offset="1" stop-color="#F09D2E"/>
</radialGradient>
<linearGradient id="paint6_linear_1178_13673" x1="64.3924" y1="48.2504" x2="64.3924" y2="40.1723" gradientUnits="userSpaceOnUse">
<stop stop-color="#FFC337"/>
<stop offset="1" stop-color="#FFC337" stop-opacity="0"/>
</linearGradient>
<radialGradient id="paint7_radial_1178_13673" cx="0" cy="0" r="1" gradientUnits="userSpaceOnUse" gradientTransform="translate(68.908 21.0316) rotate(-13.4957) scale(10.0429 22.2086)">
<stop stop-color="#FFEC4C"/>
<stop offset="1" stop-color="#FFEC4C" stop-opacity="0"/>
</radialGradient>
<radialGradient id="paint8_radial_1178_13673" cx="0" cy="0" r="1" gradientUnits="userSpaceOnUse" gradientTransform="translate(52.5112 17.6004) rotate(33.3063) scale(9.80452 7.60152)">
<stop stop-color="#D99F2B"/>
<stop offset="1" stop-color="#D99F2B" stop-opacity="0"/>
</radialGradient>
<linearGradient id="paint9_linear_1178_13673" x1="54.0643" y1="37.341" x2="58.9455" y2="34.9973" gradientUnits="userSpaceOnUse">
<stop stop-color="#A85300"/>
<stop offset="0.825" stop-color="#A85300" stop-opacity="0"/>
</linearGradient>
<radialGradient id="paint10_radial_1178_13673" cx="0" cy="0" r="1" gradientUnits="userSpaceOnUse" gradientTransform="translate(57.9347 37.5467) rotate(149.148) scale(14.4192 30.0901)">
<stop offset="0.563" stop-color="#F09D2E" stop-opacity="0"/>
<stop offset="1" stop-color="#F09D2E"/>
</radialGradient>
<linearGradient id="paint11_linear_1178_13673" x1="50.7066" y1="53.1873" x2="50.7066" y2="44.9436" gradientUnits="userSpaceOnUse">
<stop stop-color="#FFC337"/>
<stop offset="1" stop-color="#FFC337" stop-opacity="0"/>
</linearGradient>
<radialGradient id="paint12_radial_1178_13673" cx="0" cy="0" r="1" gradientUnits="userSpaceOnUse" gradientTransform="translate(56.2722 28.3561) rotate(-33.8929) scale(9.5692 29.1335)">
<stop stop-color="#FFEC4C"/>
<stop offset="1" stop-color="#FFEC4C" stop-opacity="0"/>
</radialGradient>
<radialGradient id="paint13_radial_1178_13673" cx="0" cy="0" r="1" gradientUnits="userSpaceOnUse" gradientTransform="translate(48.9847 40.1717) rotate(-24.9048) scale(12.0589 55.0622)">
<stop offset="0.598" stop-color="#F09D2E" stop-opacity="0"/>
<stop offset="1" stop-color="#F09D2E"/>
</radialGradient>
<radialGradient id="paint14_radial_1178_13673" cx="0" cy="0" r="1" gradientUnits="userSpaceOnUse" gradientTransform="translate(38.0472 21.9092) rotate(32.6006) scale(9.9691 7.94552)">
<stop stop-color="#D99F2B"/>
<stop offset="1" stop-color="#D99F2B" stop-opacity="0"/>
</radialGradient>
<linearGradient id="paint15_linear_1178_13673" x1="42.441" y1="42.1248" x2="45.691" y2="39.8529" gradientUnits="userSpaceOnUse">
<stop stop-color="#A85300"/>
<stop offset="0.825" stop-color="#A85300" stop-opacity="0"/>
</linearGradient>
<radialGradient id="paint16_radial_1178_13673" cx="0" cy="0" r="1" gradientUnits="userSpaceOnUse" gradientTransform="translate(49.5678 50.0476) rotate(137.351) scale(11.9455 23.3917)">
<stop offset="0.563" stop-color="#F09D2E" stop-opacity="0"/>
<stop offset="1" stop-color="#F09D2E"/>
</radialGradient>
<linearGradient id="paint17_linear_1178_13673" x1="42.7147" y1="63.1695" x2="42.7147" y2="56.2539" gradientUnits="userSpaceOnUse">
<stop stop-color="#FFC337"/>
<stop offset="1" stop-color="#FFC337" stop-opacity="0"/>
</linearGradient>
<radialGradient id="paint18_radial_1178_13673" cx="0" cy="0" r="1" gradientUnits="userSpaceOnUse" gradientTransform="translate(46.6397 39.7976) rotate(-12.2959) scale(9.09795 19.272)">
<stop stop-color="#FFEC4C"/>
<stop offset="1" stop-color="#FFEC4C" stop-opacity="0"/>
</radialGradient>
<radialGradient id="paint19_radial_1178_13673" cx="0" cy="0" r="1" gradientUnits="userSpaceOnUse" gradientTransform="translate(41.0835 52.2507) rotate(-40.217) scale(12.655 64.6966)">
<stop offset="0.598" stop-color="#F09D2E" stop-opacity="0"/>
<stop offset="1" stop-color="#F09D2E"/>
</radialGradient>
<radialGradient id="paint20_radial_1178_13673" cx="0" cy="0" r="1" gradientUnits="userSpaceOnUse" gradientTransform="translate(30.7085 36.9257) rotate(29.5035) scale(9.15203 6.88807)">
<stop stop-color="#D99F2B"/>
<stop offset="1" stop-color="#D99F2B" stop-opacity="0"/>
</radialGradient>
<radialGradient id="paint21_radial_1178_13673" cx="0" cy="0" r="1" gradientUnits="userSpaceOnUse" gradientTransform="translate(35.5085 54.9195) rotate(-45.7639) scale(5.17947 23.3859)">
<stop stop-color="#A85300"/>
<stop offset="0.825" stop-color="#A85300" stop-opacity="0"/>
</radialGradient>
<radialGradient id="paint22_radial_1178_13673" cx="0" cy="0" r="1" gradientUnits="userSpaceOnUse" gradientTransform="translate(46.9112 63.636) rotate(143.369) scale(11.7438 22.0967)">
<stop offset="0.563" stop-color="#F09D2E" stop-opacity="0"/>
<stop offset="1" stop-color="#F09D2E"/>
</radialGradient>
<radialGradient id="paint23_radial_1178_13673" cx="0" cy="0" r="1" gradientUnits="userSpaceOnUse" gradientTransform="translate(43.7675 54.7579) rotate(-9.97762) scale(9.68143 16.819)">
<stop stop-color="#FFEC4C"/>
<stop offset="1" stop-color="#FFEC4C" stop-opacity="0"/>
</radialGradient>
<radialGradient id="paint24_radial_1178_13673" cx="0" cy="0" r="1" gradientUnits="userSpaceOnUse" gradientTransform="translate(37.8057 65.5419) rotate(-34.314) scale(12.5495 60.5878)">
<stop offset="0.598" stop-color="#F09D2E" stop-opacity="0"/>
<stop offset="1" stop-color="#F09D2E"/>
</radialGradient>
<radialGradient id="paint25_radial_1178_13673" cx="0" cy="0" r="1" gradientUnits="userSpaceOnUse" gradientTransform="translate(26.6769 52.2766) rotate(24.5479) scale(9.39282 6.23286)">
<stop stop-color="#D99F2B"/>
<stop offset="1" stop-color="#D99F2B" stop-opacity="0"/>
</radialGradient>
<linearGradient id="paint26_linear_1178_13673" x1="47.4237" y1="85.0954" x2="39.5581" y2="69.0079" gradientUnits="userSpaceOnUse">
<stop stop-color="#FFC337"/>
<stop offset="1" stop-color="#FFC337" stop-opacity="0"/>
</linearGradient>
<radialGradient id="paint27_radial_1178_13673" cx="0" cy="0" r="1" gradientUnits="userSpaceOnUse" gradientTransform="translate(75.5487 38.0254) rotate(129.014) scale(54.2959 87.8081)">
<stop offset="0.872" stop-color="#F6814F" stop-opacity="0"/>
<stop offset="1" stop-color="#F7814F"/>
</radialGradient>
<radialGradient id="paint28_radial_1178_13673" cx="0" cy="0" r="1" gradientUnits="userSpaceOnUse" gradientTransform="translate(64.2206 38.6098) rotate(76.293) scale(57.6978 63.3072)">
<stop offset="0.853" stop-color="#F6814F" stop-opacity="0"/>
<stop offset="1" stop-color="#F7814F"/>
</radialGradient>
<radialGradient id="paint29_radial_1178_13673" cx="0" cy="0" r="1" gradientUnits="userSpaceOnUse" gradientTransform="translate(77.305 23.9629) rotate(64.44) scale(9.95902 8.87833)">
<stop stop-color="#D99F2B"/>
<stop offset="1" stop-color="#D99F2B" stop-opacity="0"/>
</radialGradient>
<radialGradient id="paint30_radial_1178_13673" cx="0" cy="0" r="1" gradientUnits="userSpaceOnUse" gradientTransform="translate(77.1592 43.0016) rotate(149.254) scale(3.7925 11.7354)">
<stop offset="0.201" stop-color="#B4813D"/>
<stop offset="1" stop-color="#B4813D" stop-opacity="0"/>
</radialGradient>
<radialGradient id="paint31_radial_1178_13673" cx="0" cy="0" r="1" gradientUnits="userSpaceOnUse" gradientTransform="translate(15.9975 52.6113) rotate(62.071) scale(16.6005 24.6193)">
<stop stop-color="#419FFD"/>
<stop offset="1" stop-color="#4B6DCB"/>
</radialGradient>
<radialGradient id="paint32_radial_1178_13673" cx="0" cy="0" r="1" gradientUnits="userSpaceOnUse" gradientTransform="translate(11.3006 53.8457) rotate(2.38594) scale(2.34578 4.93672)">
<stop stop-color="#5486C7"/>
<stop offset="1" stop-color="#5486C7" stop-opacity="0"/>
</radialGradient>
<radialGradient id="paint33_radial_1178_13673" cx="0" cy="0" r="1" gradientUnits="userSpaceOnUse" gradientTransform="translate(28.8819 67.2238) rotate(111.801) scale(2.36654 6.96085)">
<stop stop-color="#5486C7"/>
<stop offset="1" stop-color="#5486C7" stop-opacity="0"/>
</radialGradient>
<radialGradient id="paint34_radial_1178_13673" cx="0" cy="0" r="1" gradientUnits="userSpaceOnUse" gradientTransform="translate(17.2134 61.2644) rotate(94.712) scale(13.1303 22.0773)">
<stop stop-color="#419FFD"/>
<stop offset="1" stop-color="#4B6DCB"/>
</radialGradient>
<radialGradient id="paint35_radial_1178_13673" cx="0" cy="0" r="1" gradientUnits="userSpaceOnUse" gradientTransform="translate(6.08848 59.7535) rotate(2.38521) scale(2.23763 4.70683)">
<stop stop-color="#5486C7"/>
<stop offset="1" stop-color="#5486C7" stop-opacity="0"/>
</radialGradient>
<radialGradient id="paint36_radial_1178_13673" cx="0" cy="0" r="1" gradientUnits="userSpaceOnUse" gradientTransform="translate(58.5439 6.22153) rotate(60.196) scale(13.9475 20.6847)">
<stop stop-color="#419FFD"/>
<stop offset="1" stop-color="#4B6DCB"/>
</radialGradient>
<radialGradient id="paint37_radial_1178_13673" cx="0" cy="0" r="1" gradientUnits="userSpaceOnUse" gradientTransform="translate(52.8002 11.2715) rotate(18.8622) scale(2.0066 3.22971)">
<stop stop-color="#4D8AC1"/>
<stop offset="1" stop-color="#4D8AC1" stop-opacity="0"/>
</radialGradient>
<radialGradient id="paint38_radial_1178_13673" cx="0" cy="0" r="1" gradientUnits="userSpaceOnUse" gradientTransform="translate(64.417 1.27311) rotate(60.69) scale(17.3269 25.7033)">
<stop stop-color="#419FFD"/>
<stop offset="1" stop-color="#4B6DCB"/>
</radialGradient>
<radialGradient id="paint39_radial_1178_13673" cx="0" cy="0" r="1" gradientUnits="userSpaceOnUse" gradientTransform="translate(58.9389 6.09003) rotate(18.853) scale(1.91397 3.07947)">
<stop stop-color="#4D8AC1"/>
<stop offset="1" stop-color="#4D8AC1" stop-opacity="0"/>
</radialGradient>
</defs>
</svg>
