<svg width="180" height="181" viewBox="0 0 180 181" fill="none" xmlns="http://www.w3.org/2000/svg">
<ellipse opacity="0.05" cx="90.4316" cy="90.5286" rx="89.5684" ry="89.5599" fill="white"/>
<ellipse opacity="0.05" cx="90.4316" cy="90.5275" rx="70.0303" ry="70.0236" fill="white"/>
<ellipse opacity="0.05" cx="90.4316" cy="90.5291" rx="54.1338" ry="54.1287" fill="white"/>
<path d="M96.3005 53.0066C100.104 61.391 104.769 71.6785 108.269 75.766C108.957 74.1785 108.882 71.516 109.663 65.016C110.369 59.1535 115.207 58.5941 117.285 59.0098C121.879 59.9691 123.275 64.6223 123.122 66.3379C122.879 69.0723 122.866 68.9785 122.366 75.5941C121.632 85.266 125.366 92.5691 125.71 100.85C125.71 116.457 112.032 124.125 102.46 124.125C94.8005 124.125 87.1349 119.225 84.263 116.775L69.9005 103.657C68.1411 102.291 63.7974 97.7785 61.8911 95.1816C56.6911 88.1098 64.2099 83.2379 68.4349 84.4629C68.1036 84.2066 66.0974 80.9504 65.138 79.3566C62.5599 74.1785 65.138 70.7316 67.0442 69.7816C71.3661 67.6316 74.5442 70.0504 75.5442 71.3691C75.1599 70.7191 73.9599 68.0879 72.0255 63.2598C70.0911 58.4348 73.2067 55.4535 75.0067 54.566C78.913 52.7566 82.6255 55.0535 83.5536 57.1066C84.0099 58.1098 86.4599 63.4816 87.5286 65.8473C86.7224 63.8848 85.2661 59.9816 84.7505 58.1785C83.7255 53.9285 86.1911 51.016 87.7567 50.266C89.9286 49.2254 94.463 48.9535 96.2567 52.9035L96.3005 53.0066Z" fill="url(#paint0_radial_1342_2972)"/>
<path d="M96.3019 53.0066C100.105 61.391 104.771 71.6785 108.271 75.766C108.958 74.1785 108.883 71.516 109.664 65.016C110.371 59.1535 115.208 58.5941 117.286 59.0098C121.88 59.9691 123.277 64.6223 123.124 66.3379C122.88 69.0723 122.867 68.9785 122.367 75.5941C121.633 85.266 125.367 92.5691 125.711 100.85C125.711 116.457 112.033 124.125 102.461 124.125C94.8019 124.125 87.1362 119.225 84.2644 116.775L69.9019 103.657C68.1425 102.291 63.7987 97.7785 61.8894 95.1816C56.6925 88.1098 64.2112 83.2379 68.4362 84.4629C68.105 84.2066 66.0987 80.9504 65.1394 79.3566C62.5612 74.1785 65.1394 70.7316 67.0456 69.7816C71.3675 67.6316 74.5456 70.0504 75.5456 71.3691C75.1612 70.7191 73.9612 68.0879 72.0269 63.2598C70.0925 58.4348 73.2081 55.4535 75.0081 54.566C78.9144 52.7566 82.6269 55.0535 83.555 57.1066C84.0112 58.1098 86.4612 63.4816 87.53 65.8473C86.7237 63.8848 85.2675 59.9816 84.7519 58.1785C83.7269 53.9285 86.1925 51.016 87.755 50.266C89.93 49.2254 94.4644 48.9535 96.255 52.9035L96.3019 53.0066Z" fill="url(#paint1_radial_1342_2972)"/>
<path d="M123.124 66.3376C122.88 69.072 122.867 68.9782 122.367 75.5938C122.108 79.0126 123.964 91.597 123.964 91.597C119.449 93.072 109.664 91.1188 108.274 75.7657C108.958 74.1782 108.883 71.5157 109.664 65.0157C110.371 59.1501 115.208 58.5938 117.286 59.0095C121.88 59.9688 123.277 64.622 123.124 66.3376Z" fill="url(#paint2_radial_1342_2972)"/>
<path d="M123.124 66.3376C122.88 69.072 122.867 68.9782 122.367 75.5938C122.108 79.0126 123.964 91.597 123.964 91.597C119.449 93.072 109.664 91.1188 108.274 75.7657C108.958 74.1782 108.883 71.5157 109.664 65.0157C110.371 59.1501 115.208 58.5938 117.286 59.0095C121.88 59.9688 123.277 64.622 123.124 66.3376Z" fill="url(#paint3_radial_1342_2972)"/>
<path d="M123.124 66.3376C122.88 69.072 122.867 68.9782 122.367 75.5938C122.108 79.0126 123.964 91.597 123.964 91.597C119.449 93.072 109.664 91.1188 108.274 75.7657C108.958 74.1782 108.883 71.5157 109.664 65.0157C110.371 59.1501 115.208 58.5938 117.286 59.0095C121.88 59.9688 123.277 64.622 123.124 66.3376Z" fill="url(#paint4_radial_1342_2972)"/>
<path d="M96.3018 53.0066C100.105 61.391 104.771 71.6785 108.271 75.766C107.724 80.441 103.546 82.6785 99.9455 81.841C95.4049 80.5223 93.6799 77.3004 93.6799 77.3004C93.6799 77.3004 92.4924 75.4629 91.3362 73.441C89.9987 71.1035 90.2424 71.1566 88.0018 66.9254C87.5612 66.0941 85.4049 60.4566 84.7518 58.1785C83.7268 53.9285 86.1924 51.016 87.758 50.266C89.9299 49.2254 94.4643 48.9535 96.258 52.9035L96.3018 53.0066Z" fill="url(#paint5_radial_1342_2972)"/>
<path d="M96.3018 53.0066C100.105 61.391 104.771 71.6785 108.271 75.766C107.724 80.441 103.546 82.6785 99.9455 81.841C95.4049 80.5223 93.6799 77.3004 93.6799 77.3004C93.6799 77.3004 92.4924 75.4629 91.3362 73.441C89.9987 71.1035 90.2424 71.1566 88.0018 66.9254C87.5612 66.0941 85.4049 60.4566 84.7518 58.1785C83.7268 53.9285 86.1924 51.016 87.758 50.266C89.9299 49.2254 94.4643 48.9535 96.258 52.9035L96.3018 53.0066Z" fill="url(#paint6_linear_1342_2972)"/>
<path d="M96.3018 53.0066C100.105 61.391 104.771 71.6785 108.271 75.766C107.724 80.441 103.546 82.6785 99.9455 81.841C95.4049 80.5223 93.6799 77.3004 93.6799 77.3004C93.6799 77.3004 92.4924 75.4629 91.3362 73.441C89.9987 71.1035 90.2424 71.1566 88.0018 66.9254C87.5612 66.0941 85.4049 60.4566 84.7518 58.1785C83.7268 53.9285 86.1924 51.016 87.758 50.266C89.9299 49.2254 94.4643 48.9535 96.258 52.9035L96.3018 53.0066Z" fill="url(#paint7_radial_1342_2972)"/>
<path d="M96.3018 53.0066C100.105 61.391 104.771 71.6785 108.271 75.766C107.724 80.441 103.546 82.6785 99.9455 81.841C95.4049 80.5223 93.6799 77.3004 93.6799 77.3004C93.6799 77.3004 92.4924 75.4629 91.3362 73.441C89.9987 71.1035 90.2424 71.1566 88.0018 66.9254C87.5612 66.0941 85.4049 60.4566 84.7518 58.1785C83.7268 53.9285 86.1924 51.016 87.758 50.266C89.9299 49.2254 94.4643 48.9535 96.258 52.9035L96.3018 53.0066Z" fill="url(#paint8_radial_1342_2972)"/>
<path d="M96.3018 53.0066C100.105 61.391 104.771 71.6785 108.271 75.766C107.724 80.441 103.546 82.6785 99.9455 81.841C95.4049 80.5223 93.6799 77.3004 93.6799 77.3004C93.6799 77.3004 92.4924 75.4629 91.3362 73.441C89.9987 71.1035 90.2424 71.1566 88.0018 66.9254C87.5612 66.0941 85.4049 60.4566 84.7518 58.1785C83.7268 53.9285 86.1924 51.016 87.758 50.266C89.9299 49.2254 94.4643 48.9535 96.258 52.9035L96.3018 53.0066Z" fill="url(#paint9_linear_1342_2972)"/>
<path d="M83.5535 57.1061C84.166 58.4561 88.391 67.7061 88.0003 66.9248C89.1347 69.4873 92.6566 75.7373 93.6785 77.4467C95.941 81.2154 93.3878 84.3498 91.741 85.3061C87.0003 88.0561 84.2785 84.5498 84.2785 84.5498C81.7785 80.8873 79.691 77.8373 75.5628 71.3436C74.5691 69.4686 72.7566 65.2873 72.0253 63.2592C70.2222 58.2529 73.2066 55.4529 75.0066 54.5654C78.9128 52.7561 82.6253 55.0529 83.5535 57.1061Z" fill="url(#paint10_radial_1342_2972)"/>
<path d="M83.5535 57.1061C84.166 58.4561 88.391 67.7061 88.0003 66.9248C89.1347 69.4873 92.6566 75.7373 93.6785 77.4467C95.941 81.2154 93.3878 84.3498 91.741 85.3061C87.0003 88.0561 84.2785 84.5498 84.2785 84.5498C81.7785 80.8873 79.691 77.8373 75.5628 71.3436C74.5691 69.4686 72.7566 65.2873 72.0253 63.2592C70.2222 58.2529 73.2066 55.4529 75.0066 54.5654C78.9128 52.7561 82.6253 55.0529 83.5535 57.1061Z" fill="url(#paint11_linear_1342_2972)"/>
<path d="M83.5535 57.1061C84.166 58.4561 88.391 67.7061 88.0003 66.9248C89.1347 69.4873 92.6566 75.7373 93.6785 77.4467C95.941 81.2154 93.3878 84.3498 91.741 85.3061C87.0003 88.0561 84.2785 84.5498 84.2785 84.5498C81.7785 80.8873 79.691 77.8373 75.5628 71.3436C74.5691 69.4686 72.7566 65.2873 72.0253 63.2592C70.2222 58.2529 73.2066 55.4529 75.0066 54.5654C78.9128 52.7561 82.6253 55.0529 83.5535 57.1061Z" fill="url(#paint12_radial_1342_2972)"/>
<path d="M83.5535 57.1061C84.166 58.4561 88.391 67.7061 88.0003 66.9248C89.1347 69.4873 92.6566 75.7373 93.6785 77.4467C95.941 81.2154 93.3878 84.3498 91.741 85.3061C87.0003 88.0561 84.2785 84.5498 84.2785 84.5498C81.7785 80.8873 79.691 77.8373 75.5628 71.3436C74.5691 69.4686 72.7566 65.2873 72.0253 63.2592C70.2222 58.2529 73.2066 55.4529 75.0066 54.5654C78.9128 52.7561 82.6253 55.0529 83.5535 57.1061Z" fill="url(#paint13_radial_1342_2972)"/>
<path d="M83.5535 57.1061C84.166 58.4561 88.391 67.7061 88.0003 66.9248C89.1347 69.4873 92.6566 75.7373 93.6785 77.4467C95.941 81.2154 93.3878 84.3498 91.741 85.3061C87.0003 88.0561 84.2785 84.5498 84.2785 84.5498C81.7785 80.8873 79.691 77.8373 75.5628 71.3436C74.5691 69.4686 72.7566 65.2873 72.0253 63.2592C70.2222 58.2529 73.2066 55.4529 75.0066 54.5654C78.9128 52.7561 82.6253 55.0529 83.5535 57.1061Z" fill="url(#paint14_radial_1342_2972)"/>
<path d="M83.5535 57.1061C84.166 58.4561 88.391 67.7061 88.0003 66.9248C89.1347 69.4873 92.6566 75.7373 93.6785 77.4467C95.941 81.2154 93.3878 84.3498 91.741 85.3061C87.0003 88.0561 84.2785 84.5498 84.2785 84.5498C81.7785 80.8873 79.691 77.8373 75.5628 71.3436C74.5691 69.4686 72.7566 65.2873 72.0253 63.2592C70.2222 58.2529 73.2066 55.4529 75.0066 54.5654C78.9128 52.7561 82.6253 55.0529 83.5535 57.1061Z" fill="url(#paint15_linear_1342_2972)"/>
<path d="M67.046 69.782C71.3678 67.632 74.546 70.0507 75.546 71.3695C78.6647 76.0789 82.3897 81.432 84.1085 84.282C88.7022 91.8757 79.3022 95.1695 79.3022 95.1695C70.6585 85.4289 69.0584 84.9382 68.4366 84.4601C68.1053 84.207 66.0991 80.9507 65.1397 79.357C62.5616 74.1789 65.1397 70.7289 67.046 69.782Z" fill="url(#paint16_radial_1342_2972)"/>
<path d="M67.046 69.782C71.3678 67.632 74.546 70.0507 75.546 71.3695C78.6647 76.0789 82.3897 81.432 84.1085 84.282C88.7022 91.8757 79.3022 95.1695 79.3022 95.1695C70.6585 85.4289 69.0584 84.9382 68.4366 84.4601C68.1053 84.207 66.0991 80.9507 65.1397 79.357C62.5616 74.1789 65.1397 70.7289 67.046 69.782Z" fill="url(#paint17_linear_1342_2972)"/>
<path d="M67.046 69.782C71.3678 67.632 74.546 70.0507 75.546 71.3695C78.6647 76.0789 82.3897 81.432 84.1085 84.282C88.7022 91.8757 79.3022 95.1695 79.3022 95.1695C70.6585 85.4289 69.0584 84.9382 68.4366 84.4601C68.1053 84.207 66.0991 80.9507 65.1397 79.357C62.5616 74.1789 65.1397 70.7289 67.046 69.782Z" fill="url(#paint18_radial_1342_2972)"/>
<path d="M67.046 69.782C71.3678 67.632 74.546 70.0507 75.546 71.3695C78.6647 76.0789 82.3897 81.432 84.1085 84.282C88.7022 91.8757 79.3022 95.1695 79.3022 95.1695C70.6585 85.4289 69.0584 84.9382 68.4366 84.4601C68.1053 84.207 66.0991 80.9507 65.1397 79.357C62.5616 74.1789 65.1397 70.7289 67.046 69.782Z" fill="url(#paint19_radial_1342_2972)"/>
<path d="M67.046 69.782C71.3678 67.632 74.546 70.0507 75.546 71.3695C78.6647 76.0789 82.3897 81.432 84.1085 84.282C88.7022 91.8757 79.3022 95.1695 79.3022 95.1695C70.6585 85.4289 69.0584 84.9382 68.4366 84.4601C68.1053 84.207 66.0991 80.9507 65.1397 79.357C62.5616 74.1789 65.1397 70.7289 67.046 69.782Z" fill="url(#paint20_radial_1342_2972)"/>
<path d="M67.046 69.782C71.3678 67.632 74.546 70.0507 75.546 71.3695C78.6647 76.0789 82.3897 81.432 84.1085 84.282C88.7022 91.8757 79.3022 95.1695 79.3022 95.1695C70.6585 85.4289 69.0584 84.9382 68.4366 84.4601C68.1053 84.207 66.0991 80.9507 65.1397 79.357C62.5616 74.1789 65.1397 70.7289 67.046 69.782Z" fill="url(#paint21_radial_1342_2972)"/>
<path d="M61.8894 95.1829C56.6925 88.111 64.2112 83.2391 68.4362 84.4641C70.4362 85.6985 73.53 88.7954 74.8456 90.1923C83.2269 98.3641 81.83 100.886 79.4862 103.661C77.2144 105.542 74.2612 107.052 69.9019 103.661C68.1425 102.292 63.7987 97.7798 61.8894 95.1829Z" fill="url(#paint22_radial_1342_2972)"/>
<path d="M61.8894 95.1829C56.6925 88.111 64.2112 83.2391 68.4362 84.4641C70.4362 85.6985 73.53 88.7954 74.8456 90.1923C83.2269 98.3641 81.83 100.886 79.4862 103.661C77.2144 105.542 74.2612 107.052 69.9019 103.661C68.1425 102.292 63.7987 97.7798 61.8894 95.1829Z" fill="url(#paint23_radial_1342_2972)"/>
<path d="M61.8894 95.1829C56.6925 88.111 64.2112 83.2391 68.4362 84.4641C70.4362 85.6985 73.53 88.7954 74.8456 90.1923C83.2269 98.3641 81.83 100.886 79.4862 103.661C77.2144 105.542 74.2612 107.052 69.9019 103.661C68.1425 102.292 63.7987 97.7798 61.8894 95.1829Z" fill="url(#paint24_radial_1342_2972)"/>
<path d="M61.8894 95.1829C56.6925 88.111 64.2112 83.2391 68.4362 84.4641C70.4362 85.6985 73.53 88.7954 74.8456 90.1923C83.2269 98.3641 81.83 100.886 79.4862 103.661C77.2144 105.542 74.2612 107.052 69.9019 103.661C68.1425 102.292 63.7987 97.7798 61.8894 95.1829Z" fill="url(#paint25_radial_1342_2972)"/>
<path d="M61.8894 95.1829C56.6925 88.111 64.2112 83.2391 68.4362 84.4641C70.4362 85.6985 73.53 88.7954 74.8456 90.1923C83.2269 98.3641 81.83 100.886 79.4862 103.661C77.2144 105.542 74.2612 107.052 69.9019 103.661C68.1425 102.292 63.7987 97.7798 61.8894 95.1829Z" fill="url(#paint26_linear_1342_2972)"/>
<path d="M96.3019 53.0066C100.105 61.391 104.771 71.6785 108.271 75.766C108.958 74.1785 108.883 71.516 109.664 65.016C110.371 59.1535 115.208 58.5941 117.286 59.0098C121.88 59.9691 123.277 64.6223 123.124 66.3379C122.88 69.0723 122.867 68.9785 122.367 75.5941C121.633 85.266 125.367 92.5691 125.711 100.85C125.711 116.457 112.033 124.125 102.461 124.125C94.8019 124.125 87.1362 119.225 84.2644 116.775L69.9019 103.657C68.1425 102.291 63.7987 97.7785 61.8894 95.1816C56.6925 88.1098 64.2112 83.2379 68.4362 84.4629C68.105 84.2066 66.0987 80.9504 65.1394 79.3566C62.5612 74.1785 65.1394 70.7316 67.0456 69.7816C71.3675 67.6316 74.5456 70.0504 75.5456 71.3691C75.1612 70.7191 73.9612 68.0879 72.0269 63.2598C70.0925 58.4348 73.2081 55.4535 75.0081 54.566C78.9144 52.7566 82.6269 55.0535 83.555 57.1066C84.0112 58.1098 86.4612 63.4816 87.53 65.8473C86.7237 63.8848 85.2675 59.9816 84.7519 58.1785C83.7269 53.9285 86.1925 51.016 87.755 50.266C89.93 49.2254 94.4644 48.9535 96.255 52.9035L96.3019 53.0066Z" fill="url(#paint27_radial_1342_2972)"/>
<path d="M96.3019 53.0066C100.105 61.391 104.771 71.6785 108.271 75.766C108.958 74.1785 108.883 71.516 109.664 65.016C110.371 59.1535 115.208 58.5941 117.286 59.0098C121.88 59.9691 123.277 64.6223 123.124 66.3379C122.88 69.0723 122.867 68.9785 122.367 75.5941C121.633 85.266 125.367 92.5691 125.711 100.85C125.711 116.457 112.033 124.125 102.461 124.125C94.8019 124.125 87.1362 119.225 84.2644 116.775L69.9019 103.657C68.1425 102.291 63.7987 97.7785 61.8894 95.1816C56.6925 88.1098 64.2112 83.2379 68.4362 84.4629C68.105 84.2066 66.0987 80.9504 65.1394 79.3566C62.5612 74.1785 65.1394 70.7316 67.0456 69.7816C71.3675 67.6316 74.5456 70.0504 75.5456 71.3691C75.1612 70.7191 73.9612 68.0879 72.0269 63.2598C70.0925 58.4348 73.2081 55.4535 75.0081 54.566C78.9144 52.7566 82.6269 55.0535 83.555 57.1066C84.0112 58.1098 86.4612 63.4816 87.53 65.8473C86.7237 63.8848 85.2675 59.9816 84.7519 58.1785C83.7269 53.9285 86.1925 51.016 87.755 50.266C89.93 49.2254 94.4644 48.9535 96.255 52.9035L96.3019 53.0066Z" fill="url(#paint28_radial_1342_2972)"/>
<path d="M96.3019 53.0066C100.105 61.391 104.771 71.6785 108.271 75.766C108.958 74.1785 108.883 71.516 109.664 65.016C110.371 59.1535 115.208 58.5941 117.286 59.0098C121.88 59.9691 123.277 64.6223 123.124 66.3379C122.88 69.0723 122.867 68.9785 122.367 75.5941C121.633 85.266 125.367 92.5691 125.711 100.85C125.711 116.457 112.033 124.125 102.461 124.125C94.8019 124.125 87.1362 119.225 84.2644 116.775L69.9019 103.657C68.1425 102.291 63.7987 97.7785 61.8894 95.1816C56.6925 88.1098 64.2112 83.2379 68.4362 84.4629C68.105 84.2066 66.0987 80.9504 65.1394 79.3566C62.5612 74.1785 65.1394 70.7316 67.0456 69.7816C71.3675 67.6316 74.5456 70.0504 75.5456 71.3691C75.1612 70.7191 73.9612 68.0879 72.0269 63.2598C70.0925 58.4348 73.2081 55.4535 75.0081 54.566C78.9144 52.7566 82.6269 55.0535 83.555 57.1066C84.0112 58.1098 86.4612 63.4816 87.53 65.8473C86.7237 63.8848 85.2675 59.9816 84.7519 58.1785C83.7269 53.9285 86.1925 51.016 87.755 50.266C89.93 49.2254 94.4644 48.9535 96.255 52.9035L96.3019 53.0066Z" fill="url(#paint29_radial_1342_2972)"/>
<path d="M101.6 64.2277C103.947 69.0215 106.291 73.3184 108.272 75.6715C108.475 77.7652 108.656 78.959 109.156 80.7652C105.203 76.809 101.375 68.1621 101.6 64.2246V64.2277Z" fill="url(#paint30_radial_1342_2972)"/>
<path fill-rule="evenodd" clip-rule="evenodd" d="M45.6006 83.7051C46.0476 83.7059 46.4761 83.8841 46.7919 84.2004C47.1076 84.5168 47.285 84.9456 47.285 85.3926C47.285 88.2051 48.4225 91.9707 50.8756 95.0113C53.2819 98.002 56.9381 100.264 62.0631 100.264C62.5099 100.264 62.9383 100.442 63.2542 100.758C63.57 101.074 63.7475 101.502 63.7475 101.949C63.7475 102.396 63.57 102.824 63.2542 103.14C62.9383 103.456 62.5099 103.633 62.0631 103.633C55.8069 103.633 51.2288 100.821 48.2506 97.127C45.3194 93.4895 43.9163 88.9738 43.9163 85.3895C43.9171 84.943 44.0948 84.515 44.4105 84.1993C44.7262 83.8836 45.1542 83.7059 45.6006 83.7051Z" fill="url(#paint31_radial_1342_2972)"/>
<path fill-rule="evenodd" clip-rule="evenodd" d="M45.6006 83.7051C46.0476 83.7059 46.4761 83.8841 46.7919 84.2004C47.1076 84.5168 47.285 84.9456 47.285 85.3926C47.285 88.2051 48.4225 91.9707 50.8756 95.0113C53.2819 98.002 56.9381 100.264 62.0631 100.264C62.5099 100.264 62.9383 100.442 63.2542 100.758C63.57 101.074 63.7475 101.502 63.7475 101.949C63.7475 102.396 63.57 102.824 63.2542 103.14C62.9383 103.456 62.5099 103.633 62.0631 103.633C55.8069 103.633 51.2288 100.821 48.2506 97.127C45.3194 93.4895 43.9163 88.9738 43.9163 85.3895C43.9171 84.943 44.0948 84.515 44.4105 84.1993C44.7262 83.8836 45.1542 83.7059 45.6006 83.7051Z" fill="url(#paint32_radial_1342_2972)"/>
<path fill-rule="evenodd" clip-rule="evenodd" d="M45.6006 83.7051C46.0476 83.7059 46.4761 83.8841 46.7919 84.2004C47.1076 84.5168 47.285 84.9456 47.285 85.3926C47.285 88.2051 48.4225 91.9707 50.8756 95.0113C53.2819 98.002 56.9381 100.264 62.0631 100.264C62.5099 100.264 62.9383 100.442 63.2542 100.758C63.57 101.074 63.7475 101.502 63.7475 101.949C63.7475 102.396 63.57 102.824 63.2542 103.14C62.9383 103.456 62.5099 103.633 62.0631 103.633C55.8069 103.633 51.2288 100.821 48.2506 97.127C45.3194 93.4895 43.9163 88.9738 43.9163 85.3895C43.9171 84.943 44.0948 84.515 44.4105 84.1993C44.7262 83.8836 45.1542 83.7059 45.6006 83.7051Z" fill="url(#paint33_radial_1342_2972)"/>
<path fill-rule="evenodd" clip-rule="evenodd" d="M40.3572 89.7129C40.8048 89.7129 41.234 89.8907 41.5505 90.2072C41.8669 90.5236 42.0447 90.9528 42.0447 91.4004C42.0447 97.3691 46.5135 105.344 55.9072 105.344C56.354 105.344 56.7824 105.522 57.0983 105.837C57.4141 106.153 57.5916 106.582 57.5916 107.029C57.5916 107.475 57.4141 107.904 57.0983 108.22C56.7824 108.535 56.354 108.713 55.9072 108.713C44.0947 108.713 38.6729 98.6191 38.6729 91.4004C38.6729 90.9528 38.8506 90.5236 39.1671 90.2072C39.4836 89.8907 39.9097 89.7129 40.3572 89.7129Z" fill="url(#paint34_radial_1342_2972)"/>
<path fill-rule="evenodd" clip-rule="evenodd" d="M40.3572 89.7129C40.8048 89.7129 41.234 89.8907 41.5505 90.2072C41.8669 90.5236 42.0447 90.9528 42.0447 91.4004C42.0447 97.3691 46.5135 105.344 55.9072 105.344C56.354 105.344 56.7824 105.522 57.0983 105.837C57.4141 106.153 57.5916 106.582 57.5916 107.029C57.5916 107.475 57.4141 107.904 57.0983 108.22C56.7824 108.535 56.354 108.713 55.9072 108.713C44.0947 108.713 38.6729 98.6191 38.6729 91.4004C38.6729 90.9528 38.8506 90.5236 39.1671 90.2072C39.4836 89.8907 39.9097 89.7129 40.3572 89.7129Z" fill="url(#paint35_radial_1342_2972)"/>
<path fill-rule="evenodd" clip-rule="evenodd" d="M103.444 61.6778C103.223 61.679 103.003 61.6367 102.799 61.5532C102.594 61.4697 102.407 61.3466 102.25 61.1911C102.093 61.0355 101.968 60.8505 101.882 60.6467C101.796 60.4428 101.751 60.224 101.75 60.0028C101.731 57.1903 100.569 53.4309 98.0971 50.4059C95.6689 47.4309 92.0033 45.1934 86.8752 45.2247C86.4459 45.2014 86.0417 45.0153 85.745 44.7042C85.4484 44.3931 85.2816 43.9805 85.2788 43.5506C85.2761 43.1207 85.4374 42.706 85.73 42.391C86.0226 42.0761 86.4244 41.8847 86.8533 41.8559C93.1096 41.8153 97.7064 44.6028 100.706 48.2747C103.663 51.8934 105.094 56.3997 105.119 59.9809C105.121 60.2024 105.079 60.422 104.995 60.6272C104.912 60.8324 104.789 61.0191 104.633 61.1767C104.478 61.3343 104.293 61.4597 104.089 61.5457C103.884 61.6317 103.665 61.6766 103.444 61.6778Z" fill="url(#paint36_radial_1342_2972)"/>
<path fill-rule="evenodd" clip-rule="evenodd" d="M103.444 61.6778C103.223 61.679 103.003 61.6367 102.799 61.5532C102.594 61.4697 102.407 61.3466 102.25 61.1911C102.093 61.0355 101.968 60.8505 101.882 60.6467C101.796 60.4428 101.751 60.224 101.75 60.0028C101.731 57.1903 100.569 53.4309 98.0971 50.4059C95.6689 47.4309 92.0033 45.1934 86.8752 45.2247C86.4459 45.2014 86.0417 45.0153 85.745 44.7042C85.4484 44.3931 85.2816 43.9805 85.2788 43.5506C85.2761 43.1207 85.4374 42.706 85.73 42.391C86.0226 42.0761 86.4244 41.8847 86.8533 41.8559C93.1096 41.8153 97.7064 44.6028 100.706 48.2747C103.663 51.8934 105.094 56.3997 105.119 59.9809C105.121 60.2024 105.079 60.422 104.995 60.6272C104.912 60.8324 104.789 61.0191 104.633 61.1767C104.478 61.3343 104.293 61.4597 104.089 61.5457C103.884 61.6317 103.665 61.6766 103.444 61.6778Z" fill="url(#paint37_radial_1342_2972)"/>
<path fill-rule="evenodd" clip-rule="evenodd" d="M108.645 55.6387C108.424 55.64 108.205 55.5976 108 55.5141C107.795 55.4306 107.609 55.3076 107.451 55.152C107.294 54.9965 107.169 54.8115 107.083 54.6076C106.997 54.4037 106.953 54.1849 106.951 53.9637C106.911 47.995 102.389 40.045 92.9952 40.1075C92.5484 40.1104 92.1188 39.9357 91.8009 39.6219C91.483 39.308 91.3027 38.8808 91.2998 38.434C91.2969 37.9873 91.4716 37.5577 91.7854 37.2398C92.0993 36.9219 92.5266 36.7416 92.9733 36.7387C104.786 36.6606 110.27 46.7231 110.317 53.9419C110.319 54.1631 110.277 54.3824 110.194 54.5874C110.11 54.7924 109.988 54.979 109.833 55.1366C109.677 55.2941 109.493 55.4196 109.289 55.5057C109.085 55.5919 108.866 55.6371 108.645 55.6387Z" fill="url(#paint38_radial_1342_2972)"/>
<path fill-rule="evenodd" clip-rule="evenodd" d="M108.645 55.6387C108.424 55.64 108.205 55.5976 108 55.5141C107.795 55.4306 107.609 55.3076 107.451 55.152C107.294 54.9965 107.169 54.8115 107.083 54.6076C106.997 54.4037 106.953 54.1849 106.951 53.9637C106.911 47.995 102.389 40.045 92.9952 40.1075C92.5484 40.1104 92.1188 39.9357 91.8009 39.6219C91.483 39.308 91.3027 38.8808 91.2998 38.434C91.2969 37.9873 91.4716 37.5577 91.7854 37.2398C92.0993 36.9219 92.5266 36.7416 92.9733 36.7387C104.786 36.6606 110.27 46.7231 110.317 53.9419C110.319 54.1631 110.277 54.3824 110.194 54.5874C110.11 54.7924 109.988 54.979 109.833 55.1366C109.677 55.2941 109.493 55.4196 109.289 55.5057C109.085 55.5919 108.866 55.6371 108.645 55.6387Z" fill="url(#paint39_radial_1342_2972)"/>
<defs>
<radialGradient id="paint0_radial_1342_2972" cx="0" cy="0" r="1" gradientUnits="userSpaceOnUse" gradientTransform="translate(92.9161 74.1254) rotate(60.1006) scale(65.7875 42.9781)">
<stop offset="0.003" stop-color="#FFC133"/>
<stop offset="0.698" stop-color="#FFC53F"/>
<stop offset="0.797" stop-color="#FFAD3E"/>
<stop offset="0.945" stop-color="#EC7D58"/>
</radialGradient>
<radialGradient id="paint1_radial_1342_2972" cx="0" cy="0" r="1" gradientUnits="userSpaceOnUse" gradientTransform="translate(125.711 88.5785) rotate(-93.012) scale(39.0316 14.9528)">
<stop offset="0.003" stop-color="#FFE849"/>
<stop offset="1" stop-color="#FFE647" stop-opacity="0"/>
</radialGradient>
<radialGradient id="paint2_radial_1342_2972" cx="0" cy="0" r="1" gradientUnits="userSpaceOnUse" gradientTransform="translate(121.024 60.6473) rotate(99.682) scale(20.9032 8.00797)">
<stop offset="0.003" stop-color="#FFE849"/>
<stop offset="1" stop-color="#FFE647" stop-opacity="0"/>
</radialGradient>
<radialGradient id="paint3_radial_1342_2972" cx="0" cy="0" r="1" gradientUnits="userSpaceOnUse" gradientTransform="translate(108.271 73.2345) scale(8.45459 34.2866)">
<stop stop-color="#EE9F2C"/>
<stop offset="1" stop-color="#EE9F2C" stop-opacity="0"/>
</radialGradient>
<radialGradient id="paint4_radial_1342_2972" cx="0" cy="0" r="1" gradientUnits="userSpaceOnUse" gradientTransform="translate(111.983 86.5282) rotate(-94.0856) scale(14.2304 9.88409)">
<stop stop-color="#FFC93D"/>
<stop offset="1" stop-color="#FFC33A" stop-opacity="0"/>
</radialGradient>
<radialGradient id="paint5_radial_1342_2972" cx="0" cy="0" r="1" gradientUnits="userSpaceOnUse" gradientTransform="translate(104.033 64.9254) rotate(151.024) scale(14.9584 30.0484)">
<stop offset="0.563" stop-color="#F09D2E" stop-opacity="0"/>
<stop offset="1" stop-color="#F09D2E"/>
</radialGradient>
<linearGradient id="paint6_linear_1342_2972" x1="96.3924" y1="80.2504" x2="96.3924" y2="72.1723" gradientUnits="userSpaceOnUse">
<stop stop-color="#FFC337"/>
<stop offset="1" stop-color="#FFC337" stop-opacity="0"/>
</linearGradient>
<radialGradient id="paint7_radial_1342_2972" cx="0" cy="0" r="1" gradientUnits="userSpaceOnUse" gradientTransform="translate(100.908 53.0316) rotate(-13.4957) scale(10.0429 22.2086)">
<stop stop-color="#FFEC4C"/>
<stop offset="1" stop-color="#FFEC4C" stop-opacity="0"/>
</radialGradient>
<radialGradient id="paint8_radial_1342_2972" cx="0" cy="0" r="1" gradientUnits="userSpaceOnUse" gradientTransform="translate(84.5112 49.6004) rotate(33.3063) scale(9.80452 7.60152)">
<stop stop-color="#D99F2B"/>
<stop offset="1" stop-color="#D99F2B" stop-opacity="0"/>
</radialGradient>
<linearGradient id="paint9_linear_1342_2972" x1="86.0643" y1="69.341" x2="90.9455" y2="66.9973" gradientUnits="userSpaceOnUse">
<stop stop-color="#A85300"/>
<stop offset="0.825" stop-color="#A85300" stop-opacity="0"/>
</linearGradient>
<radialGradient id="paint10_radial_1342_2972" cx="0" cy="0" r="1" gradientUnits="userSpaceOnUse" gradientTransform="translate(89.9347 69.5467) rotate(149.148) scale(14.4192 30.0901)">
<stop offset="0.563" stop-color="#F09D2E" stop-opacity="0"/>
<stop offset="1" stop-color="#F09D2E"/>
</radialGradient>
<linearGradient id="paint11_linear_1342_2972" x1="82.7066" y1="85.1873" x2="82.7066" y2="76.9436" gradientUnits="userSpaceOnUse">
<stop stop-color="#FFC337"/>
<stop offset="1" stop-color="#FFC337" stop-opacity="0"/>
</linearGradient>
<radialGradient id="paint12_radial_1342_2972" cx="0" cy="0" r="1" gradientUnits="userSpaceOnUse" gradientTransform="translate(88.2722 60.3561) rotate(-33.8929) scale(9.5692 29.1335)">
<stop stop-color="#FFEC4C"/>
<stop offset="1" stop-color="#FFEC4C" stop-opacity="0"/>
</radialGradient>
<radialGradient id="paint13_radial_1342_2972" cx="0" cy="0" r="1" gradientUnits="userSpaceOnUse" gradientTransform="translate(80.9847 72.1717) rotate(-24.9048) scale(12.0589 55.0622)">
<stop offset="0.598" stop-color="#F09D2E" stop-opacity="0"/>
<stop offset="1" stop-color="#F09D2E"/>
</radialGradient>
<radialGradient id="paint14_radial_1342_2972" cx="0" cy="0" r="1" gradientUnits="userSpaceOnUse" gradientTransform="translate(70.0472 53.9092) rotate(32.6006) scale(9.9691 7.94552)">
<stop stop-color="#D99F2B"/>
<stop offset="1" stop-color="#D99F2B" stop-opacity="0"/>
</radialGradient>
<linearGradient id="paint15_linear_1342_2972" x1="74.441" y1="74.1248" x2="77.691" y2="71.8529" gradientUnits="userSpaceOnUse">
<stop stop-color="#A85300"/>
<stop offset="0.825" stop-color="#A85300" stop-opacity="0"/>
</linearGradient>
<radialGradient id="paint16_radial_1342_2972" cx="0" cy="0" r="1" gradientUnits="userSpaceOnUse" gradientTransform="translate(81.5678 82.0476) rotate(137.351) scale(11.9455 23.3917)">
<stop offset="0.563" stop-color="#F09D2E" stop-opacity="0"/>
<stop offset="1" stop-color="#F09D2E"/>
</radialGradient>
<linearGradient id="paint17_linear_1342_2972" x1="74.7147" y1="95.1695" x2="74.7147" y2="88.2539" gradientUnits="userSpaceOnUse">
<stop stop-color="#FFC337"/>
<stop offset="1" stop-color="#FFC337" stop-opacity="0"/>
</linearGradient>
<radialGradient id="paint18_radial_1342_2972" cx="0" cy="0" r="1" gradientUnits="userSpaceOnUse" gradientTransform="translate(78.6397 71.7976) rotate(-12.2959) scale(9.09795 19.272)">
<stop stop-color="#FFEC4C"/>
<stop offset="1" stop-color="#FFEC4C" stop-opacity="0"/>
</radialGradient>
<radialGradient id="paint19_radial_1342_2972" cx="0" cy="0" r="1" gradientUnits="userSpaceOnUse" gradientTransform="translate(73.0835 84.2507) rotate(-40.217) scale(12.655 64.6966)">
<stop offset="0.598" stop-color="#F09D2E" stop-opacity="0"/>
<stop offset="1" stop-color="#F09D2E"/>
</radialGradient>
<radialGradient id="paint20_radial_1342_2972" cx="0" cy="0" r="1" gradientUnits="userSpaceOnUse" gradientTransform="translate(62.7085 68.9257) rotate(29.5035) scale(9.15203 6.88807)">
<stop stop-color="#D99F2B"/>
<stop offset="1" stop-color="#D99F2B" stop-opacity="0"/>
</radialGradient>
<radialGradient id="paint21_radial_1342_2972" cx="0" cy="0" r="1" gradientUnits="userSpaceOnUse" gradientTransform="translate(67.5085 86.9195) rotate(-45.7639) scale(5.17947 23.3859)">
<stop stop-color="#A85300"/>
<stop offset="0.825" stop-color="#A85300" stop-opacity="0"/>
</radialGradient>
<radialGradient id="paint22_radial_1342_2972" cx="0" cy="0" r="1" gradientUnits="userSpaceOnUse" gradientTransform="translate(78.9112 95.636) rotate(143.369) scale(11.7438 22.0967)">
<stop offset="0.563" stop-color="#F09D2E" stop-opacity="0"/>
<stop offset="1" stop-color="#F09D2E"/>
</radialGradient>
<radialGradient id="paint23_radial_1342_2972" cx="0" cy="0" r="1" gradientUnits="userSpaceOnUse" gradientTransform="translate(75.7675 86.7579) rotate(-9.97762) scale(9.68143 16.819)">
<stop stop-color="#FFEC4C"/>
<stop offset="1" stop-color="#FFEC4C" stop-opacity="0"/>
</radialGradient>
<radialGradient id="paint24_radial_1342_2972" cx="0" cy="0" r="1" gradientUnits="userSpaceOnUse" gradientTransform="translate(69.8057 97.5419) rotate(-34.314) scale(12.5495 60.5878)">
<stop offset="0.598" stop-color="#F09D2E" stop-opacity="0"/>
<stop offset="1" stop-color="#F09D2E"/>
</radialGradient>
<radialGradient id="paint25_radial_1342_2972" cx="0" cy="0" r="1" gradientUnits="userSpaceOnUse" gradientTransform="translate(58.6769 84.2766) rotate(24.5479) scale(9.39282 6.23286)">
<stop stop-color="#D99F2B"/>
<stop offset="1" stop-color="#D99F2B" stop-opacity="0"/>
</radialGradient>
<linearGradient id="paint26_linear_1342_2972" x1="79.4237" y1="117.095" x2="71.5581" y2="101.008" gradientUnits="userSpaceOnUse">
<stop stop-color="#FFC337"/>
<stop offset="1" stop-color="#FFC337" stop-opacity="0"/>
</linearGradient>
<radialGradient id="paint27_radial_1342_2972" cx="0" cy="0" r="1" gradientUnits="userSpaceOnUse" gradientTransform="translate(107.549 70.0254) rotate(129.014) scale(54.2959 87.8081)">
<stop offset="0.872" stop-color="#F6814F" stop-opacity="0"/>
<stop offset="1" stop-color="#F7814F"/>
</radialGradient>
<radialGradient id="paint28_radial_1342_2972" cx="0" cy="0" r="1" gradientUnits="userSpaceOnUse" gradientTransform="translate(96.2206 70.6098) rotate(76.293) scale(57.6978 63.3072)">
<stop offset="0.853" stop-color="#F6814F" stop-opacity="0"/>
<stop offset="1" stop-color="#F7814F"/>
</radialGradient>
<radialGradient id="paint29_radial_1342_2972" cx="0" cy="0" r="1" gradientUnits="userSpaceOnUse" gradientTransform="translate(109.305 55.9629) rotate(64.44) scale(9.95902 8.87833)">
<stop stop-color="#D99F2B"/>
<stop offset="1" stop-color="#D99F2B" stop-opacity="0"/>
</radialGradient>
<radialGradient id="paint30_radial_1342_2972" cx="0" cy="0" r="1" gradientUnits="userSpaceOnUse" gradientTransform="translate(109.159 75.0016) rotate(149.254) scale(3.7925 11.7354)">
<stop offset="0.201" stop-color="#B4813D"/>
<stop offset="1" stop-color="#B4813D" stop-opacity="0"/>
</radialGradient>
<radialGradient id="paint31_radial_1342_2972" cx="0" cy="0" r="1" gradientUnits="userSpaceOnUse" gradientTransform="translate(47.9975 84.6113) rotate(62.071) scale(16.6005 24.6193)">
<stop stop-color="#419FFD"/>
<stop offset="1" stop-color="#4B6DCB"/>
</radialGradient>
<radialGradient id="paint32_radial_1342_2972" cx="0" cy="0" r="1" gradientUnits="userSpaceOnUse" gradientTransform="translate(43.3006 85.8457) rotate(2.38594) scale(2.34578 4.93672)">
<stop stop-color="#5486C7"/>
<stop offset="1" stop-color="#5486C7" stop-opacity="0"/>
</radialGradient>
<radialGradient id="paint33_radial_1342_2972" cx="0" cy="0" r="1" gradientUnits="userSpaceOnUse" gradientTransform="translate(60.8819 99.2238) rotate(111.801) scale(2.36654 6.96085)">
<stop stop-color="#5486C7"/>
<stop offset="1" stop-color="#5486C7" stop-opacity="0"/>
</radialGradient>
<radialGradient id="paint34_radial_1342_2972" cx="0" cy="0" r="1" gradientUnits="userSpaceOnUse" gradientTransform="translate(49.2134 93.2644) rotate(94.712) scale(13.1303 22.0773)">
<stop stop-color="#419FFD"/>
<stop offset="1" stop-color="#4B6DCB"/>
</radialGradient>
<radialGradient id="paint35_radial_1342_2972" cx="0" cy="0" r="1" gradientUnits="userSpaceOnUse" gradientTransform="translate(38.0885 91.7535) rotate(2.38521) scale(2.23763 4.70683)">
<stop stop-color="#5486C7"/>
<stop offset="1" stop-color="#5486C7" stop-opacity="0"/>
</radialGradient>
<radialGradient id="paint36_radial_1342_2972" cx="0" cy="0" r="1" gradientUnits="userSpaceOnUse" gradientTransform="translate(90.5439 38.2215) rotate(60.196) scale(13.9475 20.6847)">
<stop stop-color="#419FFD"/>
<stop offset="1" stop-color="#4B6DCB"/>
</radialGradient>
<radialGradient id="paint37_radial_1342_2972" cx="0" cy="0" r="1" gradientUnits="userSpaceOnUse" gradientTransform="translate(84.8002 43.2715) rotate(18.8622) scale(2.0066 3.22971)">
<stop stop-color="#4D8AC1"/>
<stop offset="1" stop-color="#4D8AC1" stop-opacity="0"/>
</radialGradient>
<radialGradient id="paint38_radial_1342_2972" cx="0" cy="0" r="1" gradientUnits="userSpaceOnUse" gradientTransform="translate(96.417 33.2731) rotate(60.69) scale(17.3269 25.7033)">
<stop stop-color="#419FFD"/>
<stop offset="1" stop-color="#4B6DCB"/>
</radialGradient>
<radialGradient id="paint39_radial_1342_2972" cx="0" cy="0" r="1" gradientUnits="userSpaceOnUse" gradientTransform="translate(90.9389 38.09) rotate(18.853) scale(1.91397 3.07947)">
<stop stop-color="#4D8AC1"/>
<stop offset="1" stop-color="#4D8AC1" stop-opacity="0"/>
</radialGradient>
</defs>
</svg>
