<svg width="112" height="141" viewBox="0 0 112 141" fill="none" xmlns="http://www.w3.org/2000/svg">
<path id="Vector 1412" d="M73.5948 67.1824L74.5414 69.4962L73.5948 67.1824ZM3.03568 48.6601L5.49534 48.2128L3.03568 48.6601ZM103.582 25.7112L101.339 26.8141L103.582 25.7112ZM44.9663 139.893C45.9426 140.87 47.5256 140.87 48.5019 139.893L64.4118 123.983C65.3881 123.007 65.3881 121.424 64.4118 120.448C63.4355 119.472 61.8525 119.472 60.8762 120.448L46.7341 134.59L32.592 120.448C31.6157 119.472 30.0327 119.472 29.0564 120.448C28.0801 121.424 28.0801 123.007 29.0564 123.983L44.9663 139.893ZM49.263 136.075C49.3021 134.695 48.2151 133.544 46.8349 133.505C45.4547 133.466 44.3041 134.553 44.265 135.933L49.263 136.075ZM45.0237 127.376C44.8152 128.741 45.7526 130.016 47.1174 130.225C48.4823 130.433 49.7578 129.496 49.9663 128.131L45.0237 127.376ZM50.7025 124.211C51.0043 122.864 50.1567 121.527 48.8094 121.225C47.4621 120.923 46.1252 121.771 45.8234 123.118L50.7025 124.211ZM48.3207 114.837C47.8254 116.126 48.4686 117.572 49.7574 118.067C51.0462 118.563 52.4926 117.92 52.9879 116.631L48.3207 114.837ZM54.5448 112.994C55.1354 111.746 54.6026 110.256 53.3546 109.665C52.1066 109.074 50.6161 109.607 50.0254 110.855L54.5448 112.994ZM54.2967 103.319C53.5316 104.469 53.8431 106.021 54.9925 106.786C56.1418 107.551 57.6938 107.239 58.4589 106.09L54.2967 103.319ZM60.7788 102.847C61.6185 101.751 61.4108 100.182 60.3148 99.3423C59.2188 98.5025 57.6495 98.7103 56.8098 99.8063L60.7788 102.847ZM62.4267 93.3118C61.4676 94.305 61.4952 95.8877 62.4884 96.8468C63.4816 97.8059 65.0643 97.7782 66.0234 96.785L62.4267 93.3118ZM68.896 93.9485C69.9 93.0007 69.9456 91.4184 68.9978 90.4144C68.05 89.4104 66.4677 89.3648 65.4637 90.3126L68.896 93.9485ZM71.8411 84.7257C70.7739 85.6018 70.6191 87.1771 71.4952 88.2442C72.3714 89.3114 73.9467 89.4662 75.0138 88.5901L71.8411 84.7257ZM78.2117 86.028C79.2983 85.1761 79.4886 83.6047 78.6367 82.5181C77.7849 81.4315 76.2134 81.2412 75.1268 82.0931L78.2117 86.028ZM81.7682 77.0206C80.6653 77.8512 80.4446 79.4187 81.2753 80.5216C82.1059 81.6245 83.6734 81.8452 84.7763 81.0145L81.7682 77.0206ZM88.1003 78.5036C89.1994 77.668 89.413 76.0996 88.5774 75.0004C87.7417 73.9013 86.1733 73.6877 85.0742 74.5234L88.1003 78.5036ZM91.5109 69.4476C90.4497 70.3309 90.3056 71.9072 91.1889 72.9684C92.0722 74.0296 93.6486 74.1738 94.7097 73.2904L91.5109 69.4476ZM97.9289 70.496C98.95 69.5666 99.0243 67.9855 98.0949 66.9644C97.1656 65.9433 95.5844 65.8689 94.5633 66.7983L97.9289 70.496ZM100.047 61.0919C99.1761 62.1635 99.339 63.738 100.411 64.6087C101.482 65.4793 103.057 65.3164 103.927 64.2448L100.047 61.0919ZM106.533 60.6542C107.276 59.4908 106.936 57.9449 105.772 57.2014C104.609 56.4578 103.063 56.7981 102.32 57.9615L106.533 60.6542ZM105.43 51.1111C105.062 52.4417 105.842 53.8191 107.172 54.1875C108.503 54.5559 109.88 53.7759 110.249 52.4452L105.43 51.1111ZM111.102 47.9729C111.251 46.6003 110.259 45.367 108.886 45.2184C107.513 45.0697 106.28 46.062 106.131 47.4347L111.102 47.9729ZM105.834 39.8393C106.068 41.2 107.361 42.1134 108.722 41.8793C110.082 41.6453 110.996 40.3524 110.762 38.9917L105.834 39.8393ZM109.781 34.6971C109.407 33.3682 108.025 32.5949 106.697 32.9697C105.368 33.3446 104.594 34.7257 104.969 36.0546L109.781 34.6971ZM102.224 28.6843C102.796 29.9412 104.278 30.4967 105.535 29.9251C106.792 29.3535 107.347 27.8713 106.776 26.6144L102.224 28.6843ZM104.819 22.6791C104.151 21.4709 102.63 21.0332 101.422 21.7015C100.213 22.3698 99.7757 23.891 100.444 25.0992L104.819 22.6791ZM96.1286 18.8681C97.0279 19.9157 98.6063 20.0359 99.6539 19.1366C100.702 18.2372 100.822 16.6589 99.9224 15.6112L96.1286 18.8681ZM96.9392 12.4886C95.9336 11.5425 94.3515 11.5907 93.4053 12.5962C92.4592 13.6018 92.5074 15.184 93.5129 16.1301L96.9392 12.4886ZM87.4774 11.5464C88.6572 12.2638 90.1951 11.8889 90.9124 10.7091C91.6297 9.52937 91.2548 7.99149 90.0751 7.27417L87.4774 11.5464ZM86.2938 5.22348C85.0496 4.62483 83.5557 5.14813 82.957 6.39231C82.3584 7.63648 82.8817 9.13039 84.1259 9.72905L86.2938 5.22348ZM76.9462 7.04525C78.2763 7.41564 79.6548 6.63763 80.0252 5.30752C80.3956 3.97742 79.6176 2.5989 78.2874 2.22851L76.9462 7.04525ZM74.1482 1.25182C72.793 0.987204 71.48 1.87123 71.2154 3.22635C70.9508 4.58147 71.8348 5.89452 73.1899 6.15913L74.1482 1.25182ZM65.4893 5.22425C66.8681 5.29661 68.0445 4.23752 68.1169 2.85871C68.1892 1.47989 67.1302 0.303485 65.7513 0.231126L65.4893 5.22425ZM61.5371 0.144549C60.1564 0.159315 59.0492 1.29051 59.0639 2.67114C59.0787 4.05178 60.2099 5.15903 61.5905 5.14426L61.5371 0.144549ZM53.7856 5.68905C55.1553 5.51465 56.1242 4.26295 55.9498 2.89329C55.7754 1.52364 54.5237 0.554694 53.1541 0.729094L53.7856 5.68905ZM49.0087 1.37238C47.6506 1.62088 46.751 2.92334 46.9995 4.28151C47.248 5.63967 48.5505 6.53923 49.9086 6.29073L49.0087 1.37238ZM42.2695 8.10887C43.5942 7.71962 44.3525 6.33018 43.9633 5.00547C43.574 3.68077 42.1846 2.92243 40.8599 3.31168L42.2695 8.10887ZM36.8749 4.59575C35.5722 5.05319 34.8869 6.48009 35.3444 7.78283C35.8018 9.08556 37.2287 9.7708 38.5315 9.31336L36.8749 4.59575ZM31.2742 12.3004C32.5209 11.7071 33.0505 10.2154 32.4572 8.96868C31.8638 7.72197 30.3721 7.19234 29.1254 7.78571L31.2742 12.3004ZM25.3842 9.69626C24.1729 10.3589 23.728 11.878 24.3906 13.0893C25.0533 14.3006 26.5724 14.7455 27.7837 14.0829L25.3842 9.69626ZM21.1739 18.2352C22.2941 17.428 22.5478 15.8655 21.7405 14.7454C20.9333 13.6252 19.3709 13.3715 18.2507 14.1788L21.1739 18.2352ZM14.9031 16.7717C13.8424 17.6556 13.699 19.232 14.5829 20.2927C15.4668 21.3534 17.0432 21.4967 18.1039 20.6128L14.9031 16.7717ZM12.6043 25.9916C13.5043 24.9444 13.385 23.366 12.3378 22.4661C11.2907 21.5662 9.7123 21.6855 8.81236 22.7326L12.6043 25.9916ZM6.16967 26.1316C5.3791 27.2636 5.65587 28.8221 6.78784 29.6127C7.91982 30.4033 9.47834 30.1265 10.2689 28.9945L6.16967 26.1316ZM6.73311 35.5828C7.22455 34.2925 6.57696 32.8481 5.28666 32.3567C3.99637 31.8652 2.55199 32.5128 2.06055 33.8031L6.73311 35.5828ZM0.788539 38.0386C0.490659 39.3868 1.34211 40.7212 2.6903 41.019C4.0385 41.3169 5.37291 40.4655 5.67079 39.1173L0.788539 38.0386ZM5.23696 46.3851C5.09827 45.0114 3.87222 44.0102 2.49849 44.1488C1.12477 44.2875 0.12356 45.5136 0.262241 46.8873L5.23696 46.3851ZM1.02517 51.2021C1.35778 52.5421 2.71375 53.3588 4.0538 53.0262C5.39384 52.6936 6.21053 51.3376 5.87791 49.9976L1.02517 51.2021ZM8.544 56.5945C7.84035 55.4066 6.3069 55.014 5.11894 55.7176C3.93099 56.4213 3.53839 57.9548 4.24204 59.1427L8.544 56.5945ZM6.73152 62.6777C7.61294 63.7404 9.18901 63.8875 10.2518 63.006C11.3145 62.1246 11.4616 60.5486 10.5801 59.4858L6.73152 62.6777ZM15.8946 64.2178C14.7444 63.454 13.1928 63.7672 12.429 64.9174C11.6651 66.0676 11.9784 67.6193 13.1286 68.3831L15.8946 64.2178ZM16.8035 70.5045C18.0385 71.1219 19.5402 70.6213 20.1576 69.3864C20.775 68.1514 20.2744 66.6497 19.0395 66.0323L16.8035 70.5045ZM25.9399 68.634C24.6086 68.2679 23.2326 69.0503 22.8664 70.3816C22.5003 71.7129 23.2827 73.0889 24.614 73.455L25.9399 68.634ZM28.6345 74.3917C29.9901 74.6541 31.3017 73.768 31.5641 72.4124C31.8265 71.0569 30.9403 69.7453 29.5848 69.4829L28.6345 74.3917ZM37.0822 70.4285C35.7044 70.3384 34.5145 71.3822 34.4244 72.76C34.3343 74.1378 35.3781 75.3277 36.7559 75.4178L37.0822 70.4285ZM40.824 75.5744C42.2046 75.5917 43.3378 74.4866 43.3551 73.106C43.3724 71.7254 42.2672 70.5921 40.8866 70.5748L40.824 75.5744ZM48.523 70.3073C47.1468 70.418 46.1208 71.6234 46.2316 72.9997C46.3423 74.376 47.5478 75.4019 48.924 75.2911L48.523 70.3073ZM52.9484 74.8804C54.3187 74.7112 55.2924 73.4631 55.1231 72.0928C54.9539 70.7225 53.7058 69.7489 52.3355 69.9181L52.9484 74.8804ZM59.8973 68.6625C58.5459 68.9455 57.6798 70.2704 57.9628 71.6218C58.2458 72.9732 59.5707 73.8393 60.9221 73.5564L59.8973 68.6625ZM64.8664 72.6407C66.2041 72.2987 67.0112 70.937 66.6692 69.5993C66.3272 68.2616 64.9656 67.4545 63.6279 67.7965L64.8664 72.6407ZM70.8955 65.5507C69.6009 66.0304 68.9402 67.4689 69.4199 68.7636C69.8997 70.0583 71.3381 70.7189 72.6328 70.2392L70.8955 65.5507ZM76.4229 68.6416C77.6579 68.0241 78.1584 66.5224 77.541 65.2875C76.9235 64.0525 75.4218 63.552 74.1869 64.1694L76.4229 68.6416ZM79.8819 60.3151C78.8356 61.216 78.7177 62.7945 79.6186 63.8408C80.5196 64.8871 82.0981 65.0049 83.1444 64.104L79.8819 60.3151ZM86.0397 61.3551C86.9962 60.3595 86.9646 58.7769 85.9689 57.8203C84.9732 56.8637 83.3906 56.8954 82.4341 57.8911L86.0397 61.3551ZM86.9663 52.3715C86.1666 53.497 86.4306 55.0577 87.5561 55.8575C88.6816 56.6573 90.2423 56.3932 91.0421 55.2677L86.9663 52.3715ZM93.2067 52.0186C93.9388 50.8479 93.5832 49.3055 92.4125 48.5734C91.2418 47.8414 89.6994 48.197 88.9673 49.3676L93.2067 52.0186ZM92.4982 43.0174C91.8857 44.2548 92.3924 45.7544 93.6298 46.3669C94.8673 46.9794 96.3669 46.4727 96.9794 45.2353L92.4982 43.0174ZM98.6181 41.733C99.1764 40.4701 98.6051 38.9939 97.3423 38.4357C96.0795 37.8775 94.6032 38.4487 94.045 39.7115L98.6181 41.733ZM96.7276 32.9068C96.2727 34.2104 96.9607 35.636 98.2643 36.0909C99.5679 36.5458 100.993 35.8578 101.448 34.5542L96.7276 32.9068ZM102.647 30.8907C103.05 29.5702 102.307 28.1728 100.986 27.7695C99.6655 27.3662 98.2681 28.1097 97.8648 29.4302L102.647 30.8907ZM99.7108 22.36C99.4199 23.7097 100.278 25.0397 101.628 25.3307C102.978 25.6216 104.308 24.7633 104.599 23.4136L99.7108 22.36ZM105.325 19.5994C105.549 18.2369 104.626 16.951 103.263 16.7271C101.901 16.5033 100.615 17.4263 100.391 18.7888L105.325 19.5994ZM101.098 11.6736C101.072 13.054 102.169 14.1947 103.549 14.2214C104.93 14.2481 106.071 13.1507 106.097 11.7702L101.098 11.6736ZM49.2341 138.126C49.2341 137.433 49.2438 136.75 49.263 136.075L44.265 135.933C44.2445 136.656 44.2341 137.386 44.2341 138.126H49.2341ZM49.9663 128.131C50.1717 126.787 50.418 125.481 50.7025 124.211L45.8234 123.118C45.5137 124.501 45.2462 125.919 45.0237 127.376L49.9663 128.131ZM52.9879 116.631C53.4679 115.382 53.9881 114.17 54.5448 112.994L50.0254 110.855C49.416 112.143 48.8464 113.469 48.3207 114.837L52.9879 116.631ZM58.4589 106.09C59.1993 104.978 59.974 103.898 60.7788 102.847L56.8098 99.8063C55.9408 100.94 55.1014 102.11 54.2967 103.319L58.4589 106.09ZM66.0234 96.785C66.9593 95.8159 67.9182 94.8715 68.896 93.9485L65.4637 90.3126C64.4348 91.284 63.4206 92.2825 62.4267 93.3118L66.0234 96.785ZM75.0138 88.5901C76.072 87.7213 77.1394 86.8686 78.2117 86.028L75.1268 82.0931C74.0308 82.9523 72.9335 83.8288 71.8411 84.7257L75.0138 88.5901ZM84.7763 81.0145C85.8918 80.1743 87.0038 79.3373 88.1003 78.5036L85.0742 74.5234C83.9885 75.3488 82.8864 76.1784 81.7682 77.0206L84.7763 81.0145ZM94.7097 73.2904C95.8138 72.3714 96.8901 71.4415 97.9289 70.496L94.5633 66.7983C93.5884 67.6857 92.569 68.5668 91.5109 69.4476L94.7097 73.2904ZM103.927 64.2448C104.867 63.0886 105.74 61.8942 106.533 60.6542L102.32 57.9615C101.64 59.0251 100.88 60.0663 100.047 61.0919L103.927 64.2448ZM110.249 52.4452C110.647 51.0075 110.935 49.5186 111.102 47.9729L106.131 47.4347C105.993 48.7098 105.756 49.9325 105.43 51.1111L110.249 52.4452ZM110.762 38.9917C110.522 37.598 110.196 36.1675 109.781 34.6971L104.969 36.0546C105.34 37.3675 105.626 38.6278 105.834 39.8393L110.762 38.9917ZM106.776 26.6144C106.475 25.9536 106.159 25.2849 105.826 24.6082L101.339 26.8141C101.65 27.4473 101.945 28.0706 102.224 28.6843L106.776 26.6144ZM105.826 24.6082C105.503 23.9511 105.167 23.3081 104.819 22.6791L100.444 25.0992C100.753 25.6572 101.051 26.2287 101.339 26.8141L105.826 24.6082ZM99.9224 15.6112C98.9741 14.5067 97.9783 13.4663 96.9392 12.4886L93.5129 16.1301C94.4237 16.9871 95.2967 17.8991 96.1286 18.8681L99.9224 15.6112ZM90.0751 7.27417C88.8476 6.52789 87.5856 5.84506 86.2938 5.22348L84.1259 9.72905C85.2749 10.2819 86.3933 10.8873 87.4774 11.5464L90.0751 7.27417ZM78.2874 2.22851C76.9258 1.84935 75.5446 1.5245 74.1482 1.25182L73.1899 6.15913C74.462 6.40753 75.7153 6.70249 76.9462 7.04525L78.2874 2.22851ZM65.7513 0.231126C64.3527 0.157725 62.9467 0.129474 61.5371 0.144549L61.5905 5.14426C62.8979 5.13028 64.1986 5.15652 65.4893 5.22425L65.7513 0.231126ZM53.1541 0.729094C51.7683 0.905542 50.3854 1.1205 49.0087 1.37238L49.9086 6.29073C51.1976 6.05489 52.4911 5.85388 53.7856 5.68905L53.1541 0.729094ZM40.8599 3.31168C39.5178 3.70603 38.1883 4.13454 36.8749 4.59575L38.5315 9.31336C39.7633 8.88081 41.0104 8.47883 42.2695 8.10887L40.8599 3.31168ZM29.1254 7.78571C27.8532 8.39119 26.6049 9.02854 25.3842 9.69626L27.7837 14.0829C28.9206 13.461 30.0853 12.8663 31.2742 12.3004L29.1254 7.78571ZM18.2507 14.1788C17.0941 15.0123 15.9766 15.8771 14.9031 16.7717L18.1039 20.6128C19.0841 19.796 20.1088 19.0028 21.1739 18.2352L18.2507 14.1788ZM8.81236 22.7326C7.86601 23.8337 6.98273 24.9674 6.16967 26.1316L10.2689 28.9945C10.9813 27.9745 11.7612 26.9726 12.6043 25.9916L8.81236 22.7326ZM2.06055 33.8031C1.5338 35.1862 1.10657 36.5992 0.788539 38.0386L5.67079 39.1173C5.93393 37.9263 6.28958 36.7473 6.73311 35.5828L2.06055 33.8031ZM0.262241 46.8873C0.336705 47.6249 0.441046 48.3651 0.576008 49.1073L5.49534 48.2128C5.38393 47.6001 5.2981 46.9908 5.23696 46.3851L0.262241 46.8873ZM0.576008 49.1073C0.705759 49.8209 0.855638 50.5191 1.02517 51.2021L5.87791 49.9976C5.73434 49.4191 5.60655 48.8244 5.49534 48.2128L0.576008 49.1073ZM4.24204 59.1427C4.98852 60.403 5.82138 61.5803 6.73152 62.6777L10.5801 59.4858C9.83554 58.588 9.15473 57.6256 8.544 56.5945L4.24204 59.1427ZM13.1286 68.3831C14.3031 69.163 15.5314 69.8685 16.8035 70.5045L19.0395 66.0323C17.9385 65.4819 16.8884 64.8778 15.8946 64.2178L13.1286 68.3831ZM24.614 73.455C25.9314 73.8174 27.2739 74.1283 28.6345 74.3917L29.5848 69.4829C28.3423 69.2423 27.1255 68.9601 25.9399 68.634L24.614 73.455ZM36.7559 75.4178C38.107 75.5062 39.4649 75.5574 40.824 75.5744L40.8866 70.5748C39.6113 70.5588 38.3413 70.5108 37.0822 70.4285L36.7559 75.4178ZM48.924 75.2911C50.2761 75.1824 51.6195 75.0445 52.9484 74.8804L52.3355 69.9181C51.0753 70.0737 49.8026 70.2043 48.523 70.3073L48.924 75.2911ZM60.9221 73.5564C62.268 73.2745 63.5851 72.9682 64.8664 72.6407L63.6279 67.7965C62.4184 68.1057 61.1726 68.3955 59.8973 68.6625L60.9221 73.5564ZM72.6328 70.2392C73.2868 69.9969 73.9235 69.749 74.5414 69.4962L72.6482 64.8685C72.0842 65.0992 71.4995 65.3269 70.8955 65.5507L72.6328 70.2392ZM74.5414 69.4962C75.1786 69.2356 75.8058 68.9501 76.4229 68.6416L74.1869 64.1694C73.6786 64.4235 73.1657 64.6568 72.6482 64.8685L74.5414 69.4962ZM83.1444 64.104C84.1431 63.244 85.1083 62.3246 86.0397 61.3551L82.4341 57.8911C81.6037 58.7554 80.7526 59.5653 79.8819 60.3151L83.1444 64.104ZM91.0421 55.2677C91.7911 54.2137 92.5127 53.1285 93.2067 52.0186L88.9673 49.3676C88.3224 50.399 87.6551 51.4022 86.9663 52.3715L91.0421 55.2677ZM96.9794 45.2353C97.5516 44.079 98.098 42.9097 98.6181 41.733L94.045 39.7115C93.553 40.8245 93.0373 41.9282 92.4982 43.0174L96.9794 45.2353ZM101.448 34.5542C101.876 33.3277 102.276 32.1045 102.647 30.8907L97.8648 29.4302C97.5131 30.5816 97.1339 31.7426 96.7276 32.9068L101.448 34.5542ZM104.599 23.4136C104.879 22.1124 105.122 20.8379 105.325 19.5994L100.391 18.7888C100.202 19.9422 99.9748 21.1355 99.7108 22.36L104.599 23.4136ZM106.097 11.7702C106.111 11.0769 106.105 10.4045 106.08 9.75662L101.084 9.94881C101.105 10.4917 101.11 11.0673 101.098 11.6736L106.097 11.7702Z" fill="#FFD164"/>
</svg>
