<svg width="102" height="101" viewBox="0 0 102 101" fill="none" xmlns="http://www.w3.org/2000/svg">
<mask id="mask0_1178_10878" style="mask-type:luminance" maskUnits="userSpaceOnUse" x="0" y="0" width="102" height="101">
<path d="M0.559082 0H101.207V100.648H0.559082V0Z" fill="white"/>
</mask>
<g mask="url(#mask0_1178_10878)">
<path d="M33.8419 43.1465C37.6162 41.7563 41.2867 45.4268 39.8965 49.2042L31.6654 71.5796C31.4832 72.0754 31.1792 72.5173 30.7813 72.8646C30.3834 73.2118 29.9044 73.4533 29.3886 73.5668C28.8728 73.6802 28.3367 73.662 27.8298 73.5137C27.323 73.3654 26.8616 73.0918 26.4882 72.7182L10.3279 56.5579C9.95504 56.1845 9.68211 55.7233 9.53424 55.2168C9.38637 54.7103 9.3683 54.1747 9.4817 53.6594C9.5951 53.1441 9.83633 52.6655 10.1832 52.2679C10.53 51.8703 10.9713 51.5663 11.4665 51.3839L33.8419 43.1433V43.1465Z" fill="url(#paint0_linear_1178_10878)"/>
<path d="M33.8419 43.1465C37.6162 41.7563 41.2867 45.4268 39.8965 49.2042L31.6654 71.5796C31.4832 72.0754 31.1792 72.5173 30.7813 72.8646C30.3834 73.2118 29.9044 73.4533 29.3886 73.5668C28.8728 73.6802 28.3367 73.662 27.8298 73.5137C27.323 73.3654 26.8616 73.0918 26.4882 72.7182L10.3279 56.5579C9.95504 56.1845 9.68211 55.7233 9.53424 55.2168C9.38637 54.7103 9.3683 54.1747 9.4817 53.6594C9.5951 53.1441 9.83633 52.6655 10.1832 52.2679C10.53 51.8703 10.9713 51.5663 11.4665 51.3839L33.8419 43.1433V43.1465Z" fill="url(#paint1_radial_1178_10878)"/>
<path d="M33.8419 43.1465C37.6162 41.7563 41.2867 45.4268 39.8965 49.2042L31.6654 71.5796C31.4832 72.0754 31.1792 72.5173 30.7813 72.8646C30.3834 73.2118 29.9044 73.4533 29.3886 73.5668C28.8728 73.6802 28.3367 73.662 27.8298 73.5137C27.323 73.3654 26.8616 73.0918 26.4882 72.7182L10.3279 56.5579C9.95504 56.1845 9.68211 55.7233 9.53424 55.2168C9.38637 54.7103 9.3683 54.1747 9.4817 53.6594C9.5951 53.1441 9.83633 52.6655 10.1832 52.2679C10.53 51.8703 10.9713 51.5663 11.4665 51.3839L33.8419 43.1433V43.1465Z" fill="url(#paint2_linear_1178_10878)"/>
<path d="M52.7105 62.0176C56.488 60.6274 60.1585 64.2979 58.7683 68.0753L50.5309 90.4507C50.3485 90.9459 50.0445 91.3872 49.6469 91.734C49.2492 92.0809 48.7707 92.3221 48.2554 92.4355C47.74 92.5489 47.2045 92.5308 46.698 92.383C46.1914 92.2351 45.7303 91.9622 45.3569 91.5893L29.1965 75.429C28.8237 75.0556 28.5508 74.5944 28.4029 74.0879C28.255 73.5814 28.237 73.0458 28.3504 72.5305C28.4638 72.0152 28.705 71.5366 29.0518 71.139C29.3987 70.7414 29.84 70.4374 30.3351 70.255L52.7105 62.0144V62.0176Z" fill="url(#paint3_linear_1178_10878)"/>
<path d="M52.7105 62.0176C56.488 60.6274 60.1585 64.2979 58.7683 68.0753L50.5309 90.4507C50.3485 90.9459 50.0445 91.3872 49.6469 91.734C49.2492 92.0809 48.7707 92.3221 48.2554 92.4355C47.74 92.5489 47.2045 92.5308 46.698 92.383C46.1914 92.2351 45.7303 91.9622 45.3569 91.5893L29.1965 75.429C28.8237 75.0556 28.5508 74.5944 28.4029 74.0879C28.255 73.5814 28.237 73.0458 28.3504 72.5305C28.4638 72.0152 28.705 71.5366 29.0518 71.139C29.3987 70.7414 29.84 70.4374 30.3351 70.255L52.7105 62.0144V62.0176Z" fill="url(#paint4_radial_1178_10878)"/>
<path d="M52.7105 62.0176C56.488 60.6274 60.1585 64.2979 58.7683 68.0753L50.5309 90.4507C50.3485 90.9459 50.0445 91.3872 49.6469 91.734C49.2492 92.0809 48.7707 92.3221 48.2554 92.4355C47.74 92.5489 47.2045 92.5308 46.698 92.383C46.1914 92.2351 45.7303 91.9622 45.3569 91.5893L29.1965 75.429C28.8237 75.0556 28.5508 74.5944 28.4029 74.0879C28.255 73.5814 28.237 73.0458 28.3504 72.5305C28.4638 72.0152 28.705 71.5366 29.0518 71.139C29.3987 70.7414 29.84 70.4374 30.3351 70.255L52.7105 62.0144V62.0176Z" fill="url(#paint5_radial_1178_10878)"/>
<g filter="url(#filter0_i_1178_10878)">
<path d="M71.0128 11.1641C71.0989 11.13 71.1931 11.1219 71.2837 11.1409C71.3743 11.1599 71.4573 11.2052 71.5223 11.271L90.0322 29.9224C90.0975 29.9879 90.1422 30.071 90.1606 30.1616C90.1791 30.2522 90.1705 30.3462 90.136 30.432C85.7012 41.3146 79.5899 52.8892 71.4091 61.0731C63.439 69.0432 49.9584 75.8338 37.7863 80.8285L20.5156 63.5547C25.5103 51.3826 32.3009 37.9051 40.271 29.935C48.4802 21.7259 60.0988 15.6021 71.0097 11.1672L71.0128 11.1641Z" fill="url(#paint6_linear_1178_10878)"/>
<path d="M71.0128 11.1641C71.0989 11.13 71.1931 11.1219 71.2837 11.1409C71.3743 11.1599 71.4573 11.2052 71.5223 11.271L90.0322 29.9224C90.0975 29.9879 90.1422 30.071 90.1606 30.1616C90.1791 30.2522 90.1705 30.3462 90.136 30.432C85.7012 41.3146 79.5899 52.8892 71.4091 61.0731C63.439 69.0432 49.9584 75.8338 37.7863 80.8285L20.5156 63.5547C25.5103 51.3826 32.3009 37.9051 40.271 29.935C48.4802 21.7259 60.0988 15.6021 71.0097 11.1672L71.0128 11.1641Z" fill="url(#paint7_radial_1178_10878)"/>
<path d="M71.0128 11.1641C71.0989 11.13 71.1931 11.1219 71.2837 11.1409C71.3743 11.1599 71.4573 11.2052 71.5223 11.271L90.0322 29.9224C90.0975 29.9879 90.1422 30.071 90.1606 30.1616C90.1791 30.2522 90.1705 30.3462 90.136 30.432C85.7012 41.3146 79.5899 52.8892 71.4091 61.0731C63.439 69.0432 49.9584 75.8338 37.7863 80.8285L20.5156 63.5547C25.5103 51.3826 32.3009 37.9051 40.271 29.935C48.4802 21.7259 60.0988 15.6021 71.0097 11.1672L71.0128 11.1641Z" fill="url(#paint8_radial_1178_10878)"/>
<path d="M71.0128 11.1641C71.0989 11.13 71.1931 11.1219 71.2837 11.1409C71.3743 11.1599 71.4573 11.2052 71.5223 11.271L90.0322 29.9224C90.0975 29.9879 90.1422 30.071 90.1606 30.1616C90.1791 30.2522 90.1705 30.3462 90.136 30.432C85.7012 41.3146 79.5899 52.8892 71.4091 61.0731C63.439 69.0432 49.9584 75.8338 37.7863 80.8285L20.5156 63.5547C25.5103 51.3826 32.3009 37.9051 40.271 29.935C48.4802 21.7259 60.0988 15.6021 71.0097 11.1672L71.0128 11.1641Z" fill="url(#paint9_radial_1178_10878)"/>
<path d="M71.0128 11.1641C71.0989 11.13 71.1931 11.1219 71.2837 11.1409C71.3743 11.1599 71.4573 11.2052 71.5223 11.271L90.0322 29.9224C90.0975 29.9879 90.1422 30.071 90.1606 30.1616C90.1791 30.2522 90.1705 30.3462 90.136 30.432C85.7012 41.3146 79.5899 52.8892 71.4091 61.0731C63.439 69.0432 49.9584 75.8338 37.7863 80.8285L20.5156 63.5547C25.5103 51.3826 32.3009 37.9051 40.271 29.935C48.4802 21.7259 60.0988 15.6021 71.0097 11.1672L71.0128 11.1641Z" fill="url(#paint10_radial_1178_10878)"/>
</g>
<g filter="url(#filter1_dii_1178_10878)">
<path d="M77.618 34.792C77.6422 36.195 77.3868 37.5887 76.8666 38.8919C76.3465 40.1951 75.572 41.3816 74.5884 42.3824C73.6048 43.3831 72.4318 44.1779 71.1378 44.7204C69.8438 45.263 68.4546 45.5424 67.0515 45.5424C65.6483 45.5424 64.2592 45.263 62.9652 44.7204C61.6712 44.1779 60.4981 43.3831 59.5145 42.3824C58.5309 41.3816 57.7565 40.1951 57.2363 38.8919C56.7162 37.5887 56.4608 36.195 56.485 34.792C56.5328 32.0212 57.6671 29.38 59.6435 27.4374C61.6199 25.4948 64.2802 24.4062 67.0515 24.4062C69.8227 24.4062 72.4831 25.4948 74.4595 27.4374C76.4359 29.38 77.5702 32.0212 77.618 34.792Z" fill="url(#paint11_linear_1178_10878)"/>
<path d="M77.618 34.792C77.6422 36.195 77.3868 37.5887 76.8666 38.8919C76.3465 40.1951 75.572 41.3816 74.5884 42.3824C73.6048 43.3831 72.4318 44.1779 71.1378 44.7204C69.8438 45.263 68.4546 45.5424 67.0515 45.5424C65.6483 45.5424 64.2592 45.263 62.9652 44.7204C61.6712 44.1779 60.4981 43.3831 59.5145 42.3824C58.5309 41.3816 57.7565 40.1951 57.2363 38.8919C56.7162 37.5887 56.4608 36.195 56.485 34.792C56.5328 32.0212 57.6671 29.38 59.6435 27.4374C61.6199 25.4948 64.2802 24.4062 67.0515 24.4062C69.8227 24.4062 72.4831 25.4948 74.4595 27.4374C76.4359 29.38 77.5702 32.0212 77.618 34.792Z" fill="url(#paint12_radial_1178_10878)"/>
</g>
<path d="M74.3655 34.7911C74.3857 35.7644 74.2115 36.732 73.8529 37.6371C73.4944 38.5421 72.9589 39.3666 72.2777 40.062C71.5965 40.7575 70.7834 41.31 69.8859 41.6872C68.9884 42.0644 68.0247 42.2587 67.0512 42.2587C66.0777 42.2587 65.114 42.0644 64.2166 41.6872C63.3191 41.31 62.506 40.7575 61.8248 40.062C61.1436 39.3666 60.608 38.5421 60.2495 37.6371C59.891 36.732 59.7167 35.7644 59.7369 34.7911C59.7766 32.8775 60.5647 31.0557 61.932 29.7164C63.2994 28.3771 65.1372 27.627 67.0512 27.627C68.9653 27.627 70.8031 28.3771 72.1704 29.7164C73.5378 31.0557 74.3259 32.8775 74.3655 34.7911Z" fill="url(#paint13_radial_1178_10878)"/>
<g filter="url(#filter2_i_1178_10878)">
<path d="M8.18 92.891C5.9563 90.6673 6.84955 75.243 14.7127 72.0977C14.7127 72.0977 22.5759 68.9524 27.6429 73.9849C32.7099 79.0173 30.439 84.6788 30.439 84.6788C28.2153 91.3499 18.7481 94.0013 17.6347 92.8879C17.0213 92.2746 18.1253 91.158 17.6347 90.6673C17.144 90.1735 16.3828 90.7365 14.3007 91.7776C12.8161 92.5199 9.07011 93.7812 8.18 92.891Z" fill="url(#paint14_radial_1178_10878)"/>
<path d="M8.18 92.891C5.9563 90.6673 6.84955 75.243 14.7127 72.0977C14.7127 72.0977 22.5759 68.9524 27.6429 73.9849C32.7099 79.0173 30.439 84.6788 30.439 84.6788C28.2153 91.3499 18.7481 94.0013 17.6347 92.8879C17.0213 92.2746 18.1253 91.158 17.6347 90.6673C17.144 90.1735 16.3828 90.7365 14.3007 91.7776C12.8161 92.5199 9.07011 93.7812 8.18 92.891Z" fill="url(#paint15_radial_1178_10878)"/>
</g>
<path d="M19.619 65.9923C20.0571 65.5539 20.5774 65.2061 21.15 64.9688C21.7226 64.7315 22.3363 64.6094 22.9561 64.6094C23.5759 64.6094 24.1897 64.7315 24.7623 64.9688C25.3349 65.2061 25.8551 65.5539 26.2932 65.9923L37.4117 77.1139C38.2562 78.0063 38.7192 79.1928 38.7024 80.4212C38.6856 81.6497 38.1903 82.8231 37.3218 83.692C36.4533 84.5609 35.2801 85.0568 34.0517 85.0742C32.8233 85.0915 31.6365 84.629 30.7438 83.785L19.619 72.6665C19.1806 72.2284 18.8328 71.7082 18.5955 71.1356C18.3582 70.563 18.2361 69.9492 18.2361 69.3294C18.2361 68.7096 18.3582 68.0958 18.5955 67.5232C18.8328 66.9506 19.1806 66.4304 19.619 65.9923Z" fill="url(#paint16_linear_1178_10878)"/>
<path d="M19.619 65.9923C20.0571 65.5539 20.5774 65.2061 21.15 64.9688C21.7226 64.7315 22.3363 64.6094 22.9561 64.6094C23.5759 64.6094 24.1897 64.7315 24.7623 64.9688C25.3349 65.2061 25.8551 65.5539 26.2932 65.9923L37.4117 77.1139C38.2562 78.0063 38.7192 79.1928 38.7024 80.4212C38.6856 81.6497 38.1903 82.8231 37.3218 83.692C36.4533 84.5609 35.2801 85.0568 34.0517 85.0742C32.8233 85.0915 31.6365 84.629 30.7438 83.785L19.619 72.6665C19.1806 72.2284 18.8328 71.7082 18.5955 71.1356C18.3582 70.563 18.2361 69.9492 18.2361 69.3294C18.2361 68.7096 18.3582 68.0958 18.5955 67.5232C18.8328 66.9506 19.1806 66.4304 19.619 65.9923Z" fill="url(#paint17_radial_1178_10878)"/>
<path d="M19.619 65.9923C20.0571 65.5539 20.5774 65.2061 21.15 64.9688C21.7226 64.7315 22.3363 64.6094 22.9561 64.6094C23.5759 64.6094 24.1897 64.7315 24.7623 64.9688C25.3349 65.2061 25.8551 65.5539 26.2932 65.9923L37.4117 77.1139C38.2562 78.0063 38.7192 79.1928 38.7024 80.4212C38.6856 81.6497 38.1903 82.8231 37.3218 83.692C36.4533 84.5609 35.2801 85.0568 34.0517 85.0742C32.8233 85.0915 31.6365 84.629 30.7438 83.785L19.619 72.6665C19.1806 72.2284 18.8328 71.7082 18.5955 71.1356C18.3582 70.563 18.2361 69.9492 18.2361 69.3294C18.2361 68.7096 18.3582 68.0958 18.5955 67.5232C18.8328 66.9506 19.1806 66.4304 19.619 65.9923Z" fill="url(#paint18_radial_1178_10878)"/>
<path d="M92.3121 9.02906C89.3335 6.0505 84.1093 6.38704 80.3035 7.69547C77.432 8.67949 74.5857 9.73558 71.7673 10.8628C71.7192 10.882 71.6766 10.9129 71.6433 10.9527C71.61 10.9924 71.587 11.0397 71.5765 11.0904C71.5659 11.1412 71.568 11.1937 71.5826 11.2435C71.5972 11.2932 71.6239 11.3385 71.6603 11.3754L89.9343 29.7721C89.971 29.8078 90.0159 29.8341 90.0651 29.8485C90.1143 29.863 90.1663 29.8652 90.2165 29.8549C90.2667 29.8447 90.3137 29.8223 90.3533 29.7898C90.393 29.7573 90.424 29.7156 90.4438 29.6683C91.5851 26.8201 92.6538 23.9433 93.6488 21.0408C94.9384 17.2854 95.9763 12.6933 92.3121 9.02906Z" fill="url(#paint19_linear_1178_10878)"/>
<path d="M92.3121 9.02906C89.3335 6.0505 84.1093 6.38704 80.3035 7.69547C77.432 8.67949 74.5857 9.73558 71.7673 10.8628C71.7192 10.882 71.6766 10.9129 71.6433 10.9527C71.61 10.9924 71.587 11.0397 71.5765 11.0904C71.5659 11.1412 71.568 11.1937 71.5826 11.2435C71.5972 11.2932 71.6239 11.3385 71.6603 11.3754L89.9343 29.7721C89.971 29.8078 90.0159 29.8341 90.0651 29.8485C90.1143 29.863 90.1663 29.8652 90.2165 29.8549C90.2667 29.8447 90.3137 29.8223 90.3533 29.7898C90.393 29.7573 90.424 29.7156 90.4438 29.6683C91.5851 26.8201 92.6538 23.9433 93.6488 21.0408C94.9384 17.2854 95.9763 12.6933 92.3121 9.02906Z" fill="url(#paint20_radial_1178_10878)"/>
<path d="M92.3121 9.02906C89.3335 6.0505 84.1093 6.38704 80.3035 7.69547C77.432 8.67949 74.5857 9.73558 71.7673 10.8628C71.7192 10.882 71.6766 10.9129 71.6433 10.9527C71.61 10.9924 71.587 11.0397 71.5765 11.0904C71.5659 11.1412 71.568 11.1937 71.5826 11.2435C71.5972 11.2932 71.6239 11.3385 71.6603 11.3754L89.9343 29.7721C89.971 29.8078 90.0159 29.8341 90.0651 29.8485C90.1143 29.863 90.1663 29.8652 90.2165 29.8549C90.2667 29.8447 90.3137 29.8223 90.3533 29.7898C90.393 29.7573 90.424 29.7156 90.4438 29.6683C91.5851 26.8201 92.6538 23.9433 93.6488 21.0408C94.9384 17.2854 95.9763 12.6933 92.3121 9.02906Z" fill="url(#paint21_linear_1178_10878)"/>
<path d="M43.2779 52.582C47.0522 51.1918 50.7227 54.8623 49.3325 58.6398L41.0982 81.0152C40.9161 81.5109 40.612 81.9528 40.2141 82.3001C39.8162 82.6474 39.3373 82.8889 38.8215 83.0023C38.3057 83.1158 37.7696 83.0975 37.2627 82.9492C36.7558 82.8009 36.2944 82.5273 35.9211 82.1538L19.7608 65.9934C19.3879 65.62 19.115 65.1589 18.9671 64.6524C18.8192 64.1458 18.8012 63.6103 18.9146 63.0949C19.028 62.5796 19.2692 62.1011 19.616 61.7035C19.9629 61.3058 20.4042 61.0018 20.8993 60.8195L43.2779 52.5789V52.582Z" fill="url(#paint22_linear_1178_10878)"/>
<path d="M43.2779 52.582C47.0522 51.1918 50.7227 54.8623 49.3325 58.6398L41.0982 81.0152C40.9161 81.5109 40.612 81.9528 40.2141 82.3001C39.8162 82.6474 39.3373 82.8889 38.8215 83.0023C38.3057 83.1158 37.7696 83.0975 37.2627 82.9492C36.7558 82.8009 36.2944 82.5273 35.9211 82.1538L19.7608 65.9934C19.3879 65.62 19.115 65.1589 18.9671 64.6524C18.8192 64.1458 18.8012 63.6103 18.9146 63.0949C19.028 62.5796 19.2692 62.1011 19.616 61.7035C19.9629 61.3058 20.4042 61.0018 20.8993 60.8195L43.2779 52.5789V52.582Z" fill="url(#paint23_radial_1178_10878)"/>
<path d="M43.2779 52.582C47.0522 51.1918 50.7227 54.8623 49.3325 58.6398L41.0982 81.0152C40.9161 81.5109 40.612 81.9528 40.2141 82.3001C39.8162 82.6474 39.3373 82.8889 38.8215 83.0023C38.3057 83.1158 37.7696 83.0975 37.2627 82.9492C36.7558 82.8009 36.2944 82.5273 35.9211 82.1538L19.7608 65.9934C19.3879 65.62 19.115 65.1589 18.9671 64.6524C18.8192 64.1458 18.8012 63.6103 18.9146 63.0949C19.028 62.5796 19.2692 62.1011 19.616 61.7035C19.9629 61.3058 20.4042 61.0018 20.8993 60.8195L43.2779 52.5789V52.582Z" fill="url(#paint24_radial_1178_10878)"/>
<path d="M43.2779 52.582C47.0522 51.1918 50.7227 54.8623 49.3325 58.6398L41.0982 81.0152C40.9161 81.5109 40.612 81.9528 40.2141 82.3001C39.8162 82.6474 39.3373 82.8889 38.8215 83.0023C38.3057 83.1158 37.7696 83.0975 37.2627 82.9492C36.7558 82.8009 36.2944 82.5273 35.9211 82.1538L19.7608 65.9934C19.3879 65.62 19.115 65.1589 18.9671 64.6524C18.8192 64.1458 18.8012 63.6103 18.9146 63.0949C19.028 62.5796 19.2692 62.1011 19.616 61.7035C19.9629 61.3058 20.4042 61.0018 20.8993 60.8195L43.2779 52.5789V52.582Z" fill="url(#paint25_radial_1178_10878)"/>
<g filter="url(#filter3_f_1178_10878)">
<path d="M29.5107 69.3416L47.2028 55.4805L35.8013 75.7297L29.5107 69.3416Z" fill="url(#paint26_linear_1178_10878)"/>
</g>
</g>
<defs>
<filter id="filter0_i_1178_10878" x="20.3433" y="10.7862" width="69.8269" height="70.042" filterUnits="userSpaceOnUse" color-interpolation-filters="sRGB">
<feFlood flood-opacity="0" result="BackgroundImageFix"/>
<feBlend mode="normal" in="SourceGraphic" in2="BackgroundImageFix" result="shape"/>
<feColorMatrix in="SourceAlpha" type="matrix" values="0 0 0 0 0 0 0 0 0 0 0 0 0 0 0 0 0 0 127 0" result="hardAlpha"/>
<feOffset dx="-0.172343" dy="-0.344686"/>
<feGaussianBlur stdDeviation="0.517029"/>
<feComposite in2="hardAlpha" operator="arithmetic" k2="-1" k3="1"/>
<feColorMatrix type="matrix" values="0 0 0 0 0.745098 0 0 0 0 0.772549 0 0 0 0 0.952941 0 0 0 1 0"/>
<feBlend mode="normal" in2="shape" result="effect1_innerShadow_1178_10878"/>
</filter>
<filter id="filter1_dii_1178_10878" x="55.794" y="23.8892" width="22.515" height="22.5155" filterUnits="userSpaceOnUse" color-interpolation-filters="sRGB">
<feFlood flood-opacity="0" result="BackgroundImageFix"/>
<feColorMatrix in="SourceAlpha" type="matrix" values="0 0 0 0 0 0 0 0 0 0 0 0 0 0 0 0 0 0 127 0" result="hardAlpha"/>
<feOffset dy="0.172343"/>
<feGaussianBlur stdDeviation="0.344686"/>
<feComposite in2="hardAlpha" operator="out"/>
<feColorMatrix type="matrix" values="0 0 0 0 0.866667 0 0 0 0 0.764706 0 0 0 0 0.847059 0 0 0 1 0"/>
<feBlend mode="normal" in2="BackgroundImageFix" result="effect1_dropShadow_1178_10878"/>
<feBlend mode="normal" in="SourceGraphic" in2="effect1_dropShadow_1178_10878" result="shape"/>
<feColorMatrix in="SourceAlpha" type="matrix" values="0 0 0 0 0 0 0 0 0 0 0 0 0 0 0 0 0 0 127 0" result="hardAlpha"/>
<feOffset dx="-0.0689373" dy="0.0689373"/>
<feGaussianBlur stdDeviation="0.0344686"/>
<feComposite in2="hardAlpha" operator="arithmetic" k2="-1" k3="1"/>
<feColorMatrix type="matrix" values="0 0 0 0 0.721569 0 0 0 0 0.690196 0 0 0 0 0.701961 0 0 0 1 0"/>
<feBlend mode="normal" in2="shape" result="effect2_innerShadow_1178_10878"/>
<feColorMatrix in="SourceAlpha" type="matrix" values="0 0 0 0 0 0 0 0 0 0 0 0 0 0 0 0 0 0 127 0" result="hardAlpha"/>
<feOffset dx="0.0689373" dy="-0.0689373"/>
<feGaussianBlur stdDeviation="0.0344686"/>
<feComposite in2="hardAlpha" operator="arithmetic" k2="-1" k3="1"/>
<feColorMatrix type="matrix" values="0 0 0 0 0.615686 0 0 0 0 0.560784 0 0 0 0 0.65098 0 0 0 1 0"/>
<feBlend mode="normal" in2="effect2_innerShadow_1178_10878" result="effect3_innerShadow_1178_10878"/>
</filter>
<filter id="filter2_i_1178_10878" x="7.12427" y="70.9891" width="23.822" height="22.2082" filterUnits="userSpaceOnUse" color-interpolation-filters="sRGB">
<feFlood flood-opacity="0" result="BackgroundImageFix"/>
<feBlend mode="normal" in="SourceGraphic" in2="BackgroundImageFix" result="shape"/>
<feColorMatrix in="SourceAlpha" type="matrix" values="0 0 0 0 0 0 0 0 0 0 0 0 0 0 0 0 0 0 127 0" result="hardAlpha"/>
<feOffset dy="-0.137875"/>
<feGaussianBlur stdDeviation="0.137875"/>
<feComposite in2="hardAlpha" operator="arithmetic" k2="-1" k3="1"/>
<feColorMatrix type="matrix" values="0 0 0 0 0.847059 0 0 0 0 0.505882 0 0 0 0 0.360784 0 0 0 1 0"/>
<feBlend mode="normal" in2="shape" result="effect1_innerShadow_1178_10878"/>
</filter>
<filter id="filter3_f_1178_10878" x="28.8214" y="54.7911" width="19.0709" height="21.6287" filterUnits="userSpaceOnUse" color-interpolation-filters="sRGB">
<feFlood flood-opacity="0" result="BackgroundImageFix"/>
<feBlend mode="normal" in="SourceGraphic" in2="BackgroundImageFix" result="shape"/>
<feGaussianBlur stdDeviation="0.344686" result="effect1_foregroundBlur_1178_10878"/>
</filter>
<linearGradient id="paint0_linear_1178_10878" x1="26.0699" y1="54.438" x2="10.3436" y2="51.8463" gradientUnits="userSpaceOnUse">
<stop stop-color="#EE2452"/>
<stop offset="1" stop-color="#F63E7A"/>
</linearGradient>
<radialGradient id="paint1_radial_1178_10878" cx="0" cy="0" r="1" gradientUnits="userSpaceOnUse" gradientTransform="translate(8.10104 53.6674) rotate(-19.9576) scale(25.1674 4.27898)">
<stop offset="0.164" stop-color="#FF8DB0"/>
<stop offset="1" stop-color="#FF8DB0" stop-opacity="0"/>
</radialGradient>
<linearGradient id="paint2_linear_1178_10878" x1="15.9862" y1="62.0652" x2="18.5496" y2="59.5647" gradientUnits="userSpaceOnUse">
<stop offset="0.491" stop-color="#DD467C"/>
<stop offset="1" stop-color="#DD467C" stop-opacity="0"/>
</linearGradient>
<linearGradient id="paint3_linear_1178_10878" x1="56.834" y1="68.1634" x2="37.2767" y2="83.5091" gradientUnits="userSpaceOnUse">
<stop stop-color="#F83267"/>
<stop offset="1" stop-color="#FF3190"/>
</linearGradient>
<radialGradient id="paint4_radial_1178_10878" cx="0" cy="0" r="1" gradientUnits="userSpaceOnUse" gradientTransform="translate(46.4154 69.8324) rotate(86.482) scale(24.0269 20.7149)">
<stop offset="0.757" stop-color="#E76CBE" stop-opacity="0"/>
<stop offset="0.951" stop-color="#E76CBE"/>
</radialGradient>
<radialGradient id="paint5_radial_1178_10878" cx="0" cy="0" r="1" gradientUnits="userSpaceOnUse" gradientTransform="translate(42.8753 82.5121) rotate(-57.346) scale(16.5771 7.2815)">
<stop stop-color="#FF5898"/>
<stop offset="1" stop-color="#FF5898" stop-opacity="0"/>
</radialGradient>
<linearGradient id="paint6_linear_1178_10878" x1="42.9759" y1="27.2741" x2="70.692" y2="55.1883" gradientUnits="userSpaceOnUse">
<stop stop-color="#CCBBC0"/>
<stop offset="1" stop-color="#EAD2EC"/>
</linearGradient>
<radialGradient id="paint7_radial_1178_10878" cx="0" cy="0" r="1" gradientUnits="userSpaceOnUse" gradientTransform="translate(75.9509 67.8637) rotate(-142.447) scale(52.4532 98.5986)">
<stop offset="0.811" stop-color="#E7E5E5" stop-opacity="0"/>
<stop offset="1" stop-color="#E7E5E5"/>
</radialGradient>
<radialGradient id="paint8_radial_1178_10878" cx="0" cy="0" r="1" gradientUnits="userSpaceOnUse" gradientTransform="translate(29.4356 67.024) rotate(-56.929) scale(30.8355 14.4924)">
<stop offset="0.281" stop-color="#B5A3A5"/>
<stop offset="1" stop-color="#B5A3A5" stop-opacity="0"/>
</radialGradient>
<radialGradient id="paint9_radial_1178_10878" cx="0" cy="0" r="1" gradientUnits="userSpaceOnUse" gradientTransform="translate(20.5135 63.1892) rotate(-73.625) scale(27.3361 4.63203)">
<stop offset="0.208" stop-color="#B28F96"/>
<stop offset="1" stop-color="#B28F96" stop-opacity="0"/>
</radialGradient>
<radialGradient id="paint10_radial_1178_10878" cx="0" cy="0" r="1" gradientUnits="userSpaceOnUse" gradientTransform="translate(85.827 22.3612) rotate(137.284) scale(41.4388 12.8663)">
<stop stop-color="#FAECF1"/>
<stop offset="1" stop-color="#FAECF1" stop-opacity="0"/>
</radialGradient>
<linearGradient id="paint11_linear_1178_10878" x1="56.485" y1="32.9961" x2="77.618" y2="34.792" gradientUnits="userSpaceOnUse">
<stop stop-color="#A796A0"/>
<stop offset="1" stop-color="#A5959F"/>
</linearGradient>
<radialGradient id="paint12_radial_1178_10878" cx="0" cy="0" r="1" gradientUnits="userSpaceOnUse" gradientTransform="translate(67.0562 34.792) rotate(90) scale(10.5661)">
<stop offset="0.587" stop-color="#93859B"/>
<stop offset="1" stop-color="#93859B" stop-opacity="0"/>
</radialGradient>
<radialGradient id="paint13_radial_1178_10878" cx="0" cy="0" r="1" gradientUnits="userSpaceOnUse" gradientTransform="translate(67.0497 42.107) rotate(-90) scale(15.2407 14.0161)">
<stop stop-color="#72CDFF"/>
<stop offset="0.738" stop-color="#66ACFF"/>
<stop offset="1" stop-color="#3B57F4"/>
</radialGradient>
<radialGradient id="paint14_radial_1178_10878" cx="0" cy="0" r="1" gradientUnits="userSpaceOnUse" gradientTransform="translate(26.3219 76.2652) rotate(135) scale(18.2628 14.355)">
<stop stop-color="#D46213"/>
<stop offset="1" stop-color="#FF9542"/>
</radialGradient>
<radialGradient id="paint15_radial_1178_10878" cx="0" cy="0" r="1" gradientUnits="userSpaceOnUse" gradientTransform="translate(26.6773 91.1203) rotate(-131.186) scale(22.5658 23.7806)">
<stop offset="0.871" stop-color="#FFC484" stop-opacity="0"/>
<stop offset="1" stop-color="#FFC484"/>
</radialGradient>
<linearGradient id="paint16_linear_1178_10878" x1="18.7949" y1="69.0463" x2="36.0939" y2="86.0496" gradientUnits="userSpaceOnUse">
<stop stop-color="#452860"/>
<stop offset="1" stop-color="#51509F"/>
</linearGradient>
<radialGradient id="paint17_radial_1178_10878" cx="0" cy="0" r="1" gradientUnits="userSpaceOnUse" gradientTransform="translate(22.0408 67.4737) rotate(77.8285) scale(5.12803 4.53075)">
<stop stop-color="#8E839A"/>
<stop offset="1" stop-color="#8E839A" stop-opacity="0"/>
</radialGradient>
<radialGradient id="paint18_radial_1178_10878" cx="0" cy="0" r="1" gradientUnits="userSpaceOnUse" gradientTransform="translate(23.2266 70.5089) rotate(47.9357) scale(19.5393 10.2421)">
<stop offset="0.86" stop-color="#6175B9" stop-opacity="0"/>
<stop offset="1" stop-color="#6175B9"/>
</radialGradient>
<linearGradient id="paint19_linear_1178_10878" x1="92.3278" y1="9.04479" x2="80.7659" y2="20.6068" gradientUnits="userSpaceOnUse">
<stop stop-color="#FF3745"/>
<stop offset="1" stop-color="#ED224B"/>
</linearGradient>
<radialGradient id="paint20_radial_1178_10878" cx="0" cy="0" r="1" gradientUnits="userSpaceOnUse" gradientTransform="translate(90.9501 13.6744) rotate(135) scale(25.9383 6.22668)">
<stop offset="0.189" stop-color="#FF5971"/>
<stop offset="1" stop-color="#FF5971" stop-opacity="0"/>
</radialGradient>
<linearGradient id="paint21_linear_1178_10878" x1="81.7755" y1="21.3774" x2="82.9298" y2="20.1727" gradientUnits="userSpaceOnUse">
<stop stop-color="#D2575E"/>
<stop offset="1" stop-color="#F93251" stop-opacity="0"/>
</linearGradient>
<linearGradient id="paint22_linear_1178_10878" x1="48.2411" y1="53.6734" x2="27.8409" y2="74.0736" gradientUnits="userSpaceOnUse">
<stop stop-color="#FF2644"/>
<stop offset="1" stop-color="#FF2982"/>
</linearGradient>
<radialGradient id="paint23_radial_1178_10878" cx="0" cy="0" r="1" gradientUnits="userSpaceOnUse" gradientTransform="translate(20.1728 61.0868) rotate(-20.865) scale(23.4568 6.14079)">
<stop stop-color="#FF95AF"/>
<stop offset="1" stop-color="#FF95AF" stop-opacity="0"/>
</radialGradient>
<radialGradient id="paint24_radial_1178_10878" cx="0" cy="0" r="1" gradientUnits="userSpaceOnUse" gradientTransform="translate(17.537 63.8735) rotate(44.7044) scale(14.5003 4.28326)">
<stop offset="0.382" stop-color="#E14678"/>
<stop offset="1" stop-color="#E14678" stop-opacity="0"/>
</radialGradient>
<radialGradient id="paint25_radial_1178_10878" cx="0" cy="0" r="1" gradientUnits="userSpaceOnUse" gradientTransform="translate(36.9811 60.1998) rotate(84.6743) scale(23.2969 24.8262)">
<stop offset="0.832" stop-color="#E67BC7" stop-opacity="0"/>
<stop offset="1" stop-color="#E67BC7"/>
</radialGradient>
<linearGradient id="paint26_linear_1178_10878" x1="44.5482" y1="56.9556" x2="31.574" y2="70.5211" gradientUnits="userSpaceOnUse">
<stop stop-color="#FF5970"/>
<stop offset="1" stop-color="#FF5794"/>
</linearGradient>
</defs>
</svg>
